%TF.GenerationSoftware,KiCad,Pcbnew,(5.1.12)-1*%
%TF.CreationDate,2022-08-08T01:18:10+09:00*%
%TF.ProjectId,STAC,53544143-2e6b-4696-9361-645f70636258,rev?*%
%TF.SameCoordinates,Original*%
%TF.FileFunction,Copper,L2,Bot*%
%TF.FilePolarity,Positive*%
%FSLAX46Y46*%
G04 Gerber Fmt 4.6, Leading zero omitted, Abs format (unit mm)*
G04 Created by KiCad (PCBNEW (5.1.12)-1) date 2022-08-08 01:18:10*
%MOMM*%
%LPD*%
G01*
G04 APERTURE LIST*
%TA.AperFunction,ComponentPad*%
%ADD10C,2.500000*%
%TD*%
%TA.AperFunction,ComponentPad*%
%ADD11C,3.000000*%
%TD*%
%TA.AperFunction,ViaPad*%
%ADD12C,0.500000*%
%TD*%
%TA.AperFunction,ViaPad*%
%ADD13C,1.000000*%
%TD*%
%TA.AperFunction,ViaPad*%
%ADD14C,0.800000*%
%TD*%
%TA.AperFunction,Conductor*%
%ADD15C,1.000000*%
%TD*%
%TA.AperFunction,Conductor*%
%ADD16C,0.500000*%
%TD*%
%TA.AperFunction,Conductor*%
%ADD17C,0.250000*%
%TD*%
%TA.AperFunction,Conductor*%
%ADD18C,0.128000*%
%TD*%
%TA.AperFunction,Conductor*%
%ADD19C,0.100000*%
%TD*%
G04 APERTURE END LIST*
D10*
%TO.P,K1,2*%
%TO.N,GND*%
X97835000Y-90759000D03*
D11*
%TO.P,K1,3*%
%TO.N,+5V*%
X110035000Y-90759000D03*
%TO.P,K1,4*%
%TO.N,+5VA*%
X110085000Y-78709000D03*
D10*
%TO.P,K1,5*%
%TO.N,+5V*%
X97835000Y-78759000D03*
D11*
%TO.P,K1,1*%
%TO.N,+5VL*%
X95885000Y-84709000D03*
%TD*%
D12*
%TO.N,GND*%
X90678000Y-69342000D03*
X91567000Y-69342000D03*
X92456000Y-69342000D03*
X92456000Y-67564000D03*
X90678000Y-67564000D03*
X91567000Y-67564000D03*
X90678000Y-68453000D03*
X92456000Y-68453000D03*
X91567000Y-68453000D03*
X126873000Y-93980000D03*
X103378000Y-69723000D03*
X88265000Y-54483000D03*
X88773000Y-73279000D03*
D13*
%TO.N,+5VA*%
X86106000Y-72390000D03*
D14*
%TO.N,/EN*%
X91877999Y-60268001D03*
X86106000Y-52197000D03*
%TO.N,+3V3*%
X91186000Y-75057000D03*
X92793375Y-59195000D03*
D13*
%TO.N,+5V*%
X79004000Y-54747000D03*
D14*
%TO.N,Net-(J3-Pad2)*%
X124650000Y-79057000D03*
X125857000Y-81026000D03*
%TO.N,Net-(J3-Pad1)*%
X125730000Y-76962000D03*
X128905000Y-81661000D03*
D12*
%TO.N,Net-(L2-Pad2)*%
X122174000Y-82804000D03*
X122174000Y-86995000D03*
%TO.N,Net-(Q1-Pad1)*%
X115509000Y-89982000D03*
X119380000Y-84074000D03*
%TO.N,Net-(R4-Pad2)*%
X92202000Y-72263000D03*
X90170000Y-63119000D03*
%TO.N,Net-(R5-Pad2)*%
X90932000Y-72263000D03*
X88138000Y-63119000D03*
%TO.N,Net-(R10-Pad1)*%
X117856000Y-84455000D03*
X118999000Y-87757000D03*
D14*
%TO.N,/IO0*%
X121061000Y-49246000D03*
X115125500Y-74231500D03*
D12*
%TO.N,Net-(J6-Pad2)*%
X86995000Y-62738000D03*
X79629000Y-73406000D03*
%TD*%
D15*
%TO.N,+5VA*%
X110085000Y-78709000D02*
X108184999Y-76808999D01*
X93318999Y-76808999D02*
X90524999Y-76808999D01*
X108184999Y-76808999D02*
X93318999Y-76808999D01*
X90524999Y-76808999D02*
X86106000Y-72390000D01*
D16*
%TO.N,/EN*%
X86106000Y-52197000D02*
X86106000Y-55753000D01*
X90621001Y-60268001D02*
X91877999Y-60268001D01*
X86106000Y-55753000D02*
X90621001Y-60268001D01*
%TO.N,+3V3*%
X91948000Y-75057000D02*
X91186000Y-75057000D01*
X97352001Y-60776001D02*
X95758000Y-59182000D01*
X95758000Y-59182000D02*
X92837000Y-59182000D01*
X97352001Y-73462999D02*
X95758000Y-75057000D01*
X97352001Y-60776001D02*
X97352001Y-73462999D01*
X95758000Y-75057000D02*
X91948000Y-75057000D01*
D15*
%TO.N,+5V*%
X110035000Y-90759000D02*
X107068000Y-93726000D01*
X84963000Y-93726000D02*
X74930000Y-83693000D01*
X74930000Y-83693000D02*
X74930000Y-56515000D01*
X74930000Y-56515000D02*
X76708000Y-54737000D01*
X76708000Y-54737000D02*
X78994000Y-54737000D01*
X97835000Y-78759000D02*
X102235000Y-83159000D01*
X102235000Y-90170000D02*
X98679000Y-93726000D01*
X102235000Y-83159000D02*
X102235000Y-90170000D01*
X98679000Y-93726000D02*
X84963000Y-93726000D01*
X107068000Y-93726000D02*
X98679000Y-93726000D01*
D16*
%TO.N,Net-(J3-Pad2)*%
X124650000Y-79057000D02*
X124650000Y-79819000D01*
X124650000Y-79819000D02*
X125857000Y-81026000D01*
%TO.N,Net-(J3-Pad1)*%
X125730000Y-76962000D02*
X126619000Y-76962000D01*
X126619000Y-76962000D02*
X128905000Y-79248000D01*
X128905000Y-79248000D02*
X128905000Y-81661000D01*
%TO.N,Net-(L2-Pad2)*%
X122174000Y-86995000D02*
X122174000Y-82804000D01*
%TO.N,Net-(Q1-Pad1)*%
X115509000Y-84897000D02*
X115509000Y-89982000D01*
X116840000Y-83566000D02*
X115509000Y-84897000D01*
X118872000Y-83566000D02*
X116840000Y-83566000D01*
X119380000Y-84074000D02*
X118872000Y-83566000D01*
%TO.N,Net-(R4-Pad2)*%
X92202000Y-72263000D02*
X91501990Y-71562990D01*
X89342990Y-71562990D02*
X88838010Y-71058010D01*
X91501990Y-71562990D02*
X89342990Y-71562990D01*
X88838010Y-64450990D02*
X90170000Y-63119000D01*
X88838010Y-71058010D02*
X88838010Y-64450990D01*
%TO.N,Net-(R5-Pad2)*%
X90932000Y-72263000D02*
X88900000Y-72263000D01*
X88138000Y-71501000D02*
X88138000Y-63119000D01*
X88900000Y-72263000D02*
X88138000Y-71501000D01*
%TO.N,Net-(R10-Pad1)*%
X117856000Y-84455000D02*
X117856000Y-86614000D01*
X117856000Y-86614000D02*
X118999000Y-87757000D01*
%TO.N,/IO0*%
X121061000Y-49246000D02*
X121061000Y-68296000D01*
X121061000Y-68296000D02*
X115125500Y-74231500D01*
X115125500Y-74231500D02*
X115062000Y-74295000D01*
D17*
%TO.N,Net-(J6-Pad2)*%
X86995000Y-67056000D02*
X85852000Y-68199000D01*
X81788000Y-68199000D02*
X79629000Y-70358000D01*
X85852000Y-68199000D02*
X81788000Y-68199000D01*
X86995000Y-62738000D02*
X86995000Y-67056000D01*
X79629000Y-70358000D02*
X79629000Y-73406000D01*
%TD*%
D18*
%TO.N,GND*%
X89591399Y-44419174D02*
X89645643Y-44435552D01*
X89695682Y-44462158D01*
X89739595Y-44497973D01*
X89775713Y-44541633D01*
X89802667Y-44591484D01*
X89819425Y-44645618D01*
X89827000Y-44717688D01*
X89827001Y-55642843D01*
X89828453Y-55657589D01*
X89828426Y-55661522D01*
X89828894Y-55666288D01*
X89841849Y-55789539D01*
X89848097Y-55819976D01*
X89853925Y-55850527D01*
X89855309Y-55855111D01*
X89891956Y-55973499D01*
X89904004Y-56002160D01*
X89915649Y-56030982D01*
X89917897Y-56035211D01*
X89976841Y-56144226D01*
X89994229Y-56170004D01*
X90011247Y-56196012D01*
X90014269Y-56199716D01*
X90014274Y-56199723D01*
X90014280Y-56199729D01*
X90093271Y-56295213D01*
X90115309Y-56317098D01*
X90137080Y-56339330D01*
X90140770Y-56342382D01*
X90236809Y-56420710D01*
X90262694Y-56437908D01*
X90288354Y-56455478D01*
X90292567Y-56457756D01*
X90401990Y-56515938D01*
X90430724Y-56527781D01*
X90459307Y-56540032D01*
X90463878Y-56541446D01*
X90463884Y-56541448D01*
X90582522Y-56577267D01*
X90612983Y-56583299D01*
X90643428Y-56589770D01*
X90648187Y-56590270D01*
X90648191Y-56590270D01*
X90771530Y-56602363D01*
X90771537Y-56602363D01*
X90788157Y-56604000D01*
X117872843Y-56604000D01*
X117887598Y-56602547D01*
X117891522Y-56602574D01*
X117896288Y-56602106D01*
X118019539Y-56589151D01*
X118049976Y-56582903D01*
X118080527Y-56577075D01*
X118085111Y-56575691D01*
X118203499Y-56539044D01*
X118232160Y-56526996D01*
X118260982Y-56515351D01*
X118265211Y-56513103D01*
X118374226Y-56454159D01*
X118400004Y-56436771D01*
X118426012Y-56419753D01*
X118429716Y-56416731D01*
X118429723Y-56416726D01*
X118429729Y-56416720D01*
X118525213Y-56337729D01*
X118547098Y-56315691D01*
X118569330Y-56293920D01*
X118572382Y-56290230D01*
X118650710Y-56194191D01*
X118667908Y-56168306D01*
X118685478Y-56142646D01*
X118687756Y-56138433D01*
X118745938Y-56029010D01*
X118757781Y-56000276D01*
X118770032Y-55971693D01*
X118771447Y-55967118D01*
X118807267Y-55848478D01*
X118813299Y-55818017D01*
X118819770Y-55787572D01*
X118820270Y-55782809D01*
X118832363Y-55659470D01*
X118832363Y-55659463D01*
X118834000Y-55642843D01*
X118834000Y-46880094D01*
X129448000Y-46880094D01*
X129448000Y-47257906D01*
X129521708Y-47628460D01*
X129666291Y-47977514D01*
X129876192Y-48291653D01*
X130143347Y-48558808D01*
X130457486Y-48768709D01*
X130806540Y-48913292D01*
X131177094Y-48987000D01*
X131554906Y-48987000D01*
X131925460Y-48913292D01*
X132274514Y-48768709D01*
X132588653Y-48558808D01*
X132855808Y-48291653D01*
X133065709Y-47977514D01*
X133210292Y-47628460D01*
X133284000Y-47257906D01*
X133284000Y-46880094D01*
X133210292Y-46509540D01*
X133065709Y-46160486D01*
X132855808Y-45846347D01*
X132588653Y-45579192D01*
X132274514Y-45369291D01*
X131925460Y-45224708D01*
X131554906Y-45151000D01*
X131177094Y-45151000D01*
X130806540Y-45224708D01*
X130457486Y-45369291D01*
X130143347Y-45579192D01*
X129876192Y-45846347D01*
X129666291Y-46160486D01*
X129521708Y-46509540D01*
X129448000Y-46880094D01*
X118834000Y-46880094D01*
X118834000Y-44720774D01*
X118841174Y-44647601D01*
X118857552Y-44593357D01*
X118884158Y-44543318D01*
X118919973Y-44499405D01*
X118963633Y-44463287D01*
X119013484Y-44436333D01*
X119067618Y-44419575D01*
X119139688Y-44412000D01*
X131349224Y-44412000D01*
X131881759Y-44464216D01*
X132377881Y-44614004D01*
X132835450Y-44857297D01*
X133237053Y-45184837D01*
X133567389Y-45584144D01*
X133813875Y-46040012D01*
X133967120Y-46535066D01*
X134022990Y-47066627D01*
X134023001Y-47069908D01*
X134023000Y-91598224D01*
X133970784Y-92130759D01*
X133820997Y-92626879D01*
X133577703Y-93084450D01*
X133250163Y-93486053D01*
X132850856Y-93816389D01*
X132394988Y-94062875D01*
X131899936Y-94216120D01*
X131368373Y-94271990D01*
X131365378Y-94272000D01*
X107678826Y-94272000D01*
X109461563Y-92489264D01*
X109504709Y-92507136D01*
X109855943Y-92577000D01*
X110214057Y-92577000D01*
X110565291Y-92507136D01*
X110896146Y-92370091D01*
X111193908Y-92171133D01*
X111447133Y-91917908D01*
X111646091Y-91620146D01*
X111726470Y-91426094D01*
X129448000Y-91426094D01*
X129448000Y-91803906D01*
X129521708Y-92174460D01*
X129666291Y-92523514D01*
X129876192Y-92837653D01*
X130143347Y-93104808D01*
X130457486Y-93314709D01*
X130806540Y-93459292D01*
X131177094Y-93533000D01*
X131554906Y-93533000D01*
X131925460Y-93459292D01*
X132274514Y-93314709D01*
X132588653Y-93104808D01*
X132855808Y-92837653D01*
X133065709Y-92523514D01*
X133210292Y-92174460D01*
X133284000Y-91803906D01*
X133284000Y-91426094D01*
X133210292Y-91055540D01*
X133065709Y-90706486D01*
X132855808Y-90392347D01*
X132588653Y-90125192D01*
X132274514Y-89915291D01*
X131925460Y-89770708D01*
X131554906Y-89697000D01*
X131177094Y-89697000D01*
X130806540Y-89770708D01*
X130457486Y-89915291D01*
X130143347Y-90125192D01*
X129876192Y-90392347D01*
X129666291Y-90706486D01*
X129521708Y-91055540D01*
X129448000Y-91426094D01*
X111726470Y-91426094D01*
X111783136Y-91289291D01*
X111853000Y-90938057D01*
X111853000Y-90579943D01*
X111783136Y-90228709D01*
X111646091Y-89897854D01*
X111447133Y-89600092D01*
X111193908Y-89346867D01*
X110896146Y-89147909D01*
X110565291Y-89010864D01*
X110214057Y-88941000D01*
X109855943Y-88941000D01*
X109504709Y-89010864D01*
X109173854Y-89147909D01*
X108876092Y-89346867D01*
X108622867Y-89600092D01*
X108423909Y-89897854D01*
X108286864Y-90228709D01*
X108217000Y-90579943D01*
X108217000Y-90938057D01*
X108286864Y-91289291D01*
X108304736Y-91332437D01*
X106729174Y-92908000D01*
X100653826Y-92908000D01*
X102785009Y-90776818D01*
X102816211Y-90751211D01*
X102841818Y-90720009D01*
X102841821Y-90720006D01*
X102882937Y-90669905D01*
X102918432Y-90626655D01*
X102994389Y-90484549D01*
X103041163Y-90330356D01*
X103053000Y-90210175D01*
X103053000Y-90210166D01*
X103056956Y-90170001D01*
X103053000Y-90129836D01*
X103053000Y-84897000D01*
X114938252Y-84897000D01*
X114941000Y-84924900D01*
X114941001Y-89926052D01*
X114941000Y-89926057D01*
X114941000Y-90037943D01*
X114946473Y-90065458D01*
X114949220Y-90093347D01*
X114957355Y-90120164D01*
X114962828Y-90147679D01*
X114973564Y-90173597D01*
X114981699Y-90200416D01*
X114994910Y-90225133D01*
X115005645Y-90251049D01*
X115021227Y-90274369D01*
X115034441Y-90299091D01*
X115052226Y-90320762D01*
X115067806Y-90344079D01*
X115087636Y-90363909D01*
X115105421Y-90385580D01*
X115127092Y-90403365D01*
X115146921Y-90423194D01*
X115170237Y-90438773D01*
X115191910Y-90456560D01*
X115216634Y-90469775D01*
X115239951Y-90485355D01*
X115265863Y-90496088D01*
X115290585Y-90509302D01*
X115317409Y-90517439D01*
X115343321Y-90528172D01*
X115370829Y-90533644D01*
X115397654Y-90541781D01*
X115425551Y-90544529D01*
X115453057Y-90550000D01*
X115481100Y-90550000D01*
X115509000Y-90552748D01*
X115536900Y-90550000D01*
X115564943Y-90550000D01*
X115592448Y-90544529D01*
X115620347Y-90541781D01*
X115647174Y-90533643D01*
X115674679Y-90528172D01*
X115700588Y-90517440D01*
X115727416Y-90509302D01*
X115752141Y-90496086D01*
X115778049Y-90485355D01*
X115801362Y-90469778D01*
X115826091Y-90456560D01*
X115847768Y-90438770D01*
X115871079Y-90423194D01*
X115890903Y-90403370D01*
X115912580Y-90385580D01*
X115930370Y-90363903D01*
X115950194Y-90344079D01*
X115965770Y-90320768D01*
X115983560Y-90299091D01*
X115996778Y-90274362D01*
X116012355Y-90251049D01*
X116023086Y-90225141D01*
X116036302Y-90200416D01*
X116044440Y-90173588D01*
X116055172Y-90147679D01*
X116060643Y-90120174D01*
X116068781Y-90093347D01*
X116071529Y-90065448D01*
X116077000Y-90037943D01*
X116077000Y-85132272D01*
X117075273Y-84134000D01*
X117384648Y-84134000D01*
X117381440Y-84137909D01*
X117368223Y-84162637D01*
X117352645Y-84185951D01*
X117341912Y-84211862D01*
X117328698Y-84236585D01*
X117320561Y-84263409D01*
X117309828Y-84289321D01*
X117304356Y-84316829D01*
X117296219Y-84343654D01*
X117293471Y-84371551D01*
X117288000Y-84399057D01*
X117288000Y-84427101D01*
X117288001Y-86586090D01*
X117285252Y-86614000D01*
X117296219Y-86725347D01*
X117328698Y-86832415D01*
X117328699Y-86832416D01*
X117381441Y-86931091D01*
X117452421Y-87017580D01*
X117474097Y-87035369D01*
X118557806Y-88119079D01*
X118636921Y-88198194D01*
X118660238Y-88213774D01*
X118681909Y-88231559D01*
X118706633Y-88244774D01*
X118729951Y-88260355D01*
X118755861Y-88271087D01*
X118780584Y-88284302D01*
X118807412Y-88292440D01*
X118833321Y-88303172D01*
X118860824Y-88308643D01*
X118887652Y-88316781D01*
X118915553Y-88319529D01*
X118943057Y-88325000D01*
X118971099Y-88325000D01*
X118998999Y-88327748D01*
X119026899Y-88325000D01*
X119054943Y-88325000D01*
X119082448Y-88319529D01*
X119110347Y-88316781D01*
X119137173Y-88308643D01*
X119164679Y-88303172D01*
X119190590Y-88292439D01*
X119217415Y-88284302D01*
X119242135Y-88271089D01*
X119268049Y-88260355D01*
X119291371Y-88244771D01*
X119316090Y-88231559D01*
X119337757Y-88213778D01*
X119361079Y-88198194D01*
X119380914Y-88178359D01*
X119402579Y-88160579D01*
X119420359Y-88138914D01*
X119440194Y-88119079D01*
X119455778Y-88095757D01*
X119473559Y-88074090D01*
X119486771Y-88049371D01*
X119502355Y-88026049D01*
X119513089Y-88000135D01*
X119526302Y-87975415D01*
X119534439Y-87948590D01*
X119545172Y-87922679D01*
X119550643Y-87895173D01*
X119558781Y-87868347D01*
X119561529Y-87840448D01*
X119567000Y-87812943D01*
X119567000Y-87784899D01*
X119569748Y-87756999D01*
X119567000Y-87729099D01*
X119567000Y-87701057D01*
X119561529Y-87673553D01*
X119558781Y-87645652D01*
X119550643Y-87618824D01*
X119545172Y-87591321D01*
X119534440Y-87565412D01*
X119526302Y-87538584D01*
X119513087Y-87513861D01*
X119502355Y-87487951D01*
X119486774Y-87464633D01*
X119473559Y-87439909D01*
X119455774Y-87418238D01*
X119440194Y-87394921D01*
X119361079Y-87315806D01*
X118424000Y-86378728D01*
X118424000Y-84399057D01*
X118418529Y-84371552D01*
X118415781Y-84343653D01*
X118407643Y-84316826D01*
X118402172Y-84289321D01*
X118391440Y-84263412D01*
X118383302Y-84236584D01*
X118370086Y-84211859D01*
X118359355Y-84185951D01*
X118343778Y-84162638D01*
X118330560Y-84137909D01*
X118327352Y-84134000D01*
X118636728Y-84134000D01*
X118938806Y-84436079D01*
X119017921Y-84515194D01*
X119041239Y-84530775D01*
X119062908Y-84548558D01*
X119087628Y-84561771D01*
X119110951Y-84577355D01*
X119136868Y-84588090D01*
X119161584Y-84601301D01*
X119188406Y-84609438D01*
X119214321Y-84620172D01*
X119241826Y-84625643D01*
X119268652Y-84633781D01*
X119296551Y-84636529D01*
X119324057Y-84642000D01*
X119352106Y-84642000D01*
X119379999Y-84644747D01*
X119407892Y-84642000D01*
X119435943Y-84642000D01*
X119463451Y-84636528D01*
X119491347Y-84633781D01*
X119518171Y-84625644D01*
X119545679Y-84620172D01*
X119571597Y-84609436D01*
X119598415Y-84601301D01*
X119623127Y-84588092D01*
X119649049Y-84577355D01*
X119672379Y-84561766D01*
X119697090Y-84548558D01*
X119718752Y-84530781D01*
X119742079Y-84515194D01*
X119761915Y-84495358D01*
X119783579Y-84477579D01*
X119801358Y-84455915D01*
X119821194Y-84436079D01*
X119836781Y-84412752D01*
X119854558Y-84391090D01*
X119867766Y-84366379D01*
X119883355Y-84343049D01*
X119894092Y-84317127D01*
X119907301Y-84292415D01*
X119915436Y-84265597D01*
X119926172Y-84239679D01*
X119931644Y-84212171D01*
X119939781Y-84185347D01*
X119942528Y-84157451D01*
X119948000Y-84129943D01*
X119948000Y-84101892D01*
X119950747Y-84073999D01*
X119948000Y-84046106D01*
X119948000Y-84018057D01*
X119942529Y-83990551D01*
X119939781Y-83962652D01*
X119931643Y-83935826D01*
X119926172Y-83908321D01*
X119915438Y-83882406D01*
X119907301Y-83855584D01*
X119894090Y-83830868D01*
X119883355Y-83804951D01*
X119867771Y-83781628D01*
X119854558Y-83756908D01*
X119836775Y-83735239D01*
X119821194Y-83711921D01*
X119742079Y-83632806D01*
X119293374Y-83184102D01*
X119275580Y-83162420D01*
X119189091Y-83091440D01*
X119090416Y-83038698D01*
X118983347Y-83006219D01*
X118906449Y-82998645D01*
X118872000Y-82995252D01*
X118844100Y-82998000D01*
X116867899Y-82998000D01*
X116839999Y-82995252D01*
X116728652Y-83006219D01*
X116621584Y-83038698D01*
X116522909Y-83091440D01*
X116436420Y-83162420D01*
X116418630Y-83184097D01*
X115127102Y-84475626D01*
X115105420Y-84493420D01*
X115034440Y-84579909D01*
X114981699Y-84678584D01*
X114981698Y-84678585D01*
X114949219Y-84785653D01*
X114938252Y-84897000D01*
X103053000Y-84897000D01*
X103053000Y-83199167D01*
X103056956Y-83159000D01*
X103053000Y-83118832D01*
X103053000Y-83118825D01*
X103041163Y-82998644D01*
X103002456Y-82871044D01*
X102994389Y-82844450D01*
X102942866Y-82748057D01*
X121606000Y-82748057D01*
X121606000Y-82859943D01*
X121606001Y-82859948D01*
X121606000Y-86939057D01*
X121606000Y-87050943D01*
X121611471Y-87078449D01*
X121614219Y-87106346D01*
X121622356Y-87133171D01*
X121627828Y-87160679D01*
X121638561Y-87186591D01*
X121646698Y-87213415D01*
X121659912Y-87238138D01*
X121670645Y-87264049D01*
X121686223Y-87287363D01*
X121699440Y-87312091D01*
X121717230Y-87333768D01*
X121732806Y-87357079D01*
X121752630Y-87376903D01*
X121770420Y-87398580D01*
X121792097Y-87416370D01*
X121811921Y-87436194D01*
X121835232Y-87451770D01*
X121856909Y-87469560D01*
X121881638Y-87482778D01*
X121904951Y-87498355D01*
X121930859Y-87509086D01*
X121955584Y-87522302D01*
X121982412Y-87530440D01*
X122008321Y-87541172D01*
X122035826Y-87546643D01*
X122062653Y-87554781D01*
X122090552Y-87557529D01*
X122118057Y-87563000D01*
X122146100Y-87563000D01*
X122174000Y-87565748D01*
X122201900Y-87563000D01*
X122229943Y-87563000D01*
X122257449Y-87557529D01*
X122285346Y-87554781D01*
X122312171Y-87546644D01*
X122339679Y-87541172D01*
X122365591Y-87530439D01*
X122392415Y-87522302D01*
X122417138Y-87509088D01*
X122443049Y-87498355D01*
X122466363Y-87482777D01*
X122491091Y-87469560D01*
X122512768Y-87451770D01*
X122536079Y-87436194D01*
X122555903Y-87416370D01*
X122577580Y-87398580D01*
X122595370Y-87376903D01*
X122615194Y-87357079D01*
X122630770Y-87333768D01*
X122648560Y-87312091D01*
X122661778Y-87287362D01*
X122677355Y-87264049D01*
X122688086Y-87238141D01*
X122701302Y-87213416D01*
X122709440Y-87186588D01*
X122720172Y-87160679D01*
X122725643Y-87133174D01*
X122733781Y-87106347D01*
X122736529Y-87078448D01*
X122742000Y-87050943D01*
X122742000Y-82748057D01*
X122736529Y-82720552D01*
X122733781Y-82692653D01*
X122725643Y-82665826D01*
X122720172Y-82638321D01*
X122709440Y-82612412D01*
X122701302Y-82585584D01*
X122688086Y-82560859D01*
X122677355Y-82534951D01*
X122661778Y-82511638D01*
X122648560Y-82486909D01*
X122630770Y-82465232D01*
X122615194Y-82441921D01*
X122595370Y-82422097D01*
X122577580Y-82400420D01*
X122555903Y-82382630D01*
X122536079Y-82362806D01*
X122512768Y-82347230D01*
X122491091Y-82329440D01*
X122466362Y-82316222D01*
X122443049Y-82300645D01*
X122417141Y-82289914D01*
X122392416Y-82276698D01*
X122365588Y-82268560D01*
X122339679Y-82257828D01*
X122312174Y-82252357D01*
X122285347Y-82244219D01*
X122257448Y-82241471D01*
X122229943Y-82236000D01*
X122201900Y-82236000D01*
X122174000Y-82233252D01*
X122146100Y-82236000D01*
X122118057Y-82236000D01*
X122090551Y-82241471D01*
X122062654Y-82244219D01*
X122035829Y-82252356D01*
X122008321Y-82257828D01*
X121982409Y-82268561D01*
X121955585Y-82276698D01*
X121930863Y-82289912D01*
X121904951Y-82300645D01*
X121881634Y-82316225D01*
X121856910Y-82329440D01*
X121835237Y-82347227D01*
X121811921Y-82362806D01*
X121792092Y-82382635D01*
X121770421Y-82400420D01*
X121752636Y-82422091D01*
X121732806Y-82441921D01*
X121717226Y-82465238D01*
X121699441Y-82486909D01*
X121686227Y-82511631D01*
X121670645Y-82534951D01*
X121659910Y-82560867D01*
X121646699Y-82585584D01*
X121638564Y-82612403D01*
X121627828Y-82638321D01*
X121622355Y-82665836D01*
X121614220Y-82692653D01*
X121611473Y-82720542D01*
X121606000Y-82748057D01*
X102942866Y-82748057D01*
X102918432Y-82702345D01*
X102841821Y-82608994D01*
X102841818Y-82608991D01*
X102816211Y-82577789D01*
X102785010Y-82552183D01*
X99360404Y-79127578D01*
X99403000Y-78913435D01*
X99403000Y-78604565D01*
X99342743Y-78301631D01*
X99224544Y-78016273D01*
X99052945Y-77759458D01*
X98920486Y-77626999D01*
X107846173Y-77626999D01*
X108354736Y-78135562D01*
X108336864Y-78178709D01*
X108267000Y-78529943D01*
X108267000Y-78888057D01*
X108336864Y-79239291D01*
X108473909Y-79570146D01*
X108672867Y-79867908D01*
X108926092Y-80121133D01*
X109223854Y-80320091D01*
X109554709Y-80457136D01*
X109905943Y-80527000D01*
X110264057Y-80527000D01*
X110615291Y-80457136D01*
X110946146Y-80320091D01*
X111243908Y-80121133D01*
X111497133Y-79867908D01*
X111696091Y-79570146D01*
X111833136Y-79239291D01*
X111883461Y-78986283D01*
X123932000Y-78986283D01*
X123932000Y-79127717D01*
X123959592Y-79266433D01*
X124013717Y-79397100D01*
X124082000Y-79499293D01*
X124082000Y-79791100D01*
X124079252Y-79819000D01*
X124090219Y-79930347D01*
X124122698Y-80037415D01*
X124122699Y-80037416D01*
X124175441Y-80136091D01*
X124246421Y-80222580D01*
X124268097Y-80240369D01*
X125142614Y-81114888D01*
X125166592Y-81235433D01*
X125220717Y-81366100D01*
X125299293Y-81483698D01*
X125399302Y-81583707D01*
X125516900Y-81662283D01*
X125647567Y-81716408D01*
X125786283Y-81744000D01*
X125927717Y-81744000D01*
X126066433Y-81716408D01*
X126197100Y-81662283D01*
X126314698Y-81583707D01*
X126414707Y-81483698D01*
X126493283Y-81366100D01*
X126547408Y-81235433D01*
X126575000Y-81096717D01*
X126575000Y-80955283D01*
X126547408Y-80816567D01*
X126493283Y-80685900D01*
X126414707Y-80568302D01*
X126314698Y-80468293D01*
X126197100Y-80389717D01*
X126066433Y-80335592D01*
X125945888Y-80311614D01*
X125218000Y-79583728D01*
X125218000Y-79499293D01*
X125286283Y-79397100D01*
X125340408Y-79266433D01*
X125368000Y-79127717D01*
X125368000Y-78986283D01*
X125340408Y-78847567D01*
X125286283Y-78716900D01*
X125207707Y-78599302D01*
X125107698Y-78499293D01*
X124990100Y-78420717D01*
X124859433Y-78366592D01*
X124720717Y-78339000D01*
X124579283Y-78339000D01*
X124440567Y-78366592D01*
X124309900Y-78420717D01*
X124192302Y-78499293D01*
X124092293Y-78599302D01*
X124013717Y-78716900D01*
X123959592Y-78847567D01*
X123932000Y-78986283D01*
X111883461Y-78986283D01*
X111903000Y-78888057D01*
X111903000Y-78529943D01*
X111833136Y-78178709D01*
X111696091Y-77847854D01*
X111497133Y-77550092D01*
X111243908Y-77296867D01*
X110946146Y-77097909D01*
X110615291Y-76960864D01*
X110265480Y-76891283D01*
X125012000Y-76891283D01*
X125012000Y-77032717D01*
X125039592Y-77171433D01*
X125093717Y-77302100D01*
X125172293Y-77419698D01*
X125272302Y-77519707D01*
X125389900Y-77598283D01*
X125520567Y-77652408D01*
X125659283Y-77680000D01*
X125800717Y-77680000D01*
X125939433Y-77652408D01*
X126070100Y-77598283D01*
X126172293Y-77530000D01*
X126383728Y-77530000D01*
X128337000Y-79483273D01*
X128337001Y-81218705D01*
X128268717Y-81320900D01*
X128214592Y-81451567D01*
X128187000Y-81590283D01*
X128187000Y-81731717D01*
X128214592Y-81870433D01*
X128268717Y-82001100D01*
X128347293Y-82118698D01*
X128447302Y-82218707D01*
X128564900Y-82297283D01*
X128695567Y-82351408D01*
X128834283Y-82379000D01*
X128975717Y-82379000D01*
X129114433Y-82351408D01*
X129245100Y-82297283D01*
X129362698Y-82218707D01*
X129462707Y-82118698D01*
X129541283Y-82001100D01*
X129595408Y-81870433D01*
X129623000Y-81731717D01*
X129623000Y-81590283D01*
X129595408Y-81451567D01*
X129541283Y-81320900D01*
X129473000Y-81218707D01*
X129473000Y-79275899D01*
X129475748Y-79247999D01*
X129464781Y-79136652D01*
X129432302Y-79029584D01*
X129429076Y-79023549D01*
X129379560Y-78930909D01*
X129308580Y-78844420D01*
X129286903Y-78826630D01*
X127040374Y-76580102D01*
X127022580Y-76558420D01*
X126936091Y-76487440D01*
X126837416Y-76434698D01*
X126730347Y-76402219D01*
X126646900Y-76394000D01*
X126619000Y-76391252D01*
X126591100Y-76394000D01*
X126172293Y-76394000D01*
X126070100Y-76325717D01*
X125939433Y-76271592D01*
X125800717Y-76244000D01*
X125659283Y-76244000D01*
X125520567Y-76271592D01*
X125389900Y-76325717D01*
X125272302Y-76404293D01*
X125172293Y-76504302D01*
X125093717Y-76621900D01*
X125039592Y-76752567D01*
X125012000Y-76891283D01*
X110265480Y-76891283D01*
X110264057Y-76891000D01*
X109905943Y-76891000D01*
X109554709Y-76960864D01*
X109511562Y-76978736D01*
X108791819Y-76258993D01*
X108766210Y-76227788D01*
X108641654Y-76125567D01*
X108499548Y-76049610D01*
X108345355Y-76002836D01*
X108225174Y-75990999D01*
X108225166Y-75990999D01*
X108184999Y-75987043D01*
X108144832Y-75990999D01*
X90863826Y-75990999D01*
X86741384Y-71868558D01*
X86741382Y-71868555D01*
X86627445Y-71754618D01*
X86593856Y-71732174D01*
X86562654Y-71706568D01*
X86527056Y-71687541D01*
X86493468Y-71665098D01*
X86456144Y-71649638D01*
X86420549Y-71630612D01*
X86381929Y-71618897D01*
X86344602Y-71603435D01*
X86304978Y-71595553D01*
X86266355Y-71583837D01*
X86226186Y-71579881D01*
X86186566Y-71572000D01*
X86146167Y-71572000D01*
X86106000Y-71568044D01*
X86065833Y-71572000D01*
X86025434Y-71572000D01*
X85985814Y-71579881D01*
X85945645Y-71583837D01*
X85907022Y-71595553D01*
X85867398Y-71603435D01*
X85830071Y-71618897D01*
X85791451Y-71630612D01*
X85755856Y-71649638D01*
X85718532Y-71665098D01*
X85684944Y-71687541D01*
X85649346Y-71706568D01*
X85618144Y-71732174D01*
X85584555Y-71754618D01*
X85555990Y-71783183D01*
X85524789Y-71808789D01*
X85499183Y-71839990D01*
X85470618Y-71868555D01*
X85448174Y-71902144D01*
X85422568Y-71933346D01*
X85403541Y-71968944D01*
X85381098Y-72002532D01*
X85365638Y-72039856D01*
X85346612Y-72075451D01*
X85334897Y-72114071D01*
X85319435Y-72151398D01*
X85311553Y-72191022D01*
X85299837Y-72229645D01*
X85295881Y-72269814D01*
X85288000Y-72309434D01*
X85288000Y-72349833D01*
X85284044Y-72390000D01*
X85288000Y-72430167D01*
X85288000Y-72470566D01*
X85295881Y-72510186D01*
X85299837Y-72550355D01*
X85311553Y-72588978D01*
X85319435Y-72628602D01*
X85334897Y-72665929D01*
X85346612Y-72704549D01*
X85365638Y-72740144D01*
X85381098Y-72777468D01*
X85403541Y-72811056D01*
X85422568Y-72846654D01*
X85448174Y-72877856D01*
X85470618Y-72911445D01*
X85584555Y-73025382D01*
X85584558Y-73025384D01*
X89918181Y-77359008D01*
X89943788Y-77390210D01*
X89974990Y-77415817D01*
X89974993Y-77415820D01*
X90000265Y-77436560D01*
X90068344Y-77492431D01*
X90210450Y-77568388D01*
X90364643Y-77615162D01*
X90484824Y-77626999D01*
X90484831Y-77626999D01*
X90524998Y-77630955D01*
X90565166Y-77626999D01*
X96749514Y-77626999D01*
X96617055Y-77759458D01*
X96445456Y-78016273D01*
X96327257Y-78301631D01*
X96267000Y-78604565D01*
X96267000Y-78913435D01*
X96327257Y-79216369D01*
X96445456Y-79501727D01*
X96617055Y-79758542D01*
X96835458Y-79976945D01*
X97092273Y-80148544D01*
X97377631Y-80266743D01*
X97680565Y-80327000D01*
X97989435Y-80327000D01*
X98203578Y-80284404D01*
X101417000Y-83497827D01*
X101417001Y-89831172D01*
X98340174Y-92908000D01*
X85301827Y-92908000D01*
X84254330Y-91860503D01*
X96822593Y-91860503D01*
X96960602Y-92069687D01*
X97233105Y-92215090D01*
X97528739Y-92304536D01*
X97836143Y-92334587D01*
X98143503Y-92304090D01*
X98439007Y-92214215D01*
X98709398Y-92069687D01*
X98847407Y-91860503D01*
X97835000Y-90848095D01*
X96822593Y-91860503D01*
X84254330Y-91860503D01*
X83153970Y-90760143D01*
X96259413Y-90760143D01*
X96289910Y-91067503D01*
X96379785Y-91363007D01*
X96524313Y-91633398D01*
X96733497Y-91771407D01*
X97745905Y-90759000D01*
X97924095Y-90759000D01*
X98936503Y-91771407D01*
X99145687Y-91633398D01*
X99291090Y-91360895D01*
X99380536Y-91065261D01*
X99410587Y-90757857D01*
X99380090Y-90450497D01*
X99290215Y-90154993D01*
X99145687Y-89884602D01*
X98936503Y-89746593D01*
X97924095Y-90759000D01*
X97745905Y-90759000D01*
X96733497Y-89746593D01*
X96524313Y-89884602D01*
X96378910Y-90157105D01*
X96289464Y-90452739D01*
X96259413Y-90760143D01*
X83153970Y-90760143D01*
X82051324Y-89657497D01*
X96822593Y-89657497D01*
X97835000Y-90669905D01*
X98847407Y-89657497D01*
X98709398Y-89448313D01*
X98436895Y-89302910D01*
X98141261Y-89213464D01*
X97833857Y-89183413D01*
X97526497Y-89213910D01*
X97230993Y-89303785D01*
X96960602Y-89448313D01*
X96822593Y-89657497D01*
X82051324Y-89657497D01*
X76923770Y-84529943D01*
X94067000Y-84529943D01*
X94067000Y-84888057D01*
X94136864Y-85239291D01*
X94273909Y-85570146D01*
X94472867Y-85867908D01*
X94726092Y-86121133D01*
X95023854Y-86320091D01*
X95354709Y-86457136D01*
X95705943Y-86527000D01*
X96064057Y-86527000D01*
X96415291Y-86457136D01*
X96746146Y-86320091D01*
X97043908Y-86121133D01*
X97297133Y-85867908D01*
X97496091Y-85570146D01*
X97633136Y-85239291D01*
X97703000Y-84888057D01*
X97703000Y-84529943D01*
X97633136Y-84178709D01*
X97496091Y-83847854D01*
X97297133Y-83550092D01*
X97043908Y-83296867D01*
X96746146Y-83097909D01*
X96415291Y-82960864D01*
X96064057Y-82891000D01*
X95705943Y-82891000D01*
X95354709Y-82960864D01*
X95023854Y-83097909D01*
X94726092Y-83296867D01*
X94472867Y-83550092D01*
X94273909Y-83847854D01*
X94136864Y-84178709D01*
X94067000Y-84529943D01*
X76923770Y-84529943D01*
X75748000Y-83354174D01*
X75748000Y-73350057D01*
X79061000Y-73350057D01*
X79061000Y-73461943D01*
X79082828Y-73571679D01*
X79125645Y-73675049D01*
X79187806Y-73768079D01*
X79266921Y-73847194D01*
X79359951Y-73909355D01*
X79463321Y-73952172D01*
X79573057Y-73974000D01*
X79684943Y-73974000D01*
X79794679Y-73952172D01*
X79898049Y-73909355D01*
X79991079Y-73847194D01*
X80070194Y-73768079D01*
X80132355Y-73675049D01*
X80175172Y-73571679D01*
X80197000Y-73461943D01*
X80197000Y-73350057D01*
X80175172Y-73240321D01*
X80132355Y-73136951D01*
X80072000Y-73046624D01*
X80072000Y-71501000D01*
X87567252Y-71501000D01*
X87578219Y-71612347D01*
X87583760Y-71630612D01*
X87610698Y-71719415D01*
X87663440Y-71818091D01*
X87734420Y-71904580D01*
X87756102Y-71922374D01*
X88478635Y-72644908D01*
X88496420Y-72666580D01*
X88582909Y-72737560D01*
X88636782Y-72766355D01*
X88681584Y-72790302D01*
X88788652Y-72822781D01*
X88900000Y-72833748D01*
X88927900Y-72831000D01*
X90987943Y-72831000D01*
X91015448Y-72825529D01*
X91043347Y-72822781D01*
X91070174Y-72814643D01*
X91097679Y-72809172D01*
X91123588Y-72798440D01*
X91150416Y-72790302D01*
X91175141Y-72777086D01*
X91201049Y-72766355D01*
X91224362Y-72750778D01*
X91249091Y-72737560D01*
X91270768Y-72719770D01*
X91294079Y-72704194D01*
X91313903Y-72684370D01*
X91335580Y-72666580D01*
X91353370Y-72644903D01*
X91373194Y-72625079D01*
X91388770Y-72601768D01*
X91406560Y-72580091D01*
X91419778Y-72555362D01*
X91435355Y-72532049D01*
X91446086Y-72506141D01*
X91459302Y-72481416D01*
X91467440Y-72454588D01*
X91478172Y-72428679D01*
X91483643Y-72401174D01*
X91491781Y-72374347D01*
X91493421Y-72357694D01*
X91820091Y-72684365D01*
X91820097Y-72684370D01*
X91839921Y-72704194D01*
X91863236Y-72719773D01*
X91884909Y-72737559D01*
X91909633Y-72750774D01*
X91932951Y-72766355D01*
X91958861Y-72777087D01*
X91983584Y-72790302D01*
X92010415Y-72798441D01*
X92036321Y-72809172D01*
X92063817Y-72814641D01*
X92090652Y-72822782D01*
X92118560Y-72825531D01*
X92146057Y-72831000D01*
X92174097Y-72831000D01*
X92202000Y-72833748D01*
X92229903Y-72831000D01*
X92257943Y-72831000D01*
X92285440Y-72825530D01*
X92313347Y-72822782D01*
X92340180Y-72814642D01*
X92367679Y-72809172D01*
X92393588Y-72798440D01*
X92420415Y-72790302D01*
X92445135Y-72777089D01*
X92471049Y-72766355D01*
X92494371Y-72750771D01*
X92519090Y-72737559D01*
X92540760Y-72719776D01*
X92564079Y-72704194D01*
X92583908Y-72684365D01*
X92605580Y-72666580D01*
X92623367Y-72644906D01*
X92643194Y-72625079D01*
X92658776Y-72601760D01*
X92676559Y-72580090D01*
X92689771Y-72555371D01*
X92705355Y-72532049D01*
X92716089Y-72506135D01*
X92729302Y-72481415D01*
X92737440Y-72454588D01*
X92748172Y-72428679D01*
X92753642Y-72401180D01*
X92761782Y-72374347D01*
X92764530Y-72346440D01*
X92770000Y-72318943D01*
X92770000Y-72290903D01*
X92772748Y-72263000D01*
X92770000Y-72235097D01*
X92770000Y-72207057D01*
X92764531Y-72179560D01*
X92761782Y-72151652D01*
X92753641Y-72124817D01*
X92748172Y-72097321D01*
X92737441Y-72071415D01*
X92729302Y-72044584D01*
X92716087Y-72019861D01*
X92705355Y-71993951D01*
X92689774Y-71970633D01*
X92676559Y-71945909D01*
X92658773Y-71924236D01*
X92643194Y-71900921D01*
X92623370Y-71881097D01*
X92623365Y-71881091D01*
X91923364Y-71181092D01*
X91905570Y-71159410D01*
X91819081Y-71088430D01*
X91720406Y-71035688D01*
X91613337Y-71003209D01*
X91529890Y-70994990D01*
X91501990Y-70992242D01*
X91474090Y-70994990D01*
X89578263Y-70994990D01*
X89406010Y-70822737D01*
X89406010Y-64686262D01*
X90591364Y-63500909D01*
X90611194Y-63481079D01*
X90626777Y-63457758D01*
X90644558Y-63436091D01*
X90657770Y-63411373D01*
X90673355Y-63388049D01*
X90684088Y-63362137D01*
X90697302Y-63337416D01*
X90705440Y-63310588D01*
X90716172Y-63284679D01*
X90721643Y-63257176D01*
X90729781Y-63230348D01*
X90732529Y-63202447D01*
X90738000Y-63174943D01*
X90738000Y-63146901D01*
X90740748Y-63119001D01*
X90738000Y-63091100D01*
X90738000Y-63063057D01*
X90732529Y-63035552D01*
X90729781Y-63007653D01*
X90721643Y-62980827D01*
X90716172Y-62953321D01*
X90705439Y-62927410D01*
X90697302Y-62900585D01*
X90684090Y-62875867D01*
X90673355Y-62849951D01*
X90657768Y-62826623D01*
X90644558Y-62801910D01*
X90626781Y-62780248D01*
X90611194Y-62756921D01*
X90591358Y-62737085D01*
X90573579Y-62715421D01*
X90551915Y-62697642D01*
X90532079Y-62677806D01*
X90508752Y-62662219D01*
X90487090Y-62644442D01*
X90462377Y-62631232D01*
X90439049Y-62615645D01*
X90413133Y-62604910D01*
X90388415Y-62591698D01*
X90361590Y-62583561D01*
X90335679Y-62572828D01*
X90308173Y-62567357D01*
X90281347Y-62559219D01*
X90253448Y-62556471D01*
X90225943Y-62551000D01*
X90197899Y-62551000D01*
X90169999Y-62548252D01*
X90142099Y-62551000D01*
X90114057Y-62551000D01*
X90086553Y-62556471D01*
X90058652Y-62559219D01*
X90031824Y-62567357D01*
X90004321Y-62572828D01*
X89978412Y-62583560D01*
X89951584Y-62591698D01*
X89926863Y-62604912D01*
X89900951Y-62615645D01*
X89877627Y-62631230D01*
X89852909Y-62644442D01*
X89831242Y-62662223D01*
X89807921Y-62677806D01*
X89788091Y-62697636D01*
X88706000Y-63779728D01*
X88706000Y-63063057D01*
X88700529Y-63035552D01*
X88697781Y-63007653D01*
X88689643Y-62980826D01*
X88684172Y-62953321D01*
X88673440Y-62927412D01*
X88665302Y-62900584D01*
X88652086Y-62875859D01*
X88641355Y-62849951D01*
X88625778Y-62826638D01*
X88612560Y-62801909D01*
X88594770Y-62780232D01*
X88579194Y-62756921D01*
X88559370Y-62737097D01*
X88541580Y-62715420D01*
X88519903Y-62697630D01*
X88500079Y-62677806D01*
X88476768Y-62662230D01*
X88455091Y-62644440D01*
X88430362Y-62631222D01*
X88407049Y-62615645D01*
X88381141Y-62604914D01*
X88356416Y-62591698D01*
X88329588Y-62583560D01*
X88303679Y-62572828D01*
X88276174Y-62567357D01*
X88249347Y-62559219D01*
X88221448Y-62556471D01*
X88193943Y-62551000D01*
X88165900Y-62551000D01*
X88138000Y-62548252D01*
X88110100Y-62551000D01*
X88082057Y-62551000D01*
X88054551Y-62556471D01*
X88026654Y-62559219D01*
X87999829Y-62567356D01*
X87972321Y-62572828D01*
X87946409Y-62583561D01*
X87919585Y-62591698D01*
X87894863Y-62604912D01*
X87868951Y-62615645D01*
X87845634Y-62631225D01*
X87820910Y-62644440D01*
X87799237Y-62662227D01*
X87775921Y-62677806D01*
X87756092Y-62697635D01*
X87734421Y-62715420D01*
X87716636Y-62737091D01*
X87696806Y-62756921D01*
X87681226Y-62780238D01*
X87663441Y-62801909D01*
X87650227Y-62826631D01*
X87634645Y-62849951D01*
X87623910Y-62875867D01*
X87610699Y-62900584D01*
X87602564Y-62927403D01*
X87591828Y-62953321D01*
X87586355Y-62980836D01*
X87578220Y-63007653D01*
X87575473Y-63035542D01*
X87570000Y-63063057D01*
X87570000Y-63174943D01*
X87570001Y-63174948D01*
X87570000Y-71473100D01*
X87567252Y-71501000D01*
X80072000Y-71501000D01*
X80072000Y-70541496D01*
X81971497Y-68642000D01*
X85830244Y-68642000D01*
X85852000Y-68644143D01*
X85873756Y-68642000D01*
X85873759Y-68642000D01*
X85938843Y-68635590D01*
X86022349Y-68610259D01*
X86099308Y-68569123D01*
X86166764Y-68513764D01*
X86180639Y-68496857D01*
X87292862Y-67384635D01*
X87309764Y-67370764D01*
X87365123Y-67303308D01*
X87406259Y-67226349D01*
X87431590Y-67142843D01*
X87438000Y-67077759D01*
X87438000Y-67077757D01*
X87440143Y-67056001D01*
X87438000Y-67034244D01*
X87438000Y-63097376D01*
X87498355Y-63007049D01*
X87541172Y-62903679D01*
X87563000Y-62793943D01*
X87563000Y-62682057D01*
X87541172Y-62572321D01*
X87498355Y-62468951D01*
X87436194Y-62375921D01*
X87357079Y-62296806D01*
X87264049Y-62234645D01*
X87160679Y-62191828D01*
X87050943Y-62170000D01*
X86939057Y-62170000D01*
X86829321Y-62191828D01*
X86725951Y-62234645D01*
X86632921Y-62296806D01*
X86553806Y-62375921D01*
X86491645Y-62468951D01*
X86448828Y-62572321D01*
X86427000Y-62682057D01*
X86427000Y-62793943D01*
X86448828Y-62903679D01*
X86491645Y-63007049D01*
X86552000Y-63097376D01*
X86552001Y-66872502D01*
X85668504Y-67756000D01*
X81809756Y-67756000D01*
X81787999Y-67753857D01*
X81766243Y-67756000D01*
X81766241Y-67756000D01*
X81701157Y-67762410D01*
X81617651Y-67787741D01*
X81540692Y-67828877D01*
X81473236Y-67884236D01*
X81459365Y-67901138D01*
X79331143Y-70029361D01*
X79314236Y-70043236D01*
X79280838Y-70083933D01*
X79258877Y-70110692D01*
X79236890Y-70151828D01*
X79217741Y-70187652D01*
X79192410Y-70271158D01*
X79186000Y-70336241D01*
X79183857Y-70358000D01*
X79186000Y-70379757D01*
X79186001Y-73046623D01*
X79125645Y-73136951D01*
X79082828Y-73240321D01*
X79061000Y-73350057D01*
X75748000Y-73350057D01*
X75748000Y-56853826D01*
X77046827Y-55555000D01*
X78873160Y-55555000D01*
X78923434Y-55565000D01*
X79084566Y-55565000D01*
X79242602Y-55533565D01*
X79391468Y-55471902D01*
X79525445Y-55382382D01*
X79639382Y-55268445D01*
X79728902Y-55134468D01*
X79790565Y-54985602D01*
X79822000Y-54827566D01*
X79822000Y-54666434D01*
X79790565Y-54508398D01*
X79728902Y-54359532D01*
X79683193Y-54291124D01*
X79677432Y-54280345D01*
X79669679Y-54270898D01*
X79639382Y-54225555D01*
X79600818Y-54186991D01*
X79575211Y-54155789D01*
X79544009Y-54130182D01*
X79525445Y-54111618D01*
X79503617Y-54097033D01*
X79450655Y-54053568D01*
X79308549Y-53977611D01*
X79154356Y-53930837D01*
X79034175Y-53919000D01*
X76748167Y-53919000D01*
X76708000Y-53915044D01*
X76667832Y-53919000D01*
X76667825Y-53919000D01*
X76547644Y-53930837D01*
X76393450Y-53977611D01*
X76251345Y-54053568D01*
X76157994Y-54130179D01*
X76157991Y-54130182D01*
X76126789Y-54155789D01*
X76101182Y-54186991D01*
X74379992Y-55908182D01*
X74348790Y-55933789D01*
X74323183Y-55964991D01*
X74323179Y-55964995D01*
X74246568Y-56058346D01*
X74170612Y-56200451D01*
X74123837Y-56354645D01*
X74108044Y-56515000D01*
X74112001Y-56555178D01*
X74112000Y-83652833D01*
X74108044Y-83693000D01*
X74112000Y-83733167D01*
X74112000Y-83733174D01*
X74123837Y-83853355D01*
X74170611Y-84007548D01*
X74246568Y-84149654D01*
X74348789Y-84274211D01*
X74379996Y-84299822D01*
X84352173Y-94272000D01*
X76549776Y-94272000D01*
X76017241Y-94219784D01*
X75521121Y-94069997D01*
X75063550Y-93826703D01*
X74661947Y-93499163D01*
X74331611Y-93099856D01*
X74085125Y-92643988D01*
X73931880Y-92148936D01*
X73876010Y-91617373D01*
X73876000Y-91614378D01*
X73876000Y-91426094D01*
X74615000Y-91426094D01*
X74615000Y-91803906D01*
X74688708Y-92174460D01*
X74833291Y-92523514D01*
X75043192Y-92837653D01*
X75310347Y-93104808D01*
X75624486Y-93314709D01*
X75973540Y-93459292D01*
X76344094Y-93533000D01*
X76721906Y-93533000D01*
X77092460Y-93459292D01*
X77441514Y-93314709D01*
X77755653Y-93104808D01*
X78022808Y-92837653D01*
X78232709Y-92523514D01*
X78377292Y-92174460D01*
X78451000Y-91803906D01*
X78451000Y-91426094D01*
X78377292Y-91055540D01*
X78232709Y-90706486D01*
X78022808Y-90392347D01*
X77755653Y-90125192D01*
X77441514Y-89915291D01*
X77092460Y-89770708D01*
X76721906Y-89697000D01*
X76344094Y-89697000D01*
X75973540Y-89770708D01*
X75624486Y-89915291D01*
X75310347Y-90125192D01*
X75043192Y-90392347D01*
X74833291Y-90706486D01*
X74688708Y-91055540D01*
X74615000Y-91426094D01*
X73876000Y-91426094D01*
X73876000Y-52126283D01*
X85388000Y-52126283D01*
X85388000Y-52267717D01*
X85415592Y-52406433D01*
X85469717Y-52537100D01*
X85538000Y-52639294D01*
X85538001Y-55725090D01*
X85535252Y-55753000D01*
X85546219Y-55864347D01*
X85578698Y-55971415D01*
X85599789Y-56010874D01*
X85631441Y-56070091D01*
X85702421Y-56156580D01*
X85724098Y-56174370D01*
X90199636Y-60649910D01*
X90217421Y-60671581D01*
X90303910Y-60742561D01*
X90402585Y-60795303D01*
X90509653Y-60827783D01*
X90621001Y-60838749D01*
X90648904Y-60836001D01*
X91435706Y-60836001D01*
X91537899Y-60904284D01*
X91668566Y-60958409D01*
X91807282Y-60986001D01*
X91948716Y-60986001D01*
X92087432Y-60958409D01*
X92218099Y-60904284D01*
X92335697Y-60825708D01*
X92435706Y-60725699D01*
X92514282Y-60608101D01*
X92568407Y-60477434D01*
X92595999Y-60338718D01*
X92595999Y-60197284D01*
X92568407Y-60058568D01*
X92514282Y-59927901D01*
X92446861Y-59826997D01*
X92453275Y-59831283D01*
X92583942Y-59885408D01*
X92722658Y-59913000D01*
X92864092Y-59913000D01*
X93002808Y-59885408D01*
X93133475Y-59831283D01*
X93251073Y-59752707D01*
X93253780Y-59750000D01*
X95522728Y-59750000D01*
X96784001Y-61011275D01*
X96784002Y-73227724D01*
X95522728Y-74489000D01*
X91628293Y-74489000D01*
X91526100Y-74420717D01*
X91395433Y-74366592D01*
X91256717Y-74339000D01*
X91115283Y-74339000D01*
X90976567Y-74366592D01*
X90845900Y-74420717D01*
X90728302Y-74499293D01*
X90628293Y-74599302D01*
X90549717Y-74716900D01*
X90495592Y-74847567D01*
X90468000Y-74986283D01*
X90468000Y-75127717D01*
X90495592Y-75266433D01*
X90549717Y-75397100D01*
X90628293Y-75514698D01*
X90728302Y-75614707D01*
X90845900Y-75693283D01*
X90976567Y-75747408D01*
X91115283Y-75775000D01*
X91256717Y-75775000D01*
X91395433Y-75747408D01*
X91526100Y-75693283D01*
X91628293Y-75625000D01*
X95730100Y-75625000D01*
X95758000Y-75627748D01*
X95785900Y-75625000D01*
X95869347Y-75616781D01*
X95976416Y-75584302D01*
X96075091Y-75531560D01*
X96161580Y-75460580D01*
X96179374Y-75438898D01*
X97457490Y-74160783D01*
X114407500Y-74160783D01*
X114407500Y-74302217D01*
X114435092Y-74440933D01*
X114489217Y-74571600D01*
X114567793Y-74689198D01*
X114667802Y-74789207D01*
X114785400Y-74867783D01*
X114916067Y-74921908D01*
X115054783Y-74949500D01*
X115196217Y-74949500D01*
X115334933Y-74921908D01*
X115465600Y-74867783D01*
X115583198Y-74789207D01*
X115683207Y-74689198D01*
X115761783Y-74571600D01*
X115815908Y-74440933D01*
X115839886Y-74320386D01*
X121442909Y-68717365D01*
X121464580Y-68699580D01*
X121535560Y-68613091D01*
X121588302Y-68514416D01*
X121593627Y-68496863D01*
X121620782Y-68407348D01*
X121631748Y-68296000D01*
X121629000Y-68268097D01*
X121629000Y-49688293D01*
X121697283Y-49586100D01*
X121751408Y-49455433D01*
X121779000Y-49316717D01*
X121779000Y-49175283D01*
X121751408Y-49036567D01*
X121697283Y-48905900D01*
X121618707Y-48788302D01*
X121518698Y-48688293D01*
X121401100Y-48609717D01*
X121270433Y-48555592D01*
X121131717Y-48528000D01*
X120990283Y-48528000D01*
X120851567Y-48555592D01*
X120720900Y-48609717D01*
X120603302Y-48688293D01*
X120503293Y-48788302D01*
X120424717Y-48905900D01*
X120370592Y-49036567D01*
X120343000Y-49175283D01*
X120343000Y-49316717D01*
X120370592Y-49455433D01*
X120424717Y-49586100D01*
X120493000Y-49688293D01*
X120493001Y-68060725D01*
X115036614Y-73517114D01*
X114916067Y-73541092D01*
X114785400Y-73595217D01*
X114667802Y-73673793D01*
X114567793Y-73773802D01*
X114489217Y-73891400D01*
X114435092Y-74022067D01*
X114407500Y-74160783D01*
X97457490Y-74160783D01*
X97733910Y-73884364D01*
X97755581Y-73866579D01*
X97826561Y-73780090D01*
X97879303Y-73681415D01*
X97905451Y-73595217D01*
X97911782Y-73574347D01*
X97922749Y-73462999D01*
X97920001Y-73435099D01*
X97920001Y-60803901D01*
X97922749Y-60776001D01*
X97911782Y-60664653D01*
X97879303Y-60557585D01*
X97826561Y-60458910D01*
X97755581Y-60372421D01*
X97733910Y-60354636D01*
X96179374Y-58800102D01*
X96161580Y-58778420D01*
X96075091Y-58707440D01*
X95976416Y-58654698D01*
X95869347Y-58622219D01*
X95785900Y-58614000D01*
X95758000Y-58611252D01*
X95730100Y-58614000D01*
X93216212Y-58614000D01*
X93133475Y-58558717D01*
X93002808Y-58504592D01*
X92864092Y-58477000D01*
X92722658Y-58477000D01*
X92583942Y-58504592D01*
X92453275Y-58558717D01*
X92335677Y-58637293D01*
X92235668Y-58737302D01*
X92157092Y-58854900D01*
X92102967Y-58985567D01*
X92075375Y-59124283D01*
X92075375Y-59265717D01*
X92102967Y-59404433D01*
X92157092Y-59535100D01*
X92224513Y-59636004D01*
X92218099Y-59631718D01*
X92087432Y-59577593D01*
X91948716Y-59550001D01*
X91807282Y-59550001D01*
X91668566Y-59577593D01*
X91537899Y-59631718D01*
X91435706Y-59700001D01*
X90856275Y-59700001D01*
X86674000Y-55517728D01*
X86674000Y-52639293D01*
X86742283Y-52537100D01*
X86796408Y-52406433D01*
X86824000Y-52267717D01*
X86824000Y-52126283D01*
X86796408Y-51987567D01*
X86742283Y-51856900D01*
X86663707Y-51739302D01*
X86563698Y-51639293D01*
X86446100Y-51560717D01*
X86315433Y-51506592D01*
X86176717Y-51479000D01*
X86035283Y-51479000D01*
X85896567Y-51506592D01*
X85765900Y-51560717D01*
X85648302Y-51639293D01*
X85548293Y-51739302D01*
X85469717Y-51856900D01*
X85415592Y-51987567D01*
X85388000Y-52126283D01*
X73876000Y-52126283D01*
X73876000Y-47040529D01*
X73894326Y-46880094D01*
X74615000Y-46880094D01*
X74615000Y-47257906D01*
X74688708Y-47628460D01*
X74833291Y-47977514D01*
X75043192Y-48291653D01*
X75310347Y-48558808D01*
X75624486Y-48768709D01*
X75973540Y-48913292D01*
X76344094Y-48987000D01*
X76721906Y-48987000D01*
X77092460Y-48913292D01*
X77441514Y-48768709D01*
X77755653Y-48558808D01*
X78022808Y-48291653D01*
X78232709Y-47977514D01*
X78377292Y-47628460D01*
X78451000Y-47257906D01*
X78451000Y-46880094D01*
X78377292Y-46509540D01*
X78232709Y-46160486D01*
X78022808Y-45846347D01*
X77755653Y-45579192D01*
X77441514Y-45369291D01*
X77092460Y-45224708D01*
X76721906Y-45151000D01*
X76344094Y-45151000D01*
X75973540Y-45224708D01*
X75624486Y-45369291D01*
X75310347Y-45579192D01*
X75043192Y-45846347D01*
X74833291Y-46160486D01*
X74688708Y-46509540D01*
X74615000Y-46880094D01*
X73894326Y-46880094D01*
X73936425Y-46511554D01*
X74094152Y-46017823D01*
X74344772Y-45564139D01*
X74678746Y-45167766D01*
X75083341Y-44843817D01*
X75543159Y-44604621D01*
X76040675Y-44459294D01*
X76572337Y-44412000D01*
X89518226Y-44412000D01*
X89591399Y-44419174D01*
%TA.AperFunction,Conductor*%
D19*
G36*
X89591399Y-44419174D02*
G01*
X89645643Y-44435552D01*
X89695682Y-44462158D01*
X89739595Y-44497973D01*
X89775713Y-44541633D01*
X89802667Y-44591484D01*
X89819425Y-44645618D01*
X89827000Y-44717688D01*
X89827001Y-55642843D01*
X89828453Y-55657589D01*
X89828426Y-55661522D01*
X89828894Y-55666288D01*
X89841849Y-55789539D01*
X89848097Y-55819976D01*
X89853925Y-55850527D01*
X89855309Y-55855111D01*
X89891956Y-55973499D01*
X89904004Y-56002160D01*
X89915649Y-56030982D01*
X89917897Y-56035211D01*
X89976841Y-56144226D01*
X89994229Y-56170004D01*
X90011247Y-56196012D01*
X90014269Y-56199716D01*
X90014274Y-56199723D01*
X90014280Y-56199729D01*
X90093271Y-56295213D01*
X90115309Y-56317098D01*
X90137080Y-56339330D01*
X90140770Y-56342382D01*
X90236809Y-56420710D01*
X90262694Y-56437908D01*
X90288354Y-56455478D01*
X90292567Y-56457756D01*
X90401990Y-56515938D01*
X90430724Y-56527781D01*
X90459307Y-56540032D01*
X90463878Y-56541446D01*
X90463884Y-56541448D01*
X90582522Y-56577267D01*
X90612983Y-56583299D01*
X90643428Y-56589770D01*
X90648187Y-56590270D01*
X90648191Y-56590270D01*
X90771530Y-56602363D01*
X90771537Y-56602363D01*
X90788157Y-56604000D01*
X117872843Y-56604000D01*
X117887598Y-56602547D01*
X117891522Y-56602574D01*
X117896288Y-56602106D01*
X118019539Y-56589151D01*
X118049976Y-56582903D01*
X118080527Y-56577075D01*
X118085111Y-56575691D01*
X118203499Y-56539044D01*
X118232160Y-56526996D01*
X118260982Y-56515351D01*
X118265211Y-56513103D01*
X118374226Y-56454159D01*
X118400004Y-56436771D01*
X118426012Y-56419753D01*
X118429716Y-56416731D01*
X118429723Y-56416726D01*
X118429729Y-56416720D01*
X118525213Y-56337729D01*
X118547098Y-56315691D01*
X118569330Y-56293920D01*
X118572382Y-56290230D01*
X118650710Y-56194191D01*
X118667908Y-56168306D01*
X118685478Y-56142646D01*
X118687756Y-56138433D01*
X118745938Y-56029010D01*
X118757781Y-56000276D01*
X118770032Y-55971693D01*
X118771447Y-55967118D01*
X118807267Y-55848478D01*
X118813299Y-55818017D01*
X118819770Y-55787572D01*
X118820270Y-55782809D01*
X118832363Y-55659470D01*
X118832363Y-55659463D01*
X118834000Y-55642843D01*
X118834000Y-46880094D01*
X129448000Y-46880094D01*
X129448000Y-47257906D01*
X129521708Y-47628460D01*
X129666291Y-47977514D01*
X129876192Y-48291653D01*
X130143347Y-48558808D01*
X130457486Y-48768709D01*
X130806540Y-48913292D01*
X131177094Y-48987000D01*
X131554906Y-48987000D01*
X131925460Y-48913292D01*
X132274514Y-48768709D01*
X132588653Y-48558808D01*
X132855808Y-48291653D01*
X133065709Y-47977514D01*
X133210292Y-47628460D01*
X133284000Y-47257906D01*
X133284000Y-46880094D01*
X133210292Y-46509540D01*
X133065709Y-46160486D01*
X132855808Y-45846347D01*
X132588653Y-45579192D01*
X132274514Y-45369291D01*
X131925460Y-45224708D01*
X131554906Y-45151000D01*
X131177094Y-45151000D01*
X130806540Y-45224708D01*
X130457486Y-45369291D01*
X130143347Y-45579192D01*
X129876192Y-45846347D01*
X129666291Y-46160486D01*
X129521708Y-46509540D01*
X129448000Y-46880094D01*
X118834000Y-46880094D01*
X118834000Y-44720774D01*
X118841174Y-44647601D01*
X118857552Y-44593357D01*
X118884158Y-44543318D01*
X118919973Y-44499405D01*
X118963633Y-44463287D01*
X119013484Y-44436333D01*
X119067618Y-44419575D01*
X119139688Y-44412000D01*
X131349224Y-44412000D01*
X131881759Y-44464216D01*
X132377881Y-44614004D01*
X132835450Y-44857297D01*
X133237053Y-45184837D01*
X133567389Y-45584144D01*
X133813875Y-46040012D01*
X133967120Y-46535066D01*
X134022990Y-47066627D01*
X134023001Y-47069908D01*
X134023000Y-91598224D01*
X133970784Y-92130759D01*
X133820997Y-92626879D01*
X133577703Y-93084450D01*
X133250163Y-93486053D01*
X132850856Y-93816389D01*
X132394988Y-94062875D01*
X131899936Y-94216120D01*
X131368373Y-94271990D01*
X131365378Y-94272000D01*
X107678826Y-94272000D01*
X109461563Y-92489264D01*
X109504709Y-92507136D01*
X109855943Y-92577000D01*
X110214057Y-92577000D01*
X110565291Y-92507136D01*
X110896146Y-92370091D01*
X111193908Y-92171133D01*
X111447133Y-91917908D01*
X111646091Y-91620146D01*
X111726470Y-91426094D01*
X129448000Y-91426094D01*
X129448000Y-91803906D01*
X129521708Y-92174460D01*
X129666291Y-92523514D01*
X129876192Y-92837653D01*
X130143347Y-93104808D01*
X130457486Y-93314709D01*
X130806540Y-93459292D01*
X131177094Y-93533000D01*
X131554906Y-93533000D01*
X131925460Y-93459292D01*
X132274514Y-93314709D01*
X132588653Y-93104808D01*
X132855808Y-92837653D01*
X133065709Y-92523514D01*
X133210292Y-92174460D01*
X133284000Y-91803906D01*
X133284000Y-91426094D01*
X133210292Y-91055540D01*
X133065709Y-90706486D01*
X132855808Y-90392347D01*
X132588653Y-90125192D01*
X132274514Y-89915291D01*
X131925460Y-89770708D01*
X131554906Y-89697000D01*
X131177094Y-89697000D01*
X130806540Y-89770708D01*
X130457486Y-89915291D01*
X130143347Y-90125192D01*
X129876192Y-90392347D01*
X129666291Y-90706486D01*
X129521708Y-91055540D01*
X129448000Y-91426094D01*
X111726470Y-91426094D01*
X111783136Y-91289291D01*
X111853000Y-90938057D01*
X111853000Y-90579943D01*
X111783136Y-90228709D01*
X111646091Y-89897854D01*
X111447133Y-89600092D01*
X111193908Y-89346867D01*
X110896146Y-89147909D01*
X110565291Y-89010864D01*
X110214057Y-88941000D01*
X109855943Y-88941000D01*
X109504709Y-89010864D01*
X109173854Y-89147909D01*
X108876092Y-89346867D01*
X108622867Y-89600092D01*
X108423909Y-89897854D01*
X108286864Y-90228709D01*
X108217000Y-90579943D01*
X108217000Y-90938057D01*
X108286864Y-91289291D01*
X108304736Y-91332437D01*
X106729174Y-92908000D01*
X100653826Y-92908000D01*
X102785009Y-90776818D01*
X102816211Y-90751211D01*
X102841818Y-90720009D01*
X102841821Y-90720006D01*
X102882937Y-90669905D01*
X102918432Y-90626655D01*
X102994389Y-90484549D01*
X103041163Y-90330356D01*
X103053000Y-90210175D01*
X103053000Y-90210166D01*
X103056956Y-90170001D01*
X103053000Y-90129836D01*
X103053000Y-84897000D01*
X114938252Y-84897000D01*
X114941000Y-84924900D01*
X114941001Y-89926052D01*
X114941000Y-89926057D01*
X114941000Y-90037943D01*
X114946473Y-90065458D01*
X114949220Y-90093347D01*
X114957355Y-90120164D01*
X114962828Y-90147679D01*
X114973564Y-90173597D01*
X114981699Y-90200416D01*
X114994910Y-90225133D01*
X115005645Y-90251049D01*
X115021227Y-90274369D01*
X115034441Y-90299091D01*
X115052226Y-90320762D01*
X115067806Y-90344079D01*
X115087636Y-90363909D01*
X115105421Y-90385580D01*
X115127092Y-90403365D01*
X115146921Y-90423194D01*
X115170237Y-90438773D01*
X115191910Y-90456560D01*
X115216634Y-90469775D01*
X115239951Y-90485355D01*
X115265863Y-90496088D01*
X115290585Y-90509302D01*
X115317409Y-90517439D01*
X115343321Y-90528172D01*
X115370829Y-90533644D01*
X115397654Y-90541781D01*
X115425551Y-90544529D01*
X115453057Y-90550000D01*
X115481100Y-90550000D01*
X115509000Y-90552748D01*
X115536900Y-90550000D01*
X115564943Y-90550000D01*
X115592448Y-90544529D01*
X115620347Y-90541781D01*
X115647174Y-90533643D01*
X115674679Y-90528172D01*
X115700588Y-90517440D01*
X115727416Y-90509302D01*
X115752141Y-90496086D01*
X115778049Y-90485355D01*
X115801362Y-90469778D01*
X115826091Y-90456560D01*
X115847768Y-90438770D01*
X115871079Y-90423194D01*
X115890903Y-90403370D01*
X115912580Y-90385580D01*
X115930370Y-90363903D01*
X115950194Y-90344079D01*
X115965770Y-90320768D01*
X115983560Y-90299091D01*
X115996778Y-90274362D01*
X116012355Y-90251049D01*
X116023086Y-90225141D01*
X116036302Y-90200416D01*
X116044440Y-90173588D01*
X116055172Y-90147679D01*
X116060643Y-90120174D01*
X116068781Y-90093347D01*
X116071529Y-90065448D01*
X116077000Y-90037943D01*
X116077000Y-85132272D01*
X117075273Y-84134000D01*
X117384648Y-84134000D01*
X117381440Y-84137909D01*
X117368223Y-84162637D01*
X117352645Y-84185951D01*
X117341912Y-84211862D01*
X117328698Y-84236585D01*
X117320561Y-84263409D01*
X117309828Y-84289321D01*
X117304356Y-84316829D01*
X117296219Y-84343654D01*
X117293471Y-84371551D01*
X117288000Y-84399057D01*
X117288000Y-84427101D01*
X117288001Y-86586090D01*
X117285252Y-86614000D01*
X117296219Y-86725347D01*
X117328698Y-86832415D01*
X117328699Y-86832416D01*
X117381441Y-86931091D01*
X117452421Y-87017580D01*
X117474097Y-87035369D01*
X118557806Y-88119079D01*
X118636921Y-88198194D01*
X118660238Y-88213774D01*
X118681909Y-88231559D01*
X118706633Y-88244774D01*
X118729951Y-88260355D01*
X118755861Y-88271087D01*
X118780584Y-88284302D01*
X118807412Y-88292440D01*
X118833321Y-88303172D01*
X118860824Y-88308643D01*
X118887652Y-88316781D01*
X118915553Y-88319529D01*
X118943057Y-88325000D01*
X118971099Y-88325000D01*
X118998999Y-88327748D01*
X119026899Y-88325000D01*
X119054943Y-88325000D01*
X119082448Y-88319529D01*
X119110347Y-88316781D01*
X119137173Y-88308643D01*
X119164679Y-88303172D01*
X119190590Y-88292439D01*
X119217415Y-88284302D01*
X119242135Y-88271089D01*
X119268049Y-88260355D01*
X119291371Y-88244771D01*
X119316090Y-88231559D01*
X119337757Y-88213778D01*
X119361079Y-88198194D01*
X119380914Y-88178359D01*
X119402579Y-88160579D01*
X119420359Y-88138914D01*
X119440194Y-88119079D01*
X119455778Y-88095757D01*
X119473559Y-88074090D01*
X119486771Y-88049371D01*
X119502355Y-88026049D01*
X119513089Y-88000135D01*
X119526302Y-87975415D01*
X119534439Y-87948590D01*
X119545172Y-87922679D01*
X119550643Y-87895173D01*
X119558781Y-87868347D01*
X119561529Y-87840448D01*
X119567000Y-87812943D01*
X119567000Y-87784899D01*
X119569748Y-87756999D01*
X119567000Y-87729099D01*
X119567000Y-87701057D01*
X119561529Y-87673553D01*
X119558781Y-87645652D01*
X119550643Y-87618824D01*
X119545172Y-87591321D01*
X119534440Y-87565412D01*
X119526302Y-87538584D01*
X119513087Y-87513861D01*
X119502355Y-87487951D01*
X119486774Y-87464633D01*
X119473559Y-87439909D01*
X119455774Y-87418238D01*
X119440194Y-87394921D01*
X119361079Y-87315806D01*
X118424000Y-86378728D01*
X118424000Y-84399057D01*
X118418529Y-84371552D01*
X118415781Y-84343653D01*
X118407643Y-84316826D01*
X118402172Y-84289321D01*
X118391440Y-84263412D01*
X118383302Y-84236584D01*
X118370086Y-84211859D01*
X118359355Y-84185951D01*
X118343778Y-84162638D01*
X118330560Y-84137909D01*
X118327352Y-84134000D01*
X118636728Y-84134000D01*
X118938806Y-84436079D01*
X119017921Y-84515194D01*
X119041239Y-84530775D01*
X119062908Y-84548558D01*
X119087628Y-84561771D01*
X119110951Y-84577355D01*
X119136868Y-84588090D01*
X119161584Y-84601301D01*
X119188406Y-84609438D01*
X119214321Y-84620172D01*
X119241826Y-84625643D01*
X119268652Y-84633781D01*
X119296551Y-84636529D01*
X119324057Y-84642000D01*
X119352106Y-84642000D01*
X119379999Y-84644747D01*
X119407892Y-84642000D01*
X119435943Y-84642000D01*
X119463451Y-84636528D01*
X119491347Y-84633781D01*
X119518171Y-84625644D01*
X119545679Y-84620172D01*
X119571597Y-84609436D01*
X119598415Y-84601301D01*
X119623127Y-84588092D01*
X119649049Y-84577355D01*
X119672379Y-84561766D01*
X119697090Y-84548558D01*
X119718752Y-84530781D01*
X119742079Y-84515194D01*
X119761915Y-84495358D01*
X119783579Y-84477579D01*
X119801358Y-84455915D01*
X119821194Y-84436079D01*
X119836781Y-84412752D01*
X119854558Y-84391090D01*
X119867766Y-84366379D01*
X119883355Y-84343049D01*
X119894092Y-84317127D01*
X119907301Y-84292415D01*
X119915436Y-84265597D01*
X119926172Y-84239679D01*
X119931644Y-84212171D01*
X119939781Y-84185347D01*
X119942528Y-84157451D01*
X119948000Y-84129943D01*
X119948000Y-84101892D01*
X119950747Y-84073999D01*
X119948000Y-84046106D01*
X119948000Y-84018057D01*
X119942529Y-83990551D01*
X119939781Y-83962652D01*
X119931643Y-83935826D01*
X119926172Y-83908321D01*
X119915438Y-83882406D01*
X119907301Y-83855584D01*
X119894090Y-83830868D01*
X119883355Y-83804951D01*
X119867771Y-83781628D01*
X119854558Y-83756908D01*
X119836775Y-83735239D01*
X119821194Y-83711921D01*
X119742079Y-83632806D01*
X119293374Y-83184102D01*
X119275580Y-83162420D01*
X119189091Y-83091440D01*
X119090416Y-83038698D01*
X118983347Y-83006219D01*
X118906449Y-82998645D01*
X118872000Y-82995252D01*
X118844100Y-82998000D01*
X116867899Y-82998000D01*
X116839999Y-82995252D01*
X116728652Y-83006219D01*
X116621584Y-83038698D01*
X116522909Y-83091440D01*
X116436420Y-83162420D01*
X116418630Y-83184097D01*
X115127102Y-84475626D01*
X115105420Y-84493420D01*
X115034440Y-84579909D01*
X114981699Y-84678584D01*
X114981698Y-84678585D01*
X114949219Y-84785653D01*
X114938252Y-84897000D01*
X103053000Y-84897000D01*
X103053000Y-83199167D01*
X103056956Y-83159000D01*
X103053000Y-83118832D01*
X103053000Y-83118825D01*
X103041163Y-82998644D01*
X103002456Y-82871044D01*
X102994389Y-82844450D01*
X102942866Y-82748057D01*
X121606000Y-82748057D01*
X121606000Y-82859943D01*
X121606001Y-82859948D01*
X121606000Y-86939057D01*
X121606000Y-87050943D01*
X121611471Y-87078449D01*
X121614219Y-87106346D01*
X121622356Y-87133171D01*
X121627828Y-87160679D01*
X121638561Y-87186591D01*
X121646698Y-87213415D01*
X121659912Y-87238138D01*
X121670645Y-87264049D01*
X121686223Y-87287363D01*
X121699440Y-87312091D01*
X121717230Y-87333768D01*
X121732806Y-87357079D01*
X121752630Y-87376903D01*
X121770420Y-87398580D01*
X121792097Y-87416370D01*
X121811921Y-87436194D01*
X121835232Y-87451770D01*
X121856909Y-87469560D01*
X121881638Y-87482778D01*
X121904951Y-87498355D01*
X121930859Y-87509086D01*
X121955584Y-87522302D01*
X121982412Y-87530440D01*
X122008321Y-87541172D01*
X122035826Y-87546643D01*
X122062653Y-87554781D01*
X122090552Y-87557529D01*
X122118057Y-87563000D01*
X122146100Y-87563000D01*
X122174000Y-87565748D01*
X122201900Y-87563000D01*
X122229943Y-87563000D01*
X122257449Y-87557529D01*
X122285346Y-87554781D01*
X122312171Y-87546644D01*
X122339679Y-87541172D01*
X122365591Y-87530439D01*
X122392415Y-87522302D01*
X122417138Y-87509088D01*
X122443049Y-87498355D01*
X122466363Y-87482777D01*
X122491091Y-87469560D01*
X122512768Y-87451770D01*
X122536079Y-87436194D01*
X122555903Y-87416370D01*
X122577580Y-87398580D01*
X122595370Y-87376903D01*
X122615194Y-87357079D01*
X122630770Y-87333768D01*
X122648560Y-87312091D01*
X122661778Y-87287362D01*
X122677355Y-87264049D01*
X122688086Y-87238141D01*
X122701302Y-87213416D01*
X122709440Y-87186588D01*
X122720172Y-87160679D01*
X122725643Y-87133174D01*
X122733781Y-87106347D01*
X122736529Y-87078448D01*
X122742000Y-87050943D01*
X122742000Y-82748057D01*
X122736529Y-82720552D01*
X122733781Y-82692653D01*
X122725643Y-82665826D01*
X122720172Y-82638321D01*
X122709440Y-82612412D01*
X122701302Y-82585584D01*
X122688086Y-82560859D01*
X122677355Y-82534951D01*
X122661778Y-82511638D01*
X122648560Y-82486909D01*
X122630770Y-82465232D01*
X122615194Y-82441921D01*
X122595370Y-82422097D01*
X122577580Y-82400420D01*
X122555903Y-82382630D01*
X122536079Y-82362806D01*
X122512768Y-82347230D01*
X122491091Y-82329440D01*
X122466362Y-82316222D01*
X122443049Y-82300645D01*
X122417141Y-82289914D01*
X122392416Y-82276698D01*
X122365588Y-82268560D01*
X122339679Y-82257828D01*
X122312174Y-82252357D01*
X122285347Y-82244219D01*
X122257448Y-82241471D01*
X122229943Y-82236000D01*
X122201900Y-82236000D01*
X122174000Y-82233252D01*
X122146100Y-82236000D01*
X122118057Y-82236000D01*
X122090551Y-82241471D01*
X122062654Y-82244219D01*
X122035829Y-82252356D01*
X122008321Y-82257828D01*
X121982409Y-82268561D01*
X121955585Y-82276698D01*
X121930863Y-82289912D01*
X121904951Y-82300645D01*
X121881634Y-82316225D01*
X121856910Y-82329440D01*
X121835237Y-82347227D01*
X121811921Y-82362806D01*
X121792092Y-82382635D01*
X121770421Y-82400420D01*
X121752636Y-82422091D01*
X121732806Y-82441921D01*
X121717226Y-82465238D01*
X121699441Y-82486909D01*
X121686227Y-82511631D01*
X121670645Y-82534951D01*
X121659910Y-82560867D01*
X121646699Y-82585584D01*
X121638564Y-82612403D01*
X121627828Y-82638321D01*
X121622355Y-82665836D01*
X121614220Y-82692653D01*
X121611473Y-82720542D01*
X121606000Y-82748057D01*
X102942866Y-82748057D01*
X102918432Y-82702345D01*
X102841821Y-82608994D01*
X102841818Y-82608991D01*
X102816211Y-82577789D01*
X102785010Y-82552183D01*
X99360404Y-79127578D01*
X99403000Y-78913435D01*
X99403000Y-78604565D01*
X99342743Y-78301631D01*
X99224544Y-78016273D01*
X99052945Y-77759458D01*
X98920486Y-77626999D01*
X107846173Y-77626999D01*
X108354736Y-78135562D01*
X108336864Y-78178709D01*
X108267000Y-78529943D01*
X108267000Y-78888057D01*
X108336864Y-79239291D01*
X108473909Y-79570146D01*
X108672867Y-79867908D01*
X108926092Y-80121133D01*
X109223854Y-80320091D01*
X109554709Y-80457136D01*
X109905943Y-80527000D01*
X110264057Y-80527000D01*
X110615291Y-80457136D01*
X110946146Y-80320091D01*
X111243908Y-80121133D01*
X111497133Y-79867908D01*
X111696091Y-79570146D01*
X111833136Y-79239291D01*
X111883461Y-78986283D01*
X123932000Y-78986283D01*
X123932000Y-79127717D01*
X123959592Y-79266433D01*
X124013717Y-79397100D01*
X124082000Y-79499293D01*
X124082000Y-79791100D01*
X124079252Y-79819000D01*
X124090219Y-79930347D01*
X124122698Y-80037415D01*
X124122699Y-80037416D01*
X124175441Y-80136091D01*
X124246421Y-80222580D01*
X124268097Y-80240369D01*
X125142614Y-81114888D01*
X125166592Y-81235433D01*
X125220717Y-81366100D01*
X125299293Y-81483698D01*
X125399302Y-81583707D01*
X125516900Y-81662283D01*
X125647567Y-81716408D01*
X125786283Y-81744000D01*
X125927717Y-81744000D01*
X126066433Y-81716408D01*
X126197100Y-81662283D01*
X126314698Y-81583707D01*
X126414707Y-81483698D01*
X126493283Y-81366100D01*
X126547408Y-81235433D01*
X126575000Y-81096717D01*
X126575000Y-80955283D01*
X126547408Y-80816567D01*
X126493283Y-80685900D01*
X126414707Y-80568302D01*
X126314698Y-80468293D01*
X126197100Y-80389717D01*
X126066433Y-80335592D01*
X125945888Y-80311614D01*
X125218000Y-79583728D01*
X125218000Y-79499293D01*
X125286283Y-79397100D01*
X125340408Y-79266433D01*
X125368000Y-79127717D01*
X125368000Y-78986283D01*
X125340408Y-78847567D01*
X125286283Y-78716900D01*
X125207707Y-78599302D01*
X125107698Y-78499293D01*
X124990100Y-78420717D01*
X124859433Y-78366592D01*
X124720717Y-78339000D01*
X124579283Y-78339000D01*
X124440567Y-78366592D01*
X124309900Y-78420717D01*
X124192302Y-78499293D01*
X124092293Y-78599302D01*
X124013717Y-78716900D01*
X123959592Y-78847567D01*
X123932000Y-78986283D01*
X111883461Y-78986283D01*
X111903000Y-78888057D01*
X111903000Y-78529943D01*
X111833136Y-78178709D01*
X111696091Y-77847854D01*
X111497133Y-77550092D01*
X111243908Y-77296867D01*
X110946146Y-77097909D01*
X110615291Y-76960864D01*
X110265480Y-76891283D01*
X125012000Y-76891283D01*
X125012000Y-77032717D01*
X125039592Y-77171433D01*
X125093717Y-77302100D01*
X125172293Y-77419698D01*
X125272302Y-77519707D01*
X125389900Y-77598283D01*
X125520567Y-77652408D01*
X125659283Y-77680000D01*
X125800717Y-77680000D01*
X125939433Y-77652408D01*
X126070100Y-77598283D01*
X126172293Y-77530000D01*
X126383728Y-77530000D01*
X128337000Y-79483273D01*
X128337001Y-81218705D01*
X128268717Y-81320900D01*
X128214592Y-81451567D01*
X128187000Y-81590283D01*
X128187000Y-81731717D01*
X128214592Y-81870433D01*
X128268717Y-82001100D01*
X128347293Y-82118698D01*
X128447302Y-82218707D01*
X128564900Y-82297283D01*
X128695567Y-82351408D01*
X128834283Y-82379000D01*
X128975717Y-82379000D01*
X129114433Y-82351408D01*
X129245100Y-82297283D01*
X129362698Y-82218707D01*
X129462707Y-82118698D01*
X129541283Y-82001100D01*
X129595408Y-81870433D01*
X129623000Y-81731717D01*
X129623000Y-81590283D01*
X129595408Y-81451567D01*
X129541283Y-81320900D01*
X129473000Y-81218707D01*
X129473000Y-79275899D01*
X129475748Y-79247999D01*
X129464781Y-79136652D01*
X129432302Y-79029584D01*
X129429076Y-79023549D01*
X129379560Y-78930909D01*
X129308580Y-78844420D01*
X129286903Y-78826630D01*
X127040374Y-76580102D01*
X127022580Y-76558420D01*
X126936091Y-76487440D01*
X126837416Y-76434698D01*
X126730347Y-76402219D01*
X126646900Y-76394000D01*
X126619000Y-76391252D01*
X126591100Y-76394000D01*
X126172293Y-76394000D01*
X126070100Y-76325717D01*
X125939433Y-76271592D01*
X125800717Y-76244000D01*
X125659283Y-76244000D01*
X125520567Y-76271592D01*
X125389900Y-76325717D01*
X125272302Y-76404293D01*
X125172293Y-76504302D01*
X125093717Y-76621900D01*
X125039592Y-76752567D01*
X125012000Y-76891283D01*
X110265480Y-76891283D01*
X110264057Y-76891000D01*
X109905943Y-76891000D01*
X109554709Y-76960864D01*
X109511562Y-76978736D01*
X108791819Y-76258993D01*
X108766210Y-76227788D01*
X108641654Y-76125567D01*
X108499548Y-76049610D01*
X108345355Y-76002836D01*
X108225174Y-75990999D01*
X108225166Y-75990999D01*
X108184999Y-75987043D01*
X108144832Y-75990999D01*
X90863826Y-75990999D01*
X86741384Y-71868558D01*
X86741382Y-71868555D01*
X86627445Y-71754618D01*
X86593856Y-71732174D01*
X86562654Y-71706568D01*
X86527056Y-71687541D01*
X86493468Y-71665098D01*
X86456144Y-71649638D01*
X86420549Y-71630612D01*
X86381929Y-71618897D01*
X86344602Y-71603435D01*
X86304978Y-71595553D01*
X86266355Y-71583837D01*
X86226186Y-71579881D01*
X86186566Y-71572000D01*
X86146167Y-71572000D01*
X86106000Y-71568044D01*
X86065833Y-71572000D01*
X86025434Y-71572000D01*
X85985814Y-71579881D01*
X85945645Y-71583837D01*
X85907022Y-71595553D01*
X85867398Y-71603435D01*
X85830071Y-71618897D01*
X85791451Y-71630612D01*
X85755856Y-71649638D01*
X85718532Y-71665098D01*
X85684944Y-71687541D01*
X85649346Y-71706568D01*
X85618144Y-71732174D01*
X85584555Y-71754618D01*
X85555990Y-71783183D01*
X85524789Y-71808789D01*
X85499183Y-71839990D01*
X85470618Y-71868555D01*
X85448174Y-71902144D01*
X85422568Y-71933346D01*
X85403541Y-71968944D01*
X85381098Y-72002532D01*
X85365638Y-72039856D01*
X85346612Y-72075451D01*
X85334897Y-72114071D01*
X85319435Y-72151398D01*
X85311553Y-72191022D01*
X85299837Y-72229645D01*
X85295881Y-72269814D01*
X85288000Y-72309434D01*
X85288000Y-72349833D01*
X85284044Y-72390000D01*
X85288000Y-72430167D01*
X85288000Y-72470566D01*
X85295881Y-72510186D01*
X85299837Y-72550355D01*
X85311553Y-72588978D01*
X85319435Y-72628602D01*
X85334897Y-72665929D01*
X85346612Y-72704549D01*
X85365638Y-72740144D01*
X85381098Y-72777468D01*
X85403541Y-72811056D01*
X85422568Y-72846654D01*
X85448174Y-72877856D01*
X85470618Y-72911445D01*
X85584555Y-73025382D01*
X85584558Y-73025384D01*
X89918181Y-77359008D01*
X89943788Y-77390210D01*
X89974990Y-77415817D01*
X89974993Y-77415820D01*
X90000265Y-77436560D01*
X90068344Y-77492431D01*
X90210450Y-77568388D01*
X90364643Y-77615162D01*
X90484824Y-77626999D01*
X90484831Y-77626999D01*
X90524998Y-77630955D01*
X90565166Y-77626999D01*
X96749514Y-77626999D01*
X96617055Y-77759458D01*
X96445456Y-78016273D01*
X96327257Y-78301631D01*
X96267000Y-78604565D01*
X96267000Y-78913435D01*
X96327257Y-79216369D01*
X96445456Y-79501727D01*
X96617055Y-79758542D01*
X96835458Y-79976945D01*
X97092273Y-80148544D01*
X97377631Y-80266743D01*
X97680565Y-80327000D01*
X97989435Y-80327000D01*
X98203578Y-80284404D01*
X101417000Y-83497827D01*
X101417001Y-89831172D01*
X98340174Y-92908000D01*
X85301827Y-92908000D01*
X84254330Y-91860503D01*
X96822593Y-91860503D01*
X96960602Y-92069687D01*
X97233105Y-92215090D01*
X97528739Y-92304536D01*
X97836143Y-92334587D01*
X98143503Y-92304090D01*
X98439007Y-92214215D01*
X98709398Y-92069687D01*
X98847407Y-91860503D01*
X97835000Y-90848095D01*
X96822593Y-91860503D01*
X84254330Y-91860503D01*
X83153970Y-90760143D01*
X96259413Y-90760143D01*
X96289910Y-91067503D01*
X96379785Y-91363007D01*
X96524313Y-91633398D01*
X96733497Y-91771407D01*
X97745905Y-90759000D01*
X97924095Y-90759000D01*
X98936503Y-91771407D01*
X99145687Y-91633398D01*
X99291090Y-91360895D01*
X99380536Y-91065261D01*
X99410587Y-90757857D01*
X99380090Y-90450497D01*
X99290215Y-90154993D01*
X99145687Y-89884602D01*
X98936503Y-89746593D01*
X97924095Y-90759000D01*
X97745905Y-90759000D01*
X96733497Y-89746593D01*
X96524313Y-89884602D01*
X96378910Y-90157105D01*
X96289464Y-90452739D01*
X96259413Y-90760143D01*
X83153970Y-90760143D01*
X82051324Y-89657497D01*
X96822593Y-89657497D01*
X97835000Y-90669905D01*
X98847407Y-89657497D01*
X98709398Y-89448313D01*
X98436895Y-89302910D01*
X98141261Y-89213464D01*
X97833857Y-89183413D01*
X97526497Y-89213910D01*
X97230993Y-89303785D01*
X96960602Y-89448313D01*
X96822593Y-89657497D01*
X82051324Y-89657497D01*
X76923770Y-84529943D01*
X94067000Y-84529943D01*
X94067000Y-84888057D01*
X94136864Y-85239291D01*
X94273909Y-85570146D01*
X94472867Y-85867908D01*
X94726092Y-86121133D01*
X95023854Y-86320091D01*
X95354709Y-86457136D01*
X95705943Y-86527000D01*
X96064057Y-86527000D01*
X96415291Y-86457136D01*
X96746146Y-86320091D01*
X97043908Y-86121133D01*
X97297133Y-85867908D01*
X97496091Y-85570146D01*
X97633136Y-85239291D01*
X97703000Y-84888057D01*
X97703000Y-84529943D01*
X97633136Y-84178709D01*
X97496091Y-83847854D01*
X97297133Y-83550092D01*
X97043908Y-83296867D01*
X96746146Y-83097909D01*
X96415291Y-82960864D01*
X96064057Y-82891000D01*
X95705943Y-82891000D01*
X95354709Y-82960864D01*
X95023854Y-83097909D01*
X94726092Y-83296867D01*
X94472867Y-83550092D01*
X94273909Y-83847854D01*
X94136864Y-84178709D01*
X94067000Y-84529943D01*
X76923770Y-84529943D01*
X75748000Y-83354174D01*
X75748000Y-73350057D01*
X79061000Y-73350057D01*
X79061000Y-73461943D01*
X79082828Y-73571679D01*
X79125645Y-73675049D01*
X79187806Y-73768079D01*
X79266921Y-73847194D01*
X79359951Y-73909355D01*
X79463321Y-73952172D01*
X79573057Y-73974000D01*
X79684943Y-73974000D01*
X79794679Y-73952172D01*
X79898049Y-73909355D01*
X79991079Y-73847194D01*
X80070194Y-73768079D01*
X80132355Y-73675049D01*
X80175172Y-73571679D01*
X80197000Y-73461943D01*
X80197000Y-73350057D01*
X80175172Y-73240321D01*
X80132355Y-73136951D01*
X80072000Y-73046624D01*
X80072000Y-71501000D01*
X87567252Y-71501000D01*
X87578219Y-71612347D01*
X87583760Y-71630612D01*
X87610698Y-71719415D01*
X87663440Y-71818091D01*
X87734420Y-71904580D01*
X87756102Y-71922374D01*
X88478635Y-72644908D01*
X88496420Y-72666580D01*
X88582909Y-72737560D01*
X88636782Y-72766355D01*
X88681584Y-72790302D01*
X88788652Y-72822781D01*
X88900000Y-72833748D01*
X88927900Y-72831000D01*
X90987943Y-72831000D01*
X91015448Y-72825529D01*
X91043347Y-72822781D01*
X91070174Y-72814643D01*
X91097679Y-72809172D01*
X91123588Y-72798440D01*
X91150416Y-72790302D01*
X91175141Y-72777086D01*
X91201049Y-72766355D01*
X91224362Y-72750778D01*
X91249091Y-72737560D01*
X91270768Y-72719770D01*
X91294079Y-72704194D01*
X91313903Y-72684370D01*
X91335580Y-72666580D01*
X91353370Y-72644903D01*
X91373194Y-72625079D01*
X91388770Y-72601768D01*
X91406560Y-72580091D01*
X91419778Y-72555362D01*
X91435355Y-72532049D01*
X91446086Y-72506141D01*
X91459302Y-72481416D01*
X91467440Y-72454588D01*
X91478172Y-72428679D01*
X91483643Y-72401174D01*
X91491781Y-72374347D01*
X91493421Y-72357694D01*
X91820091Y-72684365D01*
X91820097Y-72684370D01*
X91839921Y-72704194D01*
X91863236Y-72719773D01*
X91884909Y-72737559D01*
X91909633Y-72750774D01*
X91932951Y-72766355D01*
X91958861Y-72777087D01*
X91983584Y-72790302D01*
X92010415Y-72798441D01*
X92036321Y-72809172D01*
X92063817Y-72814641D01*
X92090652Y-72822782D01*
X92118560Y-72825531D01*
X92146057Y-72831000D01*
X92174097Y-72831000D01*
X92202000Y-72833748D01*
X92229903Y-72831000D01*
X92257943Y-72831000D01*
X92285440Y-72825530D01*
X92313347Y-72822782D01*
X92340180Y-72814642D01*
X92367679Y-72809172D01*
X92393588Y-72798440D01*
X92420415Y-72790302D01*
X92445135Y-72777089D01*
X92471049Y-72766355D01*
X92494371Y-72750771D01*
X92519090Y-72737559D01*
X92540760Y-72719776D01*
X92564079Y-72704194D01*
X92583908Y-72684365D01*
X92605580Y-72666580D01*
X92623367Y-72644906D01*
X92643194Y-72625079D01*
X92658776Y-72601760D01*
X92676559Y-72580090D01*
X92689771Y-72555371D01*
X92705355Y-72532049D01*
X92716089Y-72506135D01*
X92729302Y-72481415D01*
X92737440Y-72454588D01*
X92748172Y-72428679D01*
X92753642Y-72401180D01*
X92761782Y-72374347D01*
X92764530Y-72346440D01*
X92770000Y-72318943D01*
X92770000Y-72290903D01*
X92772748Y-72263000D01*
X92770000Y-72235097D01*
X92770000Y-72207057D01*
X92764531Y-72179560D01*
X92761782Y-72151652D01*
X92753641Y-72124817D01*
X92748172Y-72097321D01*
X92737441Y-72071415D01*
X92729302Y-72044584D01*
X92716087Y-72019861D01*
X92705355Y-71993951D01*
X92689774Y-71970633D01*
X92676559Y-71945909D01*
X92658773Y-71924236D01*
X92643194Y-71900921D01*
X92623370Y-71881097D01*
X92623365Y-71881091D01*
X91923364Y-71181092D01*
X91905570Y-71159410D01*
X91819081Y-71088430D01*
X91720406Y-71035688D01*
X91613337Y-71003209D01*
X91529890Y-70994990D01*
X91501990Y-70992242D01*
X91474090Y-70994990D01*
X89578263Y-70994990D01*
X89406010Y-70822737D01*
X89406010Y-64686262D01*
X90591364Y-63500909D01*
X90611194Y-63481079D01*
X90626777Y-63457758D01*
X90644558Y-63436091D01*
X90657770Y-63411373D01*
X90673355Y-63388049D01*
X90684088Y-63362137D01*
X90697302Y-63337416D01*
X90705440Y-63310588D01*
X90716172Y-63284679D01*
X90721643Y-63257176D01*
X90729781Y-63230348D01*
X90732529Y-63202447D01*
X90738000Y-63174943D01*
X90738000Y-63146901D01*
X90740748Y-63119001D01*
X90738000Y-63091100D01*
X90738000Y-63063057D01*
X90732529Y-63035552D01*
X90729781Y-63007653D01*
X90721643Y-62980827D01*
X90716172Y-62953321D01*
X90705439Y-62927410D01*
X90697302Y-62900585D01*
X90684090Y-62875867D01*
X90673355Y-62849951D01*
X90657768Y-62826623D01*
X90644558Y-62801910D01*
X90626781Y-62780248D01*
X90611194Y-62756921D01*
X90591358Y-62737085D01*
X90573579Y-62715421D01*
X90551915Y-62697642D01*
X90532079Y-62677806D01*
X90508752Y-62662219D01*
X90487090Y-62644442D01*
X90462377Y-62631232D01*
X90439049Y-62615645D01*
X90413133Y-62604910D01*
X90388415Y-62591698D01*
X90361590Y-62583561D01*
X90335679Y-62572828D01*
X90308173Y-62567357D01*
X90281347Y-62559219D01*
X90253448Y-62556471D01*
X90225943Y-62551000D01*
X90197899Y-62551000D01*
X90169999Y-62548252D01*
X90142099Y-62551000D01*
X90114057Y-62551000D01*
X90086553Y-62556471D01*
X90058652Y-62559219D01*
X90031824Y-62567357D01*
X90004321Y-62572828D01*
X89978412Y-62583560D01*
X89951584Y-62591698D01*
X89926863Y-62604912D01*
X89900951Y-62615645D01*
X89877627Y-62631230D01*
X89852909Y-62644442D01*
X89831242Y-62662223D01*
X89807921Y-62677806D01*
X89788091Y-62697636D01*
X88706000Y-63779728D01*
X88706000Y-63063057D01*
X88700529Y-63035552D01*
X88697781Y-63007653D01*
X88689643Y-62980826D01*
X88684172Y-62953321D01*
X88673440Y-62927412D01*
X88665302Y-62900584D01*
X88652086Y-62875859D01*
X88641355Y-62849951D01*
X88625778Y-62826638D01*
X88612560Y-62801909D01*
X88594770Y-62780232D01*
X88579194Y-62756921D01*
X88559370Y-62737097D01*
X88541580Y-62715420D01*
X88519903Y-62697630D01*
X88500079Y-62677806D01*
X88476768Y-62662230D01*
X88455091Y-62644440D01*
X88430362Y-62631222D01*
X88407049Y-62615645D01*
X88381141Y-62604914D01*
X88356416Y-62591698D01*
X88329588Y-62583560D01*
X88303679Y-62572828D01*
X88276174Y-62567357D01*
X88249347Y-62559219D01*
X88221448Y-62556471D01*
X88193943Y-62551000D01*
X88165900Y-62551000D01*
X88138000Y-62548252D01*
X88110100Y-62551000D01*
X88082057Y-62551000D01*
X88054551Y-62556471D01*
X88026654Y-62559219D01*
X87999829Y-62567356D01*
X87972321Y-62572828D01*
X87946409Y-62583561D01*
X87919585Y-62591698D01*
X87894863Y-62604912D01*
X87868951Y-62615645D01*
X87845634Y-62631225D01*
X87820910Y-62644440D01*
X87799237Y-62662227D01*
X87775921Y-62677806D01*
X87756092Y-62697635D01*
X87734421Y-62715420D01*
X87716636Y-62737091D01*
X87696806Y-62756921D01*
X87681226Y-62780238D01*
X87663441Y-62801909D01*
X87650227Y-62826631D01*
X87634645Y-62849951D01*
X87623910Y-62875867D01*
X87610699Y-62900584D01*
X87602564Y-62927403D01*
X87591828Y-62953321D01*
X87586355Y-62980836D01*
X87578220Y-63007653D01*
X87575473Y-63035542D01*
X87570000Y-63063057D01*
X87570000Y-63174943D01*
X87570001Y-63174948D01*
X87570000Y-71473100D01*
X87567252Y-71501000D01*
X80072000Y-71501000D01*
X80072000Y-70541496D01*
X81971497Y-68642000D01*
X85830244Y-68642000D01*
X85852000Y-68644143D01*
X85873756Y-68642000D01*
X85873759Y-68642000D01*
X85938843Y-68635590D01*
X86022349Y-68610259D01*
X86099308Y-68569123D01*
X86166764Y-68513764D01*
X86180639Y-68496857D01*
X87292862Y-67384635D01*
X87309764Y-67370764D01*
X87365123Y-67303308D01*
X87406259Y-67226349D01*
X87431590Y-67142843D01*
X87438000Y-67077759D01*
X87438000Y-67077757D01*
X87440143Y-67056001D01*
X87438000Y-67034244D01*
X87438000Y-63097376D01*
X87498355Y-63007049D01*
X87541172Y-62903679D01*
X87563000Y-62793943D01*
X87563000Y-62682057D01*
X87541172Y-62572321D01*
X87498355Y-62468951D01*
X87436194Y-62375921D01*
X87357079Y-62296806D01*
X87264049Y-62234645D01*
X87160679Y-62191828D01*
X87050943Y-62170000D01*
X86939057Y-62170000D01*
X86829321Y-62191828D01*
X86725951Y-62234645D01*
X86632921Y-62296806D01*
X86553806Y-62375921D01*
X86491645Y-62468951D01*
X86448828Y-62572321D01*
X86427000Y-62682057D01*
X86427000Y-62793943D01*
X86448828Y-62903679D01*
X86491645Y-63007049D01*
X86552000Y-63097376D01*
X86552001Y-66872502D01*
X85668504Y-67756000D01*
X81809756Y-67756000D01*
X81787999Y-67753857D01*
X81766243Y-67756000D01*
X81766241Y-67756000D01*
X81701157Y-67762410D01*
X81617651Y-67787741D01*
X81540692Y-67828877D01*
X81473236Y-67884236D01*
X81459365Y-67901138D01*
X79331143Y-70029361D01*
X79314236Y-70043236D01*
X79280838Y-70083933D01*
X79258877Y-70110692D01*
X79236890Y-70151828D01*
X79217741Y-70187652D01*
X79192410Y-70271158D01*
X79186000Y-70336241D01*
X79183857Y-70358000D01*
X79186000Y-70379757D01*
X79186001Y-73046623D01*
X79125645Y-73136951D01*
X79082828Y-73240321D01*
X79061000Y-73350057D01*
X75748000Y-73350057D01*
X75748000Y-56853826D01*
X77046827Y-55555000D01*
X78873160Y-55555000D01*
X78923434Y-55565000D01*
X79084566Y-55565000D01*
X79242602Y-55533565D01*
X79391468Y-55471902D01*
X79525445Y-55382382D01*
X79639382Y-55268445D01*
X79728902Y-55134468D01*
X79790565Y-54985602D01*
X79822000Y-54827566D01*
X79822000Y-54666434D01*
X79790565Y-54508398D01*
X79728902Y-54359532D01*
X79683193Y-54291124D01*
X79677432Y-54280345D01*
X79669679Y-54270898D01*
X79639382Y-54225555D01*
X79600818Y-54186991D01*
X79575211Y-54155789D01*
X79544009Y-54130182D01*
X79525445Y-54111618D01*
X79503617Y-54097033D01*
X79450655Y-54053568D01*
X79308549Y-53977611D01*
X79154356Y-53930837D01*
X79034175Y-53919000D01*
X76748167Y-53919000D01*
X76708000Y-53915044D01*
X76667832Y-53919000D01*
X76667825Y-53919000D01*
X76547644Y-53930837D01*
X76393450Y-53977611D01*
X76251345Y-54053568D01*
X76157994Y-54130179D01*
X76157991Y-54130182D01*
X76126789Y-54155789D01*
X76101182Y-54186991D01*
X74379992Y-55908182D01*
X74348790Y-55933789D01*
X74323183Y-55964991D01*
X74323179Y-55964995D01*
X74246568Y-56058346D01*
X74170612Y-56200451D01*
X74123837Y-56354645D01*
X74108044Y-56515000D01*
X74112001Y-56555178D01*
X74112000Y-83652833D01*
X74108044Y-83693000D01*
X74112000Y-83733167D01*
X74112000Y-83733174D01*
X74123837Y-83853355D01*
X74170611Y-84007548D01*
X74246568Y-84149654D01*
X74348789Y-84274211D01*
X74379996Y-84299822D01*
X84352173Y-94272000D01*
X76549776Y-94272000D01*
X76017241Y-94219784D01*
X75521121Y-94069997D01*
X75063550Y-93826703D01*
X74661947Y-93499163D01*
X74331611Y-93099856D01*
X74085125Y-92643988D01*
X73931880Y-92148936D01*
X73876010Y-91617373D01*
X73876000Y-91614378D01*
X73876000Y-91426094D01*
X74615000Y-91426094D01*
X74615000Y-91803906D01*
X74688708Y-92174460D01*
X74833291Y-92523514D01*
X75043192Y-92837653D01*
X75310347Y-93104808D01*
X75624486Y-93314709D01*
X75973540Y-93459292D01*
X76344094Y-93533000D01*
X76721906Y-93533000D01*
X77092460Y-93459292D01*
X77441514Y-93314709D01*
X77755653Y-93104808D01*
X78022808Y-92837653D01*
X78232709Y-92523514D01*
X78377292Y-92174460D01*
X78451000Y-91803906D01*
X78451000Y-91426094D01*
X78377292Y-91055540D01*
X78232709Y-90706486D01*
X78022808Y-90392347D01*
X77755653Y-90125192D01*
X77441514Y-89915291D01*
X77092460Y-89770708D01*
X76721906Y-89697000D01*
X76344094Y-89697000D01*
X75973540Y-89770708D01*
X75624486Y-89915291D01*
X75310347Y-90125192D01*
X75043192Y-90392347D01*
X74833291Y-90706486D01*
X74688708Y-91055540D01*
X74615000Y-91426094D01*
X73876000Y-91426094D01*
X73876000Y-52126283D01*
X85388000Y-52126283D01*
X85388000Y-52267717D01*
X85415592Y-52406433D01*
X85469717Y-52537100D01*
X85538000Y-52639294D01*
X85538001Y-55725090D01*
X85535252Y-55753000D01*
X85546219Y-55864347D01*
X85578698Y-55971415D01*
X85599789Y-56010874D01*
X85631441Y-56070091D01*
X85702421Y-56156580D01*
X85724098Y-56174370D01*
X90199636Y-60649910D01*
X90217421Y-60671581D01*
X90303910Y-60742561D01*
X90402585Y-60795303D01*
X90509653Y-60827783D01*
X90621001Y-60838749D01*
X90648904Y-60836001D01*
X91435706Y-60836001D01*
X91537899Y-60904284D01*
X91668566Y-60958409D01*
X91807282Y-60986001D01*
X91948716Y-60986001D01*
X92087432Y-60958409D01*
X92218099Y-60904284D01*
X92335697Y-60825708D01*
X92435706Y-60725699D01*
X92514282Y-60608101D01*
X92568407Y-60477434D01*
X92595999Y-60338718D01*
X92595999Y-60197284D01*
X92568407Y-60058568D01*
X92514282Y-59927901D01*
X92446861Y-59826997D01*
X92453275Y-59831283D01*
X92583942Y-59885408D01*
X92722658Y-59913000D01*
X92864092Y-59913000D01*
X93002808Y-59885408D01*
X93133475Y-59831283D01*
X93251073Y-59752707D01*
X93253780Y-59750000D01*
X95522728Y-59750000D01*
X96784001Y-61011275D01*
X96784002Y-73227724D01*
X95522728Y-74489000D01*
X91628293Y-74489000D01*
X91526100Y-74420717D01*
X91395433Y-74366592D01*
X91256717Y-74339000D01*
X91115283Y-74339000D01*
X90976567Y-74366592D01*
X90845900Y-74420717D01*
X90728302Y-74499293D01*
X90628293Y-74599302D01*
X90549717Y-74716900D01*
X90495592Y-74847567D01*
X90468000Y-74986283D01*
X90468000Y-75127717D01*
X90495592Y-75266433D01*
X90549717Y-75397100D01*
X90628293Y-75514698D01*
X90728302Y-75614707D01*
X90845900Y-75693283D01*
X90976567Y-75747408D01*
X91115283Y-75775000D01*
X91256717Y-75775000D01*
X91395433Y-75747408D01*
X91526100Y-75693283D01*
X91628293Y-75625000D01*
X95730100Y-75625000D01*
X95758000Y-75627748D01*
X95785900Y-75625000D01*
X95869347Y-75616781D01*
X95976416Y-75584302D01*
X96075091Y-75531560D01*
X96161580Y-75460580D01*
X96179374Y-75438898D01*
X97457490Y-74160783D01*
X114407500Y-74160783D01*
X114407500Y-74302217D01*
X114435092Y-74440933D01*
X114489217Y-74571600D01*
X114567793Y-74689198D01*
X114667802Y-74789207D01*
X114785400Y-74867783D01*
X114916067Y-74921908D01*
X115054783Y-74949500D01*
X115196217Y-74949500D01*
X115334933Y-74921908D01*
X115465600Y-74867783D01*
X115583198Y-74789207D01*
X115683207Y-74689198D01*
X115761783Y-74571600D01*
X115815908Y-74440933D01*
X115839886Y-74320386D01*
X121442909Y-68717365D01*
X121464580Y-68699580D01*
X121535560Y-68613091D01*
X121588302Y-68514416D01*
X121593627Y-68496863D01*
X121620782Y-68407348D01*
X121631748Y-68296000D01*
X121629000Y-68268097D01*
X121629000Y-49688293D01*
X121697283Y-49586100D01*
X121751408Y-49455433D01*
X121779000Y-49316717D01*
X121779000Y-49175283D01*
X121751408Y-49036567D01*
X121697283Y-48905900D01*
X121618707Y-48788302D01*
X121518698Y-48688293D01*
X121401100Y-48609717D01*
X121270433Y-48555592D01*
X121131717Y-48528000D01*
X120990283Y-48528000D01*
X120851567Y-48555592D01*
X120720900Y-48609717D01*
X120603302Y-48688293D01*
X120503293Y-48788302D01*
X120424717Y-48905900D01*
X120370592Y-49036567D01*
X120343000Y-49175283D01*
X120343000Y-49316717D01*
X120370592Y-49455433D01*
X120424717Y-49586100D01*
X120493000Y-49688293D01*
X120493001Y-68060725D01*
X115036614Y-73517114D01*
X114916067Y-73541092D01*
X114785400Y-73595217D01*
X114667802Y-73673793D01*
X114567793Y-73773802D01*
X114489217Y-73891400D01*
X114435092Y-74022067D01*
X114407500Y-74160783D01*
X97457490Y-74160783D01*
X97733910Y-73884364D01*
X97755581Y-73866579D01*
X97826561Y-73780090D01*
X97879303Y-73681415D01*
X97905451Y-73595217D01*
X97911782Y-73574347D01*
X97922749Y-73462999D01*
X97920001Y-73435099D01*
X97920001Y-60803901D01*
X97922749Y-60776001D01*
X97911782Y-60664653D01*
X97879303Y-60557585D01*
X97826561Y-60458910D01*
X97755581Y-60372421D01*
X97733910Y-60354636D01*
X96179374Y-58800102D01*
X96161580Y-58778420D01*
X96075091Y-58707440D01*
X95976416Y-58654698D01*
X95869347Y-58622219D01*
X95785900Y-58614000D01*
X95758000Y-58611252D01*
X95730100Y-58614000D01*
X93216212Y-58614000D01*
X93133475Y-58558717D01*
X93002808Y-58504592D01*
X92864092Y-58477000D01*
X92722658Y-58477000D01*
X92583942Y-58504592D01*
X92453275Y-58558717D01*
X92335677Y-58637293D01*
X92235668Y-58737302D01*
X92157092Y-58854900D01*
X92102967Y-58985567D01*
X92075375Y-59124283D01*
X92075375Y-59265717D01*
X92102967Y-59404433D01*
X92157092Y-59535100D01*
X92224513Y-59636004D01*
X92218099Y-59631718D01*
X92087432Y-59577593D01*
X91948716Y-59550001D01*
X91807282Y-59550001D01*
X91668566Y-59577593D01*
X91537899Y-59631718D01*
X91435706Y-59700001D01*
X90856275Y-59700001D01*
X86674000Y-55517728D01*
X86674000Y-52639293D01*
X86742283Y-52537100D01*
X86796408Y-52406433D01*
X86824000Y-52267717D01*
X86824000Y-52126283D01*
X86796408Y-51987567D01*
X86742283Y-51856900D01*
X86663707Y-51739302D01*
X86563698Y-51639293D01*
X86446100Y-51560717D01*
X86315433Y-51506592D01*
X86176717Y-51479000D01*
X86035283Y-51479000D01*
X85896567Y-51506592D01*
X85765900Y-51560717D01*
X85648302Y-51639293D01*
X85548293Y-51739302D01*
X85469717Y-51856900D01*
X85415592Y-51987567D01*
X85388000Y-52126283D01*
X73876000Y-52126283D01*
X73876000Y-47040529D01*
X73894326Y-46880094D01*
X74615000Y-46880094D01*
X74615000Y-47257906D01*
X74688708Y-47628460D01*
X74833291Y-47977514D01*
X75043192Y-48291653D01*
X75310347Y-48558808D01*
X75624486Y-48768709D01*
X75973540Y-48913292D01*
X76344094Y-48987000D01*
X76721906Y-48987000D01*
X77092460Y-48913292D01*
X77441514Y-48768709D01*
X77755653Y-48558808D01*
X78022808Y-48291653D01*
X78232709Y-47977514D01*
X78377292Y-47628460D01*
X78451000Y-47257906D01*
X78451000Y-46880094D01*
X78377292Y-46509540D01*
X78232709Y-46160486D01*
X78022808Y-45846347D01*
X77755653Y-45579192D01*
X77441514Y-45369291D01*
X77092460Y-45224708D01*
X76721906Y-45151000D01*
X76344094Y-45151000D01*
X75973540Y-45224708D01*
X75624486Y-45369291D01*
X75310347Y-45579192D01*
X75043192Y-45846347D01*
X74833291Y-46160486D01*
X74688708Y-46509540D01*
X74615000Y-46880094D01*
X73894326Y-46880094D01*
X73936425Y-46511554D01*
X74094152Y-46017823D01*
X74344772Y-45564139D01*
X74678746Y-45167766D01*
X75083341Y-44843817D01*
X75543159Y-44604621D01*
X76040675Y-44459294D01*
X76572337Y-44412000D01*
X89518226Y-44412000D01*
X89591399Y-44419174D01*
G37*
%TD.AperFunction*%
%TD*%
M02*
