%TF.GenerationSoftware,KiCad,Pcbnew,(5.1.12)-1*%
%TF.CreationDate,2022-08-12T23:07:16+09:00*%
%TF.ProjectId,STAC,53544143-2e6b-4696-9361-645f70636258,rev?*%
%TF.SameCoordinates,Original*%
%TF.FileFunction,Soldermask,Bot*%
%TF.FilePolarity,Negative*%
%FSLAX46Y46*%
G04 Gerber Fmt 4.6, Leading zero omitted, Abs format (unit mm)*
G04 Created by KiCad (PCBNEW (5.1.12)-1) date 2022-08-12 23:07:16*
%MOMM*%
%LPD*%
G01*
G04 APERTURE LIST*
%ADD10C,2.500000*%
%ADD11C,3.000000*%
%ADD12C,3.200000*%
%ADD13C,0.100000*%
%ADD14R,1.500000X1.000000*%
G04 APERTURE END LIST*
D10*
%TO.C,K1*%
X97835000Y-90759000D03*
D11*
X110035000Y-90759000D03*
X110085000Y-78709000D03*
D10*
X97835000Y-78759000D03*
D11*
X95885000Y-84709000D03*
%TD*%
D12*
%TO.C,H1*%
X131366000Y-47069000D03*
%TD*%
%TO.C,H2*%
X76533000Y-91615000D03*
%TD*%
%TO.C,H3*%
X131366000Y-91615000D03*
%TD*%
%TO.C,H4*%
X76533000Y-47069000D03*
%TD*%
D13*
%TO.C,JP1*%
G36*
X111645602Y-83155000D02*
G01*
X111645602Y-83130466D01*
X111650412Y-83081635D01*
X111659984Y-83033510D01*
X111674228Y-82986555D01*
X111693005Y-82941222D01*
X111716136Y-82897949D01*
X111743396Y-82857150D01*
X111774524Y-82819221D01*
X111809221Y-82784524D01*
X111847150Y-82753396D01*
X111887949Y-82726136D01*
X111931222Y-82703005D01*
X111976555Y-82684228D01*
X112023510Y-82669984D01*
X112071635Y-82660412D01*
X112120466Y-82655602D01*
X112145000Y-82655602D01*
X112145000Y-82655000D01*
X112645000Y-82655000D01*
X112645000Y-82655602D01*
X112669534Y-82655602D01*
X112718365Y-82660412D01*
X112766490Y-82669984D01*
X112813445Y-82684228D01*
X112858778Y-82703005D01*
X112902051Y-82726136D01*
X112942850Y-82753396D01*
X112980779Y-82784524D01*
X113015476Y-82819221D01*
X113046604Y-82857150D01*
X113073864Y-82897949D01*
X113096995Y-82941222D01*
X113115772Y-82986555D01*
X113130016Y-83033510D01*
X113139588Y-83081635D01*
X113144398Y-83130466D01*
X113144398Y-83155000D01*
X113145000Y-83155000D01*
X113145000Y-83705000D01*
X111645000Y-83705000D01*
X111645000Y-83155000D01*
X111645602Y-83155000D01*
G37*
D14*
X112395000Y-84455000D03*
D13*
G36*
X113145000Y-85205000D02*
G01*
X113145000Y-85755000D01*
X113144398Y-85755000D01*
X113144398Y-85779534D01*
X113139588Y-85828365D01*
X113130016Y-85876490D01*
X113115772Y-85923445D01*
X113096995Y-85968778D01*
X113073864Y-86012051D01*
X113046604Y-86052850D01*
X113015476Y-86090779D01*
X112980779Y-86125476D01*
X112942850Y-86156604D01*
X112902051Y-86183864D01*
X112858778Y-86206995D01*
X112813445Y-86225772D01*
X112766490Y-86240016D01*
X112718365Y-86249588D01*
X112669534Y-86254398D01*
X112645000Y-86254398D01*
X112645000Y-86255000D01*
X112145000Y-86255000D01*
X112145000Y-86254398D01*
X112120466Y-86254398D01*
X112071635Y-86249588D01*
X112023510Y-86240016D01*
X111976555Y-86225772D01*
X111931222Y-86206995D01*
X111887949Y-86183864D01*
X111847150Y-86156604D01*
X111809221Y-86125476D01*
X111774524Y-86090779D01*
X111743396Y-86052850D01*
X111716136Y-86012051D01*
X111693005Y-85968778D01*
X111674228Y-85923445D01*
X111659984Y-85876490D01*
X111650412Y-85828365D01*
X111645602Y-85779534D01*
X111645602Y-85755000D01*
X111645000Y-85755000D01*
X111645000Y-85205000D01*
X113145000Y-85205000D01*
G37*
%TD*%
M02*
