%TF.GenerationSoftware,KiCad,Pcbnew,(5.1.12)-1*%
%TF.CreationDate,2022-08-12T23:07:16+09:00*%
%TF.ProjectId,STAC,53544143-2e6b-4696-9361-645f70636258,rev?*%
%TF.SameCoordinates,Original*%
%TF.FileFunction,Paste,Top*%
%TF.FilePolarity,Positive*%
%FSLAX46Y46*%
G04 Gerber Fmt 4.6, Leading zero omitted, Abs format (unit mm)*
G04 Created by KiCad (PCBNEW (5.1.12)-1) date 2022-08-12 23:07:16*
%MOMM*%
%LPD*%
G01*
G04 APERTURE LIST*
%ADD10C,0.100000*%
%ADD11R,1.200000X0.900000*%
%ADD12R,2.400000X1.500000*%
%ADD13R,1.000000X0.750000*%
%ADD14R,0.650000X1.060000*%
%ADD15R,3.800000X2.000000*%
%ADD16R,1.500000X2.000000*%
%ADD17R,5.000000X5.000000*%
%ADD18R,2.000000X0.900000*%
%ADD19R,0.900000X2.000000*%
%ADD20R,0.800000X0.900000*%
G04 APERTURE END LIST*
%TO.C,R11*%
G36*
G01*
X114660000Y-63291000D02*
X115210000Y-63291000D01*
G75*
G02*
X115410000Y-63491000I0J-200000D01*
G01*
X115410000Y-63891000D01*
G75*
G02*
X115210000Y-64091000I-200000J0D01*
G01*
X114660000Y-64091000D01*
G75*
G02*
X114460000Y-63891000I0J200000D01*
G01*
X114460000Y-63491000D01*
G75*
G02*
X114660000Y-63291000I200000J0D01*
G01*
G37*
G36*
G01*
X114660000Y-64941000D02*
X115210000Y-64941000D01*
G75*
G02*
X115410000Y-65141000I0J-200000D01*
G01*
X115410000Y-65541000D01*
G75*
G02*
X115210000Y-65741000I-200000J0D01*
G01*
X114660000Y-65741000D01*
G75*
G02*
X114460000Y-65541000I0J200000D01*
G01*
X114460000Y-65141000D01*
G75*
G02*
X114660000Y-64941000I200000J0D01*
G01*
G37*
%TD*%
%TO.C,R12*%
G36*
G01*
X114660000Y-67989000D02*
X115210000Y-67989000D01*
G75*
G02*
X115410000Y-68189000I0J-200000D01*
G01*
X115410000Y-68589000D01*
G75*
G02*
X115210000Y-68789000I-200000J0D01*
G01*
X114660000Y-68789000D01*
G75*
G02*
X114460000Y-68589000I0J200000D01*
G01*
X114460000Y-68189000D01*
G75*
G02*
X114660000Y-67989000I200000J0D01*
G01*
G37*
G36*
G01*
X114660000Y-66339000D02*
X115210000Y-66339000D01*
G75*
G02*
X115410000Y-66539000I0J-200000D01*
G01*
X115410000Y-66939000D01*
G75*
G02*
X115210000Y-67139000I-200000J0D01*
G01*
X114660000Y-67139000D01*
G75*
G02*
X114460000Y-66939000I0J200000D01*
G01*
X114460000Y-66539000D01*
G75*
G02*
X114660000Y-66339000I200000J0D01*
G01*
G37*
%TD*%
%TO.C,U5*%
G36*
G01*
X116991000Y-85194000D02*
X116991000Y-85494000D01*
G75*
G02*
X116841000Y-85644000I-150000J0D01*
G01*
X115141000Y-85644000D01*
G75*
G02*
X114991000Y-85494000I0J150000D01*
G01*
X114991000Y-85194000D01*
G75*
G02*
X115141000Y-85044000I150000J0D01*
G01*
X116841000Y-85044000D01*
G75*
G02*
X116991000Y-85194000I0J-150000D01*
G01*
G37*
G36*
G01*
X116991000Y-83924000D02*
X116991000Y-84224000D01*
G75*
G02*
X116841000Y-84374000I-150000J0D01*
G01*
X115141000Y-84374000D01*
G75*
G02*
X114991000Y-84224000I0J150000D01*
G01*
X114991000Y-83924000D01*
G75*
G02*
X115141000Y-83774000I150000J0D01*
G01*
X116841000Y-83774000D01*
G75*
G02*
X116991000Y-83924000I0J-150000D01*
G01*
G37*
G36*
G01*
X116991000Y-82654000D02*
X116991000Y-82954000D01*
G75*
G02*
X116841000Y-83104000I-150000J0D01*
G01*
X115141000Y-83104000D01*
G75*
G02*
X114991000Y-82954000I0J150000D01*
G01*
X114991000Y-82654000D01*
G75*
G02*
X115141000Y-82504000I150000J0D01*
G01*
X116841000Y-82504000D01*
G75*
G02*
X116991000Y-82654000I0J-150000D01*
G01*
G37*
G36*
G01*
X116991000Y-81384000D02*
X116991000Y-81684000D01*
G75*
G02*
X116841000Y-81834000I-150000J0D01*
G01*
X115141000Y-81834000D01*
G75*
G02*
X114991000Y-81684000I0J150000D01*
G01*
X114991000Y-81384000D01*
G75*
G02*
X115141000Y-81234000I150000J0D01*
G01*
X116841000Y-81234000D01*
G75*
G02*
X116991000Y-81384000I0J-150000D01*
G01*
G37*
G36*
G01*
X116991000Y-80114000D02*
X116991000Y-80414000D01*
G75*
G02*
X116841000Y-80564000I-150000J0D01*
G01*
X115141000Y-80564000D01*
G75*
G02*
X114991000Y-80414000I0J150000D01*
G01*
X114991000Y-80114000D01*
G75*
G02*
X115141000Y-79964000I150000J0D01*
G01*
X116841000Y-79964000D01*
G75*
G02*
X116991000Y-80114000I0J-150000D01*
G01*
G37*
G36*
G01*
X116991000Y-78844000D02*
X116991000Y-79144000D01*
G75*
G02*
X116841000Y-79294000I-150000J0D01*
G01*
X115141000Y-79294000D01*
G75*
G02*
X114991000Y-79144000I0J150000D01*
G01*
X114991000Y-78844000D01*
G75*
G02*
X115141000Y-78694000I150000J0D01*
G01*
X116841000Y-78694000D01*
G75*
G02*
X116991000Y-78844000I0J-150000D01*
G01*
G37*
G36*
G01*
X116991000Y-77574000D02*
X116991000Y-77874000D01*
G75*
G02*
X116841000Y-78024000I-150000J0D01*
G01*
X115141000Y-78024000D01*
G75*
G02*
X114991000Y-77874000I0J150000D01*
G01*
X114991000Y-77574000D01*
G75*
G02*
X115141000Y-77424000I150000J0D01*
G01*
X116841000Y-77424000D01*
G75*
G02*
X116991000Y-77574000I0J-150000D01*
G01*
G37*
G36*
G01*
X116991000Y-76304000D02*
X116991000Y-76604000D01*
G75*
G02*
X116841000Y-76754000I-150000J0D01*
G01*
X115141000Y-76754000D01*
G75*
G02*
X114991000Y-76604000I0J150000D01*
G01*
X114991000Y-76304000D01*
G75*
G02*
X115141000Y-76154000I150000J0D01*
G01*
X116841000Y-76154000D01*
G75*
G02*
X116991000Y-76304000I0J-150000D01*
G01*
G37*
G36*
G01*
X121991000Y-76304000D02*
X121991000Y-76604000D01*
G75*
G02*
X121841000Y-76754000I-150000J0D01*
G01*
X120141000Y-76754000D01*
G75*
G02*
X119991000Y-76604000I0J150000D01*
G01*
X119991000Y-76304000D01*
G75*
G02*
X120141000Y-76154000I150000J0D01*
G01*
X121841000Y-76154000D01*
G75*
G02*
X121991000Y-76304000I0J-150000D01*
G01*
G37*
G36*
G01*
X121991000Y-77574000D02*
X121991000Y-77874000D01*
G75*
G02*
X121841000Y-78024000I-150000J0D01*
G01*
X120141000Y-78024000D01*
G75*
G02*
X119991000Y-77874000I0J150000D01*
G01*
X119991000Y-77574000D01*
G75*
G02*
X120141000Y-77424000I150000J0D01*
G01*
X121841000Y-77424000D01*
G75*
G02*
X121991000Y-77574000I0J-150000D01*
G01*
G37*
G36*
G01*
X121991000Y-78844000D02*
X121991000Y-79144000D01*
G75*
G02*
X121841000Y-79294000I-150000J0D01*
G01*
X120141000Y-79294000D01*
G75*
G02*
X119991000Y-79144000I0J150000D01*
G01*
X119991000Y-78844000D01*
G75*
G02*
X120141000Y-78694000I150000J0D01*
G01*
X121841000Y-78694000D01*
G75*
G02*
X121991000Y-78844000I0J-150000D01*
G01*
G37*
G36*
G01*
X121991000Y-80114000D02*
X121991000Y-80414000D01*
G75*
G02*
X121841000Y-80564000I-150000J0D01*
G01*
X120141000Y-80564000D01*
G75*
G02*
X119991000Y-80414000I0J150000D01*
G01*
X119991000Y-80114000D01*
G75*
G02*
X120141000Y-79964000I150000J0D01*
G01*
X121841000Y-79964000D01*
G75*
G02*
X121991000Y-80114000I0J-150000D01*
G01*
G37*
G36*
G01*
X121991000Y-81384000D02*
X121991000Y-81684000D01*
G75*
G02*
X121841000Y-81834000I-150000J0D01*
G01*
X120141000Y-81834000D01*
G75*
G02*
X119991000Y-81684000I0J150000D01*
G01*
X119991000Y-81384000D01*
G75*
G02*
X120141000Y-81234000I150000J0D01*
G01*
X121841000Y-81234000D01*
G75*
G02*
X121991000Y-81384000I0J-150000D01*
G01*
G37*
G36*
G01*
X121991000Y-82654000D02*
X121991000Y-82954000D01*
G75*
G02*
X121841000Y-83104000I-150000J0D01*
G01*
X120141000Y-83104000D01*
G75*
G02*
X119991000Y-82954000I0J150000D01*
G01*
X119991000Y-82654000D01*
G75*
G02*
X120141000Y-82504000I150000J0D01*
G01*
X121841000Y-82504000D01*
G75*
G02*
X121991000Y-82654000I0J-150000D01*
G01*
G37*
G36*
G01*
X121991000Y-83924000D02*
X121991000Y-84224000D01*
G75*
G02*
X121841000Y-84374000I-150000J0D01*
G01*
X120141000Y-84374000D01*
G75*
G02*
X119991000Y-84224000I0J150000D01*
G01*
X119991000Y-83924000D01*
G75*
G02*
X120141000Y-83774000I150000J0D01*
G01*
X121841000Y-83774000D01*
G75*
G02*
X121991000Y-83924000I0J-150000D01*
G01*
G37*
G36*
G01*
X121991000Y-85194000D02*
X121991000Y-85494000D01*
G75*
G02*
X121841000Y-85644000I-150000J0D01*
G01*
X120141000Y-85644000D01*
G75*
G02*
X119991000Y-85494000I0J150000D01*
G01*
X119991000Y-85194000D01*
G75*
G02*
X120141000Y-85044000I150000J0D01*
G01*
X121841000Y-85044000D01*
G75*
G02*
X121991000Y-85194000I0J-150000D01*
G01*
G37*
%TD*%
%TO.C,U1*%
G36*
G01*
X93322000Y-70253000D02*
X93622000Y-70253000D01*
G75*
G02*
X93772000Y-70403000I0J-150000D01*
G01*
X93772000Y-71753000D01*
G75*
G02*
X93622000Y-71903000I-150000J0D01*
G01*
X93322000Y-71903000D01*
G75*
G02*
X93172000Y-71753000I0J150000D01*
G01*
X93172000Y-70403000D01*
G75*
G02*
X93322000Y-70253000I150000J0D01*
G01*
G37*
G36*
G01*
X92052000Y-70253000D02*
X92352000Y-70253000D01*
G75*
G02*
X92502000Y-70403000I0J-150000D01*
G01*
X92502000Y-71753000D01*
G75*
G02*
X92352000Y-71903000I-150000J0D01*
G01*
X92052000Y-71903000D01*
G75*
G02*
X91902000Y-71753000I0J150000D01*
G01*
X91902000Y-70403000D01*
G75*
G02*
X92052000Y-70253000I150000J0D01*
G01*
G37*
G36*
G01*
X90782000Y-70253000D02*
X91082000Y-70253000D01*
G75*
G02*
X91232000Y-70403000I0J-150000D01*
G01*
X91232000Y-71753000D01*
G75*
G02*
X91082000Y-71903000I-150000J0D01*
G01*
X90782000Y-71903000D01*
G75*
G02*
X90632000Y-71753000I0J150000D01*
G01*
X90632000Y-70403000D01*
G75*
G02*
X90782000Y-70253000I150000J0D01*
G01*
G37*
G36*
G01*
X89512000Y-70253000D02*
X89812000Y-70253000D01*
G75*
G02*
X89962000Y-70403000I0J-150000D01*
G01*
X89962000Y-71753000D01*
G75*
G02*
X89812000Y-71903000I-150000J0D01*
G01*
X89512000Y-71903000D01*
G75*
G02*
X89362000Y-71753000I0J150000D01*
G01*
X89362000Y-70403000D01*
G75*
G02*
X89512000Y-70253000I150000J0D01*
G01*
G37*
G36*
G01*
X89512000Y-65003000D02*
X89812000Y-65003000D01*
G75*
G02*
X89962000Y-65153000I0J-150000D01*
G01*
X89962000Y-66503000D01*
G75*
G02*
X89812000Y-66653000I-150000J0D01*
G01*
X89512000Y-66653000D01*
G75*
G02*
X89362000Y-66503000I0J150000D01*
G01*
X89362000Y-65153000D01*
G75*
G02*
X89512000Y-65003000I150000J0D01*
G01*
G37*
G36*
G01*
X90782000Y-65003000D02*
X91082000Y-65003000D01*
G75*
G02*
X91232000Y-65153000I0J-150000D01*
G01*
X91232000Y-66503000D01*
G75*
G02*
X91082000Y-66653000I-150000J0D01*
G01*
X90782000Y-66653000D01*
G75*
G02*
X90632000Y-66503000I0J150000D01*
G01*
X90632000Y-65153000D01*
G75*
G02*
X90782000Y-65003000I150000J0D01*
G01*
G37*
G36*
G01*
X92052000Y-65003000D02*
X92352000Y-65003000D01*
G75*
G02*
X92502000Y-65153000I0J-150000D01*
G01*
X92502000Y-66503000D01*
G75*
G02*
X92352000Y-66653000I-150000J0D01*
G01*
X92052000Y-66653000D01*
G75*
G02*
X91902000Y-66503000I0J150000D01*
G01*
X91902000Y-65153000D01*
G75*
G02*
X92052000Y-65003000I150000J0D01*
G01*
G37*
G36*
G01*
X93322000Y-65003000D02*
X93622000Y-65003000D01*
G75*
G02*
X93772000Y-65153000I0J-150000D01*
G01*
X93772000Y-66503000D01*
G75*
G02*
X93622000Y-66653000I-150000J0D01*
G01*
X93322000Y-66653000D01*
G75*
G02*
X93172000Y-66503000I0J150000D01*
G01*
X93172000Y-65153000D01*
G75*
G02*
X93322000Y-65003000I150000J0D01*
G01*
G37*
D10*
G36*
X89917000Y-67253000D02*
G01*
X93217000Y-67253000D01*
X93217000Y-69653000D01*
X89917000Y-69653000D01*
X89917000Y-67253000D01*
G37*
%TD*%
%TO.C,C1*%
G36*
G01*
X84021000Y-61816000D02*
X84021000Y-60866000D01*
G75*
G02*
X84271000Y-60616000I250000J0D01*
G01*
X84771000Y-60616000D01*
G75*
G02*
X85021000Y-60866000I0J-250000D01*
G01*
X85021000Y-61816000D01*
G75*
G02*
X84771000Y-62066000I-250000J0D01*
G01*
X84271000Y-62066000D01*
G75*
G02*
X84021000Y-61816000I0J250000D01*
G01*
G37*
G36*
G01*
X85921000Y-61816000D02*
X85921000Y-60866000D01*
G75*
G02*
X86171000Y-60616000I250000J0D01*
G01*
X86671000Y-60616000D01*
G75*
G02*
X86921000Y-60866000I0J-250000D01*
G01*
X86921000Y-61816000D01*
G75*
G02*
X86671000Y-62066000I-250000J0D01*
G01*
X86171000Y-62066000D01*
G75*
G02*
X85921000Y-61816000I0J250000D01*
G01*
G37*
%TD*%
%TO.C,C2*%
G36*
G01*
X87011000Y-83519000D02*
X89011000Y-83519000D01*
G75*
G02*
X89261000Y-83769000I0J-250000D01*
G01*
X89261000Y-86769000D01*
G75*
G02*
X89011000Y-87019000I-250000J0D01*
G01*
X87011000Y-87019000D01*
G75*
G02*
X86761000Y-86769000I0J250000D01*
G01*
X86761000Y-83769000D01*
G75*
G02*
X87011000Y-83519000I250000J0D01*
G01*
G37*
G36*
G01*
X87011000Y-90019000D02*
X89011000Y-90019000D01*
G75*
G02*
X89261000Y-90269000I0J-250000D01*
G01*
X89261000Y-93269000D01*
G75*
G02*
X89011000Y-93519000I-250000J0D01*
G01*
X87011000Y-93519000D01*
G75*
G02*
X86761000Y-93269000I0J250000D01*
G01*
X86761000Y-90269000D01*
G75*
G02*
X87011000Y-90019000I250000J0D01*
G01*
G37*
%TD*%
%TO.C,C3*%
G36*
G01*
X83497000Y-71788000D02*
X83497000Y-72738000D01*
G75*
G02*
X83247000Y-72988000I-250000J0D01*
G01*
X82747000Y-72988000D01*
G75*
G02*
X82497000Y-72738000I0J250000D01*
G01*
X82497000Y-71788000D01*
G75*
G02*
X82747000Y-71538000I250000J0D01*
G01*
X83247000Y-71538000D01*
G75*
G02*
X83497000Y-71788000I0J-250000D01*
G01*
G37*
G36*
G01*
X85397000Y-71788000D02*
X85397000Y-72738000D01*
G75*
G02*
X85147000Y-72988000I-250000J0D01*
G01*
X84647000Y-72988000D01*
G75*
G02*
X84397000Y-72738000I0J250000D01*
G01*
X84397000Y-71788000D01*
G75*
G02*
X84647000Y-71538000I250000J0D01*
G01*
X85147000Y-71538000D01*
G75*
G02*
X85397000Y-71788000I0J-250000D01*
G01*
G37*
%TD*%
%TO.C,C4*%
G36*
G01*
X125345000Y-75380000D02*
X124845000Y-75380000D01*
G75*
G02*
X124620000Y-75155000I0J225000D01*
G01*
X124620000Y-74705000D01*
G75*
G02*
X124845000Y-74480000I225000J0D01*
G01*
X125345000Y-74480000D01*
G75*
G02*
X125570000Y-74705000I0J-225000D01*
G01*
X125570000Y-75155000D01*
G75*
G02*
X125345000Y-75380000I-225000J0D01*
G01*
G37*
G36*
G01*
X125345000Y-73830000D02*
X124845000Y-73830000D01*
G75*
G02*
X124620000Y-73605000I0J225000D01*
G01*
X124620000Y-73155000D01*
G75*
G02*
X124845000Y-72930000I225000J0D01*
G01*
X125345000Y-72930000D01*
G75*
G02*
X125570000Y-73155000I0J-225000D01*
G01*
X125570000Y-73605000D01*
G75*
G02*
X125345000Y-73830000I-225000J0D01*
G01*
G37*
%TD*%
%TO.C,C5*%
G36*
G01*
X93595000Y-82124000D02*
X93095000Y-82124000D01*
G75*
G02*
X92870000Y-81899000I0J225000D01*
G01*
X92870000Y-81449000D01*
G75*
G02*
X93095000Y-81224000I225000J0D01*
G01*
X93595000Y-81224000D01*
G75*
G02*
X93820000Y-81449000I0J-225000D01*
G01*
X93820000Y-81899000D01*
G75*
G02*
X93595000Y-82124000I-225000J0D01*
G01*
G37*
G36*
G01*
X93595000Y-80574000D02*
X93095000Y-80574000D01*
G75*
G02*
X92870000Y-80349000I0J225000D01*
G01*
X92870000Y-79899000D01*
G75*
G02*
X93095000Y-79674000I225000J0D01*
G01*
X93595000Y-79674000D01*
G75*
G02*
X93820000Y-79899000I0J-225000D01*
G01*
X93820000Y-80349000D01*
G75*
G02*
X93595000Y-80574000I-225000J0D01*
G01*
G37*
%TD*%
%TO.C,C6*%
G36*
G01*
X123629000Y-84234000D02*
X123629000Y-85184000D01*
G75*
G02*
X123379000Y-85434000I-250000J0D01*
G01*
X122879000Y-85434000D01*
G75*
G02*
X122629000Y-85184000I0J250000D01*
G01*
X122629000Y-84234000D01*
G75*
G02*
X122879000Y-83984000I250000J0D01*
G01*
X123379000Y-83984000D01*
G75*
G02*
X123629000Y-84234000I0J-250000D01*
G01*
G37*
G36*
G01*
X125529000Y-84234000D02*
X125529000Y-85184000D01*
G75*
G02*
X125279000Y-85434000I-250000J0D01*
G01*
X124779000Y-85434000D01*
G75*
G02*
X124529000Y-85184000I0J250000D01*
G01*
X124529000Y-84234000D01*
G75*
G02*
X124779000Y-83984000I250000J0D01*
G01*
X125279000Y-83984000D01*
G75*
G02*
X125529000Y-84234000I0J-250000D01*
G01*
G37*
%TD*%
%TO.C,C7*%
G36*
G01*
X86405000Y-52447000D02*
X86405000Y-51947000D01*
G75*
G02*
X86630000Y-51722000I225000J0D01*
G01*
X87080000Y-51722000D01*
G75*
G02*
X87305000Y-51947000I0J-225000D01*
G01*
X87305000Y-52447000D01*
G75*
G02*
X87080000Y-52672000I-225000J0D01*
G01*
X86630000Y-52672000D01*
G75*
G02*
X86405000Y-52447000I0J225000D01*
G01*
G37*
G36*
G01*
X87955000Y-52447000D02*
X87955000Y-51947000D01*
G75*
G02*
X88180000Y-51722000I225000J0D01*
G01*
X88630000Y-51722000D01*
G75*
G02*
X88855000Y-51947000I0J-225000D01*
G01*
X88855000Y-52447000D01*
G75*
G02*
X88630000Y-52672000I-225000J0D01*
G01*
X88180000Y-52672000D01*
G75*
G02*
X87955000Y-52447000I0J225000D01*
G01*
G37*
%TD*%
%TO.C,C8*%
G36*
G01*
X88689000Y-73029000D02*
X88689000Y-73529000D01*
G75*
G02*
X88464000Y-73754000I-225000J0D01*
G01*
X88014000Y-73754000D01*
G75*
G02*
X87789000Y-73529000I0J225000D01*
G01*
X87789000Y-73029000D01*
G75*
G02*
X88014000Y-72804000I225000J0D01*
G01*
X88464000Y-72804000D01*
G75*
G02*
X88689000Y-73029000I0J-225000D01*
G01*
G37*
G36*
G01*
X90239000Y-73029000D02*
X90239000Y-73529000D01*
G75*
G02*
X90014000Y-73754000I-225000J0D01*
G01*
X89564000Y-73754000D01*
G75*
G02*
X89339000Y-73529000I0J225000D01*
G01*
X89339000Y-73029000D01*
G75*
G02*
X89564000Y-72804000I225000J0D01*
G01*
X90014000Y-72804000D01*
G75*
G02*
X90239000Y-73029000I0J-225000D01*
G01*
G37*
%TD*%
%TO.C,C9*%
G36*
G01*
X116377000Y-75053000D02*
X116377000Y-74553000D01*
G75*
G02*
X116602000Y-74328000I225000J0D01*
G01*
X117052000Y-74328000D01*
G75*
G02*
X117277000Y-74553000I0J-225000D01*
G01*
X117277000Y-75053000D01*
G75*
G02*
X117052000Y-75278000I-225000J0D01*
G01*
X116602000Y-75278000D01*
G75*
G02*
X116377000Y-75053000I0J225000D01*
G01*
G37*
G36*
G01*
X117927000Y-75053000D02*
X117927000Y-74553000D01*
G75*
G02*
X118152000Y-74328000I225000J0D01*
G01*
X118602000Y-74328000D01*
G75*
G02*
X118827000Y-74553000I0J-225000D01*
G01*
X118827000Y-75053000D01*
G75*
G02*
X118602000Y-75278000I-225000J0D01*
G01*
X118152000Y-75278000D01*
G75*
G02*
X117927000Y-75053000I0J225000D01*
G01*
G37*
%TD*%
%TO.C,C10*%
G36*
G01*
X120975000Y-75053000D02*
X120975000Y-74553000D01*
G75*
G02*
X121200000Y-74328000I225000J0D01*
G01*
X121650000Y-74328000D01*
G75*
G02*
X121875000Y-74553000I0J-225000D01*
G01*
X121875000Y-75053000D01*
G75*
G02*
X121650000Y-75278000I-225000J0D01*
G01*
X121200000Y-75278000D01*
G75*
G02*
X120975000Y-75053000I0J225000D01*
G01*
G37*
G36*
G01*
X119425000Y-75053000D02*
X119425000Y-74553000D01*
G75*
G02*
X119650000Y-74328000I225000J0D01*
G01*
X120100000Y-74328000D01*
G75*
G02*
X120325000Y-74553000I0J-225000D01*
G01*
X120325000Y-75053000D01*
G75*
G02*
X120100000Y-75278000I-225000J0D01*
G01*
X119650000Y-75278000D01*
G75*
G02*
X119425000Y-75053000I0J225000D01*
G01*
G37*
%TD*%
%TO.C,C11*%
G36*
G01*
X93476000Y-58745000D02*
X93976000Y-58745000D01*
G75*
G02*
X94201000Y-58970000I0J-225000D01*
G01*
X94201000Y-59420000D01*
G75*
G02*
X93976000Y-59645000I-225000J0D01*
G01*
X93476000Y-59645000D01*
G75*
G02*
X93251000Y-59420000I0J225000D01*
G01*
X93251000Y-58970000D01*
G75*
G02*
X93476000Y-58745000I225000J0D01*
G01*
G37*
G36*
G01*
X93476000Y-57195000D02*
X93976000Y-57195000D01*
G75*
G02*
X94201000Y-57420000I0J-225000D01*
G01*
X94201000Y-57870000D01*
G75*
G02*
X93976000Y-58095000I-225000J0D01*
G01*
X93476000Y-58095000D01*
G75*
G02*
X93251000Y-57870000I0J225000D01*
G01*
X93251000Y-57420000D01*
G75*
G02*
X93476000Y-57195000I225000J0D01*
G01*
G37*
%TD*%
%TO.C,C12*%
G36*
G01*
X115070000Y-87724000D02*
X115070000Y-86774000D01*
G75*
G02*
X115320000Y-86524000I250000J0D01*
G01*
X115820000Y-86524000D01*
G75*
G02*
X116070000Y-86774000I0J-250000D01*
G01*
X116070000Y-87724000D01*
G75*
G02*
X115820000Y-87974000I-250000J0D01*
G01*
X115320000Y-87974000D01*
G75*
G02*
X115070000Y-87724000I0J250000D01*
G01*
G37*
G36*
G01*
X116970000Y-87724000D02*
X116970000Y-86774000D01*
G75*
G02*
X117220000Y-86524000I250000J0D01*
G01*
X117720000Y-86524000D01*
G75*
G02*
X117970000Y-86774000I0J-250000D01*
G01*
X117970000Y-87724000D01*
G75*
G02*
X117720000Y-87974000I-250000J0D01*
G01*
X117220000Y-87974000D01*
G75*
G02*
X116970000Y-87724000I0J250000D01*
G01*
G37*
%TD*%
D11*
%TO.C,D1*%
X84328000Y-70484000D03*
X84328000Y-67184000D03*
%TD*%
%TO.C,D2*%
G36*
G01*
X87153000Y-55496750D02*
X87153000Y-56009250D01*
G75*
G02*
X86934250Y-56228000I-218750J0D01*
G01*
X86496750Y-56228000D01*
G75*
G02*
X86278000Y-56009250I0J218750D01*
G01*
X86278000Y-55496750D01*
G75*
G02*
X86496750Y-55278000I218750J0D01*
G01*
X86934250Y-55278000D01*
G75*
G02*
X87153000Y-55496750I0J-218750D01*
G01*
G37*
G36*
G01*
X88728000Y-55496750D02*
X88728000Y-56009250D01*
G75*
G02*
X88509250Y-56228000I-218750J0D01*
G01*
X88071750Y-56228000D01*
G75*
G02*
X87853000Y-56009250I0J218750D01*
G01*
X87853000Y-55496750D01*
G75*
G02*
X88071750Y-55278000I218750J0D01*
G01*
X88509250Y-55278000D01*
G75*
G02*
X88728000Y-55496750I0J-218750D01*
G01*
G37*
%TD*%
%TO.C,D3*%
G36*
G01*
X83343000Y-55496750D02*
X83343000Y-56009250D01*
G75*
G02*
X83124250Y-56228000I-218750J0D01*
G01*
X82686750Y-56228000D01*
G75*
G02*
X82468000Y-56009250I0J218750D01*
G01*
X82468000Y-55496750D01*
G75*
G02*
X82686750Y-55278000I218750J0D01*
G01*
X83124250Y-55278000D01*
G75*
G02*
X83343000Y-55496750I0J-218750D01*
G01*
G37*
G36*
G01*
X84918000Y-55496750D02*
X84918000Y-56009250D01*
G75*
G02*
X84699250Y-56228000I-218750J0D01*
G01*
X84261750Y-56228000D01*
G75*
G02*
X84043000Y-56009250I0J218750D01*
G01*
X84043000Y-55496750D01*
G75*
G02*
X84261750Y-55278000I218750J0D01*
G01*
X84699250Y-55278000D01*
G75*
G02*
X84918000Y-55496750I0J-218750D01*
G01*
G37*
%TD*%
%TO.C,D4*%
G36*
G01*
X93300000Y-73022750D02*
X93300000Y-73535250D01*
G75*
G02*
X93081250Y-73754000I-218750J0D01*
G01*
X92643750Y-73754000D01*
G75*
G02*
X92425000Y-73535250I0J218750D01*
G01*
X92425000Y-73022750D01*
G75*
G02*
X92643750Y-72804000I218750J0D01*
G01*
X93081250Y-72804000D01*
G75*
G02*
X93300000Y-73022750I0J-218750D01*
G01*
G37*
G36*
G01*
X91725000Y-73022750D02*
X91725000Y-73535250D01*
G75*
G02*
X91506250Y-73754000I-218750J0D01*
G01*
X91068750Y-73754000D01*
G75*
G02*
X90850000Y-73535250I0J218750D01*
G01*
X90850000Y-73022750D01*
G75*
G02*
X91068750Y-72804000I218750J0D01*
G01*
X91506250Y-72804000D01*
G75*
G02*
X91725000Y-73022750I0J-218750D01*
G01*
G37*
%TD*%
%TO.C,J1*%
G36*
G01*
X76608999Y-57497000D02*
X79109001Y-57497000D01*
G75*
G02*
X79359000Y-57746999I0J-249999D01*
G01*
X79359000Y-59347001D01*
G75*
G02*
X79109001Y-59597000I-249999J0D01*
G01*
X76608999Y-59597000D01*
G75*
G02*
X76359000Y-59347001I0J249999D01*
G01*
X76359000Y-57746999D01*
G75*
G02*
X76608999Y-57497000I249999J0D01*
G01*
G37*
G36*
G01*
X76608999Y-51147000D02*
X79109001Y-51147000D01*
G75*
G02*
X79359000Y-51396999I0J-249999D01*
G01*
X79359000Y-52997001D01*
G75*
G02*
X79109001Y-53247000I-249999J0D01*
G01*
X76608999Y-53247000D01*
G75*
G02*
X76359000Y-52997001I0J249999D01*
G01*
X76359000Y-51396999D01*
G75*
G02*
X76608999Y-51147000I249999J0D01*
G01*
G37*
G36*
G01*
X80159000Y-55597000D02*
X81359000Y-55597000D01*
G75*
G02*
X81559000Y-55797000I0J-200000D01*
G01*
X81559000Y-56197000D01*
G75*
G02*
X81359000Y-56397000I-200000J0D01*
G01*
X80159000Y-56397000D01*
G75*
G02*
X79959000Y-56197000I0J200000D01*
G01*
X79959000Y-55797000D01*
G75*
G02*
X80159000Y-55597000I200000J0D01*
G01*
G37*
G36*
G01*
X80159000Y-54347000D02*
X81359000Y-54347000D01*
G75*
G02*
X81559000Y-54547000I0J-200000D01*
G01*
X81559000Y-54947000D01*
G75*
G02*
X81359000Y-55147000I-200000J0D01*
G01*
X80159000Y-55147000D01*
G75*
G02*
X79959000Y-54947000I0J200000D01*
G01*
X79959000Y-54547000D01*
G75*
G02*
X80159000Y-54347000I200000J0D01*
G01*
G37*
%TD*%
%TO.C,J2*%
G36*
G01*
X80159000Y-82541000D02*
X81359000Y-82541000D01*
G75*
G02*
X81559000Y-82741000I0J-200000D01*
G01*
X81559000Y-83141000D01*
G75*
G02*
X81359000Y-83341000I-200000J0D01*
G01*
X80159000Y-83341000D01*
G75*
G02*
X79959000Y-83141000I0J200000D01*
G01*
X79959000Y-82741000D01*
G75*
G02*
X80159000Y-82541000I200000J0D01*
G01*
G37*
G36*
G01*
X80159000Y-83791000D02*
X81359000Y-83791000D01*
G75*
G02*
X81559000Y-83991000I0J-200000D01*
G01*
X81559000Y-84391000D01*
G75*
G02*
X81359000Y-84591000I-200000J0D01*
G01*
X80159000Y-84591000D01*
G75*
G02*
X79959000Y-84391000I0J200000D01*
G01*
X79959000Y-83991000D01*
G75*
G02*
X80159000Y-83791000I200000J0D01*
G01*
G37*
G36*
G01*
X76608999Y-79341000D02*
X79109001Y-79341000D01*
G75*
G02*
X79359000Y-79590999I0J-249999D01*
G01*
X79359000Y-81191001D01*
G75*
G02*
X79109001Y-81441000I-249999J0D01*
G01*
X76608999Y-81441000D01*
G75*
G02*
X76359000Y-81191001I0J249999D01*
G01*
X76359000Y-79590999D01*
G75*
G02*
X76608999Y-79341000I249999J0D01*
G01*
G37*
G36*
G01*
X76608999Y-85691000D02*
X79109001Y-85691000D01*
G75*
G02*
X79359000Y-85940999I0J-249999D01*
G01*
X79359000Y-87541001D01*
G75*
G02*
X79109001Y-87791000I-249999J0D01*
G01*
X76608999Y-87791000D01*
G75*
G02*
X76359000Y-87541001I0J249999D01*
G01*
X76359000Y-85940999D01*
G75*
G02*
X76608999Y-85691000I249999J0D01*
G01*
G37*
%TD*%
%TO.C,J3*%
G36*
G01*
X131417001Y-77016000D02*
X128916999Y-77016000D01*
G75*
G02*
X128667000Y-76766001I0J249999D01*
G01*
X128667000Y-75165999D01*
G75*
G02*
X128916999Y-74916000I249999J0D01*
G01*
X131417001Y-74916000D01*
G75*
G02*
X131667000Y-75165999I0J-249999D01*
G01*
X131667000Y-76766001D01*
G75*
G02*
X131417001Y-77016000I-249999J0D01*
G01*
G37*
G36*
G01*
X131417001Y-85866000D02*
X128916999Y-85866000D01*
G75*
G02*
X128667000Y-85616001I0J249999D01*
G01*
X128667000Y-84015999D01*
G75*
G02*
X128916999Y-83766000I249999J0D01*
G01*
X131417001Y-83766000D01*
G75*
G02*
X131667000Y-84015999I0J-249999D01*
G01*
X131667000Y-85616001D01*
G75*
G02*
X131417001Y-85866000I-249999J0D01*
G01*
G37*
G36*
G01*
X127867000Y-78916000D02*
X126667000Y-78916000D01*
G75*
G02*
X126467000Y-78716000I0J200000D01*
G01*
X126467000Y-78316000D01*
G75*
G02*
X126667000Y-78116000I200000J0D01*
G01*
X127867000Y-78116000D01*
G75*
G02*
X128067000Y-78316000I0J-200000D01*
G01*
X128067000Y-78716000D01*
G75*
G02*
X127867000Y-78916000I-200000J0D01*
G01*
G37*
G36*
G01*
X127867000Y-80166000D02*
X126667000Y-80166000D01*
G75*
G02*
X126467000Y-79966000I0J200000D01*
G01*
X126467000Y-79566000D01*
G75*
G02*
X126667000Y-79366000I200000J0D01*
G01*
X127867000Y-79366000D01*
G75*
G02*
X128067000Y-79566000I0J-200000D01*
G01*
X128067000Y-79966000D01*
G75*
G02*
X127867000Y-80166000I-200000J0D01*
G01*
G37*
G36*
G01*
X127867000Y-81416000D02*
X126667000Y-81416000D01*
G75*
G02*
X126467000Y-81216000I0J200000D01*
G01*
X126467000Y-80816000D01*
G75*
G02*
X126667000Y-80616000I200000J0D01*
G01*
X127867000Y-80616000D01*
G75*
G02*
X128067000Y-80816000I0J-200000D01*
G01*
X128067000Y-81216000D01*
G75*
G02*
X127867000Y-81416000I-200000J0D01*
G01*
G37*
G36*
G01*
X127867000Y-82666000D02*
X126667000Y-82666000D01*
G75*
G02*
X126467000Y-82466000I0J200000D01*
G01*
X126467000Y-82066000D01*
G75*
G02*
X126667000Y-81866000I200000J0D01*
G01*
X127867000Y-81866000D01*
G75*
G02*
X128067000Y-82066000I0J-200000D01*
G01*
X128067000Y-82466000D01*
G75*
G02*
X127867000Y-82666000I-200000J0D01*
G01*
G37*
%TD*%
%TO.C,J4*%
G36*
G01*
X127867000Y-58536000D02*
X126667000Y-58536000D01*
G75*
G02*
X126467000Y-58336000I0J200000D01*
G01*
X126467000Y-57936000D01*
G75*
G02*
X126667000Y-57736000I200000J0D01*
G01*
X127867000Y-57736000D01*
G75*
G02*
X128067000Y-57936000I0J-200000D01*
G01*
X128067000Y-58336000D01*
G75*
G02*
X127867000Y-58536000I-200000J0D01*
G01*
G37*
G36*
G01*
X127867000Y-57286000D02*
X126667000Y-57286000D01*
G75*
G02*
X126467000Y-57086000I0J200000D01*
G01*
X126467000Y-56686000D01*
G75*
G02*
X126667000Y-56486000I200000J0D01*
G01*
X127867000Y-56486000D01*
G75*
G02*
X128067000Y-56686000I0J-200000D01*
G01*
X128067000Y-57086000D01*
G75*
G02*
X127867000Y-57286000I-200000J0D01*
G01*
G37*
G36*
G01*
X127867000Y-56036000D02*
X126667000Y-56036000D01*
G75*
G02*
X126467000Y-55836000I0J200000D01*
G01*
X126467000Y-55436000D01*
G75*
G02*
X126667000Y-55236000I200000J0D01*
G01*
X127867000Y-55236000D01*
G75*
G02*
X128067000Y-55436000I0J-200000D01*
G01*
X128067000Y-55836000D01*
G75*
G02*
X127867000Y-56036000I-200000J0D01*
G01*
G37*
G36*
G01*
X127867000Y-54786000D02*
X126667000Y-54786000D01*
G75*
G02*
X126467000Y-54586000I0J200000D01*
G01*
X126467000Y-54186000D01*
G75*
G02*
X126667000Y-53986000I200000J0D01*
G01*
X127867000Y-53986000D01*
G75*
G02*
X128067000Y-54186000I0J-200000D01*
G01*
X128067000Y-54586000D01*
G75*
G02*
X127867000Y-54786000I-200000J0D01*
G01*
G37*
G36*
G01*
X131417001Y-61736000D02*
X128916999Y-61736000D01*
G75*
G02*
X128667000Y-61486001I0J249999D01*
G01*
X128667000Y-59885999D01*
G75*
G02*
X128916999Y-59636000I249999J0D01*
G01*
X131417001Y-59636000D01*
G75*
G02*
X131667000Y-59885999I0J-249999D01*
G01*
X131667000Y-61486001D01*
G75*
G02*
X131417001Y-61736000I-249999J0D01*
G01*
G37*
G36*
G01*
X131417001Y-52886000D02*
X128916999Y-52886000D01*
G75*
G02*
X128667000Y-52636001I0J249999D01*
G01*
X128667000Y-51035999D01*
G75*
G02*
X128916999Y-50786000I249999J0D01*
G01*
X131417001Y-50786000D01*
G75*
G02*
X131667000Y-51035999I0J-249999D01*
G01*
X131667000Y-52636001D01*
G75*
G02*
X131417001Y-52886000I-249999J0D01*
G01*
G37*
%TD*%
%TO.C,J5*%
G36*
G01*
X127867000Y-70601000D02*
X126667000Y-70601000D01*
G75*
G02*
X126467000Y-70401000I0J200000D01*
G01*
X126467000Y-70001000D01*
G75*
G02*
X126667000Y-69801000I200000J0D01*
G01*
X127867000Y-69801000D01*
G75*
G02*
X128067000Y-70001000I0J-200000D01*
G01*
X128067000Y-70401000D01*
G75*
G02*
X127867000Y-70601000I-200000J0D01*
G01*
G37*
G36*
G01*
X127867000Y-69351000D02*
X126667000Y-69351000D01*
G75*
G02*
X126467000Y-69151000I0J200000D01*
G01*
X126467000Y-68751000D01*
G75*
G02*
X126667000Y-68551000I200000J0D01*
G01*
X127867000Y-68551000D01*
G75*
G02*
X128067000Y-68751000I0J-200000D01*
G01*
X128067000Y-69151000D01*
G75*
G02*
X127867000Y-69351000I-200000J0D01*
G01*
G37*
G36*
G01*
X127867000Y-68101000D02*
X126667000Y-68101000D01*
G75*
G02*
X126467000Y-67901000I0J200000D01*
G01*
X126467000Y-67501000D01*
G75*
G02*
X126667000Y-67301000I200000J0D01*
G01*
X127867000Y-67301000D01*
G75*
G02*
X128067000Y-67501000I0J-200000D01*
G01*
X128067000Y-67901000D01*
G75*
G02*
X127867000Y-68101000I-200000J0D01*
G01*
G37*
G36*
G01*
X127867000Y-66851000D02*
X126667000Y-66851000D01*
G75*
G02*
X126467000Y-66651000I0J200000D01*
G01*
X126467000Y-66251000D01*
G75*
G02*
X126667000Y-66051000I200000J0D01*
G01*
X127867000Y-66051000D01*
G75*
G02*
X128067000Y-66251000I0J-200000D01*
G01*
X128067000Y-66651000D01*
G75*
G02*
X127867000Y-66851000I-200000J0D01*
G01*
G37*
G36*
G01*
X131417001Y-73801000D02*
X128916999Y-73801000D01*
G75*
G02*
X128667000Y-73551001I0J249999D01*
G01*
X128667000Y-71950999D01*
G75*
G02*
X128916999Y-71701000I249999J0D01*
G01*
X131417001Y-71701000D01*
G75*
G02*
X131667000Y-71950999I0J-249999D01*
G01*
X131667000Y-73551001D01*
G75*
G02*
X131417001Y-73801000I-249999J0D01*
G01*
G37*
G36*
G01*
X131417001Y-64951000D02*
X128916999Y-64951000D01*
G75*
G02*
X128667000Y-64701001I0J249999D01*
G01*
X128667000Y-63100999D01*
G75*
G02*
X128916999Y-62851000I249999J0D01*
G01*
X131417001Y-62851000D01*
G75*
G02*
X131667000Y-63100999I0J-249999D01*
G01*
X131667000Y-64701001D01*
G75*
G02*
X131417001Y-64951000I-249999J0D01*
G01*
G37*
%TD*%
D12*
%TO.C,L1*%
X79756000Y-61429000D03*
X79756000Y-66929000D03*
%TD*%
%TO.C,L2*%
G36*
G01*
X125050000Y-82547750D02*
X125050000Y-83060250D01*
G75*
G02*
X124831250Y-83279000I-218750J0D01*
G01*
X124393750Y-83279000D01*
G75*
G02*
X124175000Y-83060250I0J218750D01*
G01*
X124175000Y-82547750D01*
G75*
G02*
X124393750Y-82329000I218750J0D01*
G01*
X124831250Y-82329000D01*
G75*
G02*
X125050000Y-82547750I0J-218750D01*
G01*
G37*
G36*
G01*
X123475000Y-82547750D02*
X123475000Y-83060250D01*
G75*
G02*
X123256250Y-83279000I-218750J0D01*
G01*
X122818750Y-83279000D01*
G75*
G02*
X122600000Y-83060250I0J218750D01*
G01*
X122600000Y-82547750D01*
G75*
G02*
X122818750Y-82329000I218750J0D01*
G01*
X123256250Y-82329000D01*
G75*
G02*
X123475000Y-82547750I0J-218750D01*
G01*
G37*
%TD*%
%TO.C,R1*%
G36*
G01*
X92881000Y-63775000D02*
X92881000Y-63225000D01*
G75*
G02*
X93081000Y-63025000I200000J0D01*
G01*
X93481000Y-63025000D01*
G75*
G02*
X93681000Y-63225000I0J-200000D01*
G01*
X93681000Y-63775000D01*
G75*
G02*
X93481000Y-63975000I-200000J0D01*
G01*
X93081000Y-63975000D01*
G75*
G02*
X92881000Y-63775000I0J200000D01*
G01*
G37*
G36*
G01*
X91231000Y-63775000D02*
X91231000Y-63225000D01*
G75*
G02*
X91431000Y-63025000I200000J0D01*
G01*
X91831000Y-63025000D01*
G75*
G02*
X92031000Y-63225000I0J-200000D01*
G01*
X92031000Y-63775000D01*
G75*
G02*
X91831000Y-63975000I-200000J0D01*
G01*
X91431000Y-63975000D01*
G75*
G02*
X91231000Y-63775000I0J200000D01*
G01*
G37*
%TD*%
%TO.C,R2*%
G36*
G01*
X86762000Y-71837000D02*
X86212000Y-71837000D01*
G75*
G02*
X86012000Y-71637000I0J200000D01*
G01*
X86012000Y-71237000D01*
G75*
G02*
X86212000Y-71037000I200000J0D01*
G01*
X86762000Y-71037000D01*
G75*
G02*
X86962000Y-71237000I0J-200000D01*
G01*
X86962000Y-71637000D01*
G75*
G02*
X86762000Y-71837000I-200000J0D01*
G01*
G37*
G36*
G01*
X86762000Y-70187000D02*
X86212000Y-70187000D01*
G75*
G02*
X86012000Y-69987000I0J200000D01*
G01*
X86012000Y-69587000D01*
G75*
G02*
X86212000Y-69387000I200000J0D01*
G01*
X86762000Y-69387000D01*
G75*
G02*
X86962000Y-69587000I0J-200000D01*
G01*
X86962000Y-69987000D01*
G75*
G02*
X86762000Y-70187000I-200000J0D01*
G01*
G37*
%TD*%
%TO.C,R3*%
G36*
G01*
X86024000Y-67458000D02*
X86024000Y-66908000D01*
G75*
G02*
X86224000Y-66708000I200000J0D01*
G01*
X86624000Y-66708000D01*
G75*
G02*
X86824000Y-66908000I0J-200000D01*
G01*
X86824000Y-67458000D01*
G75*
G02*
X86624000Y-67658000I-200000J0D01*
G01*
X86224000Y-67658000D01*
G75*
G02*
X86024000Y-67458000I0J200000D01*
G01*
G37*
G36*
G01*
X87674000Y-67458000D02*
X87674000Y-66908000D01*
G75*
G02*
X87874000Y-66708000I200000J0D01*
G01*
X88274000Y-66708000D01*
G75*
G02*
X88474000Y-66908000I0J-200000D01*
G01*
X88474000Y-67458000D01*
G75*
G02*
X88274000Y-67658000I-200000J0D01*
G01*
X87874000Y-67658000D01*
G75*
G02*
X87674000Y-67458000I0J200000D01*
G01*
G37*
%TD*%
%TO.C,R4*%
G36*
G01*
X89895000Y-60370000D02*
X90445000Y-60370000D01*
G75*
G02*
X90645000Y-60570000I0J-200000D01*
G01*
X90645000Y-60970000D01*
G75*
G02*
X90445000Y-61170000I-200000J0D01*
G01*
X89895000Y-61170000D01*
G75*
G02*
X89695000Y-60970000I0J200000D01*
G01*
X89695000Y-60570000D01*
G75*
G02*
X89895000Y-60370000I200000J0D01*
G01*
G37*
G36*
G01*
X89895000Y-62020000D02*
X90445000Y-62020000D01*
G75*
G02*
X90645000Y-62220000I0J-200000D01*
G01*
X90645000Y-62620000D01*
G75*
G02*
X90445000Y-62820000I-200000J0D01*
G01*
X89895000Y-62820000D01*
G75*
G02*
X89695000Y-62620000I0J200000D01*
G01*
X89695000Y-62220000D01*
G75*
G02*
X89895000Y-62020000I200000J0D01*
G01*
G37*
%TD*%
%TO.C,R5*%
G36*
G01*
X87863000Y-62020000D02*
X88413000Y-62020000D01*
G75*
G02*
X88613000Y-62220000I0J-200000D01*
G01*
X88613000Y-62620000D01*
G75*
G02*
X88413000Y-62820000I-200000J0D01*
G01*
X87863000Y-62820000D01*
G75*
G02*
X87663000Y-62620000I0J200000D01*
G01*
X87663000Y-62220000D01*
G75*
G02*
X87863000Y-62020000I200000J0D01*
G01*
G37*
G36*
G01*
X87863000Y-60370000D02*
X88413000Y-60370000D01*
G75*
G02*
X88613000Y-60570000I0J-200000D01*
G01*
X88613000Y-60970000D01*
G75*
G02*
X88413000Y-61170000I-200000J0D01*
G01*
X87863000Y-61170000D01*
G75*
G02*
X87663000Y-60970000I0J200000D01*
G01*
X87663000Y-60570000D01*
G75*
G02*
X87863000Y-60370000I200000J0D01*
G01*
G37*
%TD*%
%TO.C,R6*%
G36*
G01*
X122600000Y-78253000D02*
X122600000Y-77703000D01*
G75*
G02*
X122800000Y-77503000I200000J0D01*
G01*
X123200000Y-77503000D01*
G75*
G02*
X123400000Y-77703000I0J-200000D01*
G01*
X123400000Y-78253000D01*
G75*
G02*
X123200000Y-78453000I-200000J0D01*
G01*
X122800000Y-78453000D01*
G75*
G02*
X122600000Y-78253000I0J200000D01*
G01*
G37*
G36*
G01*
X124250000Y-78253000D02*
X124250000Y-77703000D01*
G75*
G02*
X124450000Y-77503000I200000J0D01*
G01*
X124850000Y-77503000D01*
G75*
G02*
X125050000Y-77703000I0J-200000D01*
G01*
X125050000Y-78253000D01*
G75*
G02*
X124850000Y-78453000I-200000J0D01*
G01*
X124450000Y-78453000D01*
G75*
G02*
X124250000Y-78253000I0J200000D01*
G01*
G37*
%TD*%
%TO.C,R7*%
G36*
G01*
X83421000Y-52472000D02*
X83421000Y-51922000D01*
G75*
G02*
X83621000Y-51722000I200000J0D01*
G01*
X84021000Y-51722000D01*
G75*
G02*
X84221000Y-51922000I0J-200000D01*
G01*
X84221000Y-52472000D01*
G75*
G02*
X84021000Y-52672000I-200000J0D01*
G01*
X83621000Y-52672000D01*
G75*
G02*
X83421000Y-52472000I0J200000D01*
G01*
G37*
G36*
G01*
X85071000Y-52472000D02*
X85071000Y-51922000D01*
G75*
G02*
X85271000Y-51722000I200000J0D01*
G01*
X85671000Y-51722000D01*
G75*
G02*
X85871000Y-51922000I0J-200000D01*
G01*
X85871000Y-52472000D01*
G75*
G02*
X85671000Y-52672000I-200000J0D01*
G01*
X85271000Y-52672000D01*
G75*
G02*
X85071000Y-52472000I0J200000D01*
G01*
G37*
%TD*%
%TO.C,R8*%
G36*
G01*
X124250000Y-76729000D02*
X124250000Y-76179000D01*
G75*
G02*
X124450000Y-75979000I200000J0D01*
G01*
X124850000Y-75979000D01*
G75*
G02*
X125050000Y-76179000I0J-200000D01*
G01*
X125050000Y-76729000D01*
G75*
G02*
X124850000Y-76929000I-200000J0D01*
G01*
X124450000Y-76929000D01*
G75*
G02*
X124250000Y-76729000I0J200000D01*
G01*
G37*
G36*
G01*
X122600000Y-76729000D02*
X122600000Y-76179000D01*
G75*
G02*
X122800000Y-75979000I200000J0D01*
G01*
X123200000Y-75979000D01*
G75*
G02*
X123400000Y-76179000I0J-200000D01*
G01*
X123400000Y-76729000D01*
G75*
G02*
X123200000Y-76929000I-200000J0D01*
G01*
X122800000Y-76929000D01*
G75*
G02*
X122600000Y-76729000I0J200000D01*
G01*
G37*
%TD*%
%TO.C,R9*%
G36*
G01*
X119400000Y-88244000D02*
X119400000Y-88794000D01*
G75*
G02*
X119200000Y-88994000I-200000J0D01*
G01*
X118800000Y-88994000D01*
G75*
G02*
X118600000Y-88794000I0J200000D01*
G01*
X118600000Y-88244000D01*
G75*
G02*
X118800000Y-88044000I200000J0D01*
G01*
X119200000Y-88044000D01*
G75*
G02*
X119400000Y-88244000I0J-200000D01*
G01*
G37*
G36*
G01*
X121050000Y-88244000D02*
X121050000Y-88794000D01*
G75*
G02*
X120850000Y-88994000I-200000J0D01*
G01*
X120450000Y-88994000D01*
G75*
G02*
X120250000Y-88794000I0J200000D01*
G01*
X120250000Y-88244000D01*
G75*
G02*
X120450000Y-88044000I200000J0D01*
G01*
X120850000Y-88044000D01*
G75*
G02*
X121050000Y-88244000I0J-200000D01*
G01*
G37*
%TD*%
%TO.C,R10*%
G36*
G01*
X120250000Y-87270000D02*
X120250000Y-86720000D01*
G75*
G02*
X120450000Y-86520000I200000J0D01*
G01*
X120850000Y-86520000D01*
G75*
G02*
X121050000Y-86720000I0J-200000D01*
G01*
X121050000Y-87270000D01*
G75*
G02*
X120850000Y-87470000I-200000J0D01*
G01*
X120450000Y-87470000D01*
G75*
G02*
X120250000Y-87270000I0J200000D01*
G01*
G37*
G36*
G01*
X118600000Y-87270000D02*
X118600000Y-86720000D01*
G75*
G02*
X118800000Y-86520000I200000J0D01*
G01*
X119200000Y-86520000D01*
G75*
G02*
X119400000Y-86720000I0J-200000D01*
G01*
X119400000Y-87270000D01*
G75*
G02*
X119200000Y-87470000I-200000J0D01*
G01*
X118800000Y-87470000D01*
G75*
G02*
X118600000Y-87270000I0J200000D01*
G01*
G37*
%TD*%
D13*
%TO.C,S1*%
X89106000Y-49246000D03*
X83106000Y-49246000D03*
X89106000Y-45496000D03*
X83106000Y-45496000D03*
%TD*%
%TO.C,S2*%
X119555000Y-45496000D03*
X125555000Y-45496000D03*
X119555000Y-49246000D03*
X125555000Y-49246000D03*
%TD*%
D14*
%TO.C,U2*%
X84521000Y-65489000D03*
X85471000Y-65489000D03*
X86421000Y-65489000D03*
X86421000Y-63289000D03*
X84521000Y-63289000D03*
X85471000Y-63289000D03*
%TD*%
D15*
%TO.C,U3*%
X88900000Y-75336000D03*
D16*
X88900000Y-81636000D03*
X91200000Y-81636000D03*
X86600000Y-81636000D03*
%TD*%
D17*
%TO.C,U4*%
X103318001Y-65228001D03*
D18*
X95818001Y-57728001D03*
X95818001Y-58998001D03*
X95818001Y-60268001D03*
X95818001Y-61538001D03*
X95818001Y-62808001D03*
X95818001Y-64078001D03*
X95818001Y-65348001D03*
X95818001Y-66618001D03*
X95818001Y-67888001D03*
X95818001Y-69158001D03*
X95818001Y-70428001D03*
X95818001Y-71698001D03*
X95818001Y-72968001D03*
X95818001Y-74238001D03*
D19*
X98603001Y-75238001D03*
X99873001Y-75238001D03*
X101143001Y-75238001D03*
X102413001Y-75238001D03*
X103683001Y-75238001D03*
X104953001Y-75238001D03*
X106223001Y-75238001D03*
X107493001Y-75238001D03*
X108763001Y-75238001D03*
X110033001Y-75238001D03*
D18*
X112818001Y-74238001D03*
X112818001Y-72968001D03*
X112818001Y-71698001D03*
X112818001Y-70428001D03*
X112818001Y-69158001D03*
X112818001Y-67888001D03*
X112818001Y-66618001D03*
X112818001Y-65348001D03*
X112818001Y-64078001D03*
X112818001Y-62808001D03*
X112818001Y-61538001D03*
X112818001Y-60268001D03*
X112818001Y-58998001D03*
X112818001Y-57728001D03*
%TD*%
%TO.C,J6*%
G36*
G01*
X80159000Y-71756000D02*
X81359000Y-71756000D01*
G75*
G02*
X81559000Y-71956000I0J-200000D01*
G01*
X81559000Y-72356000D01*
G75*
G02*
X81359000Y-72556000I-200000J0D01*
G01*
X80159000Y-72556000D01*
G75*
G02*
X79959000Y-72356000I0J200000D01*
G01*
X79959000Y-71956000D01*
G75*
G02*
X80159000Y-71756000I200000J0D01*
G01*
G37*
G36*
G01*
X80159000Y-73006000D02*
X81359000Y-73006000D01*
G75*
G02*
X81559000Y-73206000I0J-200000D01*
G01*
X81559000Y-73606000D01*
G75*
G02*
X81359000Y-73806000I-200000J0D01*
G01*
X80159000Y-73806000D01*
G75*
G02*
X79959000Y-73606000I0J200000D01*
G01*
X79959000Y-73206000D01*
G75*
G02*
X80159000Y-73006000I200000J0D01*
G01*
G37*
G36*
G01*
X80159000Y-74256000D02*
X81359000Y-74256000D01*
G75*
G02*
X81559000Y-74456000I0J-200000D01*
G01*
X81559000Y-74856000D01*
G75*
G02*
X81359000Y-75056000I-200000J0D01*
G01*
X80159000Y-75056000D01*
G75*
G02*
X79959000Y-74856000I0J200000D01*
G01*
X79959000Y-74456000D01*
G75*
G02*
X80159000Y-74256000I200000J0D01*
G01*
G37*
G36*
G01*
X76608999Y-68556000D02*
X79109001Y-68556000D01*
G75*
G02*
X79359000Y-68805999I0J-249999D01*
G01*
X79359000Y-70406001D01*
G75*
G02*
X79109001Y-70656000I-249999J0D01*
G01*
X76608999Y-70656000D01*
G75*
G02*
X76359000Y-70406001I0J249999D01*
G01*
X76359000Y-68805999D01*
G75*
G02*
X76608999Y-68556000I249999J0D01*
G01*
G37*
G36*
G01*
X76608999Y-76156000D02*
X79109001Y-76156000D01*
G75*
G02*
X79359000Y-76405999I0J-249999D01*
G01*
X79359000Y-78006001D01*
G75*
G02*
X79109001Y-78256000I-249999J0D01*
G01*
X76608999Y-78256000D01*
G75*
G02*
X76359000Y-78006001I0J249999D01*
G01*
X76359000Y-76405999D01*
G75*
G02*
X76608999Y-76156000I249999J0D01*
G01*
G37*
%TD*%
%TO.C,C13*%
G36*
G01*
X82837000Y-73734000D02*
X83787000Y-73734000D01*
G75*
G02*
X84037000Y-73984000I0J-250000D01*
G01*
X84037000Y-74484000D01*
G75*
G02*
X83787000Y-74734000I-250000J0D01*
G01*
X82837000Y-74734000D01*
G75*
G02*
X82587000Y-74484000I0J250000D01*
G01*
X82587000Y-73984000D01*
G75*
G02*
X82837000Y-73734000I250000J0D01*
G01*
G37*
G36*
G01*
X82837000Y-75634000D02*
X83787000Y-75634000D01*
G75*
G02*
X84037000Y-75884000I0J-250000D01*
G01*
X84037000Y-76384000D01*
G75*
G02*
X83787000Y-76634000I-250000J0D01*
G01*
X82837000Y-76634000D01*
G75*
G02*
X82587000Y-76384000I0J250000D01*
G01*
X82587000Y-75884000D01*
G75*
G02*
X82837000Y-75634000I250000J0D01*
G01*
G37*
%TD*%
%TO.C,C14*%
G36*
G01*
X81784000Y-47046000D02*
X81284000Y-47046000D01*
G75*
G02*
X81059000Y-46821000I0J225000D01*
G01*
X81059000Y-46371000D01*
G75*
G02*
X81284000Y-46146000I225000J0D01*
G01*
X81784000Y-46146000D01*
G75*
G02*
X82009000Y-46371000I0J-225000D01*
G01*
X82009000Y-46821000D01*
G75*
G02*
X81784000Y-47046000I-225000J0D01*
G01*
G37*
G36*
G01*
X81784000Y-48596000D02*
X81284000Y-48596000D01*
G75*
G02*
X81059000Y-48371000I0J225000D01*
G01*
X81059000Y-47921000D01*
G75*
G02*
X81284000Y-47696000I225000J0D01*
G01*
X81784000Y-47696000D01*
G75*
G02*
X82009000Y-47921000I0J-225000D01*
G01*
X82009000Y-48371000D01*
G75*
G02*
X81784000Y-48596000I-225000J0D01*
G01*
G37*
%TD*%
%TO.C,C15*%
G36*
G01*
X127377000Y-48596000D02*
X126877000Y-48596000D01*
G75*
G02*
X126652000Y-48371000I0J225000D01*
G01*
X126652000Y-47921000D01*
G75*
G02*
X126877000Y-47696000I225000J0D01*
G01*
X127377000Y-47696000D01*
G75*
G02*
X127602000Y-47921000I0J-225000D01*
G01*
X127602000Y-48371000D01*
G75*
G02*
X127377000Y-48596000I-225000J0D01*
G01*
G37*
G36*
G01*
X127377000Y-47046000D02*
X126877000Y-47046000D01*
G75*
G02*
X126652000Y-46821000I0J225000D01*
G01*
X126652000Y-46371000D01*
G75*
G02*
X126877000Y-46146000I225000J0D01*
G01*
X127377000Y-46146000D01*
G75*
G02*
X127602000Y-46371000I0J-225000D01*
G01*
X127602000Y-46821000D01*
G75*
G02*
X127377000Y-47046000I-225000J0D01*
G01*
G37*
%TD*%
D20*
%TO.C,Q1*%
X115509000Y-91043000D03*
X117409000Y-91043000D03*
X116459000Y-89043000D03*
%TD*%
%TO.C,D5*%
G36*
G01*
X125351250Y-61626000D02*
X124838750Y-61626000D01*
G75*
G02*
X124620000Y-61407250I0J218750D01*
G01*
X124620000Y-60969750D01*
G75*
G02*
X124838750Y-60751000I218750J0D01*
G01*
X125351250Y-60751000D01*
G75*
G02*
X125570000Y-60969750I0J-218750D01*
G01*
X125570000Y-61407250D01*
G75*
G02*
X125351250Y-61626000I-218750J0D01*
G01*
G37*
G36*
G01*
X125351250Y-63201000D02*
X124838750Y-63201000D01*
G75*
G02*
X124620000Y-62982250I0J218750D01*
G01*
X124620000Y-62544750D01*
G75*
G02*
X124838750Y-62326000I218750J0D01*
G01*
X125351250Y-62326000D01*
G75*
G02*
X125570000Y-62544750I0J-218750D01*
G01*
X125570000Y-62982250D01*
G75*
G02*
X125351250Y-63201000I-218750J0D01*
G01*
G37*
%TD*%
%TO.C,D6*%
G36*
G01*
X125351250Y-64928000D02*
X124838750Y-64928000D01*
G75*
G02*
X124620000Y-64709250I0J218750D01*
G01*
X124620000Y-64271750D01*
G75*
G02*
X124838750Y-64053000I218750J0D01*
G01*
X125351250Y-64053000D01*
G75*
G02*
X125570000Y-64271750I0J-218750D01*
G01*
X125570000Y-64709250D01*
G75*
G02*
X125351250Y-64928000I-218750J0D01*
G01*
G37*
G36*
G01*
X125351250Y-66503000D02*
X124838750Y-66503000D01*
G75*
G02*
X124620000Y-66284250I0J218750D01*
G01*
X124620000Y-65846750D01*
G75*
G02*
X124838750Y-65628000I218750J0D01*
G01*
X125351250Y-65628000D01*
G75*
G02*
X125570000Y-65846750I0J-218750D01*
G01*
X125570000Y-66284250D01*
G75*
G02*
X125351250Y-66503000I-218750J0D01*
G01*
G37*
%TD*%
M02*
