%TF.GenerationSoftware,KiCad,Pcbnew,(5.1.12)-1*%
%TF.CreationDate,2022-08-12T23:07:16+09:00*%
%TF.ProjectId,STAC,53544143-2e6b-4696-9361-645f70636258,rev?*%
%TF.SameCoordinates,Original*%
%TF.FileFunction,Legend,Bot*%
%TF.FilePolarity,Positive*%
%FSLAX46Y46*%
G04 Gerber Fmt 4.6, Leading zero omitted, Abs format (unit mm)*
G04 Created by KiCad (PCBNEW (5.1.12)-1) date 2022-08-12 23:07:16*
%MOMM*%
%LPD*%
G01*
G04 APERTURE LIST*
%ADD10C,0.300000*%
%ADD11C,0.120000*%
%ADD12C,0.150000*%
G04 APERTURE END LIST*
D10*
X91486857Y-90761428D02*
X91415428Y-90690000D01*
X91272571Y-90618571D01*
X90915428Y-90618571D01*
X90772571Y-90690000D01*
X90701142Y-90761428D01*
X90629714Y-90904285D01*
X90629714Y-91047142D01*
X90701142Y-91261428D01*
X91558285Y-92118571D01*
X90629714Y-92118571D01*
X89701142Y-90618571D02*
X89558285Y-90618571D01*
X89415428Y-90690000D01*
X89344000Y-90761428D01*
X89272571Y-90904285D01*
X89201142Y-91190000D01*
X89201142Y-91547142D01*
X89272571Y-91832857D01*
X89344000Y-91975714D01*
X89415428Y-92047142D01*
X89558285Y-92118571D01*
X89701142Y-92118571D01*
X89844000Y-92047142D01*
X89915428Y-91975714D01*
X89986857Y-91832857D01*
X90058285Y-91547142D01*
X90058285Y-91190000D01*
X89986857Y-90904285D01*
X89915428Y-90761428D01*
X89844000Y-90690000D01*
X89701142Y-90618571D01*
X88629714Y-90761428D02*
X88558285Y-90690000D01*
X88415428Y-90618571D01*
X88058285Y-90618571D01*
X87915428Y-90690000D01*
X87844000Y-90761428D01*
X87772571Y-90904285D01*
X87772571Y-91047142D01*
X87844000Y-91261428D01*
X88701142Y-92118571D01*
X87772571Y-92118571D01*
X87201142Y-90761428D02*
X87129714Y-90690000D01*
X86986857Y-90618571D01*
X86629714Y-90618571D01*
X86486857Y-90690000D01*
X86415428Y-90761428D01*
X86344000Y-90904285D01*
X86344000Y-91047142D01*
X86415428Y-91261428D01*
X87272571Y-92118571D01*
X86344000Y-92118571D01*
X85701142Y-91975714D02*
X85629714Y-92047142D01*
X85701142Y-92118571D01*
X85772571Y-92047142D01*
X85701142Y-91975714D01*
X85701142Y-92118571D01*
X84701142Y-90618571D02*
X84558285Y-90618571D01*
X84415428Y-90690000D01*
X84344000Y-90761428D01*
X84272571Y-90904285D01*
X84201142Y-91190000D01*
X84201142Y-91547142D01*
X84272571Y-91832857D01*
X84344000Y-91975714D01*
X84415428Y-92047142D01*
X84558285Y-92118571D01*
X84701142Y-92118571D01*
X84844000Y-92047142D01*
X84915428Y-91975714D01*
X84986857Y-91832857D01*
X85058285Y-91547142D01*
X85058285Y-91190000D01*
X84986857Y-90904285D01*
X84915428Y-90761428D01*
X84844000Y-90690000D01*
X84701142Y-90618571D01*
X83344000Y-91261428D02*
X83486857Y-91190000D01*
X83558285Y-91118571D01*
X83629714Y-90975714D01*
X83629714Y-90904285D01*
X83558285Y-90761428D01*
X83486857Y-90690000D01*
X83344000Y-90618571D01*
X83058285Y-90618571D01*
X82915428Y-90690000D01*
X82844000Y-90761428D01*
X82772571Y-90904285D01*
X82772571Y-90975714D01*
X82844000Y-91118571D01*
X82915428Y-91190000D01*
X83058285Y-91261428D01*
X83344000Y-91261428D01*
X83486857Y-91332857D01*
X83558285Y-91404285D01*
X83629714Y-91547142D01*
X83629714Y-91832857D01*
X83558285Y-91975714D01*
X83486857Y-92047142D01*
X83344000Y-92118571D01*
X83058285Y-92118571D01*
X82915428Y-92047142D01*
X82844000Y-91975714D01*
X82772571Y-91832857D01*
X82772571Y-91547142D01*
X82844000Y-91404285D01*
X82915428Y-91332857D01*
X83058285Y-91261428D01*
X82129714Y-91975714D02*
X82058285Y-92047142D01*
X82129714Y-92118571D01*
X82201142Y-92047142D01*
X82129714Y-91975714D01*
X82129714Y-92118571D01*
X81129714Y-90618571D02*
X80986857Y-90618571D01*
X80844000Y-90690000D01*
X80772571Y-90761428D01*
X80701142Y-90904285D01*
X80629714Y-91190000D01*
X80629714Y-91547142D01*
X80701142Y-91832857D01*
X80772571Y-91975714D01*
X80844000Y-92047142D01*
X80986857Y-92118571D01*
X81129714Y-92118571D01*
X81272571Y-92047142D01*
X81344000Y-91975714D01*
X81415428Y-91832857D01*
X81486857Y-91547142D01*
X81486857Y-91190000D01*
X81415428Y-90904285D01*
X81344000Y-90761428D01*
X81272571Y-90690000D01*
X81129714Y-90618571D01*
X79772571Y-91261428D02*
X79915428Y-91190000D01*
X79986857Y-91118571D01*
X80058285Y-90975714D01*
X80058285Y-90904285D01*
X79986857Y-90761428D01*
X79915428Y-90690000D01*
X79772571Y-90618571D01*
X79486857Y-90618571D01*
X79344000Y-90690000D01*
X79272571Y-90761428D01*
X79201142Y-90904285D01*
X79201142Y-90975714D01*
X79272571Y-91118571D01*
X79344000Y-91190000D01*
X79486857Y-91261428D01*
X79772571Y-91261428D01*
X79915428Y-91332857D01*
X79986857Y-91404285D01*
X80058285Y-91547142D01*
X80058285Y-91832857D01*
X79986857Y-91975714D01*
X79915428Y-92047142D01*
X79772571Y-92118571D01*
X79486857Y-92118571D01*
X79344000Y-92047142D01*
X79272571Y-91975714D01*
X79201142Y-91832857D01*
X79201142Y-91547142D01*
X79272571Y-91404285D01*
X79344000Y-91332857D01*
X79486857Y-91261428D01*
D11*
%TO.C,JP1*%
X112095000Y-86505000D02*
X112695000Y-86505000D01*
X111395000Y-83055000D02*
X111395000Y-85855000D01*
X112695000Y-82405000D02*
X112095000Y-82405000D01*
X113395000Y-85855000D02*
X113395000Y-83055000D01*
X113395000Y-83105000D02*
G75*
G03*
X112695000Y-82405000I-700000J0D01*
G01*
X112095000Y-82405000D02*
G75*
G03*
X111395000Y-83105000I0J-700000D01*
G01*
X111395000Y-85805000D02*
G75*
G03*
X112095000Y-86505000I700000J0D01*
G01*
X112695000Y-86505000D02*
G75*
G03*
X113395000Y-85805000I0J700000D01*
G01*
D12*
X113647380Y-83621666D02*
X114361666Y-83621666D01*
X114504523Y-83574047D01*
X114599761Y-83478809D01*
X114647380Y-83335952D01*
X114647380Y-83240714D01*
X114647380Y-84097857D02*
X113647380Y-84097857D01*
X113647380Y-84478809D01*
X113695000Y-84574047D01*
X113742619Y-84621666D01*
X113837857Y-84669285D01*
X113980714Y-84669285D01*
X114075952Y-84621666D01*
X114123571Y-84574047D01*
X114171190Y-84478809D01*
X114171190Y-84097857D01*
X114647380Y-85621666D02*
X114647380Y-85050238D01*
X114647380Y-85335952D02*
X113647380Y-85335952D01*
X113790238Y-85240714D01*
X113885476Y-85145476D01*
X113933095Y-85050238D01*
X110947380Y-83502619D02*
X110471190Y-83169285D01*
X110947380Y-82931190D02*
X109947380Y-82931190D01*
X109947380Y-83312142D01*
X109995000Y-83407380D01*
X110042619Y-83455000D01*
X110137857Y-83502619D01*
X110280714Y-83502619D01*
X110375952Y-83455000D01*
X110423571Y-83407380D01*
X110471190Y-83312142D01*
X110471190Y-82931190D01*
X110661666Y-83883571D02*
X110661666Y-84359761D01*
X110947380Y-83788333D02*
X109947380Y-84121666D01*
X110947380Y-84455000D01*
X109947380Y-84645476D02*
X109947380Y-85216904D01*
X110947380Y-84931190D02*
X109947380Y-84931190D01*
X110423571Y-85550238D02*
X110423571Y-85883571D01*
X110947380Y-86026428D02*
X110947380Y-85550238D01*
X109947380Y-85550238D01*
X109947380Y-86026428D01*
X111847380Y-81521666D02*
X111847380Y-82140714D01*
X112228333Y-81807380D01*
X112228333Y-81950238D01*
X112275952Y-82045476D01*
X112323571Y-82093095D01*
X112418809Y-82140714D01*
X112656904Y-82140714D01*
X112752142Y-82093095D01*
X112799761Y-82045476D01*
X112847380Y-81950238D01*
X112847380Y-81664523D01*
X112799761Y-81569285D01*
X112752142Y-81521666D01*
X112847380Y-87340714D02*
X112847380Y-86769285D01*
X112847380Y-87055000D02*
X111847380Y-87055000D01*
X111990238Y-86959761D01*
X112085476Y-86864523D01*
X112133095Y-86769285D01*
%TD*%
M02*
