M48
; DRILL file {KiCad (5.1.12)-1} date 08/07/22 17:33:46
; FORMAT={-:-/ absolute / inch / decimal}
; #@! TF.CreationDate,2022-08-07T17:33:46+09:00
; #@! TF.GenerationSoftware,Kicad,Pcbnew,(5.1.12)-1
; #@! TF.FileFunction,Plated,1,2,PTH
FMAT,2
INCH
T1C0.0079
T2C0.0118
T3C0.0157
T4C0.0197
T5C0.0394
T6C0.0512
%
G90
G05
T1
X3.5656Y-2.6694
X3.5656Y-2.7206
X3.605Y-2.6694
X3.605Y-2.7206
X3.6444Y-2.6694
X3.6444Y-2.7206
T2
X3.135Y-2.89
X3.425Y-2.47
X3.47Y-2.485
X3.475Y-2.145
X3.495Y-2.885
X3.55Y-2.485
X3.58Y-2.84
X3.63Y-2.84
X4.07Y-2.745
X4.5476Y-3.5426
X4.64Y-3.325
X4.685Y-3.455
X4.7Y-3.31
X4.74Y-3.53
X4.81Y-3.26
X4.995Y-3.7
T3
X3.39Y-2.055
X3.59Y-2.955
X3.6172Y-2.3728
X3.6533Y-2.3305
X4.5325Y-2.9225
X4.7662Y-1.9388
X4.9075Y-3.1125
X4.95Y-3.03
X4.955Y-3.19
X5.075Y-3.215
T4
X3.1104Y-2.1554
X3.32Y-2.73
T5
X3.8518Y-3.1007
X3.8518Y-3.5732
T6
X3.775Y-3.335
X4.3321Y-3.5732
X4.3341Y-3.0988
T0
M30
