%TF.GenerationSoftware,KiCad,Pcbnew,(5.1.12)-1*%
%TF.CreationDate,2022-08-07T17:33:45+09:00*%
%TF.ProjectId,STAC,53544143-2e6b-4696-9361-645f70636258,rev?*%
%TF.SameCoordinates,Original*%
%TF.FileFunction,Legend,Top*%
%TF.FilePolarity,Positive*%
%FSLAX46Y46*%
G04 Gerber Fmt 4.6, Leading zero omitted, Abs format (unit mm)*
G04 Created by KiCad (PCBNEW (5.1.12)-1) date 2022-08-07 17:33:45*
%MOMM*%
%LPD*%
G01*
G04 APERTURE LIST*
%ADD10C,0.150000*%
%ADD11C,0.010000*%
%ADD12C,0.120000*%
%ADD13C,0.127000*%
%ADD14C,0.200000*%
G04 APERTURE END LIST*
D10*
X127347214Y-90956380D02*
X127680547Y-91956380D01*
X128013880Y-90956380D01*
X128871023Y-91956380D02*
X128299595Y-91956380D01*
X128585309Y-91956380D02*
X128585309Y-90956380D01*
X128490071Y-91099238D01*
X128394833Y-91194476D01*
X128299595Y-91242095D01*
X119013880Y-93606380D02*
X119013880Y-92606380D01*
X119394833Y-92606380D01*
X119490071Y-92654000D01*
X119537690Y-92701619D01*
X119585309Y-92796857D01*
X119585309Y-92939714D01*
X119537690Y-93034952D01*
X119490071Y-93082571D01*
X119394833Y-93130190D01*
X119013880Y-93130190D01*
X120013880Y-93606380D02*
X120013880Y-92606380D01*
X120585309Y-93606380D01*
X120585309Y-92606380D01*
X120966261Y-92606380D02*
X121632928Y-93606380D01*
X121632928Y-92606380D02*
X120966261Y-93606380D01*
X122013880Y-93082571D02*
X122347214Y-93082571D01*
X122490071Y-93606380D02*
X122013880Y-93606380D01*
X122013880Y-92606380D01*
X122490071Y-92606380D01*
X123394833Y-93606380D02*
X122918642Y-93606380D01*
X122918642Y-92606380D01*
X123728166Y-93082571D02*
X124061500Y-93082571D01*
X124204357Y-93606380D02*
X123728166Y-93606380D01*
X123728166Y-92606380D01*
X124204357Y-92606380D01*
X125204357Y-93511142D02*
X125156738Y-93558761D01*
X125013880Y-93606380D01*
X124918642Y-93606380D01*
X124775785Y-93558761D01*
X124680547Y-93463523D01*
X124632928Y-93368285D01*
X124585309Y-93177809D01*
X124585309Y-93034952D01*
X124632928Y-92844476D01*
X124680547Y-92749238D01*
X124775785Y-92654000D01*
X124918642Y-92606380D01*
X125013880Y-92606380D01*
X125156738Y-92654000D01*
X125204357Y-92701619D01*
X125632928Y-93511142D02*
X125680547Y-93558761D01*
X125632928Y-93606380D01*
X125585309Y-93558761D01*
X125632928Y-93511142D01*
X125632928Y-93606380D01*
X126680547Y-93511142D02*
X126632928Y-93558761D01*
X126490071Y-93606380D01*
X126394833Y-93606380D01*
X126251976Y-93558761D01*
X126156738Y-93463523D01*
X126109119Y-93368285D01*
X126061500Y-93177809D01*
X126061500Y-93034952D01*
X126109119Y-92844476D01*
X126156738Y-92749238D01*
X126251976Y-92654000D01*
X126394833Y-92606380D01*
X126490071Y-92606380D01*
X126632928Y-92654000D01*
X126680547Y-92701619D01*
X127299595Y-92606380D02*
X127490071Y-92606380D01*
X127585309Y-92654000D01*
X127680547Y-92749238D01*
X127728166Y-92939714D01*
X127728166Y-93273047D01*
X127680547Y-93463523D01*
X127585309Y-93558761D01*
X127490071Y-93606380D01*
X127299595Y-93606380D01*
X127204357Y-93558761D01*
X127109119Y-93463523D01*
X127061500Y-93273047D01*
X127061500Y-92939714D01*
X127109119Y-92749238D01*
X127204357Y-92654000D01*
X127299595Y-92606380D01*
X128156738Y-93606380D02*
X128156738Y-92606380D01*
X128490071Y-93320666D01*
X128823404Y-92606380D01*
X128823404Y-93606380D01*
D11*
%TO.C,G\u002A\u002A\u002A*%
G36*
X116274998Y-67827299D02*
G01*
X116382545Y-67851501D01*
X116479686Y-67890517D01*
X116562061Y-67943841D01*
X116599214Y-67978778D01*
X116637090Y-68030768D01*
X116651057Y-68077990D01*
X116641009Y-68119391D01*
X116616037Y-68147278D01*
X116570742Y-68169838D01*
X116518492Y-68170537D01*
X116457244Y-68149187D01*
X116421255Y-68129366D01*
X116333899Y-68086008D01*
X116245818Y-68059797D01*
X116159290Y-68049366D01*
X116076589Y-68053352D01*
X115999994Y-68070390D01*
X115931781Y-68099115D01*
X115874225Y-68138163D01*
X115829604Y-68186169D01*
X115800194Y-68241767D01*
X115788272Y-68303595D01*
X115796113Y-68370287D01*
X115825996Y-68440478D01*
X115847551Y-68473267D01*
X115877292Y-68507141D01*
X115916755Y-68539217D01*
X115968924Y-68571118D01*
X116036779Y-68604466D01*
X116123304Y-68640885D01*
X116230399Y-68681600D01*
X116304543Y-68709736D01*
X116375556Y-68738375D01*
X116437768Y-68765107D01*
X116485507Y-68787522D01*
X116506747Y-68799031D01*
X116605877Y-68873363D01*
X116689335Y-68965343D01*
X116748744Y-69061828D01*
X116768903Y-69103649D01*
X116782243Y-69136677D01*
X116790171Y-69168166D01*
X116794093Y-69205372D01*
X116795416Y-69255550D01*
X116795550Y-69303241D01*
X116795001Y-69369153D01*
X116792637Y-69416609D01*
X116787377Y-69452541D01*
X116778140Y-69483882D01*
X116763846Y-69517564D01*
X116761312Y-69523008D01*
X116702692Y-69618824D01*
X116624433Y-69700307D01*
X116529026Y-69765587D01*
X116418964Y-69812795D01*
X116351050Y-69830811D01*
X116260919Y-69843831D01*
X116158834Y-69848877D01*
X116054593Y-69846099D01*
X115957993Y-69835649D01*
X115900200Y-69823858D01*
X115798833Y-69791318D01*
X115708354Y-69750122D01*
X115631184Y-69702302D01*
X115569743Y-69649891D01*
X115526454Y-69594919D01*
X115503738Y-69539417D01*
X115502910Y-69490568D01*
X115522353Y-69449877D01*
X115558469Y-69420871D01*
X115604031Y-69406627D01*
X115651816Y-69410221D01*
X115672154Y-69418496D01*
X115693734Y-69432238D01*
X115728484Y-69456629D01*
X115769478Y-69486785D01*
X115776094Y-69491774D01*
X115850647Y-69544048D01*
X115916883Y-69579599D01*
X115982736Y-69601228D01*
X116056137Y-69611735D01*
X116122450Y-69614006D01*
X116225633Y-69609650D01*
X116309708Y-69594943D01*
X116379293Y-69568600D01*
X116439005Y-69529334D01*
X116445191Y-69524152D01*
X116501351Y-69460681D01*
X116536068Y-69387420D01*
X116549107Y-69308554D01*
X116540238Y-69228267D01*
X116509227Y-69150744D01*
X116469097Y-69094407D01*
X116440884Y-69064155D01*
X116412427Y-69038818D01*
X116379764Y-69016290D01*
X116338939Y-68994464D01*
X116285993Y-68971235D01*
X116216967Y-68944498D01*
X116127903Y-68912146D01*
X116123510Y-68910578D01*
X116013766Y-68870204D01*
X115924623Y-68834353D01*
X115852134Y-68801020D01*
X115792354Y-68768202D01*
X115741336Y-68733898D01*
X115695132Y-68696102D01*
X115687656Y-68689354D01*
X115620662Y-68615474D01*
X115574707Y-68533425D01*
X115546353Y-68436917D01*
X115544650Y-68427879D01*
X115537845Y-68321980D01*
X115554487Y-68218030D01*
X115592678Y-68119641D01*
X115650519Y-68030426D01*
X115726113Y-67953998D01*
X115817561Y-67893969D01*
X115827909Y-67888811D01*
X115933498Y-67848669D01*
X116046115Y-67825375D01*
X116161401Y-67818421D01*
X116274998Y-67827299D01*
G37*
X116274998Y-67827299D02*
X116382545Y-67851501D01*
X116479686Y-67890517D01*
X116562061Y-67943841D01*
X116599214Y-67978778D01*
X116637090Y-68030768D01*
X116651057Y-68077990D01*
X116641009Y-68119391D01*
X116616037Y-68147278D01*
X116570742Y-68169838D01*
X116518492Y-68170537D01*
X116457244Y-68149187D01*
X116421255Y-68129366D01*
X116333899Y-68086008D01*
X116245818Y-68059797D01*
X116159290Y-68049366D01*
X116076589Y-68053352D01*
X115999994Y-68070390D01*
X115931781Y-68099115D01*
X115874225Y-68138163D01*
X115829604Y-68186169D01*
X115800194Y-68241767D01*
X115788272Y-68303595D01*
X115796113Y-68370287D01*
X115825996Y-68440478D01*
X115847551Y-68473267D01*
X115877292Y-68507141D01*
X115916755Y-68539217D01*
X115968924Y-68571118D01*
X116036779Y-68604466D01*
X116123304Y-68640885D01*
X116230399Y-68681600D01*
X116304543Y-68709736D01*
X116375556Y-68738375D01*
X116437768Y-68765107D01*
X116485507Y-68787522D01*
X116506747Y-68799031D01*
X116605877Y-68873363D01*
X116689335Y-68965343D01*
X116748744Y-69061828D01*
X116768903Y-69103649D01*
X116782243Y-69136677D01*
X116790171Y-69168166D01*
X116794093Y-69205372D01*
X116795416Y-69255550D01*
X116795550Y-69303241D01*
X116795001Y-69369153D01*
X116792637Y-69416609D01*
X116787377Y-69452541D01*
X116778140Y-69483882D01*
X116763846Y-69517564D01*
X116761312Y-69523008D01*
X116702692Y-69618824D01*
X116624433Y-69700307D01*
X116529026Y-69765587D01*
X116418964Y-69812795D01*
X116351050Y-69830811D01*
X116260919Y-69843831D01*
X116158834Y-69848877D01*
X116054593Y-69846099D01*
X115957993Y-69835649D01*
X115900200Y-69823858D01*
X115798833Y-69791318D01*
X115708354Y-69750122D01*
X115631184Y-69702302D01*
X115569743Y-69649891D01*
X115526454Y-69594919D01*
X115503738Y-69539417D01*
X115502910Y-69490568D01*
X115522353Y-69449877D01*
X115558469Y-69420871D01*
X115604031Y-69406627D01*
X115651816Y-69410221D01*
X115672154Y-69418496D01*
X115693734Y-69432238D01*
X115728484Y-69456629D01*
X115769478Y-69486785D01*
X115776094Y-69491774D01*
X115850647Y-69544048D01*
X115916883Y-69579599D01*
X115982736Y-69601228D01*
X116056137Y-69611735D01*
X116122450Y-69614006D01*
X116225633Y-69609650D01*
X116309708Y-69594943D01*
X116379293Y-69568600D01*
X116439005Y-69529334D01*
X116445191Y-69524152D01*
X116501351Y-69460681D01*
X116536068Y-69387420D01*
X116549107Y-69308554D01*
X116540238Y-69228267D01*
X116509227Y-69150744D01*
X116469097Y-69094407D01*
X116440884Y-69064155D01*
X116412427Y-69038818D01*
X116379764Y-69016290D01*
X116338939Y-68994464D01*
X116285993Y-68971235D01*
X116216967Y-68944498D01*
X116127903Y-68912146D01*
X116123510Y-68910578D01*
X116013766Y-68870204D01*
X115924623Y-68834353D01*
X115852134Y-68801020D01*
X115792354Y-68768202D01*
X115741336Y-68733898D01*
X115695132Y-68696102D01*
X115687656Y-68689354D01*
X115620662Y-68615474D01*
X115574707Y-68533425D01*
X115546353Y-68436917D01*
X115544650Y-68427879D01*
X115537845Y-68321980D01*
X115554487Y-68218030D01*
X115592678Y-68119641D01*
X115650519Y-68030426D01*
X115726113Y-67953998D01*
X115817561Y-67893969D01*
X115827909Y-67888811D01*
X115933498Y-67848669D01*
X116046115Y-67825375D01*
X116161401Y-67818421D01*
X116274998Y-67827299D01*
G36*
X117795649Y-68336635D02*
G01*
X117909436Y-68369176D01*
X118013472Y-68424578D01*
X118110060Y-68503795D01*
X118118033Y-68511690D01*
X118198616Y-68609938D01*
X118259402Y-68723207D01*
X118300543Y-68851927D01*
X118322195Y-68996531D01*
X118325900Y-69094350D01*
X118316057Y-69244346D01*
X118286918Y-69379740D01*
X118239072Y-69499667D01*
X118173103Y-69603263D01*
X118089598Y-69689665D01*
X117989144Y-69758009D01*
X117872328Y-69807430D01*
X117834369Y-69818388D01*
X117766145Y-69830198D01*
X117684257Y-69835472D01*
X117599129Y-69834227D01*
X117521188Y-69826485D01*
X117478359Y-69817721D01*
X117366732Y-69775096D01*
X117264651Y-69711445D01*
X117176127Y-69630145D01*
X117105172Y-69534572D01*
X117076011Y-69479174D01*
X117043859Y-69402846D01*
X117021690Y-69333502D01*
X117007925Y-69263092D01*
X117000984Y-69183567D01*
X117000083Y-69132822D01*
X117234911Y-69132822D01*
X117248932Y-69244283D01*
X117278655Y-69347280D01*
X117323687Y-69436510D01*
X117339940Y-69459562D01*
X117409504Y-69531220D01*
X117491031Y-69581813D01*
X117581312Y-69610647D01*
X117677139Y-69617028D01*
X117775303Y-69600262D01*
X117852106Y-69570338D01*
X117908777Y-69536685D01*
X117955546Y-69498167D01*
X117969817Y-69482309D01*
X118025743Y-69393801D01*
X118064495Y-69294191D01*
X118086503Y-69187445D01*
X118092193Y-69077528D01*
X118081996Y-68968404D01*
X118056340Y-68864039D01*
X118015653Y-68768398D01*
X117960366Y-68685447D01*
X117890905Y-68619150D01*
X117875293Y-68608200D01*
X117790462Y-68566103D01*
X117701319Y-68547021D01*
X117611367Y-68549800D01*
X117524108Y-68573285D01*
X117443044Y-68616324D01*
X117371677Y-68677763D01*
X117313509Y-68756447D01*
X117291003Y-68800684D01*
X117255553Y-68905719D01*
X117236987Y-69018199D01*
X117234911Y-69132822D01*
X117000083Y-69132822D01*
X116999286Y-69088000D01*
X117005287Y-68956499D01*
X117023412Y-68842724D01*
X117055280Y-68741273D01*
X117102514Y-68646742D01*
X117155062Y-68568986D01*
X117238564Y-68477894D01*
X117336112Y-68407833D01*
X117447084Y-68359096D01*
X117570857Y-68331977D01*
X117669806Y-68326000D01*
X117795649Y-68336635D01*
G37*
X117795649Y-68336635D02*
X117909436Y-68369176D01*
X118013472Y-68424578D01*
X118110060Y-68503795D01*
X118118033Y-68511690D01*
X118198616Y-68609938D01*
X118259402Y-68723207D01*
X118300543Y-68851927D01*
X118322195Y-68996531D01*
X118325900Y-69094350D01*
X118316057Y-69244346D01*
X118286918Y-69379740D01*
X118239072Y-69499667D01*
X118173103Y-69603263D01*
X118089598Y-69689665D01*
X117989144Y-69758009D01*
X117872328Y-69807430D01*
X117834369Y-69818388D01*
X117766145Y-69830198D01*
X117684257Y-69835472D01*
X117599129Y-69834227D01*
X117521188Y-69826485D01*
X117478359Y-69817721D01*
X117366732Y-69775096D01*
X117264651Y-69711445D01*
X117176127Y-69630145D01*
X117105172Y-69534572D01*
X117076011Y-69479174D01*
X117043859Y-69402846D01*
X117021690Y-69333502D01*
X117007925Y-69263092D01*
X117000984Y-69183567D01*
X117000083Y-69132822D01*
X117234911Y-69132822D01*
X117248932Y-69244283D01*
X117278655Y-69347280D01*
X117323687Y-69436510D01*
X117339940Y-69459562D01*
X117409504Y-69531220D01*
X117491031Y-69581813D01*
X117581312Y-69610647D01*
X117677139Y-69617028D01*
X117775303Y-69600262D01*
X117852106Y-69570338D01*
X117908777Y-69536685D01*
X117955546Y-69498167D01*
X117969817Y-69482309D01*
X118025743Y-69393801D01*
X118064495Y-69294191D01*
X118086503Y-69187445D01*
X118092193Y-69077528D01*
X118081996Y-68968404D01*
X118056340Y-68864039D01*
X118015653Y-68768398D01*
X117960366Y-68685447D01*
X117890905Y-68619150D01*
X117875293Y-68608200D01*
X117790462Y-68566103D01*
X117701319Y-68547021D01*
X117611367Y-68549800D01*
X117524108Y-68573285D01*
X117443044Y-68616324D01*
X117371677Y-68677763D01*
X117313509Y-68756447D01*
X117291003Y-68800684D01*
X117255553Y-68905719D01*
X117236987Y-69018199D01*
X117234911Y-69132822D01*
X117000083Y-69132822D01*
X116999286Y-69088000D01*
X117005287Y-68956499D01*
X117023412Y-68842724D01*
X117055280Y-68741273D01*
X117102514Y-68646742D01*
X117155062Y-68568986D01*
X117238564Y-68477894D01*
X117336112Y-68407833D01*
X117447084Y-68359096D01*
X117570857Y-68331977D01*
X117669806Y-68326000D01*
X117795649Y-68336635D01*
G36*
X121953156Y-68337539D02*
G01*
X122066283Y-68371567D01*
X122167003Y-68427200D01*
X122253886Y-68503554D01*
X122325498Y-68599744D01*
X122352151Y-68648841D01*
X122387355Y-68733232D01*
X122411321Y-68817271D01*
X122423768Y-68896841D01*
X122424416Y-68967824D01*
X122412987Y-69026101D01*
X122389199Y-69067556D01*
X122381111Y-69074948D01*
X122371728Y-69081620D01*
X122360537Y-69087028D01*
X122344954Y-69091305D01*
X122322397Y-69094584D01*
X122290282Y-69096997D01*
X122246025Y-69098676D01*
X122187044Y-69099753D01*
X122110756Y-69100361D01*
X122014577Y-69100632D01*
X121895924Y-69100699D01*
X121878354Y-69100700D01*
X121408333Y-69100700D01*
X121415579Y-69196504D01*
X121434210Y-69302042D01*
X121472108Y-69396870D01*
X121527213Y-69477919D01*
X121597460Y-69542122D01*
X121676487Y-69584769D01*
X121724017Y-69600081D01*
X121775287Y-69609148D01*
X121839201Y-69613303D01*
X121871318Y-69613897D01*
X121927142Y-69614057D01*
X121967429Y-69611903D01*
X122000553Y-69605357D01*
X122034889Y-69592341D01*
X122078812Y-69570775D01*
X122109690Y-69554725D01*
X122180570Y-69520490D01*
X122234887Y-69501247D01*
X122276152Y-69496421D01*
X122307876Y-69505441D01*
X122326076Y-69519476D01*
X122353463Y-69561329D01*
X122357541Y-69606428D01*
X122339849Y-69652750D01*
X122301926Y-69698268D01*
X122245309Y-69740960D01*
X122171538Y-69778798D01*
X122112426Y-69800702D01*
X122043225Y-69817034D01*
X121958886Y-69828035D01*
X121868021Y-69833367D01*
X121779242Y-69832691D01*
X121701162Y-69825670D01*
X121663226Y-69818320D01*
X121542156Y-69775385D01*
X121435543Y-69711953D01*
X121344429Y-69629094D01*
X121269856Y-69527877D01*
X121212867Y-69409375D01*
X121187248Y-69329300D01*
X121175308Y-69269631D01*
X121168160Y-69196051D01*
X121165351Y-69103479D01*
X121165270Y-69081650D01*
X121167243Y-68984548D01*
X121173464Y-68907481D01*
X121179707Y-68871960D01*
X121423509Y-68871960D01*
X121427364Y-68886901D01*
X121441448Y-68897401D01*
X121468095Y-68904231D01*
X121509639Y-68908160D01*
X121568414Y-68909960D01*
X121646754Y-68910401D01*
X121746994Y-68910253D01*
X121805700Y-68910200D01*
X122186700Y-68910200D01*
X122186700Y-68878926D01*
X122178867Y-68831075D01*
X122158239Y-68773962D01*
X122129119Y-68717107D01*
X122095809Y-68670032D01*
X122088863Y-68662464D01*
X122017907Y-68607015D01*
X121932124Y-68571818D01*
X121874537Y-68560437D01*
X121809912Y-68558870D01*
X121736102Y-68567615D01*
X121665479Y-68584645D01*
X121621550Y-68601880D01*
X121563185Y-68641497D01*
X121508427Y-68697071D01*
X121465398Y-68759560D01*
X121449978Y-68792789D01*
X121437150Y-68825675D01*
X121427549Y-68851808D01*
X121423509Y-68871960D01*
X121179707Y-68871960D01*
X121184382Y-68845369D01*
X121187248Y-68834000D01*
X121233215Y-68704341D01*
X121296790Y-68592058D01*
X121376720Y-68498143D01*
X121471749Y-68423589D01*
X121580623Y-68369389D01*
X121702087Y-68336535D01*
X121829056Y-68326000D01*
X121953156Y-68337539D01*
G37*
X121953156Y-68337539D02*
X122066283Y-68371567D01*
X122167003Y-68427200D01*
X122253886Y-68503554D01*
X122325498Y-68599744D01*
X122352151Y-68648841D01*
X122387355Y-68733232D01*
X122411321Y-68817271D01*
X122423768Y-68896841D01*
X122424416Y-68967824D01*
X122412987Y-69026101D01*
X122389199Y-69067556D01*
X122381111Y-69074948D01*
X122371728Y-69081620D01*
X122360537Y-69087028D01*
X122344954Y-69091305D01*
X122322397Y-69094584D01*
X122290282Y-69096997D01*
X122246025Y-69098676D01*
X122187044Y-69099753D01*
X122110756Y-69100361D01*
X122014577Y-69100632D01*
X121895924Y-69100699D01*
X121878354Y-69100700D01*
X121408333Y-69100700D01*
X121415579Y-69196504D01*
X121434210Y-69302042D01*
X121472108Y-69396870D01*
X121527213Y-69477919D01*
X121597460Y-69542122D01*
X121676487Y-69584769D01*
X121724017Y-69600081D01*
X121775287Y-69609148D01*
X121839201Y-69613303D01*
X121871318Y-69613897D01*
X121927142Y-69614057D01*
X121967429Y-69611903D01*
X122000553Y-69605357D01*
X122034889Y-69592341D01*
X122078812Y-69570775D01*
X122109690Y-69554725D01*
X122180570Y-69520490D01*
X122234887Y-69501247D01*
X122276152Y-69496421D01*
X122307876Y-69505441D01*
X122326076Y-69519476D01*
X122353463Y-69561329D01*
X122357541Y-69606428D01*
X122339849Y-69652750D01*
X122301926Y-69698268D01*
X122245309Y-69740960D01*
X122171538Y-69778798D01*
X122112426Y-69800702D01*
X122043225Y-69817034D01*
X121958886Y-69828035D01*
X121868021Y-69833367D01*
X121779242Y-69832691D01*
X121701162Y-69825670D01*
X121663226Y-69818320D01*
X121542156Y-69775385D01*
X121435543Y-69711953D01*
X121344429Y-69629094D01*
X121269856Y-69527877D01*
X121212867Y-69409375D01*
X121187248Y-69329300D01*
X121175308Y-69269631D01*
X121168160Y-69196051D01*
X121165351Y-69103479D01*
X121165270Y-69081650D01*
X121167243Y-68984548D01*
X121173464Y-68907481D01*
X121179707Y-68871960D01*
X121423509Y-68871960D01*
X121427364Y-68886901D01*
X121441448Y-68897401D01*
X121468095Y-68904231D01*
X121509639Y-68908160D01*
X121568414Y-68909960D01*
X121646754Y-68910401D01*
X121746994Y-68910253D01*
X121805700Y-68910200D01*
X122186700Y-68910200D01*
X122186700Y-68878926D01*
X122178867Y-68831075D01*
X122158239Y-68773962D01*
X122129119Y-68717107D01*
X122095809Y-68670032D01*
X122088863Y-68662464D01*
X122017907Y-68607015D01*
X121932124Y-68571818D01*
X121874537Y-68560437D01*
X121809912Y-68558870D01*
X121736102Y-68567615D01*
X121665479Y-68584645D01*
X121621550Y-68601880D01*
X121563185Y-68641497D01*
X121508427Y-68697071D01*
X121465398Y-68759560D01*
X121449978Y-68792789D01*
X121437150Y-68825675D01*
X121427549Y-68851808D01*
X121423509Y-68871960D01*
X121179707Y-68871960D01*
X121184382Y-68845369D01*
X121187248Y-68834000D01*
X121233215Y-68704341D01*
X121296790Y-68592058D01*
X121376720Y-68498143D01*
X121471749Y-68423589D01*
X121580623Y-68369389D01*
X121702087Y-68336535D01*
X121829056Y-68326000D01*
X121953156Y-68337539D01*
G36*
X123305596Y-68336745D02*
G01*
X123413512Y-68365462D01*
X123484255Y-68395740D01*
X123558353Y-68439615D01*
X123618490Y-68488538D01*
X123662924Y-68539748D01*
X123689914Y-68590484D01*
X123697718Y-68637986D01*
X123684595Y-68679493D01*
X123672600Y-68694300D01*
X123633206Y-68717578D01*
X123585881Y-68717025D01*
X123531239Y-68692729D01*
X123498351Y-68669326D01*
X123424664Y-68615498D01*
X123358718Y-68579448D01*
X123293358Y-68558378D01*
X123221432Y-68549491D01*
X123190000Y-68548722D01*
X123105728Y-68552334D01*
X123040260Y-68564854D01*
X122988079Y-68587860D01*
X122949146Y-68617682D01*
X122924642Y-68644918D01*
X122913347Y-68673497D01*
X122910600Y-68715261D01*
X122910600Y-68715619D01*
X122913546Y-68756083D01*
X122924144Y-68790155D01*
X122945030Y-68819715D01*
X122978843Y-68846645D01*
X123028218Y-68872824D01*
X123095794Y-68900132D01*
X123184208Y-68930449D01*
X123234450Y-68946505D01*
X123359893Y-68988855D01*
X123462880Y-69030445D01*
X123546230Y-69073003D01*
X123612764Y-69118254D01*
X123665303Y-69167927D01*
X123706667Y-69223747D01*
X123717454Y-69242193D01*
X123737246Y-69281294D01*
X123748657Y-69315959D01*
X123753891Y-69356102D01*
X123755149Y-69411639D01*
X123755150Y-69411850D01*
X123745445Y-69512242D01*
X123715896Y-69598397D01*
X123665847Y-69671045D01*
X123594643Y-69730919D01*
X123501632Y-69778750D01*
X123396490Y-69812682D01*
X123292449Y-69830821D01*
X123177964Y-69836582D01*
X123064081Y-69829980D01*
X122965997Y-69812135D01*
X122867863Y-69780187D01*
X122782413Y-69739968D01*
X122713334Y-69693711D01*
X122664308Y-69643649D01*
X122649793Y-69620517D01*
X122632797Y-69567716D01*
X122634842Y-69517333D01*
X122655406Y-69476564D01*
X122660593Y-69471213D01*
X122701555Y-69446792D01*
X122748479Y-69445725D01*
X122802535Y-69468158D01*
X122840068Y-69493873D01*
X122889914Y-69528253D01*
X122947403Y-69562147D01*
X122980941Y-69579167D01*
X123020317Y-69595925D01*
X123055844Y-69606397D01*
X123095829Y-69612037D01*
X123148579Y-69614297D01*
X123183650Y-69614618D01*
X123275224Y-69611096D01*
X123347372Y-69598831D01*
X123405015Y-69576324D01*
X123453071Y-69542074D01*
X123467518Y-69528090D01*
X123503916Y-69474848D01*
X123516699Y-69417479D01*
X123506383Y-69359783D01*
X123473486Y-69305559D01*
X123432109Y-69267846D01*
X123398964Y-69249080D01*
X123344659Y-69224779D01*
X123272488Y-69196281D01*
X123185743Y-69164928D01*
X123144146Y-69150687D01*
X123029701Y-69110554D01*
X122937102Y-69074017D01*
X122863402Y-69039145D01*
X122805656Y-69004008D01*
X122760917Y-68966672D01*
X122726239Y-68925208D01*
X122698678Y-68877683D01*
X122686463Y-68850611D01*
X122670203Y-68787215D01*
X122666809Y-68713191D01*
X122676041Y-68639668D01*
X122692097Y-68589276D01*
X122740260Y-68510537D01*
X122807363Y-68444606D01*
X122889938Y-68392332D01*
X122984516Y-68354562D01*
X123087631Y-68332143D01*
X123195813Y-68325921D01*
X123305596Y-68336745D01*
G37*
X123305596Y-68336745D02*
X123413512Y-68365462D01*
X123484255Y-68395740D01*
X123558353Y-68439615D01*
X123618490Y-68488538D01*
X123662924Y-68539748D01*
X123689914Y-68590484D01*
X123697718Y-68637986D01*
X123684595Y-68679493D01*
X123672600Y-68694300D01*
X123633206Y-68717578D01*
X123585881Y-68717025D01*
X123531239Y-68692729D01*
X123498351Y-68669326D01*
X123424664Y-68615498D01*
X123358718Y-68579448D01*
X123293358Y-68558378D01*
X123221432Y-68549491D01*
X123190000Y-68548722D01*
X123105728Y-68552334D01*
X123040260Y-68564854D01*
X122988079Y-68587860D01*
X122949146Y-68617682D01*
X122924642Y-68644918D01*
X122913347Y-68673497D01*
X122910600Y-68715261D01*
X122910600Y-68715619D01*
X122913546Y-68756083D01*
X122924144Y-68790155D01*
X122945030Y-68819715D01*
X122978843Y-68846645D01*
X123028218Y-68872824D01*
X123095794Y-68900132D01*
X123184208Y-68930449D01*
X123234450Y-68946505D01*
X123359893Y-68988855D01*
X123462880Y-69030445D01*
X123546230Y-69073003D01*
X123612764Y-69118254D01*
X123665303Y-69167927D01*
X123706667Y-69223747D01*
X123717454Y-69242193D01*
X123737246Y-69281294D01*
X123748657Y-69315959D01*
X123753891Y-69356102D01*
X123755149Y-69411639D01*
X123755150Y-69411850D01*
X123745445Y-69512242D01*
X123715896Y-69598397D01*
X123665847Y-69671045D01*
X123594643Y-69730919D01*
X123501632Y-69778750D01*
X123396490Y-69812682D01*
X123292449Y-69830821D01*
X123177964Y-69836582D01*
X123064081Y-69829980D01*
X122965997Y-69812135D01*
X122867863Y-69780187D01*
X122782413Y-69739968D01*
X122713334Y-69693711D01*
X122664308Y-69643649D01*
X122649793Y-69620517D01*
X122632797Y-69567716D01*
X122634842Y-69517333D01*
X122655406Y-69476564D01*
X122660593Y-69471213D01*
X122701555Y-69446792D01*
X122748479Y-69445725D01*
X122802535Y-69468158D01*
X122840068Y-69493873D01*
X122889914Y-69528253D01*
X122947403Y-69562147D01*
X122980941Y-69579167D01*
X123020317Y-69595925D01*
X123055844Y-69606397D01*
X123095829Y-69612037D01*
X123148579Y-69614297D01*
X123183650Y-69614618D01*
X123275224Y-69611096D01*
X123347372Y-69598831D01*
X123405015Y-69576324D01*
X123453071Y-69542074D01*
X123467518Y-69528090D01*
X123503916Y-69474848D01*
X123516699Y-69417479D01*
X123506383Y-69359783D01*
X123473486Y-69305559D01*
X123432109Y-69267846D01*
X123398964Y-69249080D01*
X123344659Y-69224779D01*
X123272488Y-69196281D01*
X123185743Y-69164928D01*
X123144146Y-69150687D01*
X123029701Y-69110554D01*
X122937102Y-69074017D01*
X122863402Y-69039145D01*
X122805656Y-69004008D01*
X122760917Y-68966672D01*
X122726239Y-68925208D01*
X122698678Y-68877683D01*
X122686463Y-68850611D01*
X122670203Y-68787215D01*
X122666809Y-68713191D01*
X122676041Y-68639668D01*
X122692097Y-68589276D01*
X122740260Y-68510537D01*
X122807363Y-68444606D01*
X122889938Y-68392332D01*
X122984516Y-68354562D01*
X123087631Y-68332143D01*
X123195813Y-68325921D01*
X123305596Y-68336745D01*
G36*
X118781010Y-68346103D02*
G01*
X118818095Y-68371832D01*
X118822176Y-68375823D01*
X118844127Y-68401317D01*
X118855267Y-68427583D01*
X118859062Y-68464825D01*
X118859300Y-68485146D01*
X118859300Y-68557347D01*
X118917277Y-68492861D01*
X118997445Y-68422023D01*
X119090609Y-68372753D01*
X119195293Y-68345746D01*
X119239175Y-68341383D01*
X119318149Y-68341837D01*
X119377315Y-68354409D01*
X119419799Y-68380293D01*
X119448727Y-68420686D01*
X119449233Y-68421743D01*
X119462845Y-68473432D01*
X119451650Y-68519995D01*
X119423758Y-68555249D01*
X119404110Y-68569683D01*
X119377578Y-68579805D01*
X119338160Y-68587158D01*
X119279853Y-68593287D01*
X119273908Y-68593795D01*
X119182116Y-68605838D01*
X119112439Y-68624446D01*
X119095466Y-68631561D01*
X119024019Y-68678821D01*
X118963347Y-68747095D01*
X118915169Y-68833666D01*
X118881204Y-68935819D01*
X118870972Y-68986400D01*
X118867884Y-69017816D01*
X118865102Y-69070447D01*
X118862744Y-69140108D01*
X118860925Y-69222614D01*
X118859763Y-69313782D01*
X118859373Y-69403301D01*
X118859300Y-69750353D01*
X118822176Y-69787476D01*
X118784956Y-69815442D01*
X118743711Y-69824526D01*
X118738650Y-69824600D01*
X118696289Y-69817196D01*
X118659204Y-69791467D01*
X118655123Y-69787476D01*
X118618000Y-69750353D01*
X118618000Y-68412946D01*
X118655123Y-68375823D01*
X118692343Y-68347857D01*
X118733588Y-68338773D01*
X118738650Y-68338700D01*
X118781010Y-68346103D01*
G37*
X118781010Y-68346103D02*
X118818095Y-68371832D01*
X118822176Y-68375823D01*
X118844127Y-68401317D01*
X118855267Y-68427583D01*
X118859062Y-68464825D01*
X118859300Y-68485146D01*
X118859300Y-68557347D01*
X118917277Y-68492861D01*
X118997445Y-68422023D01*
X119090609Y-68372753D01*
X119195293Y-68345746D01*
X119239175Y-68341383D01*
X119318149Y-68341837D01*
X119377315Y-68354409D01*
X119419799Y-68380293D01*
X119448727Y-68420686D01*
X119449233Y-68421743D01*
X119462845Y-68473432D01*
X119451650Y-68519995D01*
X119423758Y-68555249D01*
X119404110Y-68569683D01*
X119377578Y-68579805D01*
X119338160Y-68587158D01*
X119279853Y-68593287D01*
X119273908Y-68593795D01*
X119182116Y-68605838D01*
X119112439Y-68624446D01*
X119095466Y-68631561D01*
X119024019Y-68678821D01*
X118963347Y-68747095D01*
X118915169Y-68833666D01*
X118881204Y-68935819D01*
X118870972Y-68986400D01*
X118867884Y-69017816D01*
X118865102Y-69070447D01*
X118862744Y-69140108D01*
X118860925Y-69222614D01*
X118859763Y-69313782D01*
X118859373Y-69403301D01*
X118859300Y-69750353D01*
X118822176Y-69787476D01*
X118784956Y-69815442D01*
X118743711Y-69824526D01*
X118738650Y-69824600D01*
X118696289Y-69817196D01*
X118659204Y-69791467D01*
X118655123Y-69787476D01*
X118618000Y-69750353D01*
X118618000Y-68412946D01*
X118655123Y-68375823D01*
X118692343Y-68347857D01*
X118733588Y-68338773D01*
X118738650Y-68338700D01*
X118781010Y-68346103D01*
G36*
X120826009Y-67738758D02*
G01*
X120836616Y-67747050D01*
X120872250Y-67777700D01*
X120872250Y-69763299D01*
X120836616Y-69793949D01*
X120788908Y-69820196D01*
X120737782Y-69822298D01*
X120687524Y-69800315D01*
X120676374Y-69791721D01*
X120637300Y-69758842D01*
X120637300Y-68752887D01*
X120570625Y-68688355D01*
X120502832Y-68629971D01*
X120437942Y-68591609D01*
X120368438Y-68570127D01*
X120286804Y-68562381D01*
X120269000Y-68562203D01*
X120166196Y-68571327D01*
X120078042Y-68599485D01*
X120000906Y-68648078D01*
X119967246Y-68678553D01*
X119910465Y-68748045D01*
X119871298Y-68827154D01*
X119847992Y-68920350D01*
X119839804Y-69003462D01*
X119842226Y-69134377D01*
X119862875Y-69249194D01*
X119901459Y-69347280D01*
X119957691Y-69428004D01*
X120031280Y-69490733D01*
X120073718Y-69514773D01*
X120155581Y-69541803D01*
X120255336Y-69551457D01*
X120373295Y-69543760D01*
X120399615Y-69540062D01*
X120442369Y-69534638D01*
X120469092Y-69535723D01*
X120488665Y-69544867D01*
X120504390Y-69558313D01*
X120530387Y-69598163D01*
X120533264Y-69643166D01*
X120517187Y-69680279D01*
X120483091Y-69710315D01*
X120429363Y-69735659D01*
X120361499Y-69755297D01*
X120284999Y-69768218D01*
X120205361Y-69773408D01*
X120128084Y-69769857D01*
X120076991Y-69761318D01*
X119959162Y-69721636D01*
X119854516Y-69661167D01*
X119764798Y-69581802D01*
X119691750Y-69485429D01*
X119637114Y-69373940D01*
X119602634Y-69249223D01*
X119602107Y-69246297D01*
X119586496Y-69102232D01*
X119591170Y-68965229D01*
X119614824Y-68837099D01*
X119656150Y-68719651D01*
X119713843Y-68614694D01*
X119786595Y-68524037D01*
X119873100Y-68449489D01*
X119972051Y-68392860D01*
X120082143Y-68355958D01*
X120202069Y-68340594D01*
X120255818Y-68341034D01*
X120316622Y-68345422D01*
X120363532Y-68353680D01*
X120408034Y-68368712D01*
X120460266Y-68392761D01*
X120510880Y-68419347D01*
X120557928Y-68446957D01*
X120592353Y-68470229D01*
X120596025Y-68473143D01*
X120637300Y-68507055D01*
X120637300Y-67782157D01*
X120676374Y-67749278D01*
X120725814Y-67721680D01*
X120777120Y-67718154D01*
X120826009Y-67738758D01*
G37*
X120826009Y-67738758D02*
X120836616Y-67747050D01*
X120872250Y-67777700D01*
X120872250Y-69763299D01*
X120836616Y-69793949D01*
X120788908Y-69820196D01*
X120737782Y-69822298D01*
X120687524Y-69800315D01*
X120676374Y-69791721D01*
X120637300Y-69758842D01*
X120637300Y-68752887D01*
X120570625Y-68688355D01*
X120502832Y-68629971D01*
X120437942Y-68591609D01*
X120368438Y-68570127D01*
X120286804Y-68562381D01*
X120269000Y-68562203D01*
X120166196Y-68571327D01*
X120078042Y-68599485D01*
X120000906Y-68648078D01*
X119967246Y-68678553D01*
X119910465Y-68748045D01*
X119871298Y-68827154D01*
X119847992Y-68920350D01*
X119839804Y-69003462D01*
X119842226Y-69134377D01*
X119862875Y-69249194D01*
X119901459Y-69347280D01*
X119957691Y-69428004D01*
X120031280Y-69490733D01*
X120073718Y-69514773D01*
X120155581Y-69541803D01*
X120255336Y-69551457D01*
X120373295Y-69543760D01*
X120399615Y-69540062D01*
X120442369Y-69534638D01*
X120469092Y-69535723D01*
X120488665Y-69544867D01*
X120504390Y-69558313D01*
X120530387Y-69598163D01*
X120533264Y-69643166D01*
X120517187Y-69680279D01*
X120483091Y-69710315D01*
X120429363Y-69735659D01*
X120361499Y-69755297D01*
X120284999Y-69768218D01*
X120205361Y-69773408D01*
X120128084Y-69769857D01*
X120076991Y-69761318D01*
X119959162Y-69721636D01*
X119854516Y-69661167D01*
X119764798Y-69581802D01*
X119691750Y-69485429D01*
X119637114Y-69373940D01*
X119602634Y-69249223D01*
X119602107Y-69246297D01*
X119586496Y-69102232D01*
X119591170Y-68965229D01*
X119614824Y-68837099D01*
X119656150Y-68719651D01*
X119713843Y-68614694D01*
X119786595Y-68524037D01*
X119873100Y-68449489D01*
X119972051Y-68392860D01*
X120082143Y-68355958D01*
X120202069Y-68340594D01*
X120255818Y-68341034D01*
X120316622Y-68345422D01*
X120363532Y-68353680D01*
X120408034Y-68368712D01*
X120460266Y-68392761D01*
X120510880Y-68419347D01*
X120557928Y-68446957D01*
X120592353Y-68470229D01*
X120596025Y-68473143D01*
X120637300Y-68507055D01*
X120637300Y-67782157D01*
X120676374Y-67749278D01*
X120725814Y-67721680D01*
X120777120Y-67718154D01*
X120826009Y-67738758D01*
G36*
X121293641Y-59292676D02*
G01*
X121366329Y-59294436D01*
X121424063Y-59297196D01*
X121461798Y-59300989D01*
X121462800Y-59301159D01*
X121573813Y-59323079D01*
X121688112Y-59350286D01*
X121798514Y-59380797D01*
X121897836Y-59412632D01*
X121977150Y-59443053D01*
X122138252Y-59517415D01*
X122280694Y-59594482D01*
X122411165Y-59678555D01*
X122536355Y-59773933D01*
X122659388Y-59881612D01*
X122824487Y-60051399D01*
X122969435Y-60236044D01*
X123093398Y-60434050D01*
X123195539Y-60643921D01*
X123275026Y-60864162D01*
X123328601Y-61080650D01*
X123339102Y-61133116D01*
X123349957Y-61185092D01*
X123355617Y-61211007D01*
X123360301Y-61246274D01*
X123363803Y-61301577D01*
X123366133Y-61371580D01*
X123367304Y-61450947D01*
X123367328Y-61534343D01*
X123366218Y-61616430D01*
X123363983Y-61691874D01*
X123360638Y-61755337D01*
X123356193Y-61801486D01*
X123354272Y-61813106D01*
X123343359Y-61868063D01*
X123331570Y-61927988D01*
X123327156Y-61950600D01*
X123274842Y-62158653D01*
X123198590Y-62366911D01*
X123130649Y-62513788D01*
X123015462Y-62715434D01*
X122879262Y-62904118D01*
X122723842Y-63078057D01*
X122550996Y-63235468D01*
X122362517Y-63374568D01*
X122160200Y-63493575D01*
X122128739Y-63509598D01*
X122052272Y-63545095D01*
X121964688Y-63581425D01*
X121873267Y-63615925D01*
X121785289Y-63645927D01*
X121708036Y-63668768D01*
X121667799Y-63678352D01*
X121558609Y-63701046D01*
X121471157Y-63720003D01*
X121402183Y-63735975D01*
X121348424Y-63749715D01*
X121310400Y-63760781D01*
X121240318Y-63775578D01*
X121158603Y-63781837D01*
X121075533Y-63779554D01*
X121001385Y-63768726D01*
X120973165Y-63760895D01*
X120866733Y-63712485D01*
X120775599Y-63646007D01*
X120701046Y-63564511D01*
X120644357Y-63471042D01*
X120606813Y-63368648D01*
X120589697Y-63260376D01*
X120594292Y-63149273D01*
X120621880Y-63038385D01*
X120645475Y-62982364D01*
X120693261Y-62905611D01*
X120757277Y-62834373D01*
X120832045Y-62772892D01*
X120912089Y-62725409D01*
X120991932Y-62696165D01*
X121022247Y-62690567D01*
X121060580Y-62682415D01*
X121090041Y-62670445D01*
X121094965Y-62666964D01*
X121115468Y-62658554D01*
X121154780Y-62649651D01*
X121206375Y-62641566D01*
X121241015Y-62637605D01*
X121347860Y-62624018D01*
X121439594Y-62604658D01*
X121526316Y-62576828D01*
X121618128Y-62537830D01*
X121622735Y-62535679D01*
X121770931Y-62453697D01*
X121900118Y-62355159D01*
X122011464Y-62238925D01*
X122106142Y-62103857D01*
X122151908Y-62020382D01*
X122217059Y-61863205D01*
X122257740Y-61701800D01*
X122274068Y-61538326D01*
X122266157Y-61374938D01*
X122234124Y-61213792D01*
X122178084Y-61057046D01*
X122098153Y-60906855D01*
X122091657Y-60896629D01*
X121992589Y-60765483D01*
X121875027Y-60650116D01*
X121741855Y-60552587D01*
X121595955Y-60474955D01*
X121440210Y-60419277D01*
X121413363Y-60412243D01*
X121247976Y-60383957D01*
X121082018Y-60380439D01*
X120917950Y-60401240D01*
X120758237Y-60445911D01*
X120605340Y-60514000D01*
X120497600Y-60579495D01*
X120401524Y-60656057D01*
X120307602Y-60750783D01*
X120221746Y-60856720D01*
X120149873Y-60966911D01*
X120120028Y-61023500D01*
X120084419Y-61107476D01*
X120055362Y-61195701D01*
X120033775Y-61283239D01*
X120020575Y-61365157D01*
X120016679Y-61436522D01*
X120023005Y-61492400D01*
X120029369Y-61511042D01*
X120036908Y-61543004D01*
X120034144Y-61565615D01*
X120029548Y-61587990D01*
X120025232Y-61628753D01*
X120021850Y-61680892D01*
X120020707Y-61709300D01*
X120010937Y-61815406D01*
X119987081Y-61905354D01*
X119946200Y-61985810D01*
X119885353Y-62063438D01*
X119847223Y-62102596D01*
X119768451Y-62179200D01*
X119830555Y-62179200D01*
X119877652Y-62183725D01*
X119933324Y-62195384D01*
X119969704Y-62206323D01*
X120081379Y-62257672D01*
X120175013Y-62326517D01*
X120250006Y-62412317D01*
X120302041Y-62505816D01*
X120320933Y-62548335D01*
X120337328Y-62583819D01*
X120345976Y-62601302D01*
X120347449Y-62616547D01*
X120348822Y-62655565D01*
X120350096Y-62716727D01*
X120351271Y-62798407D01*
X120352347Y-62898978D01*
X120353323Y-63016812D01*
X120354200Y-63150281D01*
X120354978Y-63297759D01*
X120355657Y-63457617D01*
X120356237Y-63628229D01*
X120356718Y-63807967D01*
X120357100Y-63995204D01*
X120357384Y-64188313D01*
X120357568Y-64385665D01*
X120357654Y-64585634D01*
X120357642Y-64786593D01*
X120357531Y-64986914D01*
X120357322Y-65184969D01*
X120357014Y-65379132D01*
X120356608Y-65567774D01*
X120356103Y-65749269D01*
X120355501Y-65921989D01*
X120354800Y-66084308D01*
X120354001Y-66234596D01*
X120353104Y-66371228D01*
X120352110Y-66492575D01*
X120351017Y-66597011D01*
X120349827Y-66682908D01*
X120348538Y-66748639D01*
X120347153Y-66792576D01*
X120345808Y-66812236D01*
X120318786Y-66917391D01*
X120270800Y-67016645D01*
X120205254Y-67105299D01*
X120125552Y-67178656D01*
X120044970Y-67227507D01*
X120002538Y-67247632D01*
X119966962Y-67264652D01*
X119948497Y-67273628D01*
X119925612Y-67278913D01*
X119886202Y-67282407D01*
X119836789Y-67284150D01*
X119783896Y-67284182D01*
X119734044Y-67282544D01*
X119693756Y-67279274D01*
X119669553Y-67274413D01*
X119665750Y-67271900D01*
X119647586Y-67260593D01*
X119636425Y-67258925D01*
X119594092Y-67248783D01*
X119542084Y-67221992D01*
X119485412Y-67182625D01*
X119429084Y-67134759D01*
X119378111Y-67082469D01*
X119337501Y-67029830D01*
X119321779Y-67002958D01*
X119310038Y-66980150D01*
X119299720Y-66959750D01*
X119290734Y-66940045D01*
X119282988Y-66919324D01*
X119276389Y-66895877D01*
X119270845Y-66867993D01*
X119266265Y-66833959D01*
X119262556Y-66792064D01*
X119259626Y-66740598D01*
X119257383Y-66677849D01*
X119255736Y-66602106D01*
X119254591Y-66511657D01*
X119253857Y-66404792D01*
X119253442Y-66279799D01*
X119253254Y-66134966D01*
X119253201Y-65968584D01*
X119253191Y-65778939D01*
X119253184Y-65727791D01*
X119253073Y-65562410D01*
X119252803Y-65404348D01*
X119252387Y-65255443D01*
X119251837Y-65117535D01*
X119251168Y-64992462D01*
X119250390Y-64882062D01*
X119249517Y-64788174D01*
X119248562Y-64712637D01*
X119247537Y-64657288D01*
X119246454Y-64623966D01*
X119245516Y-64614350D01*
X119231762Y-64616558D01*
X119201012Y-64628660D01*
X119158592Y-64648428D01*
X119132377Y-64661678D01*
X119019694Y-64714815D01*
X118894104Y-64765078D01*
X118765896Y-64808735D01*
X118645362Y-64842052D01*
X118618000Y-64848250D01*
X118431530Y-64879260D01*
X118236011Y-64895098D01*
X118037679Y-64895927D01*
X117842776Y-64881910D01*
X117657539Y-64853211D01*
X117519566Y-64819518D01*
X117294478Y-64740881D01*
X117080261Y-64639752D01*
X116878447Y-64517258D01*
X116690567Y-64374527D01*
X116518151Y-64212686D01*
X116362730Y-64032864D01*
X116262746Y-63893700D01*
X116189864Y-63773259D01*
X116120525Y-63638872D01*
X116058199Y-63498408D01*
X116006356Y-63359742D01*
X115968466Y-63230745D01*
X115966028Y-63220600D01*
X115955910Y-63178007D01*
X115946890Y-63140606D01*
X115944704Y-63131700D01*
X115933279Y-63072480D01*
X115923188Y-62995373D01*
X115914666Y-62905639D01*
X115907952Y-62808538D01*
X115903281Y-62709329D01*
X115901814Y-62650359D01*
X116992315Y-62650359D01*
X117001107Y-62801479D01*
X117031362Y-62953206D01*
X117081850Y-63101568D01*
X117151341Y-63242596D01*
X117238609Y-63372320D01*
X117295858Y-63439708D01*
X117401604Y-63540758D01*
X117517455Y-63625133D01*
X117646989Y-63694821D01*
X117793789Y-63751810D01*
X117925850Y-63789540D01*
X117986396Y-63799156D01*
X118063891Y-63803534D01*
X118150466Y-63802861D01*
X118238256Y-63797326D01*
X118319394Y-63787117D01*
X118360333Y-63779123D01*
X118517380Y-63733461D01*
X118657504Y-63671663D01*
X118785190Y-63591258D01*
X118904924Y-63489775D01*
X118929188Y-63465847D01*
X119023614Y-63356193D01*
X119104657Y-63233235D01*
X119170172Y-63101801D01*
X119218015Y-62966716D01*
X119246039Y-62832804D01*
X119252753Y-62738000D01*
X119264748Y-62617114D01*
X119299471Y-62507497D01*
X119357112Y-62408702D01*
X119426543Y-62330743D01*
X119459375Y-62298982D01*
X119483446Y-62274343D01*
X119494134Y-62261581D01*
X119494300Y-62261031D01*
X119482963Y-62257618D01*
X119454397Y-62255618D01*
X119439247Y-62255400D01*
X119342780Y-62243169D01*
X119247024Y-62208036D01*
X119155523Y-62152341D01*
X119071815Y-62078425D01*
X118999443Y-61988628D01*
X118973945Y-61947895D01*
X118912155Y-61863761D01*
X118828276Y-61784564D01*
X118725439Y-61712239D01*
X118606778Y-61648722D01*
X118475424Y-61595947D01*
X118342259Y-61557648D01*
X118288692Y-61549452D01*
X118217615Y-61544674D01*
X118136676Y-61543242D01*
X118053524Y-61545089D01*
X117975807Y-61550145D01*
X117911176Y-61558340D01*
X117894100Y-61561704D01*
X117729966Y-61610638D01*
X117578581Y-61680845D01*
X117441282Y-61770908D01*
X117319405Y-61879407D01*
X117214287Y-62004924D01*
X117127266Y-62146042D01*
X117059677Y-62301340D01*
X117012857Y-62469402D01*
X117006212Y-62503814D01*
X116992315Y-62650359D01*
X115901814Y-62650359D01*
X115900891Y-62613272D01*
X115901018Y-62525627D01*
X115903900Y-62451654D01*
X115909773Y-62396613D01*
X115911242Y-62388750D01*
X115920086Y-62345276D01*
X115931592Y-62287988D01*
X115943530Y-62227993D01*
X115945644Y-62217300D01*
X116002219Y-61995084D01*
X116081644Y-61781854D01*
X116182512Y-61579065D01*
X116303414Y-61388173D01*
X116442944Y-61210632D01*
X116599692Y-61047898D01*
X116772253Y-60901426D01*
X116959217Y-60772672D01*
X117159176Y-60663091D01*
X117370724Y-60574139D01*
X117592453Y-60507270D01*
X117602000Y-60504959D01*
X117837688Y-60460655D01*
X118070893Y-60441484D01*
X118302642Y-60447425D01*
X118533962Y-60478455D01*
X118562973Y-60484112D01*
X118651149Y-60504466D01*
X118746507Y-60530791D01*
X118841017Y-60560556D01*
X118926649Y-60591231D01*
X118995371Y-60620283D01*
X118996171Y-60620664D01*
X119036207Y-60638866D01*
X119066182Y-60650766D01*
X119079934Y-60653931D01*
X119080105Y-60653794D01*
X119087145Y-60641132D01*
X119103087Y-60610474D01*
X119125493Y-60566555D01*
X119149439Y-60519069D01*
X119268849Y-60308008D01*
X119406007Y-60114988D01*
X119560419Y-59940373D01*
X119731594Y-59784528D01*
X119919037Y-59647817D01*
X120122258Y-59530605D01*
X120340762Y-59433257D01*
X120574056Y-59356138D01*
X120789700Y-59305583D01*
X120825867Y-59301269D01*
X120882381Y-59297722D01*
X120954199Y-59294978D01*
X121036277Y-59293068D01*
X121123571Y-59292025D01*
X121211041Y-59291884D01*
X121293641Y-59292676D01*
G37*
X121293641Y-59292676D02*
X121366329Y-59294436D01*
X121424063Y-59297196D01*
X121461798Y-59300989D01*
X121462800Y-59301159D01*
X121573813Y-59323079D01*
X121688112Y-59350286D01*
X121798514Y-59380797D01*
X121897836Y-59412632D01*
X121977150Y-59443053D01*
X122138252Y-59517415D01*
X122280694Y-59594482D01*
X122411165Y-59678555D01*
X122536355Y-59773933D01*
X122659388Y-59881612D01*
X122824487Y-60051399D01*
X122969435Y-60236044D01*
X123093398Y-60434050D01*
X123195539Y-60643921D01*
X123275026Y-60864162D01*
X123328601Y-61080650D01*
X123339102Y-61133116D01*
X123349957Y-61185092D01*
X123355617Y-61211007D01*
X123360301Y-61246274D01*
X123363803Y-61301577D01*
X123366133Y-61371580D01*
X123367304Y-61450947D01*
X123367328Y-61534343D01*
X123366218Y-61616430D01*
X123363983Y-61691874D01*
X123360638Y-61755337D01*
X123356193Y-61801486D01*
X123354272Y-61813106D01*
X123343359Y-61868063D01*
X123331570Y-61927988D01*
X123327156Y-61950600D01*
X123274842Y-62158653D01*
X123198590Y-62366911D01*
X123130649Y-62513788D01*
X123015462Y-62715434D01*
X122879262Y-62904118D01*
X122723842Y-63078057D01*
X122550996Y-63235468D01*
X122362517Y-63374568D01*
X122160200Y-63493575D01*
X122128739Y-63509598D01*
X122052272Y-63545095D01*
X121964688Y-63581425D01*
X121873267Y-63615925D01*
X121785289Y-63645927D01*
X121708036Y-63668768D01*
X121667799Y-63678352D01*
X121558609Y-63701046D01*
X121471157Y-63720003D01*
X121402183Y-63735975D01*
X121348424Y-63749715D01*
X121310400Y-63760781D01*
X121240318Y-63775578D01*
X121158603Y-63781837D01*
X121075533Y-63779554D01*
X121001385Y-63768726D01*
X120973165Y-63760895D01*
X120866733Y-63712485D01*
X120775599Y-63646007D01*
X120701046Y-63564511D01*
X120644357Y-63471042D01*
X120606813Y-63368648D01*
X120589697Y-63260376D01*
X120594292Y-63149273D01*
X120621880Y-63038385D01*
X120645475Y-62982364D01*
X120693261Y-62905611D01*
X120757277Y-62834373D01*
X120832045Y-62772892D01*
X120912089Y-62725409D01*
X120991932Y-62696165D01*
X121022247Y-62690567D01*
X121060580Y-62682415D01*
X121090041Y-62670445D01*
X121094965Y-62666964D01*
X121115468Y-62658554D01*
X121154780Y-62649651D01*
X121206375Y-62641566D01*
X121241015Y-62637605D01*
X121347860Y-62624018D01*
X121439594Y-62604658D01*
X121526316Y-62576828D01*
X121618128Y-62537830D01*
X121622735Y-62535679D01*
X121770931Y-62453697D01*
X121900118Y-62355159D01*
X122011464Y-62238925D01*
X122106142Y-62103857D01*
X122151908Y-62020382D01*
X122217059Y-61863205D01*
X122257740Y-61701800D01*
X122274068Y-61538326D01*
X122266157Y-61374938D01*
X122234124Y-61213792D01*
X122178084Y-61057046D01*
X122098153Y-60906855D01*
X122091657Y-60896629D01*
X121992589Y-60765483D01*
X121875027Y-60650116D01*
X121741855Y-60552587D01*
X121595955Y-60474955D01*
X121440210Y-60419277D01*
X121413363Y-60412243D01*
X121247976Y-60383957D01*
X121082018Y-60380439D01*
X120917950Y-60401240D01*
X120758237Y-60445911D01*
X120605340Y-60514000D01*
X120497600Y-60579495D01*
X120401524Y-60656057D01*
X120307602Y-60750783D01*
X120221746Y-60856720D01*
X120149873Y-60966911D01*
X120120028Y-61023500D01*
X120084419Y-61107476D01*
X120055362Y-61195701D01*
X120033775Y-61283239D01*
X120020575Y-61365157D01*
X120016679Y-61436522D01*
X120023005Y-61492400D01*
X120029369Y-61511042D01*
X120036908Y-61543004D01*
X120034144Y-61565615D01*
X120029548Y-61587990D01*
X120025232Y-61628753D01*
X120021850Y-61680892D01*
X120020707Y-61709300D01*
X120010937Y-61815406D01*
X119987081Y-61905354D01*
X119946200Y-61985810D01*
X119885353Y-62063438D01*
X119847223Y-62102596D01*
X119768451Y-62179200D01*
X119830555Y-62179200D01*
X119877652Y-62183725D01*
X119933324Y-62195384D01*
X119969704Y-62206323D01*
X120081379Y-62257672D01*
X120175013Y-62326517D01*
X120250006Y-62412317D01*
X120302041Y-62505816D01*
X120320933Y-62548335D01*
X120337328Y-62583819D01*
X120345976Y-62601302D01*
X120347449Y-62616547D01*
X120348822Y-62655565D01*
X120350096Y-62716727D01*
X120351271Y-62798407D01*
X120352347Y-62898978D01*
X120353323Y-63016812D01*
X120354200Y-63150281D01*
X120354978Y-63297759D01*
X120355657Y-63457617D01*
X120356237Y-63628229D01*
X120356718Y-63807967D01*
X120357100Y-63995204D01*
X120357384Y-64188313D01*
X120357568Y-64385665D01*
X120357654Y-64585634D01*
X120357642Y-64786593D01*
X120357531Y-64986914D01*
X120357322Y-65184969D01*
X120357014Y-65379132D01*
X120356608Y-65567774D01*
X120356103Y-65749269D01*
X120355501Y-65921989D01*
X120354800Y-66084308D01*
X120354001Y-66234596D01*
X120353104Y-66371228D01*
X120352110Y-66492575D01*
X120351017Y-66597011D01*
X120349827Y-66682908D01*
X120348538Y-66748639D01*
X120347153Y-66792576D01*
X120345808Y-66812236D01*
X120318786Y-66917391D01*
X120270800Y-67016645D01*
X120205254Y-67105299D01*
X120125552Y-67178656D01*
X120044970Y-67227507D01*
X120002538Y-67247632D01*
X119966962Y-67264652D01*
X119948497Y-67273628D01*
X119925612Y-67278913D01*
X119886202Y-67282407D01*
X119836789Y-67284150D01*
X119783896Y-67284182D01*
X119734044Y-67282544D01*
X119693756Y-67279274D01*
X119669553Y-67274413D01*
X119665750Y-67271900D01*
X119647586Y-67260593D01*
X119636425Y-67258925D01*
X119594092Y-67248783D01*
X119542084Y-67221992D01*
X119485412Y-67182625D01*
X119429084Y-67134759D01*
X119378111Y-67082469D01*
X119337501Y-67029830D01*
X119321779Y-67002958D01*
X119310038Y-66980150D01*
X119299720Y-66959750D01*
X119290734Y-66940045D01*
X119282988Y-66919324D01*
X119276389Y-66895877D01*
X119270845Y-66867993D01*
X119266265Y-66833959D01*
X119262556Y-66792064D01*
X119259626Y-66740598D01*
X119257383Y-66677849D01*
X119255736Y-66602106D01*
X119254591Y-66511657D01*
X119253857Y-66404792D01*
X119253442Y-66279799D01*
X119253254Y-66134966D01*
X119253201Y-65968584D01*
X119253191Y-65778939D01*
X119253184Y-65727791D01*
X119253073Y-65562410D01*
X119252803Y-65404348D01*
X119252387Y-65255443D01*
X119251837Y-65117535D01*
X119251168Y-64992462D01*
X119250390Y-64882062D01*
X119249517Y-64788174D01*
X119248562Y-64712637D01*
X119247537Y-64657288D01*
X119246454Y-64623966D01*
X119245516Y-64614350D01*
X119231762Y-64616558D01*
X119201012Y-64628660D01*
X119158592Y-64648428D01*
X119132377Y-64661678D01*
X119019694Y-64714815D01*
X118894104Y-64765078D01*
X118765896Y-64808735D01*
X118645362Y-64842052D01*
X118618000Y-64848250D01*
X118431530Y-64879260D01*
X118236011Y-64895098D01*
X118037679Y-64895927D01*
X117842776Y-64881910D01*
X117657539Y-64853211D01*
X117519566Y-64819518D01*
X117294478Y-64740881D01*
X117080261Y-64639752D01*
X116878447Y-64517258D01*
X116690567Y-64374527D01*
X116518151Y-64212686D01*
X116362730Y-64032864D01*
X116262746Y-63893700D01*
X116189864Y-63773259D01*
X116120525Y-63638872D01*
X116058199Y-63498408D01*
X116006356Y-63359742D01*
X115968466Y-63230745D01*
X115966028Y-63220600D01*
X115955910Y-63178007D01*
X115946890Y-63140606D01*
X115944704Y-63131700D01*
X115933279Y-63072480D01*
X115923188Y-62995373D01*
X115914666Y-62905639D01*
X115907952Y-62808538D01*
X115903281Y-62709329D01*
X115901814Y-62650359D01*
X116992315Y-62650359D01*
X117001107Y-62801479D01*
X117031362Y-62953206D01*
X117081850Y-63101568D01*
X117151341Y-63242596D01*
X117238609Y-63372320D01*
X117295858Y-63439708D01*
X117401604Y-63540758D01*
X117517455Y-63625133D01*
X117646989Y-63694821D01*
X117793789Y-63751810D01*
X117925850Y-63789540D01*
X117986396Y-63799156D01*
X118063891Y-63803534D01*
X118150466Y-63802861D01*
X118238256Y-63797326D01*
X118319394Y-63787117D01*
X118360333Y-63779123D01*
X118517380Y-63733461D01*
X118657504Y-63671663D01*
X118785190Y-63591258D01*
X118904924Y-63489775D01*
X118929188Y-63465847D01*
X119023614Y-63356193D01*
X119104657Y-63233235D01*
X119170172Y-63101801D01*
X119218015Y-62966716D01*
X119246039Y-62832804D01*
X119252753Y-62738000D01*
X119264748Y-62617114D01*
X119299471Y-62507497D01*
X119357112Y-62408702D01*
X119426543Y-62330743D01*
X119459375Y-62298982D01*
X119483446Y-62274343D01*
X119494134Y-62261581D01*
X119494300Y-62261031D01*
X119482963Y-62257618D01*
X119454397Y-62255618D01*
X119439247Y-62255400D01*
X119342780Y-62243169D01*
X119247024Y-62208036D01*
X119155523Y-62152341D01*
X119071815Y-62078425D01*
X118999443Y-61988628D01*
X118973945Y-61947895D01*
X118912155Y-61863761D01*
X118828276Y-61784564D01*
X118725439Y-61712239D01*
X118606778Y-61648722D01*
X118475424Y-61595947D01*
X118342259Y-61557648D01*
X118288692Y-61549452D01*
X118217615Y-61544674D01*
X118136676Y-61543242D01*
X118053524Y-61545089D01*
X117975807Y-61550145D01*
X117911176Y-61558340D01*
X117894100Y-61561704D01*
X117729966Y-61610638D01*
X117578581Y-61680845D01*
X117441282Y-61770908D01*
X117319405Y-61879407D01*
X117214287Y-62004924D01*
X117127266Y-62146042D01*
X117059677Y-62301340D01*
X117012857Y-62469402D01*
X117006212Y-62503814D01*
X116992315Y-62650359D01*
X115901814Y-62650359D01*
X115900891Y-62613272D01*
X115901018Y-62525627D01*
X115903900Y-62451654D01*
X115909773Y-62396613D01*
X115911242Y-62388750D01*
X115920086Y-62345276D01*
X115931592Y-62287988D01*
X115943530Y-62227993D01*
X115945644Y-62217300D01*
X116002219Y-61995084D01*
X116081644Y-61781854D01*
X116182512Y-61579065D01*
X116303414Y-61388173D01*
X116442944Y-61210632D01*
X116599692Y-61047898D01*
X116772253Y-60901426D01*
X116959217Y-60772672D01*
X117159176Y-60663091D01*
X117370724Y-60574139D01*
X117592453Y-60507270D01*
X117602000Y-60504959D01*
X117837688Y-60460655D01*
X118070893Y-60441484D01*
X118302642Y-60447425D01*
X118533962Y-60478455D01*
X118562973Y-60484112D01*
X118651149Y-60504466D01*
X118746507Y-60530791D01*
X118841017Y-60560556D01*
X118926649Y-60591231D01*
X118995371Y-60620283D01*
X118996171Y-60620664D01*
X119036207Y-60638866D01*
X119066182Y-60650766D01*
X119079934Y-60653931D01*
X119080105Y-60653794D01*
X119087145Y-60641132D01*
X119103087Y-60610474D01*
X119125493Y-60566555D01*
X119149439Y-60519069D01*
X119268849Y-60308008D01*
X119406007Y-60114988D01*
X119560419Y-59940373D01*
X119731594Y-59784528D01*
X119919037Y-59647817D01*
X120122258Y-59530605D01*
X120340762Y-59433257D01*
X120574056Y-59356138D01*
X120789700Y-59305583D01*
X120825867Y-59301269D01*
X120882381Y-59297722D01*
X120954199Y-59294978D01*
X121036277Y-59293068D01*
X121123571Y-59292025D01*
X121211041Y-59291884D01*
X121293641Y-59292676D01*
D12*
%TO.C,U5*%
X118491000Y-75839000D02*
X116541000Y-75839000D01*
X118491000Y-75839000D02*
X120441000Y-75839000D01*
X118491000Y-85959000D02*
X116541000Y-85959000D01*
X118491000Y-85959000D02*
X121941000Y-85959000D01*
%TO.C,C1*%
X85209748Y-60606000D02*
X85732252Y-60606000D01*
X85209748Y-62076000D02*
X85732252Y-62076000D01*
%TO.C,C2*%
X83751000Y-92779000D02*
X86501000Y-92779000D01*
X92271000Y-92779000D02*
X89521000Y-92779000D01*
X92271000Y-85323437D02*
X92271000Y-92779000D01*
X83751000Y-85323437D02*
X83751000Y-92779000D01*
X84815437Y-84259000D02*
X86501000Y-84259000D01*
X91206563Y-84259000D02*
X89521000Y-84259000D01*
X91206563Y-84259000D02*
X92271000Y-85323437D01*
X84815437Y-84259000D02*
X83751000Y-85323437D01*
X90521000Y-83019000D02*
X90521000Y-84019000D01*
X91021000Y-83519000D02*
X90021000Y-83519000D01*
%TO.C,C3*%
X84208252Y-71528000D02*
X83685748Y-71528000D01*
X84208252Y-72998000D02*
X83685748Y-72998000D01*
%TO.C,C4*%
X124585000Y-74295580D02*
X124585000Y-74014420D01*
X125605000Y-74295580D02*
X125605000Y-74014420D01*
%TO.C,C5*%
X92200000Y-81039580D02*
X92200000Y-80758420D01*
X93220000Y-81039580D02*
X93220000Y-80758420D01*
%TO.C,C6*%
X124340252Y-83974000D02*
X123817748Y-83974000D01*
X124340252Y-85444000D02*
X123817748Y-85444000D01*
%TO.C,C7*%
X87489420Y-51687000D02*
X87770580Y-51687000D01*
X87489420Y-52707000D02*
X87770580Y-52707000D01*
%TO.C,C8*%
X89154580Y-72769000D02*
X88873420Y-72769000D01*
X89154580Y-73789000D02*
X88873420Y-73789000D01*
%TO.C,C9*%
X117461420Y-74293000D02*
X117742580Y-74293000D01*
X117461420Y-75313000D02*
X117742580Y-75313000D01*
%TO.C,C10*%
X120509420Y-75313000D02*
X120790580Y-75313000D01*
X120509420Y-74293000D02*
X120790580Y-74293000D01*
%TO.C,C11*%
X93216000Y-58279420D02*
X93216000Y-58560580D01*
X94236000Y-58279420D02*
X94236000Y-58560580D01*
%TO.C,C12*%
X116258748Y-86514000D02*
X116781252Y-86514000D01*
X116258748Y-87984000D02*
X116781252Y-87984000D01*
%TO.C,D1*%
X83328000Y-71084000D02*
X85328000Y-71084000D01*
X85328000Y-71084000D02*
X85328000Y-67184000D01*
X83328000Y-71084000D02*
X83328000Y-67184000D01*
%TO.C,D2*%
X88988000Y-55018000D02*
X86703000Y-55018000D01*
X88988000Y-56488000D02*
X88988000Y-55018000D01*
X86703000Y-56488000D02*
X88988000Y-56488000D01*
%TO.C,D3*%
X85178000Y-55018000D02*
X82893000Y-55018000D01*
X85178000Y-56488000D02*
X85178000Y-55018000D01*
X82893000Y-56488000D02*
X85178000Y-56488000D01*
%TO.C,D4*%
X91275000Y-74014000D02*
X93560000Y-74014000D01*
X93560000Y-74014000D02*
X93560000Y-72544000D01*
X93560000Y-72544000D02*
X91275000Y-72544000D01*
%TO.C,J1*%
X75649000Y-57607000D02*
X76099000Y-57607000D01*
X75649000Y-53137000D02*
X75649000Y-57607000D01*
X76099000Y-53137000D02*
X75649000Y-53137000D01*
X80069000Y-57607000D02*
X80069000Y-56657000D01*
X79619000Y-57607000D02*
X80069000Y-57607000D01*
X80069000Y-54087000D02*
X81559000Y-54087000D01*
X80069000Y-53137000D02*
X80069000Y-54087000D01*
X79619000Y-53137000D02*
X80069000Y-53137000D01*
%TO.C,J2*%
X79619000Y-81331000D02*
X80069000Y-81331000D01*
X80069000Y-81331000D02*
X80069000Y-82281000D01*
X80069000Y-82281000D02*
X81559000Y-82281000D01*
X79619000Y-85801000D02*
X80069000Y-85801000D01*
X80069000Y-85801000D02*
X80069000Y-84851000D01*
X76099000Y-81331000D02*
X75649000Y-81331000D01*
X75649000Y-81331000D02*
X75649000Y-85801000D01*
X75649000Y-85801000D02*
X76099000Y-85801000D01*
%TO.C,J3*%
X132377000Y-76906000D02*
X131927000Y-76906000D01*
X132377000Y-83876000D02*
X132377000Y-76906000D01*
X131927000Y-83876000D02*
X132377000Y-83876000D01*
X127957000Y-76906000D02*
X127957000Y-77856000D01*
X128407000Y-76906000D02*
X127957000Y-76906000D01*
X127957000Y-82926000D02*
X126467000Y-82926000D01*
X127957000Y-83876000D02*
X127957000Y-82926000D01*
X128407000Y-83876000D02*
X127957000Y-83876000D01*
%TO.C,J4*%
X128407000Y-59746000D02*
X127957000Y-59746000D01*
X127957000Y-59746000D02*
X127957000Y-58796000D01*
X127957000Y-58796000D02*
X126467000Y-58796000D01*
X128407000Y-52776000D02*
X127957000Y-52776000D01*
X127957000Y-52776000D02*
X127957000Y-53726000D01*
X131927000Y-59746000D02*
X132377000Y-59746000D01*
X132377000Y-59746000D02*
X132377000Y-52776000D01*
X132377000Y-52776000D02*
X131927000Y-52776000D01*
%TO.C,J5*%
X128407000Y-71811000D02*
X127957000Y-71811000D01*
X127957000Y-71811000D02*
X127957000Y-70861000D01*
X127957000Y-70861000D02*
X126467000Y-70861000D01*
X128407000Y-64841000D02*
X127957000Y-64841000D01*
X127957000Y-64841000D02*
X127957000Y-65791000D01*
X131927000Y-71811000D02*
X132377000Y-71811000D01*
X132377000Y-71811000D02*
X132377000Y-64841000D01*
X132377000Y-64841000D02*
X131927000Y-64841000D01*
%TO.C,K1*%
X94485000Y-85909000D02*
X94485000Y-92509000D01*
X94485000Y-76909000D02*
X94485000Y-83509000D01*
X94485000Y-76909000D02*
X114285000Y-76909000D01*
X114285000Y-76909000D02*
X114285000Y-92509000D01*
X114285000Y-92509000D02*
X94485000Y-92509000D01*
X110035000Y-88909000D02*
X110035000Y-86459000D01*
X110035000Y-80509000D02*
X110035000Y-83009000D01*
X99435000Y-90759000D02*
X101935000Y-90759000D01*
X98535000Y-84759000D02*
X97735000Y-84759000D01*
X101935000Y-78759000D02*
X99435000Y-78759000D01*
X105335000Y-84759000D02*
X106835000Y-84759000D01*
X106835000Y-84759000D02*
X111435000Y-82259000D01*
X105335000Y-88359000D02*
X98535000Y-88359000D01*
X105335000Y-84759000D02*
X105335000Y-88359000D01*
X98535000Y-84759000D02*
X98535000Y-88359000D01*
X101935000Y-78759000D02*
X101935000Y-82959000D01*
X101935000Y-86559000D02*
X101935000Y-90759000D01*
X103935000Y-86559000D02*
X99935000Y-82959000D01*
X99935000Y-86559000D02*
X99935000Y-82959000D01*
X99935000Y-82959000D02*
X103935000Y-82959000D01*
X103935000Y-82959000D02*
X103935000Y-86559000D01*
X103935000Y-86559000D02*
X99935000Y-86559000D01*
%TO.C,L1*%
X78256000Y-67479000D02*
X76556000Y-67479000D01*
X76556000Y-67479000D02*
X76556000Y-60879000D01*
X76556000Y-60879000D02*
X78256000Y-60879000D01*
X81256000Y-60879000D02*
X82956000Y-60879000D01*
X82956000Y-60879000D02*
X82956000Y-67479000D01*
X82956000Y-67479000D02*
X81256000Y-67479000D01*
%TO.C,L2*%
X123987779Y-83314000D02*
X123662221Y-83314000D01*
X123987779Y-82294000D02*
X123662221Y-82294000D01*
%TO.C,Q1*%
X118039000Y-89283000D02*
X117109000Y-89283000D01*
X114879000Y-89283000D02*
X115809000Y-89283000D01*
X114879000Y-89283000D02*
X114879000Y-91443000D01*
X118039000Y-89283000D02*
X118039000Y-90743000D01*
%TO.C,R1*%
X92218742Y-64022500D02*
X92693258Y-64022500D01*
X92218742Y-62977500D02*
X92693258Y-62977500D01*
%TO.C,R2*%
X85964500Y-70849258D02*
X85964500Y-70374742D01*
X87009500Y-70849258D02*
X87009500Y-70374742D01*
%TO.C,R3*%
X87011742Y-66660500D02*
X87486258Y-66660500D01*
X87011742Y-67705500D02*
X87486258Y-67705500D01*
%TO.C,R4*%
X90692500Y-61357742D02*
X90692500Y-61832258D01*
X89647500Y-61357742D02*
X89647500Y-61832258D01*
%TO.C,R5*%
X87615500Y-61357742D02*
X87615500Y-61832258D01*
X88660500Y-61357742D02*
X88660500Y-61832258D01*
%TO.C,R6*%
X123587742Y-77455500D02*
X124062258Y-77455500D01*
X123587742Y-78500500D02*
X124062258Y-78500500D01*
%TO.C,R7*%
X84408742Y-51674500D02*
X84883258Y-51674500D01*
X84408742Y-52719500D02*
X84883258Y-52719500D01*
%TO.C,R8*%
X123587742Y-76976500D02*
X124062258Y-76976500D01*
X123587742Y-75931500D02*
X124062258Y-75931500D01*
%TO.C,R9*%
X120062258Y-87996500D02*
X119587742Y-87996500D01*
X120062258Y-89041500D02*
X119587742Y-89041500D01*
%TO.C,R10*%
X119587742Y-87517500D02*
X120062258Y-87517500D01*
X119587742Y-86472500D02*
X120062258Y-86472500D01*
D13*
%TO.C,S1*%
X88656000Y-48551000D02*
X88656000Y-46191000D01*
X83556000Y-46191000D02*
X83556000Y-48551000D01*
D14*
X81956000Y-45496000D02*
G75*
G03*
X81956000Y-45496000I-100000J0D01*
G01*
D13*
X88356000Y-44821000D02*
X83856000Y-44821000D01*
X88356000Y-49921000D02*
X83856000Y-49921000D01*
%TO.C,S2*%
X124805000Y-49921000D02*
X120305000Y-49921000D01*
X124805000Y-44821000D02*
X120305000Y-44821000D01*
D14*
X118405000Y-45496000D02*
G75*
G03*
X118405000Y-45496000I-100000J0D01*
G01*
D13*
X120005000Y-46191000D02*
X120005000Y-48551000D01*
X125105000Y-48551000D02*
X125105000Y-46191000D01*
D12*
%TO.C,U2*%
X87081000Y-65289000D02*
X87081000Y-63489000D01*
X83861000Y-63489000D02*
X83861000Y-65939000D01*
%TO.C,U3*%
X90786000Y-76576000D02*
X89526000Y-76576000D01*
X83966000Y-76576000D02*
X85226000Y-76576000D01*
X90786000Y-80336000D02*
X90786000Y-76576000D01*
X83966000Y-82586000D02*
X83966000Y-76576000D01*
%TO.C,U4*%
X95198001Y-75083001D02*
X95198001Y-75863001D01*
X95198001Y-75863001D02*
X96198001Y-75863001D01*
X113438001Y-75083001D02*
X113438001Y-75863001D01*
X113438001Y-75863001D02*
X112438001Y-75863001D01*
X95198001Y-50118001D02*
X113438001Y-50118001D01*
X113438001Y-50118001D02*
X113438001Y-56538001D01*
X95198001Y-50118001D02*
X95198001Y-56538001D01*
X95198001Y-56538001D02*
X94818001Y-56538001D01*
%TO.C,J6*%
X79619000Y-70546000D02*
X80069000Y-70546000D01*
X80069000Y-70546000D02*
X80069000Y-71496000D01*
X80069000Y-71496000D02*
X81559000Y-71496000D01*
X79619000Y-76266000D02*
X80069000Y-76266000D01*
X80069000Y-76266000D02*
X80069000Y-75316000D01*
X76099000Y-70546000D02*
X75649000Y-70546000D01*
X75649000Y-70546000D02*
X75649000Y-76266000D01*
X75649000Y-76266000D02*
X76099000Y-76266000D01*
%TO.C,U1*%
X89007000Y-68453000D02*
X89007000Y-70403000D01*
X89007000Y-68453000D02*
X89007000Y-66503000D01*
X94127000Y-68453000D02*
X94127000Y-70403000D01*
X94127000Y-68453000D02*
X94127000Y-65003000D01*
%TO.C,U5*%
D10*
X114427095Y-74255380D02*
X114427095Y-75064904D01*
X114474714Y-75160142D01*
X114522333Y-75207761D01*
X114617571Y-75255380D01*
X114808047Y-75255380D01*
X114903285Y-75207761D01*
X114950904Y-75160142D01*
X114998523Y-75064904D01*
X114998523Y-74255380D01*
X115950904Y-74255380D02*
X115474714Y-74255380D01*
X115427095Y-74731571D01*
X115474714Y-74683952D01*
X115569952Y-74636333D01*
X115808047Y-74636333D01*
X115903285Y-74683952D01*
X115950904Y-74731571D01*
X115998523Y-74826809D01*
X115998523Y-75064904D01*
X115950904Y-75160142D01*
X115903285Y-75207761D01*
X115808047Y-75255380D01*
X115569952Y-75255380D01*
X115474714Y-75207761D01*
X115427095Y-75160142D01*
%TO.C,C1*%
X85304333Y-60174142D02*
X85256714Y-60221761D01*
X85113857Y-60269380D01*
X85018619Y-60269380D01*
X84875761Y-60221761D01*
X84780523Y-60126523D01*
X84732904Y-60031285D01*
X84685285Y-59840809D01*
X84685285Y-59697952D01*
X84732904Y-59507476D01*
X84780523Y-59412238D01*
X84875761Y-59317000D01*
X85018619Y-59269380D01*
X85113857Y-59269380D01*
X85256714Y-59317000D01*
X85304333Y-59364619D01*
X86256714Y-60269380D02*
X85685285Y-60269380D01*
X85971000Y-60269380D02*
X85971000Y-59269380D01*
X85875761Y-59412238D01*
X85780523Y-59507476D01*
X85685285Y-59555095D01*
%TO.C,C2*%
X83288142Y-88685666D02*
X83335761Y-88733285D01*
X83383380Y-88876142D01*
X83383380Y-88971380D01*
X83335761Y-89114238D01*
X83240523Y-89209476D01*
X83145285Y-89257095D01*
X82954809Y-89304714D01*
X82811952Y-89304714D01*
X82621476Y-89257095D01*
X82526238Y-89209476D01*
X82431000Y-89114238D01*
X82383380Y-88971380D01*
X82383380Y-88876142D01*
X82431000Y-88733285D01*
X82478619Y-88685666D01*
X82478619Y-88304714D02*
X82431000Y-88257095D01*
X82383380Y-88161857D01*
X82383380Y-87923761D01*
X82431000Y-87828523D01*
X82478619Y-87780904D01*
X82573857Y-87733285D01*
X82669095Y-87733285D01*
X82811952Y-87780904D01*
X83383380Y-88352333D01*
X83383380Y-87733285D01*
%TO.C,C3*%
X83780333Y-74300142D02*
X83732714Y-74347761D01*
X83589857Y-74395380D01*
X83494619Y-74395380D01*
X83351761Y-74347761D01*
X83256523Y-74252523D01*
X83208904Y-74157285D01*
X83161285Y-73966809D01*
X83161285Y-73823952D01*
X83208904Y-73633476D01*
X83256523Y-73538238D01*
X83351761Y-73443000D01*
X83494619Y-73395380D01*
X83589857Y-73395380D01*
X83732714Y-73443000D01*
X83780333Y-73490619D01*
X84113666Y-73395380D02*
X84732714Y-73395380D01*
X84399380Y-73776333D01*
X84542238Y-73776333D01*
X84637476Y-73823952D01*
X84685095Y-73871571D01*
X84732714Y-73966809D01*
X84732714Y-74204904D01*
X84685095Y-74300142D01*
X84637476Y-74347761D01*
X84542238Y-74395380D01*
X84256523Y-74395380D01*
X84161285Y-74347761D01*
X84113666Y-74300142D01*
%TO.C,C4*%
X126849142Y-74334666D02*
X126896761Y-74382285D01*
X126944380Y-74525142D01*
X126944380Y-74620380D01*
X126896761Y-74763238D01*
X126801523Y-74858476D01*
X126706285Y-74906095D01*
X126515809Y-74953714D01*
X126372952Y-74953714D01*
X126182476Y-74906095D01*
X126087238Y-74858476D01*
X125992000Y-74763238D01*
X125944380Y-74620380D01*
X125944380Y-74525142D01*
X125992000Y-74382285D01*
X126039619Y-74334666D01*
X126277714Y-73477523D02*
X126944380Y-73477523D01*
X125896761Y-73715619D02*
X126611047Y-73953714D01*
X126611047Y-73334666D01*
%TO.C,C5*%
X93067142Y-83478666D02*
X93114761Y-83526285D01*
X93162380Y-83669142D01*
X93162380Y-83764380D01*
X93114761Y-83907238D01*
X93019523Y-84002476D01*
X92924285Y-84050095D01*
X92733809Y-84097714D01*
X92590952Y-84097714D01*
X92400476Y-84050095D01*
X92305238Y-84002476D01*
X92210000Y-83907238D01*
X92162380Y-83764380D01*
X92162380Y-83669142D01*
X92210000Y-83526285D01*
X92257619Y-83478666D01*
X92162380Y-82573904D02*
X92162380Y-83050095D01*
X92638571Y-83097714D01*
X92590952Y-83050095D01*
X92543333Y-82954857D01*
X92543333Y-82716761D01*
X92590952Y-82621523D01*
X92638571Y-82573904D01*
X92733809Y-82526285D01*
X92971904Y-82526285D01*
X93067142Y-82573904D01*
X93114761Y-82621523D01*
X93162380Y-82716761D01*
X93162380Y-82954857D01*
X93114761Y-83050095D01*
X93067142Y-83097714D01*
%TO.C,C6*%
X124928333Y-86717142D02*
X124880714Y-86764761D01*
X124737857Y-86812380D01*
X124642619Y-86812380D01*
X124499761Y-86764761D01*
X124404523Y-86669523D01*
X124356904Y-86574285D01*
X124309285Y-86383809D01*
X124309285Y-86240952D01*
X124356904Y-86050476D01*
X124404523Y-85955238D01*
X124499761Y-85860000D01*
X124642619Y-85812380D01*
X124737857Y-85812380D01*
X124880714Y-85860000D01*
X124928333Y-85907619D01*
X125785476Y-85812380D02*
X125595000Y-85812380D01*
X125499761Y-85860000D01*
X125452142Y-85907619D01*
X125356904Y-86050476D01*
X125309285Y-86240952D01*
X125309285Y-86621904D01*
X125356904Y-86717142D01*
X125404523Y-86764761D01*
X125499761Y-86812380D01*
X125690238Y-86812380D01*
X125785476Y-86764761D01*
X125833095Y-86717142D01*
X125880714Y-86621904D01*
X125880714Y-86383809D01*
X125833095Y-86288571D01*
X125785476Y-86240952D01*
X125690238Y-86193333D01*
X125499761Y-86193333D01*
X125404523Y-86240952D01*
X125356904Y-86288571D01*
X125309285Y-86383809D01*
%TO.C,C7*%
X87971333Y-51284142D02*
X87923714Y-51331761D01*
X87780857Y-51379380D01*
X87685619Y-51379380D01*
X87542761Y-51331761D01*
X87447523Y-51236523D01*
X87399904Y-51141285D01*
X87352285Y-50950809D01*
X87352285Y-50807952D01*
X87399904Y-50617476D01*
X87447523Y-50522238D01*
X87542761Y-50427000D01*
X87685619Y-50379380D01*
X87780857Y-50379380D01*
X87923714Y-50427000D01*
X87971333Y-50474619D01*
X88304666Y-50379380D02*
X88971333Y-50379380D01*
X88542761Y-51379380D01*
%TO.C,C8*%
X86447333Y-73636142D02*
X86399714Y-73683761D01*
X86256857Y-73731380D01*
X86161619Y-73731380D01*
X86018761Y-73683761D01*
X85923523Y-73588523D01*
X85875904Y-73493285D01*
X85828285Y-73302809D01*
X85828285Y-73159952D01*
X85875904Y-72969476D01*
X85923523Y-72874238D01*
X86018761Y-72779000D01*
X86161619Y-72731380D01*
X86256857Y-72731380D01*
X86399714Y-72779000D01*
X86447333Y-72826619D01*
X87018761Y-73159952D02*
X86923523Y-73112333D01*
X86875904Y-73064714D01*
X86828285Y-72969476D01*
X86828285Y-72921857D01*
X86875904Y-72826619D01*
X86923523Y-72779000D01*
X87018761Y-72731380D01*
X87209238Y-72731380D01*
X87304476Y-72779000D01*
X87352095Y-72826619D01*
X87399714Y-72921857D01*
X87399714Y-72969476D01*
X87352095Y-73064714D01*
X87304476Y-73112333D01*
X87209238Y-73159952D01*
X87018761Y-73159952D01*
X86923523Y-73207571D01*
X86875904Y-73255190D01*
X86828285Y-73350428D01*
X86828285Y-73540904D01*
X86875904Y-73636142D01*
X86923523Y-73683761D01*
X87018761Y-73731380D01*
X87209238Y-73731380D01*
X87304476Y-73683761D01*
X87352095Y-73636142D01*
X87399714Y-73540904D01*
X87399714Y-73350428D01*
X87352095Y-73255190D01*
X87304476Y-73207571D01*
X87209238Y-73159952D01*
%TO.C,C9*%
X117435333Y-73763142D02*
X117387714Y-73810761D01*
X117244857Y-73858380D01*
X117149619Y-73858380D01*
X117006761Y-73810761D01*
X116911523Y-73715523D01*
X116863904Y-73620285D01*
X116816285Y-73429809D01*
X116816285Y-73286952D01*
X116863904Y-73096476D01*
X116911523Y-73001238D01*
X117006761Y-72906000D01*
X117149619Y-72858380D01*
X117244857Y-72858380D01*
X117387714Y-72906000D01*
X117435333Y-72953619D01*
X117911523Y-73858380D02*
X118102000Y-73858380D01*
X118197238Y-73810761D01*
X118244857Y-73763142D01*
X118340095Y-73620285D01*
X118387714Y-73429809D01*
X118387714Y-73048857D01*
X118340095Y-72953619D01*
X118292476Y-72906000D01*
X118197238Y-72858380D01*
X118006761Y-72858380D01*
X117911523Y-72906000D01*
X117863904Y-72953619D01*
X117816285Y-73048857D01*
X117816285Y-73286952D01*
X117863904Y-73382190D01*
X117911523Y-73429809D01*
X118006761Y-73477428D01*
X118197238Y-73477428D01*
X118292476Y-73429809D01*
X118340095Y-73382190D01*
X118387714Y-73286952D01*
%TO.C,C10*%
X120007142Y-73763142D02*
X119959523Y-73810761D01*
X119816666Y-73858380D01*
X119721428Y-73858380D01*
X119578571Y-73810761D01*
X119483333Y-73715523D01*
X119435714Y-73620285D01*
X119388095Y-73429809D01*
X119388095Y-73286952D01*
X119435714Y-73096476D01*
X119483333Y-73001238D01*
X119578571Y-72906000D01*
X119721428Y-72858380D01*
X119816666Y-72858380D01*
X119959523Y-72906000D01*
X120007142Y-72953619D01*
X120959523Y-73858380D02*
X120388095Y-73858380D01*
X120673809Y-73858380D02*
X120673809Y-72858380D01*
X120578571Y-73001238D01*
X120483333Y-73096476D01*
X120388095Y-73144095D01*
X121578571Y-72858380D02*
X121673809Y-72858380D01*
X121769047Y-72906000D01*
X121816666Y-72953619D01*
X121864285Y-73048857D01*
X121911904Y-73239333D01*
X121911904Y-73477428D01*
X121864285Y-73667904D01*
X121816666Y-73763142D01*
X121769047Y-73810761D01*
X121673809Y-73858380D01*
X121578571Y-73858380D01*
X121483333Y-73810761D01*
X121435714Y-73763142D01*
X121388095Y-73667904D01*
X121340476Y-73477428D01*
X121340476Y-73239333D01*
X121388095Y-73048857D01*
X121435714Y-72953619D01*
X121483333Y-72906000D01*
X121578571Y-72858380D01*
%TO.C,C11*%
X92686142Y-59062857D02*
X92733761Y-59110476D01*
X92781380Y-59253333D01*
X92781380Y-59348571D01*
X92733761Y-59491428D01*
X92638523Y-59586666D01*
X92543285Y-59634285D01*
X92352809Y-59681904D01*
X92209952Y-59681904D01*
X92019476Y-59634285D01*
X91924238Y-59586666D01*
X91829000Y-59491428D01*
X91781380Y-59348571D01*
X91781380Y-59253333D01*
X91829000Y-59110476D01*
X91876619Y-59062857D01*
X92781380Y-58110476D02*
X92781380Y-58681904D01*
X92781380Y-58396190D02*
X91781380Y-58396190D01*
X91924238Y-58491428D01*
X92019476Y-58586666D01*
X92067095Y-58681904D01*
X92781380Y-57158095D02*
X92781380Y-57729523D01*
X92781380Y-57443809D02*
X91781380Y-57443809D01*
X91924238Y-57539047D01*
X92019476Y-57634285D01*
X92067095Y-57729523D01*
%TO.C,C12*%
X119118142Y-90527142D02*
X119070523Y-90574761D01*
X118927666Y-90622380D01*
X118832428Y-90622380D01*
X118689571Y-90574761D01*
X118594333Y-90479523D01*
X118546714Y-90384285D01*
X118499095Y-90193809D01*
X118499095Y-90050952D01*
X118546714Y-89860476D01*
X118594333Y-89765238D01*
X118689571Y-89670000D01*
X118832428Y-89622380D01*
X118927666Y-89622380D01*
X119070523Y-89670000D01*
X119118142Y-89717619D01*
X120070523Y-90622380D02*
X119499095Y-90622380D01*
X119784809Y-90622380D02*
X119784809Y-89622380D01*
X119689571Y-89765238D01*
X119594333Y-89860476D01*
X119499095Y-89908095D01*
X120451476Y-89717619D02*
X120499095Y-89670000D01*
X120594333Y-89622380D01*
X120832428Y-89622380D01*
X120927666Y-89670000D01*
X120975285Y-89717619D01*
X121022904Y-89812857D01*
X121022904Y-89908095D01*
X120975285Y-90050952D01*
X120403857Y-90622380D01*
X121022904Y-90622380D01*
%TO.C,D1*%
X83002380Y-71096095D02*
X82002380Y-71096095D01*
X82002380Y-70858000D01*
X82050000Y-70715142D01*
X82145238Y-70619904D01*
X82240476Y-70572285D01*
X82430952Y-70524666D01*
X82573809Y-70524666D01*
X82764285Y-70572285D01*
X82859523Y-70619904D01*
X82954761Y-70715142D01*
X83002380Y-70858000D01*
X83002380Y-71096095D01*
X83002380Y-69572285D02*
X83002380Y-70143714D01*
X83002380Y-69858000D02*
X82002380Y-69858000D01*
X82145238Y-69953238D01*
X82240476Y-70048476D01*
X82288095Y-70143714D01*
%TO.C,D2*%
X86764904Y-54808380D02*
X86764904Y-53808380D01*
X87003000Y-53808380D01*
X87145857Y-53856000D01*
X87241095Y-53951238D01*
X87288714Y-54046476D01*
X87336333Y-54236952D01*
X87336333Y-54379809D01*
X87288714Y-54570285D01*
X87241095Y-54665523D01*
X87145857Y-54760761D01*
X87003000Y-54808380D01*
X86764904Y-54808380D01*
X87717285Y-53903619D02*
X87764904Y-53856000D01*
X87860142Y-53808380D01*
X88098238Y-53808380D01*
X88193476Y-53856000D01*
X88241095Y-53903619D01*
X88288714Y-53998857D01*
X88288714Y-54094095D01*
X88241095Y-54236952D01*
X87669666Y-54808380D01*
X88288714Y-54808380D01*
X86288714Y-57634142D02*
X86241095Y-57681761D01*
X86098238Y-57729380D01*
X86003000Y-57729380D01*
X85860142Y-57681761D01*
X85764904Y-57586523D01*
X85717285Y-57491285D01*
X85669666Y-57300809D01*
X85669666Y-57157952D01*
X85717285Y-56967476D01*
X85764904Y-56872238D01*
X85860142Y-56777000D01*
X86003000Y-56729380D01*
X86098238Y-56729380D01*
X86241095Y-56777000D01*
X86288714Y-56824619D01*
X86717285Y-57729380D02*
X86717285Y-56729380D01*
X86717285Y-57205571D02*
X87288714Y-57205571D01*
X87288714Y-57729380D02*
X87288714Y-56729380D01*
X88336333Y-57729380D02*
X88003000Y-57253190D01*
X87764904Y-57729380D02*
X87764904Y-56729380D01*
X88145857Y-56729380D01*
X88241095Y-56777000D01*
X88288714Y-56824619D01*
X88336333Y-56919857D01*
X88336333Y-57062714D01*
X88288714Y-57157952D01*
X88241095Y-57205571D01*
X88145857Y-57253190D01*
X87764904Y-57253190D01*
X89288714Y-56777000D02*
X89193476Y-56729380D01*
X89050619Y-56729380D01*
X88907761Y-56777000D01*
X88812523Y-56872238D01*
X88764904Y-56967476D01*
X88717285Y-57157952D01*
X88717285Y-57300809D01*
X88764904Y-57491285D01*
X88812523Y-57586523D01*
X88907761Y-57681761D01*
X89050619Y-57729380D01*
X89145857Y-57729380D01*
X89288714Y-57681761D01*
X89336333Y-57634142D01*
X89336333Y-57300809D01*
X89145857Y-57300809D01*
%TO.C,D3*%
X82954904Y-54808380D02*
X82954904Y-53808380D01*
X83193000Y-53808380D01*
X83335857Y-53856000D01*
X83431095Y-53951238D01*
X83478714Y-54046476D01*
X83526333Y-54236952D01*
X83526333Y-54379809D01*
X83478714Y-54570285D01*
X83431095Y-54665523D01*
X83335857Y-54760761D01*
X83193000Y-54808380D01*
X82954904Y-54808380D01*
X83859666Y-53808380D02*
X84478714Y-53808380D01*
X84145380Y-54189333D01*
X84288238Y-54189333D01*
X84383476Y-54236952D01*
X84431095Y-54284571D01*
X84478714Y-54379809D01*
X84478714Y-54617904D01*
X84431095Y-54713142D01*
X84383476Y-54760761D01*
X84288238Y-54808380D01*
X84002523Y-54808380D01*
X83907285Y-54760761D01*
X83859666Y-54713142D01*
X82097761Y-57681761D02*
X82240619Y-57729380D01*
X82478714Y-57729380D01*
X82573952Y-57681761D01*
X82621571Y-57634142D01*
X82669190Y-57538904D01*
X82669190Y-57443666D01*
X82621571Y-57348428D01*
X82573952Y-57300809D01*
X82478714Y-57253190D01*
X82288238Y-57205571D01*
X82193000Y-57157952D01*
X82145380Y-57110333D01*
X82097761Y-57015095D01*
X82097761Y-56919857D01*
X82145380Y-56824619D01*
X82193000Y-56777000D01*
X82288238Y-56729380D01*
X82526333Y-56729380D01*
X82669190Y-56777000D01*
X82954904Y-56729380D02*
X83526333Y-56729380D01*
X83240619Y-57729380D02*
X83240619Y-56729380D01*
X84193000Y-57205571D02*
X84335857Y-57253190D01*
X84383476Y-57300809D01*
X84431095Y-57396047D01*
X84431095Y-57538904D01*
X84383476Y-57634142D01*
X84335857Y-57681761D01*
X84240619Y-57729380D01*
X83859666Y-57729380D01*
X83859666Y-56729380D01*
X84193000Y-56729380D01*
X84288238Y-56777000D01*
X84335857Y-56824619D01*
X84383476Y-56919857D01*
X84383476Y-57015095D01*
X84335857Y-57110333D01*
X84288238Y-57157952D01*
X84193000Y-57205571D01*
X83859666Y-57205571D01*
X85050142Y-57253190D02*
X85050142Y-57729380D01*
X84716809Y-56729380D02*
X85050142Y-57253190D01*
X85383476Y-56729380D01*
%TO.C,D4*%
X92860904Y-75161380D02*
X92860904Y-74161380D01*
X93099000Y-74161380D01*
X93241857Y-74209000D01*
X93337095Y-74304238D01*
X93384714Y-74399476D01*
X93432333Y-74589952D01*
X93432333Y-74732809D01*
X93384714Y-74923285D01*
X93337095Y-75018523D01*
X93241857Y-75113761D01*
X93099000Y-75161380D01*
X92860904Y-75161380D01*
X94289476Y-74494714D02*
X94289476Y-75161380D01*
X94051380Y-74113761D02*
X93813285Y-74828047D01*
X94432333Y-74828047D01*
%TO.C,J1*%
X82129380Y-59134333D02*
X82843666Y-59134333D01*
X82986523Y-59181952D01*
X83081761Y-59277190D01*
X83129380Y-59420047D01*
X83129380Y-59515285D01*
X83129380Y-58134333D02*
X83129380Y-58705761D01*
X83129380Y-58420047D02*
X82129380Y-58420047D01*
X82272238Y-58515285D01*
X82367476Y-58610523D01*
X82415095Y-58705761D01*
X74011380Y-56467238D02*
X75011380Y-56133904D01*
X74011380Y-55800571D01*
X75011380Y-55467238D02*
X74011380Y-55467238D01*
X75011380Y-54991047D02*
X74011380Y-54991047D01*
X75011380Y-54419619D01*
X74011380Y-54419619D01*
%TO.C,J2*%
X82129380Y-83899333D02*
X82843666Y-83899333D01*
X82986523Y-83946952D01*
X83081761Y-84042190D01*
X83129380Y-84185047D01*
X83129380Y-84280285D01*
X82224619Y-83470761D02*
X82177000Y-83423142D01*
X82129380Y-83327904D01*
X82129380Y-83089809D01*
X82177000Y-82994571D01*
X82224619Y-82946952D01*
X82319857Y-82899333D01*
X82415095Y-82899333D01*
X82557952Y-82946952D01*
X83129380Y-83518380D01*
X83129380Y-82899333D01*
X74487571Y-84685047D02*
X74535190Y-84542190D01*
X74582809Y-84494571D01*
X74678047Y-84446952D01*
X74820904Y-84446952D01*
X74916142Y-84494571D01*
X74963761Y-84542190D01*
X75011380Y-84637428D01*
X75011380Y-85018380D01*
X74011380Y-85018380D01*
X74011380Y-84685047D01*
X74059000Y-84589809D01*
X74106619Y-84542190D01*
X74201857Y-84494571D01*
X74297095Y-84494571D01*
X74392333Y-84542190D01*
X74439952Y-84589809D01*
X74487571Y-84685047D01*
X74487571Y-85018380D01*
X74725666Y-84066000D02*
X74725666Y-83589809D01*
X75011380Y-84161238D02*
X74011380Y-83827904D01*
X75011380Y-83494571D01*
X74011380Y-83304095D02*
X74011380Y-82732666D01*
X75011380Y-83018380D02*
X74011380Y-83018380D01*
X74011380Y-82542190D02*
X74011380Y-81970761D01*
X75011380Y-82256476D02*
X74011380Y-82256476D01*
%TO.C,J3*%
X124928380Y-80724333D02*
X125642666Y-80724333D01*
X125785523Y-80771952D01*
X125880761Y-80867190D01*
X125928380Y-81010047D01*
X125928380Y-81105285D01*
X124928380Y-80343380D02*
X124928380Y-79724333D01*
X125309333Y-80057666D01*
X125309333Y-79914809D01*
X125356952Y-79819571D01*
X125404571Y-79771952D01*
X125499809Y-79724333D01*
X125737904Y-79724333D01*
X125833142Y-79771952D01*
X125880761Y-79819571D01*
X125928380Y-79914809D01*
X125928380Y-80200523D01*
X125880761Y-80295761D01*
X125833142Y-80343380D01*
X133919380Y-82819571D02*
X133919380Y-83295761D01*
X132919380Y-83295761D01*
X133919380Y-82343380D02*
X133871761Y-82438619D01*
X133824142Y-82486238D01*
X133728904Y-82533857D01*
X133443190Y-82533857D01*
X133347952Y-82486238D01*
X133300333Y-82438619D01*
X133252714Y-82343380D01*
X133252714Y-82200523D01*
X133300333Y-82105285D01*
X133347952Y-82057666D01*
X133443190Y-82010047D01*
X133728904Y-82010047D01*
X133824142Y-82057666D01*
X133871761Y-82105285D01*
X133919380Y-82200523D01*
X133919380Y-82343380D01*
X133919380Y-81152904D02*
X133395571Y-81152904D01*
X133300333Y-81200523D01*
X133252714Y-81295761D01*
X133252714Y-81486238D01*
X133300333Y-81581476D01*
X133871761Y-81152904D02*
X133919380Y-81248142D01*
X133919380Y-81486238D01*
X133871761Y-81581476D01*
X133776523Y-81629095D01*
X133681285Y-81629095D01*
X133586047Y-81581476D01*
X133538428Y-81486238D01*
X133538428Y-81248142D01*
X133490809Y-81152904D01*
X133919380Y-80248142D02*
X132919380Y-80248142D01*
X133871761Y-80248142D02*
X133919380Y-80343380D01*
X133919380Y-80533857D01*
X133871761Y-80629095D01*
X133824142Y-80676714D01*
X133728904Y-80724333D01*
X133443190Y-80724333D01*
X133347952Y-80676714D01*
X133300333Y-80629095D01*
X133252714Y-80533857D01*
X133252714Y-80343380D01*
X133300333Y-80248142D01*
X133871761Y-79343380D02*
X133919380Y-79438619D01*
X133919380Y-79629095D01*
X133871761Y-79724333D01*
X133824142Y-79771952D01*
X133728904Y-79819571D01*
X133443190Y-79819571D01*
X133347952Y-79771952D01*
X133300333Y-79724333D01*
X133252714Y-79629095D01*
X133252714Y-79438619D01*
X133300333Y-79343380D01*
X133871761Y-78533857D02*
X133919380Y-78629095D01*
X133919380Y-78819571D01*
X133871761Y-78914809D01*
X133776523Y-78962428D01*
X133395571Y-78962428D01*
X133300333Y-78914809D01*
X133252714Y-78819571D01*
X133252714Y-78629095D01*
X133300333Y-78533857D01*
X133395571Y-78486238D01*
X133490809Y-78486238D01*
X133586047Y-78962428D01*
X133919380Y-77914809D02*
X133871761Y-78010047D01*
X133776523Y-78057666D01*
X132919380Y-78057666D01*
X133919380Y-77391000D02*
X133871761Y-77486238D01*
X133776523Y-77533857D01*
X132919380Y-77533857D01*
%TO.C,J4*%
X124928380Y-56594333D02*
X125642666Y-56594333D01*
X125785523Y-56641952D01*
X125880761Y-56737190D01*
X125928380Y-56880047D01*
X125928380Y-56975285D01*
X125261714Y-55689571D02*
X125928380Y-55689571D01*
X124880761Y-55927666D02*
X125595047Y-56165761D01*
X125595047Y-55546714D01*
X132919380Y-57856238D02*
X133728904Y-57856238D01*
X133824142Y-57808619D01*
X133871761Y-57761000D01*
X133919380Y-57665761D01*
X133919380Y-57475285D01*
X133871761Y-57380047D01*
X133824142Y-57332428D01*
X133728904Y-57284809D01*
X132919380Y-57284809D01*
X133633666Y-56856238D02*
X133633666Y-56380047D01*
X133919380Y-56951476D02*
X132919380Y-56618142D01*
X133919380Y-56284809D01*
X133919380Y-55380047D02*
X133443190Y-55713380D01*
X133919380Y-55951476D02*
X132919380Y-55951476D01*
X132919380Y-55570523D01*
X132967000Y-55475285D01*
X133014619Y-55427666D01*
X133109857Y-55380047D01*
X133252714Y-55380047D01*
X133347952Y-55427666D01*
X133395571Y-55475285D01*
X133443190Y-55570523D01*
X133443190Y-55951476D01*
X132919380Y-55094333D02*
X132919380Y-54522904D01*
X133919380Y-54808619D02*
X132919380Y-54808619D01*
%TO.C,J5*%
X124928380Y-68659333D02*
X125642666Y-68659333D01*
X125785523Y-68706952D01*
X125880761Y-68802190D01*
X125928380Y-68945047D01*
X125928380Y-69040285D01*
X124928380Y-67706952D02*
X124928380Y-68183142D01*
X125404571Y-68230761D01*
X125356952Y-68183142D01*
X125309333Y-68087904D01*
X125309333Y-67849809D01*
X125356952Y-67754571D01*
X125404571Y-67706952D01*
X125499809Y-67659333D01*
X125737904Y-67659333D01*
X125833142Y-67706952D01*
X125880761Y-67754571D01*
X125928380Y-67849809D01*
X125928380Y-68087904D01*
X125880761Y-68183142D01*
X125833142Y-68230761D01*
X133824142Y-69683142D02*
X133871761Y-69730761D01*
X133919380Y-69873619D01*
X133919380Y-69968857D01*
X133871761Y-70111714D01*
X133776523Y-70206952D01*
X133681285Y-70254571D01*
X133490809Y-70302190D01*
X133347952Y-70302190D01*
X133157476Y-70254571D01*
X133062238Y-70206952D01*
X132967000Y-70111714D01*
X132919380Y-69968857D01*
X132919380Y-69873619D01*
X132967000Y-69730761D01*
X133014619Y-69683142D01*
X132919380Y-69064095D02*
X132919380Y-68873619D01*
X132967000Y-68778380D01*
X133062238Y-68683142D01*
X133252714Y-68635523D01*
X133586047Y-68635523D01*
X133776523Y-68683142D01*
X133871761Y-68778380D01*
X133919380Y-68873619D01*
X133919380Y-69064095D01*
X133871761Y-69159333D01*
X133776523Y-69254571D01*
X133586047Y-69302190D01*
X133252714Y-69302190D01*
X133062238Y-69254571D01*
X132967000Y-69159333D01*
X132919380Y-69064095D01*
X133919380Y-68206952D02*
X132919380Y-68206952D01*
X133633666Y-67873619D01*
X132919380Y-67540285D01*
X133919380Y-67540285D01*
X133919380Y-67064095D02*
X132919380Y-67064095D01*
X133633666Y-66730761D01*
X132919380Y-66397428D01*
X133919380Y-66397428D01*
%TO.C,K1*%
X112926904Y-93797380D02*
X112926904Y-92797380D01*
X113498333Y-93797380D02*
X113069761Y-93225952D01*
X113498333Y-92797380D02*
X112926904Y-93368809D01*
X114450714Y-93797380D02*
X113879285Y-93797380D01*
X114165000Y-93797380D02*
X114165000Y-92797380D01*
X114069761Y-92940238D01*
X113974523Y-93035476D01*
X113879285Y-93083095D01*
%TO.C,L1*%
X76017380Y-64345666D02*
X76017380Y-64821857D01*
X75017380Y-64821857D01*
X76017380Y-63488523D02*
X76017380Y-64059952D01*
X76017380Y-63774238D02*
X75017380Y-63774238D01*
X75160238Y-63869476D01*
X75255476Y-63964714D01*
X75303095Y-64059952D01*
%TO.C,L2*%
X123658333Y-81859380D02*
X123182142Y-81859380D01*
X123182142Y-80859380D01*
X123944047Y-80954619D02*
X123991666Y-80907000D01*
X124086904Y-80859380D01*
X124325000Y-80859380D01*
X124420238Y-80907000D01*
X124467857Y-80954619D01*
X124515476Y-81049857D01*
X124515476Y-81145095D01*
X124467857Y-81287952D01*
X123896428Y-81859380D01*
X124515476Y-81859380D01*
%TO.C,Q1*%
X119284761Y-92114619D02*
X119189523Y-92067000D01*
X119094285Y-91971761D01*
X118951428Y-91828904D01*
X118856190Y-91781285D01*
X118760952Y-91781285D01*
X118808571Y-92019380D02*
X118713333Y-91971761D01*
X118618095Y-91876523D01*
X118570476Y-91686047D01*
X118570476Y-91352714D01*
X118618095Y-91162238D01*
X118713333Y-91067000D01*
X118808571Y-91019380D01*
X118999047Y-91019380D01*
X119094285Y-91067000D01*
X119189523Y-91162238D01*
X119237142Y-91352714D01*
X119237142Y-91686047D01*
X119189523Y-91876523D01*
X119094285Y-91971761D01*
X118999047Y-92019380D01*
X118808571Y-92019380D01*
X120189523Y-92019380D02*
X119618095Y-92019380D01*
X119903809Y-92019380D02*
X119903809Y-91019380D01*
X119808571Y-91162238D01*
X119713333Y-91257476D01*
X119618095Y-91305095D01*
%TO.C,R1*%
X92289333Y-62555380D02*
X91956000Y-62079190D01*
X91717904Y-62555380D02*
X91717904Y-61555380D01*
X92098857Y-61555380D01*
X92194095Y-61603000D01*
X92241714Y-61650619D01*
X92289333Y-61745857D01*
X92289333Y-61888714D01*
X92241714Y-61983952D01*
X92194095Y-62031571D01*
X92098857Y-62079190D01*
X91717904Y-62079190D01*
X93241714Y-62555380D02*
X92670285Y-62555380D01*
X92956000Y-62555380D02*
X92956000Y-61555380D01*
X92860761Y-61698238D01*
X92765523Y-61793476D01*
X92670285Y-61841095D01*
%TO.C,R2*%
X88336380Y-70778666D02*
X87860190Y-71112000D01*
X88336380Y-71350095D02*
X87336380Y-71350095D01*
X87336380Y-70969142D01*
X87384000Y-70873904D01*
X87431619Y-70826285D01*
X87526857Y-70778666D01*
X87669714Y-70778666D01*
X87764952Y-70826285D01*
X87812571Y-70873904D01*
X87860190Y-70969142D01*
X87860190Y-71350095D01*
X87431619Y-70397714D02*
X87384000Y-70350095D01*
X87336380Y-70254857D01*
X87336380Y-70016761D01*
X87384000Y-69921523D01*
X87431619Y-69873904D01*
X87526857Y-69826285D01*
X87622095Y-69826285D01*
X87764952Y-69873904D01*
X88336380Y-70445333D01*
X88336380Y-69826285D01*
%TO.C,R3*%
X87082333Y-69032380D02*
X86749000Y-68556190D01*
X86510904Y-69032380D02*
X86510904Y-68032380D01*
X86891857Y-68032380D01*
X86987095Y-68080000D01*
X87034714Y-68127619D01*
X87082333Y-68222857D01*
X87082333Y-68365714D01*
X87034714Y-68460952D01*
X86987095Y-68508571D01*
X86891857Y-68556190D01*
X86510904Y-68556190D01*
X87415666Y-68032380D02*
X88034714Y-68032380D01*
X87701380Y-68413333D01*
X87844238Y-68413333D01*
X87939476Y-68460952D01*
X87987095Y-68508571D01*
X88034714Y-68603809D01*
X88034714Y-68841904D01*
X87987095Y-68937142D01*
X87939476Y-68984761D01*
X87844238Y-69032380D01*
X87558523Y-69032380D01*
X87463285Y-68984761D01*
X87415666Y-68937142D01*
%TO.C,R4*%
X90622380Y-59348666D02*
X90146190Y-59682000D01*
X90622380Y-59920095D02*
X89622380Y-59920095D01*
X89622380Y-59539142D01*
X89670000Y-59443904D01*
X89717619Y-59396285D01*
X89812857Y-59348666D01*
X89955714Y-59348666D01*
X90050952Y-59396285D01*
X90098571Y-59443904D01*
X90146190Y-59539142D01*
X90146190Y-59920095D01*
X89955714Y-58491523D02*
X90622380Y-58491523D01*
X89574761Y-58729619D02*
X90289047Y-58967714D01*
X90289047Y-58348666D01*
%TO.C,R5*%
X88590380Y-59348666D02*
X88114190Y-59682000D01*
X88590380Y-59920095D02*
X87590380Y-59920095D01*
X87590380Y-59539142D01*
X87638000Y-59443904D01*
X87685619Y-59396285D01*
X87780857Y-59348666D01*
X87923714Y-59348666D01*
X88018952Y-59396285D01*
X88066571Y-59443904D01*
X88114190Y-59539142D01*
X88114190Y-59920095D01*
X87590380Y-58443904D02*
X87590380Y-58920095D01*
X88066571Y-58967714D01*
X88018952Y-58920095D01*
X87971333Y-58824857D01*
X87971333Y-58586761D01*
X88018952Y-58491523D01*
X88066571Y-58443904D01*
X88161809Y-58396285D01*
X88399904Y-58396285D01*
X88495142Y-58443904D01*
X88542761Y-58491523D01*
X88590380Y-58586761D01*
X88590380Y-58824857D01*
X88542761Y-58920095D01*
X88495142Y-58967714D01*
%TO.C,R6*%
X123658333Y-79827380D02*
X123325000Y-79351190D01*
X123086904Y-79827380D02*
X123086904Y-78827380D01*
X123467857Y-78827380D01*
X123563095Y-78875000D01*
X123610714Y-78922619D01*
X123658333Y-79017857D01*
X123658333Y-79160714D01*
X123610714Y-79255952D01*
X123563095Y-79303571D01*
X123467857Y-79351190D01*
X123086904Y-79351190D01*
X124515476Y-78827380D02*
X124325000Y-78827380D01*
X124229761Y-78875000D01*
X124182142Y-78922619D01*
X124086904Y-79065476D01*
X124039285Y-79255952D01*
X124039285Y-79636904D01*
X124086904Y-79732142D01*
X124134523Y-79779761D01*
X124229761Y-79827380D01*
X124420238Y-79827380D01*
X124515476Y-79779761D01*
X124563095Y-79732142D01*
X124610714Y-79636904D01*
X124610714Y-79398809D01*
X124563095Y-79303571D01*
X124515476Y-79255952D01*
X124420238Y-79208333D01*
X124229761Y-79208333D01*
X124134523Y-79255952D01*
X124086904Y-79303571D01*
X124039285Y-79398809D01*
%TO.C,R7*%
X83907333Y-51379380D02*
X83574000Y-50903190D01*
X83335904Y-51379380D02*
X83335904Y-50379380D01*
X83716857Y-50379380D01*
X83812095Y-50427000D01*
X83859714Y-50474619D01*
X83907333Y-50569857D01*
X83907333Y-50712714D01*
X83859714Y-50807952D01*
X83812095Y-50855571D01*
X83716857Y-50903190D01*
X83335904Y-50903190D01*
X84240666Y-50379380D02*
X84907333Y-50379380D01*
X84478761Y-51379380D01*
%TO.C,R8*%
X122896333Y-75509380D02*
X122563000Y-75033190D01*
X122324904Y-75509380D02*
X122324904Y-74509380D01*
X122705857Y-74509380D01*
X122801095Y-74557000D01*
X122848714Y-74604619D01*
X122896333Y-74699857D01*
X122896333Y-74842714D01*
X122848714Y-74937952D01*
X122801095Y-74985571D01*
X122705857Y-75033190D01*
X122324904Y-75033190D01*
X123467761Y-74937952D02*
X123372523Y-74890333D01*
X123324904Y-74842714D01*
X123277285Y-74747476D01*
X123277285Y-74699857D01*
X123324904Y-74604619D01*
X123372523Y-74557000D01*
X123467761Y-74509380D01*
X123658238Y-74509380D01*
X123753476Y-74557000D01*
X123801095Y-74604619D01*
X123848714Y-74699857D01*
X123848714Y-74747476D01*
X123801095Y-74842714D01*
X123753476Y-74890333D01*
X123658238Y-74937952D01*
X123467761Y-74937952D01*
X123372523Y-74985571D01*
X123324904Y-75033190D01*
X123277285Y-75128428D01*
X123277285Y-75318904D01*
X123324904Y-75414142D01*
X123372523Y-75461761D01*
X123467761Y-75509380D01*
X123658238Y-75509380D01*
X123753476Y-75461761D01*
X123801095Y-75414142D01*
X123848714Y-75318904D01*
X123848714Y-75128428D01*
X123801095Y-75033190D01*
X123753476Y-74985571D01*
X123658238Y-74937952D01*
%TO.C,R9*%
X122007333Y-88971380D02*
X121674000Y-88495190D01*
X121435904Y-88971380D02*
X121435904Y-87971380D01*
X121816857Y-87971380D01*
X121912095Y-88019000D01*
X121959714Y-88066619D01*
X122007333Y-88161857D01*
X122007333Y-88304714D01*
X121959714Y-88399952D01*
X121912095Y-88447571D01*
X121816857Y-88495190D01*
X121435904Y-88495190D01*
X122483523Y-88971380D02*
X122674000Y-88971380D01*
X122769238Y-88923761D01*
X122816857Y-88876142D01*
X122912095Y-88733285D01*
X122959714Y-88542809D01*
X122959714Y-88161857D01*
X122912095Y-88066619D01*
X122864476Y-88019000D01*
X122769238Y-87971380D01*
X122578761Y-87971380D01*
X122483523Y-88019000D01*
X122435904Y-88066619D01*
X122388285Y-88161857D01*
X122388285Y-88399952D01*
X122435904Y-88495190D01*
X122483523Y-88542809D01*
X122578761Y-88590428D01*
X122769238Y-88590428D01*
X122864476Y-88542809D01*
X122912095Y-88495190D01*
X122959714Y-88399952D01*
%TO.C,R10*%
X122039142Y-87447380D02*
X121705809Y-86971190D01*
X121467714Y-87447380D02*
X121467714Y-86447380D01*
X121848666Y-86447380D01*
X121943904Y-86495000D01*
X121991523Y-86542619D01*
X122039142Y-86637857D01*
X122039142Y-86780714D01*
X121991523Y-86875952D01*
X121943904Y-86923571D01*
X121848666Y-86971190D01*
X121467714Y-86971190D01*
X122991523Y-87447380D02*
X122420095Y-87447380D01*
X122705809Y-87447380D02*
X122705809Y-86447380D01*
X122610571Y-86590238D01*
X122515333Y-86685476D01*
X122420095Y-86733095D01*
X123610571Y-86447380D02*
X123705809Y-86447380D01*
X123801047Y-86495000D01*
X123848666Y-86542619D01*
X123896285Y-86637857D01*
X123943904Y-86828333D01*
X123943904Y-87066428D01*
X123896285Y-87256904D01*
X123848666Y-87352142D01*
X123801047Y-87399761D01*
X123705809Y-87447380D01*
X123610571Y-87447380D01*
X123515333Y-87399761D01*
X123467714Y-87352142D01*
X123420095Y-87256904D01*
X123372476Y-87066428D01*
X123372476Y-86828333D01*
X123420095Y-86637857D01*
X123467714Y-86542619D01*
X123515333Y-86495000D01*
X123610571Y-86447380D01*
%TO.C,S1*%
X83081761Y-48132904D02*
X83129380Y-47990047D01*
X83129380Y-47751952D01*
X83081761Y-47656714D01*
X83034142Y-47609095D01*
X82938904Y-47561476D01*
X82843666Y-47561476D01*
X82748428Y-47609095D01*
X82700809Y-47656714D01*
X82653190Y-47751952D01*
X82605571Y-47942428D01*
X82557952Y-48037666D01*
X82510333Y-48085285D01*
X82415095Y-48132904D01*
X82319857Y-48132904D01*
X82224619Y-48085285D01*
X82177000Y-48037666D01*
X82129380Y-47942428D01*
X82129380Y-47704333D01*
X82177000Y-47561476D01*
X83129380Y-46609095D02*
X83129380Y-47180523D01*
X83129380Y-46894809D02*
X82129380Y-46894809D01*
X82272238Y-46990047D01*
X82367476Y-47085285D01*
X82415095Y-47180523D01*
X85367904Y-50728571D02*
X85701238Y-50728571D01*
X85844095Y-51252380D02*
X85367904Y-51252380D01*
X85367904Y-50252380D01*
X85844095Y-50252380D01*
X86272666Y-51252380D02*
X86272666Y-50252380D01*
X86844095Y-51252380D01*
X86844095Y-50252380D01*
%TO.C,S2*%
X126515761Y-48132904D02*
X126563380Y-47990047D01*
X126563380Y-47751952D01*
X126515761Y-47656714D01*
X126468142Y-47609095D01*
X126372904Y-47561476D01*
X126277666Y-47561476D01*
X126182428Y-47609095D01*
X126134809Y-47656714D01*
X126087190Y-47751952D01*
X126039571Y-47942428D01*
X125991952Y-48037666D01*
X125944333Y-48085285D01*
X125849095Y-48132904D01*
X125753857Y-48132904D01*
X125658619Y-48085285D01*
X125611000Y-48037666D01*
X125563380Y-47942428D01*
X125563380Y-47704333D01*
X125611000Y-47561476D01*
X125658619Y-47180523D02*
X125611000Y-47132904D01*
X125563380Y-47037666D01*
X125563380Y-46799571D01*
X125611000Y-46704333D01*
X125658619Y-46656714D01*
X125753857Y-46609095D01*
X125849095Y-46609095D01*
X125991952Y-46656714D01*
X126563380Y-47228142D01*
X126563380Y-46609095D01*
X121555000Y-51388380D02*
X121555000Y-50388380D01*
X122221666Y-50388380D02*
X122412142Y-50388380D01*
X122507380Y-50436000D01*
X122602619Y-50531238D01*
X122650238Y-50721714D01*
X122650238Y-51055047D01*
X122602619Y-51245523D01*
X122507380Y-51340761D01*
X122412142Y-51388380D01*
X122221666Y-51388380D01*
X122126428Y-51340761D01*
X122031190Y-51245523D01*
X121983571Y-51055047D01*
X121983571Y-50721714D01*
X122031190Y-50531238D01*
X122126428Y-50436000D01*
X122221666Y-50388380D01*
X123269285Y-50388380D02*
X123364523Y-50388380D01*
X123459761Y-50436000D01*
X123507380Y-50483619D01*
X123555000Y-50578857D01*
X123602619Y-50769333D01*
X123602619Y-51007428D01*
X123555000Y-51197904D01*
X123507380Y-51293142D01*
X123459761Y-51340761D01*
X123364523Y-51388380D01*
X123269285Y-51388380D01*
X123174047Y-51340761D01*
X123126428Y-51293142D01*
X123078809Y-51197904D01*
X123031190Y-51007428D01*
X123031190Y-50769333D01*
X123078809Y-50578857D01*
X123126428Y-50483619D01*
X123174047Y-50436000D01*
X123269285Y-50388380D01*
%TO.C,U2*%
X87463380Y-65150904D02*
X88272904Y-65150904D01*
X88368142Y-65103285D01*
X88415761Y-65055666D01*
X88463380Y-64960428D01*
X88463380Y-64769952D01*
X88415761Y-64674714D01*
X88368142Y-64627095D01*
X88272904Y-64579476D01*
X87463380Y-64579476D01*
X87558619Y-64150904D02*
X87511000Y-64103285D01*
X87463380Y-64008047D01*
X87463380Y-63769952D01*
X87511000Y-63674714D01*
X87558619Y-63627095D01*
X87653857Y-63579476D01*
X87749095Y-63579476D01*
X87891952Y-63627095D01*
X88463380Y-64198523D01*
X88463380Y-63579476D01*
%TO.C,U3*%
X82510380Y-79247904D02*
X83319904Y-79247904D01*
X83415142Y-79200285D01*
X83462761Y-79152666D01*
X83510380Y-79057428D01*
X83510380Y-78866952D01*
X83462761Y-78771714D01*
X83415142Y-78724095D01*
X83319904Y-78676476D01*
X82510380Y-78676476D01*
X82510380Y-78295523D02*
X82510380Y-77676476D01*
X82891333Y-78009809D01*
X82891333Y-77866952D01*
X82938952Y-77771714D01*
X82986571Y-77724095D01*
X83081809Y-77676476D01*
X83319904Y-77676476D01*
X83415142Y-77724095D01*
X83462761Y-77771714D01*
X83510380Y-77866952D01*
X83510380Y-78152666D01*
X83462761Y-78247904D01*
X83415142Y-78295523D01*
%TO.C,U4*%
X114427095Y-56602380D02*
X114427095Y-57411904D01*
X114474714Y-57507142D01*
X114522333Y-57554761D01*
X114617571Y-57602380D01*
X114808047Y-57602380D01*
X114903285Y-57554761D01*
X114950904Y-57507142D01*
X114998523Y-57411904D01*
X114998523Y-56602380D01*
X115903285Y-56935714D02*
X115903285Y-57602380D01*
X115665190Y-56554761D02*
X115427095Y-57269047D01*
X116046142Y-57269047D01*
%TO.C,J6*%
X82129380Y-75771333D02*
X82843666Y-75771333D01*
X82986523Y-75818952D01*
X83081761Y-75914190D01*
X83129380Y-76057047D01*
X83129380Y-76152285D01*
X82129380Y-74866571D02*
X82129380Y-75057047D01*
X82177000Y-75152285D01*
X82224619Y-75199904D01*
X82367476Y-75295142D01*
X82557952Y-75342761D01*
X82938904Y-75342761D01*
X83034142Y-75295142D01*
X83081761Y-75247523D01*
X83129380Y-75152285D01*
X83129380Y-74961809D01*
X83081761Y-74866571D01*
X83034142Y-74818952D01*
X82938904Y-74771333D01*
X82700809Y-74771333D01*
X82605571Y-74818952D01*
X82557952Y-74866571D01*
X82510333Y-74961809D01*
X82510333Y-75152285D01*
X82557952Y-75247523D01*
X82605571Y-75295142D01*
X82700809Y-75342761D01*
X74963761Y-74263142D02*
X75011380Y-74120285D01*
X75011380Y-73882190D01*
X74963761Y-73786952D01*
X74916142Y-73739333D01*
X74820904Y-73691714D01*
X74725666Y-73691714D01*
X74630428Y-73739333D01*
X74582809Y-73786952D01*
X74535190Y-73882190D01*
X74487571Y-74072666D01*
X74439952Y-74167904D01*
X74392333Y-74215523D01*
X74297095Y-74263142D01*
X74201857Y-74263142D01*
X74106619Y-74215523D01*
X74059000Y-74167904D01*
X74011380Y-74072666D01*
X74011380Y-73834571D01*
X74059000Y-73691714D01*
X74011380Y-73358380D02*
X75011380Y-73120285D01*
X74297095Y-72929809D01*
X75011380Y-72739333D01*
X74011380Y-72501238D01*
%TO.C,U1*%
X89281095Y-63460380D02*
X89281095Y-64269904D01*
X89328714Y-64365142D01*
X89376333Y-64412761D01*
X89471571Y-64460380D01*
X89662047Y-64460380D01*
X89757285Y-64412761D01*
X89804904Y-64365142D01*
X89852523Y-64269904D01*
X89852523Y-63460380D01*
X90852523Y-64460380D02*
X90281095Y-64460380D01*
X90566809Y-64460380D02*
X90566809Y-63460380D01*
X90471571Y-63603238D01*
X90376333Y-63698476D01*
X90281095Y-63746095D01*
%TD*%
M02*
