%TF.GenerationSoftware,KiCad,Pcbnew,(5.1.12)-1*%
%TF.CreationDate,2022-08-08T15:47:42+09:00*%
%TF.ProjectId,LCD_module,4c43445f-6d6f-4647-956c-652e6b696361,rev?*%
%TF.SameCoordinates,Original*%
%TF.FileFunction,Soldermask,Bot*%
%TF.FilePolarity,Negative*%
%FSLAX46Y46*%
G04 Gerber Fmt 4.6, Leading zero omitted, Abs format (unit mm)*
G04 Created by KiCad (PCBNEW (5.1.12)-1) date 2022-08-08 15:47:42*
%MOMM*%
%LPD*%
G01*
G04 APERTURE LIST*
%ADD10R,1.000000X0.750000*%
%ADD11R,5.000000X5.000000*%
%ADD12R,2.000000X0.900000*%
%ADD13R,0.900000X2.000000*%
%ADD14R,2.000000X3.800000*%
%ADD15R,2.000000X1.500000*%
%ADD16C,3.400000*%
%ADD17R,1.500000X1.500000*%
G04 APERTURE END LIST*
%TO.C,C1*%
G36*
G01*
X138180000Y-106725000D02*
X138680000Y-106725000D01*
G75*
G02*
X138905000Y-106950000I0J-225000D01*
G01*
X138905000Y-107400000D01*
G75*
G02*
X138680000Y-107625000I-225000J0D01*
G01*
X138180000Y-107625000D01*
G75*
G02*
X137955000Y-107400000I0J225000D01*
G01*
X137955000Y-106950000D01*
G75*
G02*
X138180000Y-106725000I225000J0D01*
G01*
G37*
G36*
G01*
X138180000Y-108275000D02*
X138680000Y-108275000D01*
G75*
G02*
X138905000Y-108500000I0J-225000D01*
G01*
X138905000Y-108950000D01*
G75*
G02*
X138680000Y-109175000I-225000J0D01*
G01*
X138180000Y-109175000D01*
G75*
G02*
X137955000Y-108950000I0J225000D01*
G01*
X137955000Y-108500000D01*
G75*
G02*
X138180000Y-108275000I225000J0D01*
G01*
G37*
%TD*%
%TO.C,C2*%
G36*
G01*
X162839999Y-70229999D02*
X162339999Y-70229999D01*
G75*
G02*
X162114999Y-70004999I0J225000D01*
G01*
X162114999Y-69554999D01*
G75*
G02*
X162339999Y-69329999I225000J0D01*
G01*
X162839999Y-69329999D01*
G75*
G02*
X163064999Y-69554999I0J-225000D01*
G01*
X163064999Y-70004999D01*
G75*
G02*
X162839999Y-70229999I-225000J0D01*
G01*
G37*
G36*
G01*
X162839999Y-71779999D02*
X162339999Y-71779999D01*
G75*
G02*
X162114999Y-71554999I0J225000D01*
G01*
X162114999Y-71104999D01*
G75*
G02*
X162339999Y-70879999I225000J0D01*
G01*
X162839999Y-70879999D01*
G75*
G02*
X163064999Y-71104999I0J-225000D01*
G01*
X163064999Y-71554999D01*
G75*
G02*
X162839999Y-71779999I-225000J0D01*
G01*
G37*
%TD*%
%TO.C,C3*%
G36*
G01*
X162810000Y-68535000D02*
X162310000Y-68535000D01*
G75*
G02*
X162085000Y-68310000I0J225000D01*
G01*
X162085000Y-67860000D01*
G75*
G02*
X162310000Y-67635000I225000J0D01*
G01*
X162810000Y-67635000D01*
G75*
G02*
X163035000Y-67860000I0J-225000D01*
G01*
X163035000Y-68310000D01*
G75*
G02*
X162810000Y-68535000I-225000J0D01*
G01*
G37*
G36*
G01*
X162810000Y-66985000D02*
X162310000Y-66985000D01*
G75*
G02*
X162085000Y-66760000I0J225000D01*
G01*
X162085000Y-66310000D01*
G75*
G02*
X162310000Y-66085000I225000J0D01*
G01*
X162810000Y-66085000D01*
G75*
G02*
X163035000Y-66310000I0J-225000D01*
G01*
X163035000Y-66760000D01*
G75*
G02*
X162810000Y-66985000I-225000J0D01*
G01*
G37*
%TD*%
%TO.C,C4*%
G36*
G01*
X150820000Y-107565000D02*
X150820000Y-107065000D01*
G75*
G02*
X151045000Y-106840000I225000J0D01*
G01*
X151495000Y-106840000D01*
G75*
G02*
X151720000Y-107065000I0J-225000D01*
G01*
X151720000Y-107565000D01*
G75*
G02*
X151495000Y-107790000I-225000J0D01*
G01*
X151045000Y-107790000D01*
G75*
G02*
X150820000Y-107565000I0J225000D01*
G01*
G37*
G36*
G01*
X149270000Y-107565000D02*
X149270000Y-107065000D01*
G75*
G02*
X149495000Y-106840000I225000J0D01*
G01*
X149945000Y-106840000D01*
G75*
G02*
X150170000Y-107065000I0J-225000D01*
G01*
X150170000Y-107565000D01*
G75*
G02*
X149945000Y-107790000I-225000J0D01*
G01*
X149495000Y-107790000D01*
G75*
G02*
X149270000Y-107565000I0J225000D01*
G01*
G37*
%TD*%
%TO.C,C5*%
G36*
G01*
X129215000Y-65790000D02*
X129215000Y-66290000D01*
G75*
G02*
X128990000Y-66515000I-225000J0D01*
G01*
X128540000Y-66515000D01*
G75*
G02*
X128315000Y-66290000I0J225000D01*
G01*
X128315000Y-65790000D01*
G75*
G02*
X128540000Y-65565000I225000J0D01*
G01*
X128990000Y-65565000D01*
G75*
G02*
X129215000Y-65790000I0J-225000D01*
G01*
G37*
G36*
G01*
X130765000Y-65790000D02*
X130765000Y-66290000D01*
G75*
G02*
X130540000Y-66515000I-225000J0D01*
G01*
X130090000Y-66515000D01*
G75*
G02*
X129865000Y-66290000I0J225000D01*
G01*
X129865000Y-65790000D01*
G75*
G02*
X130090000Y-65565000I225000J0D01*
G01*
X130540000Y-65565000D01*
G75*
G02*
X130765000Y-65790000I0J-225000D01*
G01*
G37*
%TD*%
%TO.C,C6*%
G36*
G01*
X172765000Y-66290000D02*
X172765000Y-65790000D01*
G75*
G02*
X172990000Y-65565000I225000J0D01*
G01*
X173440000Y-65565000D01*
G75*
G02*
X173665000Y-65790000I0J-225000D01*
G01*
X173665000Y-66290000D01*
G75*
G02*
X173440000Y-66515000I-225000J0D01*
G01*
X172990000Y-66515000D01*
G75*
G02*
X172765000Y-66290000I0J225000D01*
G01*
G37*
G36*
G01*
X174315000Y-66290000D02*
X174315000Y-65790000D01*
G75*
G02*
X174540000Y-65565000I225000J0D01*
G01*
X174990000Y-65565000D01*
G75*
G02*
X175215000Y-65790000I0J-225000D01*
G01*
X175215000Y-66290000D01*
G75*
G02*
X174990000Y-66515000I-225000J0D01*
G01*
X174540000Y-66515000D01*
G75*
G02*
X174315000Y-66290000I0J225000D01*
G01*
G37*
%TD*%
%TO.C,J1*%
G36*
G01*
X114735000Y-109740000D02*
X114735000Y-112240000D01*
G75*
G02*
X114485000Y-112490000I-250000J0D01*
G01*
X112885000Y-112490000D01*
G75*
G02*
X112635000Y-112240000I0J250000D01*
G01*
X112635000Y-109740000D01*
G75*
G02*
X112885000Y-109490000I250000J0D01*
G01*
X114485000Y-109490000D01*
G75*
G02*
X114735000Y-109740000I0J-250000D01*
G01*
G37*
G36*
G01*
X123585000Y-109740000D02*
X123585000Y-112240000D01*
G75*
G02*
X123335000Y-112490000I-250000J0D01*
G01*
X121735000Y-112490000D01*
G75*
G02*
X121485000Y-112240000I0J250000D01*
G01*
X121485000Y-109740000D01*
G75*
G02*
X121735000Y-109490000I250000J0D01*
G01*
X123335000Y-109490000D01*
G75*
G02*
X123585000Y-109740000I0J-250000D01*
G01*
G37*
G36*
G01*
X116635000Y-107490000D02*
X116635000Y-108690000D01*
G75*
G02*
X116435000Y-108890000I-200000J0D01*
G01*
X116035000Y-108890000D01*
G75*
G02*
X115835000Y-108690000I0J200000D01*
G01*
X115835000Y-107490000D01*
G75*
G02*
X116035000Y-107290000I200000J0D01*
G01*
X116435000Y-107290000D01*
G75*
G02*
X116635000Y-107490000I0J-200000D01*
G01*
G37*
G36*
G01*
X117885000Y-107490000D02*
X117885000Y-108690000D01*
G75*
G02*
X117685000Y-108890000I-200000J0D01*
G01*
X117285000Y-108890000D01*
G75*
G02*
X117085000Y-108690000I0J200000D01*
G01*
X117085000Y-107490000D01*
G75*
G02*
X117285000Y-107290000I200000J0D01*
G01*
X117685000Y-107290000D01*
G75*
G02*
X117885000Y-107490000I0J-200000D01*
G01*
G37*
G36*
G01*
X119135000Y-107490000D02*
X119135000Y-108690000D01*
G75*
G02*
X118935000Y-108890000I-200000J0D01*
G01*
X118535000Y-108890000D01*
G75*
G02*
X118335000Y-108690000I0J200000D01*
G01*
X118335000Y-107490000D01*
G75*
G02*
X118535000Y-107290000I200000J0D01*
G01*
X118935000Y-107290000D01*
G75*
G02*
X119135000Y-107490000I0J-200000D01*
G01*
G37*
G36*
G01*
X120385000Y-107490000D02*
X120385000Y-108690000D01*
G75*
G02*
X120185000Y-108890000I-200000J0D01*
G01*
X119785000Y-108890000D01*
G75*
G02*
X119585000Y-108690000I0J200000D01*
G01*
X119585000Y-107490000D01*
G75*
G02*
X119785000Y-107290000I200000J0D01*
G01*
X120185000Y-107290000D01*
G75*
G02*
X120385000Y-107490000I0J-200000D01*
G01*
G37*
%TD*%
%TO.C,J2*%
G36*
G01*
X132450000Y-107490000D02*
X132450000Y-108690000D01*
G75*
G02*
X132250000Y-108890000I-200000J0D01*
G01*
X131850000Y-108890000D01*
G75*
G02*
X131650000Y-108690000I0J200000D01*
G01*
X131650000Y-107490000D01*
G75*
G02*
X131850000Y-107290000I200000J0D01*
G01*
X132250000Y-107290000D01*
G75*
G02*
X132450000Y-107490000I0J-200000D01*
G01*
G37*
G36*
G01*
X131200000Y-107490000D02*
X131200000Y-108690000D01*
G75*
G02*
X131000000Y-108890000I-200000J0D01*
G01*
X130600000Y-108890000D01*
G75*
G02*
X130400000Y-108690000I0J200000D01*
G01*
X130400000Y-107490000D01*
G75*
G02*
X130600000Y-107290000I200000J0D01*
G01*
X131000000Y-107290000D01*
G75*
G02*
X131200000Y-107490000I0J-200000D01*
G01*
G37*
G36*
G01*
X129950000Y-107490000D02*
X129950000Y-108690000D01*
G75*
G02*
X129750000Y-108890000I-200000J0D01*
G01*
X129350000Y-108890000D01*
G75*
G02*
X129150000Y-108690000I0J200000D01*
G01*
X129150000Y-107490000D01*
G75*
G02*
X129350000Y-107290000I200000J0D01*
G01*
X129750000Y-107290000D01*
G75*
G02*
X129950000Y-107490000I0J-200000D01*
G01*
G37*
G36*
G01*
X128700000Y-107490000D02*
X128700000Y-108690000D01*
G75*
G02*
X128500000Y-108890000I-200000J0D01*
G01*
X128100000Y-108890000D01*
G75*
G02*
X127900000Y-108690000I0J200000D01*
G01*
X127900000Y-107490000D01*
G75*
G02*
X128100000Y-107290000I200000J0D01*
G01*
X128500000Y-107290000D01*
G75*
G02*
X128700000Y-107490000I0J-200000D01*
G01*
G37*
G36*
G01*
X135650000Y-109740000D02*
X135650000Y-112240000D01*
G75*
G02*
X135400000Y-112490000I-250000J0D01*
G01*
X133800000Y-112490000D01*
G75*
G02*
X133550000Y-112240000I0J250000D01*
G01*
X133550000Y-109740000D01*
G75*
G02*
X133800000Y-109490000I250000J0D01*
G01*
X135400000Y-109490000D01*
G75*
G02*
X135650000Y-109740000I0J-250000D01*
G01*
G37*
G36*
G01*
X126800000Y-109740000D02*
X126800000Y-112240000D01*
G75*
G02*
X126550000Y-112490000I-250000J0D01*
G01*
X124950000Y-112490000D01*
G75*
G02*
X124700000Y-112240000I0J250000D01*
G01*
X124700000Y-109740000D01*
G75*
G02*
X124950000Y-109490000I250000J0D01*
G01*
X126550000Y-109490000D01*
G75*
G02*
X126800000Y-109740000I0J-250000D01*
G01*
G37*
%TD*%
%TO.C,R1*%
G36*
G01*
X162835000Y-74885000D02*
X162285000Y-74885000D01*
G75*
G02*
X162085000Y-74685000I0J200000D01*
G01*
X162085000Y-74285000D01*
G75*
G02*
X162285000Y-74085000I200000J0D01*
G01*
X162835000Y-74085000D01*
G75*
G02*
X163035000Y-74285000I0J-200000D01*
G01*
X163035000Y-74685000D01*
G75*
G02*
X162835000Y-74885000I-200000J0D01*
G01*
G37*
G36*
G01*
X162835000Y-73235000D02*
X162285000Y-73235000D01*
G75*
G02*
X162085000Y-73035000I0J200000D01*
G01*
X162085000Y-72635000D01*
G75*
G02*
X162285000Y-72435000I200000J0D01*
G01*
X162835000Y-72435000D01*
G75*
G02*
X163035000Y-72635000I0J-200000D01*
G01*
X163035000Y-73035000D01*
G75*
G02*
X162835000Y-73235000I-200000J0D01*
G01*
G37*
%TD*%
D10*
%TO.C,S1*%
X136350000Y-60355000D03*
X130350000Y-60355000D03*
X136350000Y-64105000D03*
X130350000Y-64105000D03*
%TD*%
%TO.C,S2*%
X167180000Y-64105000D03*
X173180000Y-64105000D03*
X167180000Y-60355000D03*
X173180000Y-60355000D03*
%TD*%
D11*
%TO.C,U1*%
X152765000Y-74175000D03*
D12*
X160265000Y-66675000D03*
X160265000Y-67945000D03*
X160265000Y-69215000D03*
X160265000Y-70485000D03*
X160265000Y-71755000D03*
X160265000Y-73025000D03*
X160265000Y-74295000D03*
X160265000Y-75565000D03*
X160265000Y-76835000D03*
X160265000Y-78105000D03*
X160265000Y-79375000D03*
X160265000Y-80645000D03*
X160265000Y-81915000D03*
X160265000Y-83185000D03*
D13*
X157480000Y-84185000D03*
X156210000Y-84185000D03*
X154940000Y-84185000D03*
X153670000Y-84185000D03*
X152400000Y-84185000D03*
X151130000Y-84185000D03*
X149860000Y-84185000D03*
X148590000Y-84185000D03*
X147320000Y-84185000D03*
X146050000Y-84185000D03*
D12*
X143265000Y-83185000D03*
X143265000Y-81915000D03*
X143265000Y-80645000D03*
X143265000Y-79375000D03*
X143265000Y-78105000D03*
X143265000Y-76835000D03*
X143265000Y-75565000D03*
X143265000Y-74295000D03*
X143265000Y-73025000D03*
X143265000Y-71755000D03*
X143265000Y-70485000D03*
X143265000Y-69215000D03*
X143265000Y-67945000D03*
X143265000Y-66675000D03*
%TD*%
D14*
%TO.C,U2*%
X147270000Y-109855000D03*
D15*
X140970000Y-109855000D03*
X140970000Y-107555000D03*
X140970000Y-112155000D03*
%TD*%
D16*
%TO.C,U3*%
X105825001Y-62305001D03*
X105825001Y-111805001D03*
X197825001Y-111805001D03*
X197825001Y-62305001D03*
D17*
X104454001Y-70545001D03*
X104454001Y-73085001D03*
X104454001Y-75625001D03*
X104454001Y-78165001D03*
X104454001Y-80705001D03*
X104454001Y-83245001D03*
X104454001Y-85785001D03*
X104454001Y-88325001D03*
X104454001Y-90865001D03*
X104454001Y-93405001D03*
X104454001Y-95945001D03*
X104454001Y-98485001D03*
X104454001Y-101025001D03*
X104454001Y-103565001D03*
X198815001Y-83245001D03*
X198815001Y-85785001D03*
X198815001Y-88325001D03*
X198815001Y-90865001D03*
%TD*%
M02*
