M48
; DRILL file {KiCad (5.1.12)-1} date 08/08/22 15:47:43
; FORMAT={-:-/ absolute / inch / decimal}
; #@! TF.CreationDate,2022-08-08T15:47:43+09:00
; #@! TF.GenerationSoftware,Kicad,Pcbnew,(5.1.12)-1
; #@! TF.FileFunction,Plated,1,2,PTH
FMAT,2
INCH
T1C0.0118
T2C0.0394
%
G90
G05
T1
X4.475Y-3.4
X4.525Y-3.425
X4.7Y-3.125
X4.75Y-3.125
X4.9Y-3.0
X5.15Y-3.275
X5.15Y-4.125
X5.2Y-2.6
X5.2Y-4.175
X5.325Y-3.1
X5.375Y-3.05
X5.425Y-3.175
X5.525Y-2.875
X5.525Y-2.95
X5.55Y-2.675
X5.675Y-4.325
X5.75Y-2.7
X5.8Y-3.225
X6.175Y-3.175
X6.225Y-2.975
X6.4Y-2.975
X6.5Y-2.75
T2
X4.1124Y-2.7774
X4.1124Y-2.8774
X4.1124Y-2.9774
X4.1124Y-3.0774
X4.1124Y-3.1774
X4.1124Y-3.2774
X4.1124Y-3.3774
X4.1124Y-3.4774
X4.1124Y-3.5774
X4.1124Y-3.6774
X4.1124Y-3.7774
X4.1124Y-3.8774
X4.1124Y-3.9774
X4.1124Y-4.0774
X7.8274Y-3.2774
X7.8274Y-3.3774
X7.8274Y-3.4774
X7.8274Y-3.5774
T0
M30
