%TF.GenerationSoftware,KiCad,Pcbnew,(5.1.12)-1*%
%TF.CreationDate,2022-08-08T15:47:42+09:00*%
%TF.ProjectId,LCD_module,4c43445f-6d6f-4647-956c-652e6b696361,rev?*%
%TF.SameCoordinates,Original*%
%TF.FileFunction,Legend,Top*%
%TF.FilePolarity,Positive*%
%FSLAX46Y46*%
G04 Gerber Fmt 4.6, Leading zero omitted, Abs format (unit mm)*
G04 Created by KiCad (PCBNEW (5.1.12)-1) date 2022-08-08 15:47:42*
%MOMM*%
%LPD*%
G01*
G04 APERTURE LIST*
%ADD10C,0.120000*%
%ADD11C,0.150000*%
G04 APERTURE END LIST*
D10*
%TO.C,U3*%
X102825001Y-115225001D02*
X102825001Y-87055001D01*
X151825001Y-115225001D02*
X102825001Y-115225001D01*
X200825001Y-87055001D02*
X200825001Y-58885001D01*
X151825001Y-58885001D02*
X200825001Y-58885001D01*
X200825001Y-87055001D02*
X200825001Y-115225001D01*
X102825001Y-87055001D02*
X102825001Y-58885001D01*
X151825001Y-58885001D02*
X102825001Y-58885001D01*
X151825001Y-115225001D02*
X200825001Y-115225001D01*
D11*
X151063096Y-85237381D02*
X151063096Y-86046905D01*
X151110715Y-86142143D01*
X151158334Y-86189762D01*
X151253572Y-86237381D01*
X151444048Y-86237381D01*
X151539286Y-86189762D01*
X151586905Y-86142143D01*
X151634524Y-86046905D01*
X151634524Y-85237381D01*
X152015477Y-85237381D02*
X152634524Y-85237381D01*
X152301191Y-85618334D01*
X152444048Y-85618334D01*
X152539286Y-85665953D01*
X152586905Y-85713572D01*
X152634524Y-85808810D01*
X152634524Y-86046905D01*
X152586905Y-86142143D01*
X152539286Y-86189762D01*
X152444048Y-86237381D01*
X152158334Y-86237381D01*
X152063096Y-86189762D01*
X152015477Y-86142143D01*
X149277381Y-89412381D02*
X149277381Y-88412381D01*
X150229762Y-89412381D02*
X149753572Y-89412381D01*
X149753572Y-88412381D01*
X150563096Y-89412381D02*
X150563096Y-88412381D01*
X151086905Y-89412381D02*
X151277381Y-89412381D01*
X151372620Y-89364762D01*
X151420239Y-89317143D01*
X151515477Y-89174286D01*
X151563096Y-88983810D01*
X151563096Y-88602858D01*
X151515477Y-88507620D01*
X151467858Y-88460001D01*
X151372620Y-88412381D01*
X151182143Y-88412381D01*
X151086905Y-88460001D01*
X151039286Y-88507620D01*
X150991667Y-88602858D01*
X150991667Y-88840953D01*
X151039286Y-88936191D01*
X151086905Y-88983810D01*
X151182143Y-89031429D01*
X151372620Y-89031429D01*
X151467858Y-88983810D01*
X151515477Y-88936191D01*
X151563096Y-88840953D01*
X152420239Y-88745715D02*
X152420239Y-89412381D01*
X152182143Y-88364762D02*
X151944048Y-89079048D01*
X152563096Y-89079048D01*
X153086905Y-88840953D02*
X152991667Y-88793334D01*
X152944048Y-88745715D01*
X152896429Y-88650477D01*
X152896429Y-88602858D01*
X152944048Y-88507620D01*
X152991667Y-88460001D01*
X153086905Y-88412381D01*
X153277381Y-88412381D01*
X153372620Y-88460001D01*
X153420239Y-88507620D01*
X153467858Y-88602858D01*
X153467858Y-88650477D01*
X153420239Y-88745715D01*
X153372620Y-88793334D01*
X153277381Y-88840953D01*
X153086905Y-88840953D01*
X152991667Y-88888572D01*
X152944048Y-88936191D01*
X152896429Y-89031429D01*
X152896429Y-89221905D01*
X152944048Y-89317143D01*
X152991667Y-89364762D01*
X153086905Y-89412381D01*
X153277381Y-89412381D01*
X153372620Y-89364762D01*
X153420239Y-89317143D01*
X153467858Y-89221905D01*
X153467858Y-89031429D01*
X153420239Y-88936191D01*
X153372620Y-88888572D01*
X153277381Y-88840953D01*
X154039286Y-88840953D02*
X153944048Y-88793334D01*
X153896429Y-88745715D01*
X153848810Y-88650477D01*
X153848810Y-88602858D01*
X153896429Y-88507620D01*
X153944048Y-88460001D01*
X154039286Y-88412381D01*
X154229762Y-88412381D01*
X154325001Y-88460001D01*
X154372620Y-88507620D01*
X154420239Y-88602858D01*
X154420239Y-88650477D01*
X154372620Y-88745715D01*
X154325001Y-88793334D01*
X154229762Y-88840953D01*
X154039286Y-88840953D01*
X153944048Y-88888572D01*
X153896429Y-88936191D01*
X153848810Y-89031429D01*
X153848810Y-89221905D01*
X153896429Y-89317143D01*
X153944048Y-89364762D01*
X154039286Y-89412381D01*
X154229762Y-89412381D01*
X154325001Y-89364762D01*
X154372620Y-89317143D01*
X154420239Y-89221905D01*
X154420239Y-89031429D01*
X154372620Y-88936191D01*
X154325001Y-88888572D01*
X154229762Y-88840953D01*
%TD*%
M02*
