%TF.GenerationSoftware,KiCad,Pcbnew,(5.1.12)-1*%
%TF.CreationDate,2022-08-08T15:47:42+09:00*%
%TF.ProjectId,LCD_module,4c43445f-6d6f-4647-956c-652e6b696361,rev?*%
%TF.SameCoordinates,Original*%
%TF.FileFunction,Legend,Bot*%
%TF.FilePolarity,Positive*%
%FSLAX46Y46*%
G04 Gerber Fmt 4.6, Leading zero omitted, Abs format (unit mm)*
G04 Created by KiCad (PCBNEW (5.1.12)-1) date 2022-08-08 15:47:42*
%MOMM*%
%LPD*%
G01*
G04 APERTURE LIST*
%ADD10C,0.010000*%
%ADD11C,0.120000*%
%ADD12C,0.127000*%
%ADD13C,0.200000*%
%ADD14C,0.150000*%
G04 APERTURE END LIST*
D10*
%TO.C,G\u002A\u002A\u002A*%
G36*
X111370359Y-59546676D02*
G01*
X111297671Y-59548436D01*
X111239937Y-59551196D01*
X111202202Y-59554989D01*
X111201200Y-59555159D01*
X111090187Y-59577079D01*
X110975888Y-59604286D01*
X110865486Y-59634797D01*
X110766164Y-59666632D01*
X110686850Y-59697053D01*
X110525748Y-59771415D01*
X110383306Y-59848482D01*
X110252835Y-59932555D01*
X110127645Y-60027933D01*
X110004612Y-60135612D01*
X109839513Y-60305399D01*
X109694565Y-60490044D01*
X109570602Y-60688050D01*
X109468461Y-60897921D01*
X109388974Y-61118162D01*
X109335399Y-61334650D01*
X109324898Y-61387116D01*
X109314043Y-61439092D01*
X109308383Y-61465007D01*
X109303699Y-61500274D01*
X109300197Y-61555577D01*
X109297867Y-61625580D01*
X109296696Y-61704947D01*
X109296672Y-61788343D01*
X109297782Y-61870430D01*
X109300017Y-61945874D01*
X109303362Y-62009337D01*
X109307807Y-62055486D01*
X109309728Y-62067106D01*
X109320641Y-62122063D01*
X109332430Y-62181988D01*
X109336844Y-62204600D01*
X109389158Y-62412653D01*
X109465410Y-62620911D01*
X109533351Y-62767788D01*
X109648538Y-62969434D01*
X109784738Y-63158118D01*
X109940158Y-63332057D01*
X110113004Y-63489468D01*
X110301483Y-63628568D01*
X110503800Y-63747575D01*
X110535261Y-63763598D01*
X110611728Y-63799095D01*
X110699312Y-63835425D01*
X110790733Y-63869925D01*
X110878711Y-63899927D01*
X110955964Y-63922768D01*
X110996201Y-63932352D01*
X111105391Y-63955046D01*
X111192843Y-63974003D01*
X111261817Y-63989975D01*
X111315576Y-64003715D01*
X111353600Y-64014781D01*
X111423682Y-64029578D01*
X111505397Y-64035837D01*
X111588467Y-64033554D01*
X111662615Y-64022726D01*
X111690835Y-64014895D01*
X111797267Y-63966485D01*
X111888401Y-63900007D01*
X111962954Y-63818511D01*
X112019643Y-63725042D01*
X112057187Y-63622648D01*
X112074303Y-63514376D01*
X112069708Y-63403273D01*
X112042120Y-63292385D01*
X112018525Y-63236364D01*
X111970739Y-63159611D01*
X111906723Y-63088373D01*
X111831955Y-63026892D01*
X111751911Y-62979409D01*
X111672068Y-62950165D01*
X111641753Y-62944567D01*
X111603420Y-62936415D01*
X111573959Y-62924445D01*
X111569035Y-62920964D01*
X111548532Y-62912554D01*
X111509220Y-62903651D01*
X111457625Y-62895566D01*
X111422985Y-62891605D01*
X111316140Y-62878018D01*
X111224406Y-62858658D01*
X111137684Y-62830828D01*
X111045872Y-62791830D01*
X111041265Y-62789679D01*
X110893069Y-62707697D01*
X110763882Y-62609159D01*
X110652536Y-62492925D01*
X110557858Y-62357857D01*
X110512092Y-62274382D01*
X110446941Y-62117205D01*
X110406260Y-61955800D01*
X110389932Y-61792326D01*
X110397843Y-61628938D01*
X110429876Y-61467792D01*
X110485916Y-61311046D01*
X110565847Y-61160855D01*
X110572343Y-61150629D01*
X110671411Y-61019483D01*
X110788973Y-60904116D01*
X110922145Y-60806587D01*
X111068045Y-60728955D01*
X111223790Y-60673277D01*
X111250637Y-60666243D01*
X111416024Y-60637957D01*
X111581982Y-60634439D01*
X111746050Y-60655240D01*
X111905763Y-60699911D01*
X112058660Y-60768000D01*
X112166400Y-60833495D01*
X112262476Y-60910057D01*
X112356398Y-61004783D01*
X112442254Y-61110720D01*
X112514127Y-61220911D01*
X112543972Y-61277500D01*
X112579581Y-61361476D01*
X112608638Y-61449701D01*
X112630225Y-61537239D01*
X112643425Y-61619157D01*
X112647321Y-61690522D01*
X112640995Y-61746400D01*
X112634631Y-61765042D01*
X112627092Y-61797004D01*
X112629856Y-61819615D01*
X112634452Y-61841990D01*
X112638768Y-61882753D01*
X112642150Y-61934892D01*
X112643293Y-61963300D01*
X112653063Y-62069406D01*
X112676919Y-62159354D01*
X112717800Y-62239810D01*
X112778647Y-62317438D01*
X112816777Y-62356596D01*
X112895549Y-62433200D01*
X112833445Y-62433200D01*
X112786348Y-62437725D01*
X112730676Y-62449384D01*
X112694296Y-62460323D01*
X112582621Y-62511672D01*
X112488987Y-62580517D01*
X112413994Y-62666317D01*
X112361959Y-62759816D01*
X112343067Y-62802335D01*
X112326672Y-62837819D01*
X112318024Y-62855302D01*
X112316551Y-62870547D01*
X112315178Y-62909565D01*
X112313904Y-62970727D01*
X112312729Y-63052407D01*
X112311653Y-63152978D01*
X112310677Y-63270812D01*
X112309800Y-63404281D01*
X112309022Y-63551759D01*
X112308343Y-63711617D01*
X112307763Y-63882229D01*
X112307282Y-64061967D01*
X112306900Y-64249204D01*
X112306616Y-64442313D01*
X112306432Y-64639665D01*
X112306346Y-64839634D01*
X112306358Y-65040593D01*
X112306469Y-65240914D01*
X112306678Y-65438969D01*
X112306986Y-65633132D01*
X112307392Y-65821774D01*
X112307897Y-66003269D01*
X112308499Y-66175989D01*
X112309200Y-66338308D01*
X112309999Y-66488596D01*
X112310896Y-66625228D01*
X112311890Y-66746575D01*
X112312983Y-66851011D01*
X112314173Y-66936908D01*
X112315462Y-67002639D01*
X112316847Y-67046576D01*
X112318192Y-67066236D01*
X112345214Y-67171391D01*
X112393200Y-67270645D01*
X112458746Y-67359299D01*
X112538448Y-67432656D01*
X112619030Y-67481507D01*
X112661462Y-67501632D01*
X112697038Y-67518652D01*
X112715503Y-67527628D01*
X112738388Y-67532913D01*
X112777798Y-67536407D01*
X112827211Y-67538150D01*
X112880104Y-67538182D01*
X112929956Y-67536544D01*
X112970244Y-67533274D01*
X112994447Y-67528413D01*
X112998250Y-67525900D01*
X113016414Y-67514593D01*
X113027575Y-67512925D01*
X113069908Y-67502783D01*
X113121916Y-67475992D01*
X113178588Y-67436625D01*
X113234916Y-67388759D01*
X113285889Y-67336469D01*
X113326499Y-67283830D01*
X113342221Y-67256958D01*
X113353962Y-67234150D01*
X113364280Y-67213750D01*
X113373266Y-67194045D01*
X113381012Y-67173324D01*
X113387611Y-67149877D01*
X113393155Y-67121993D01*
X113397735Y-67087959D01*
X113401444Y-67046064D01*
X113404374Y-66994598D01*
X113406617Y-66931849D01*
X113408264Y-66856106D01*
X113409409Y-66765657D01*
X113410143Y-66658792D01*
X113410558Y-66533799D01*
X113410746Y-66388966D01*
X113410799Y-66222584D01*
X113410809Y-66032939D01*
X113410816Y-65981791D01*
X113410927Y-65816410D01*
X113411197Y-65658348D01*
X113411613Y-65509443D01*
X113412163Y-65371535D01*
X113412832Y-65246462D01*
X113413610Y-65136062D01*
X113414483Y-65042174D01*
X113415438Y-64966637D01*
X113416463Y-64911288D01*
X113417546Y-64877966D01*
X113418484Y-64868350D01*
X113432238Y-64870558D01*
X113462988Y-64882660D01*
X113505408Y-64902428D01*
X113531623Y-64915678D01*
X113644306Y-64968815D01*
X113769896Y-65019078D01*
X113898104Y-65062735D01*
X114018638Y-65096052D01*
X114046000Y-65102250D01*
X114232470Y-65133260D01*
X114427989Y-65149098D01*
X114626321Y-65149927D01*
X114821224Y-65135910D01*
X115006461Y-65107211D01*
X115144434Y-65073518D01*
X115369522Y-64994881D01*
X115583739Y-64893752D01*
X115785553Y-64771258D01*
X115973433Y-64628527D01*
X116145849Y-64466686D01*
X116301270Y-64286864D01*
X116401254Y-64147700D01*
X116474136Y-64027259D01*
X116543475Y-63892872D01*
X116605801Y-63752408D01*
X116657644Y-63613742D01*
X116695534Y-63484745D01*
X116697972Y-63474600D01*
X116708090Y-63432007D01*
X116717110Y-63394606D01*
X116719296Y-63385700D01*
X116730721Y-63326480D01*
X116740812Y-63249373D01*
X116749334Y-63159639D01*
X116756048Y-63062538D01*
X116760719Y-62963329D01*
X116762186Y-62904359D01*
X115671685Y-62904359D01*
X115662893Y-63055479D01*
X115632638Y-63207206D01*
X115582150Y-63355568D01*
X115512659Y-63496596D01*
X115425391Y-63626320D01*
X115368142Y-63693708D01*
X115262396Y-63794758D01*
X115146545Y-63879133D01*
X115017011Y-63948821D01*
X114870211Y-64005810D01*
X114738150Y-64043540D01*
X114677604Y-64053156D01*
X114600109Y-64057534D01*
X114513534Y-64056861D01*
X114425744Y-64051326D01*
X114344606Y-64041117D01*
X114303667Y-64033123D01*
X114146620Y-63987461D01*
X114006496Y-63925663D01*
X113878810Y-63845258D01*
X113759076Y-63743775D01*
X113734812Y-63719847D01*
X113640386Y-63610193D01*
X113559343Y-63487235D01*
X113493828Y-63355801D01*
X113445985Y-63220716D01*
X113417961Y-63086804D01*
X113411247Y-62992000D01*
X113399252Y-62871114D01*
X113364529Y-62761497D01*
X113306888Y-62662702D01*
X113237457Y-62584743D01*
X113204625Y-62552982D01*
X113180554Y-62528343D01*
X113169866Y-62515581D01*
X113169700Y-62515031D01*
X113181037Y-62511618D01*
X113209603Y-62509618D01*
X113224753Y-62509400D01*
X113321220Y-62497169D01*
X113416976Y-62462036D01*
X113508477Y-62406341D01*
X113592185Y-62332425D01*
X113664557Y-62242628D01*
X113690055Y-62201895D01*
X113751845Y-62117761D01*
X113835724Y-62038564D01*
X113938561Y-61966239D01*
X114057222Y-61902722D01*
X114188576Y-61849947D01*
X114321741Y-61811648D01*
X114375308Y-61803452D01*
X114446385Y-61798674D01*
X114527324Y-61797242D01*
X114610476Y-61799089D01*
X114688193Y-61804145D01*
X114752824Y-61812340D01*
X114769900Y-61815704D01*
X114934034Y-61864638D01*
X115085419Y-61934845D01*
X115222718Y-62024908D01*
X115344595Y-62133407D01*
X115449713Y-62258924D01*
X115536734Y-62400042D01*
X115604323Y-62555340D01*
X115651143Y-62723402D01*
X115657788Y-62757814D01*
X115671685Y-62904359D01*
X116762186Y-62904359D01*
X116763109Y-62867272D01*
X116762982Y-62779627D01*
X116760100Y-62705654D01*
X116754227Y-62650613D01*
X116752758Y-62642750D01*
X116743914Y-62599276D01*
X116732408Y-62541988D01*
X116720470Y-62481993D01*
X116718356Y-62471300D01*
X116661781Y-62249084D01*
X116582356Y-62035854D01*
X116481488Y-61833065D01*
X116360586Y-61642173D01*
X116221056Y-61464632D01*
X116064308Y-61301898D01*
X115891747Y-61155426D01*
X115704783Y-61026672D01*
X115504824Y-60917091D01*
X115293276Y-60828139D01*
X115071547Y-60761270D01*
X115062000Y-60758959D01*
X114826312Y-60714655D01*
X114593107Y-60695484D01*
X114361358Y-60701425D01*
X114130038Y-60732455D01*
X114101027Y-60738112D01*
X114012851Y-60758466D01*
X113917493Y-60784791D01*
X113822983Y-60814556D01*
X113737351Y-60845231D01*
X113668629Y-60874283D01*
X113667829Y-60874664D01*
X113627793Y-60892866D01*
X113597818Y-60904766D01*
X113584066Y-60907931D01*
X113583895Y-60907794D01*
X113576855Y-60895132D01*
X113560913Y-60864474D01*
X113538507Y-60820555D01*
X113514561Y-60773069D01*
X113395151Y-60562008D01*
X113257993Y-60368988D01*
X113103581Y-60194373D01*
X112932406Y-60038528D01*
X112744963Y-59901817D01*
X112541742Y-59784605D01*
X112323238Y-59687257D01*
X112089944Y-59610138D01*
X111874300Y-59559583D01*
X111838133Y-59555269D01*
X111781619Y-59551722D01*
X111709801Y-59548978D01*
X111627723Y-59547068D01*
X111540429Y-59546025D01*
X111452959Y-59545884D01*
X111370359Y-59546676D01*
G37*
X111370359Y-59546676D02*
X111297671Y-59548436D01*
X111239937Y-59551196D01*
X111202202Y-59554989D01*
X111201200Y-59555159D01*
X111090187Y-59577079D01*
X110975888Y-59604286D01*
X110865486Y-59634797D01*
X110766164Y-59666632D01*
X110686850Y-59697053D01*
X110525748Y-59771415D01*
X110383306Y-59848482D01*
X110252835Y-59932555D01*
X110127645Y-60027933D01*
X110004612Y-60135612D01*
X109839513Y-60305399D01*
X109694565Y-60490044D01*
X109570602Y-60688050D01*
X109468461Y-60897921D01*
X109388974Y-61118162D01*
X109335399Y-61334650D01*
X109324898Y-61387116D01*
X109314043Y-61439092D01*
X109308383Y-61465007D01*
X109303699Y-61500274D01*
X109300197Y-61555577D01*
X109297867Y-61625580D01*
X109296696Y-61704947D01*
X109296672Y-61788343D01*
X109297782Y-61870430D01*
X109300017Y-61945874D01*
X109303362Y-62009337D01*
X109307807Y-62055486D01*
X109309728Y-62067106D01*
X109320641Y-62122063D01*
X109332430Y-62181988D01*
X109336844Y-62204600D01*
X109389158Y-62412653D01*
X109465410Y-62620911D01*
X109533351Y-62767788D01*
X109648538Y-62969434D01*
X109784738Y-63158118D01*
X109940158Y-63332057D01*
X110113004Y-63489468D01*
X110301483Y-63628568D01*
X110503800Y-63747575D01*
X110535261Y-63763598D01*
X110611728Y-63799095D01*
X110699312Y-63835425D01*
X110790733Y-63869925D01*
X110878711Y-63899927D01*
X110955964Y-63922768D01*
X110996201Y-63932352D01*
X111105391Y-63955046D01*
X111192843Y-63974003D01*
X111261817Y-63989975D01*
X111315576Y-64003715D01*
X111353600Y-64014781D01*
X111423682Y-64029578D01*
X111505397Y-64035837D01*
X111588467Y-64033554D01*
X111662615Y-64022726D01*
X111690835Y-64014895D01*
X111797267Y-63966485D01*
X111888401Y-63900007D01*
X111962954Y-63818511D01*
X112019643Y-63725042D01*
X112057187Y-63622648D01*
X112074303Y-63514376D01*
X112069708Y-63403273D01*
X112042120Y-63292385D01*
X112018525Y-63236364D01*
X111970739Y-63159611D01*
X111906723Y-63088373D01*
X111831955Y-63026892D01*
X111751911Y-62979409D01*
X111672068Y-62950165D01*
X111641753Y-62944567D01*
X111603420Y-62936415D01*
X111573959Y-62924445D01*
X111569035Y-62920964D01*
X111548532Y-62912554D01*
X111509220Y-62903651D01*
X111457625Y-62895566D01*
X111422985Y-62891605D01*
X111316140Y-62878018D01*
X111224406Y-62858658D01*
X111137684Y-62830828D01*
X111045872Y-62791830D01*
X111041265Y-62789679D01*
X110893069Y-62707697D01*
X110763882Y-62609159D01*
X110652536Y-62492925D01*
X110557858Y-62357857D01*
X110512092Y-62274382D01*
X110446941Y-62117205D01*
X110406260Y-61955800D01*
X110389932Y-61792326D01*
X110397843Y-61628938D01*
X110429876Y-61467792D01*
X110485916Y-61311046D01*
X110565847Y-61160855D01*
X110572343Y-61150629D01*
X110671411Y-61019483D01*
X110788973Y-60904116D01*
X110922145Y-60806587D01*
X111068045Y-60728955D01*
X111223790Y-60673277D01*
X111250637Y-60666243D01*
X111416024Y-60637957D01*
X111581982Y-60634439D01*
X111746050Y-60655240D01*
X111905763Y-60699911D01*
X112058660Y-60768000D01*
X112166400Y-60833495D01*
X112262476Y-60910057D01*
X112356398Y-61004783D01*
X112442254Y-61110720D01*
X112514127Y-61220911D01*
X112543972Y-61277500D01*
X112579581Y-61361476D01*
X112608638Y-61449701D01*
X112630225Y-61537239D01*
X112643425Y-61619157D01*
X112647321Y-61690522D01*
X112640995Y-61746400D01*
X112634631Y-61765042D01*
X112627092Y-61797004D01*
X112629856Y-61819615D01*
X112634452Y-61841990D01*
X112638768Y-61882753D01*
X112642150Y-61934892D01*
X112643293Y-61963300D01*
X112653063Y-62069406D01*
X112676919Y-62159354D01*
X112717800Y-62239810D01*
X112778647Y-62317438D01*
X112816777Y-62356596D01*
X112895549Y-62433200D01*
X112833445Y-62433200D01*
X112786348Y-62437725D01*
X112730676Y-62449384D01*
X112694296Y-62460323D01*
X112582621Y-62511672D01*
X112488987Y-62580517D01*
X112413994Y-62666317D01*
X112361959Y-62759816D01*
X112343067Y-62802335D01*
X112326672Y-62837819D01*
X112318024Y-62855302D01*
X112316551Y-62870547D01*
X112315178Y-62909565D01*
X112313904Y-62970727D01*
X112312729Y-63052407D01*
X112311653Y-63152978D01*
X112310677Y-63270812D01*
X112309800Y-63404281D01*
X112309022Y-63551759D01*
X112308343Y-63711617D01*
X112307763Y-63882229D01*
X112307282Y-64061967D01*
X112306900Y-64249204D01*
X112306616Y-64442313D01*
X112306432Y-64639665D01*
X112306346Y-64839634D01*
X112306358Y-65040593D01*
X112306469Y-65240914D01*
X112306678Y-65438969D01*
X112306986Y-65633132D01*
X112307392Y-65821774D01*
X112307897Y-66003269D01*
X112308499Y-66175989D01*
X112309200Y-66338308D01*
X112309999Y-66488596D01*
X112310896Y-66625228D01*
X112311890Y-66746575D01*
X112312983Y-66851011D01*
X112314173Y-66936908D01*
X112315462Y-67002639D01*
X112316847Y-67046576D01*
X112318192Y-67066236D01*
X112345214Y-67171391D01*
X112393200Y-67270645D01*
X112458746Y-67359299D01*
X112538448Y-67432656D01*
X112619030Y-67481507D01*
X112661462Y-67501632D01*
X112697038Y-67518652D01*
X112715503Y-67527628D01*
X112738388Y-67532913D01*
X112777798Y-67536407D01*
X112827211Y-67538150D01*
X112880104Y-67538182D01*
X112929956Y-67536544D01*
X112970244Y-67533274D01*
X112994447Y-67528413D01*
X112998250Y-67525900D01*
X113016414Y-67514593D01*
X113027575Y-67512925D01*
X113069908Y-67502783D01*
X113121916Y-67475992D01*
X113178588Y-67436625D01*
X113234916Y-67388759D01*
X113285889Y-67336469D01*
X113326499Y-67283830D01*
X113342221Y-67256958D01*
X113353962Y-67234150D01*
X113364280Y-67213750D01*
X113373266Y-67194045D01*
X113381012Y-67173324D01*
X113387611Y-67149877D01*
X113393155Y-67121993D01*
X113397735Y-67087959D01*
X113401444Y-67046064D01*
X113404374Y-66994598D01*
X113406617Y-66931849D01*
X113408264Y-66856106D01*
X113409409Y-66765657D01*
X113410143Y-66658792D01*
X113410558Y-66533799D01*
X113410746Y-66388966D01*
X113410799Y-66222584D01*
X113410809Y-66032939D01*
X113410816Y-65981791D01*
X113410927Y-65816410D01*
X113411197Y-65658348D01*
X113411613Y-65509443D01*
X113412163Y-65371535D01*
X113412832Y-65246462D01*
X113413610Y-65136062D01*
X113414483Y-65042174D01*
X113415438Y-64966637D01*
X113416463Y-64911288D01*
X113417546Y-64877966D01*
X113418484Y-64868350D01*
X113432238Y-64870558D01*
X113462988Y-64882660D01*
X113505408Y-64902428D01*
X113531623Y-64915678D01*
X113644306Y-64968815D01*
X113769896Y-65019078D01*
X113898104Y-65062735D01*
X114018638Y-65096052D01*
X114046000Y-65102250D01*
X114232470Y-65133260D01*
X114427989Y-65149098D01*
X114626321Y-65149927D01*
X114821224Y-65135910D01*
X115006461Y-65107211D01*
X115144434Y-65073518D01*
X115369522Y-64994881D01*
X115583739Y-64893752D01*
X115785553Y-64771258D01*
X115973433Y-64628527D01*
X116145849Y-64466686D01*
X116301270Y-64286864D01*
X116401254Y-64147700D01*
X116474136Y-64027259D01*
X116543475Y-63892872D01*
X116605801Y-63752408D01*
X116657644Y-63613742D01*
X116695534Y-63484745D01*
X116697972Y-63474600D01*
X116708090Y-63432007D01*
X116717110Y-63394606D01*
X116719296Y-63385700D01*
X116730721Y-63326480D01*
X116740812Y-63249373D01*
X116749334Y-63159639D01*
X116756048Y-63062538D01*
X116760719Y-62963329D01*
X116762186Y-62904359D01*
X115671685Y-62904359D01*
X115662893Y-63055479D01*
X115632638Y-63207206D01*
X115582150Y-63355568D01*
X115512659Y-63496596D01*
X115425391Y-63626320D01*
X115368142Y-63693708D01*
X115262396Y-63794758D01*
X115146545Y-63879133D01*
X115017011Y-63948821D01*
X114870211Y-64005810D01*
X114738150Y-64043540D01*
X114677604Y-64053156D01*
X114600109Y-64057534D01*
X114513534Y-64056861D01*
X114425744Y-64051326D01*
X114344606Y-64041117D01*
X114303667Y-64033123D01*
X114146620Y-63987461D01*
X114006496Y-63925663D01*
X113878810Y-63845258D01*
X113759076Y-63743775D01*
X113734812Y-63719847D01*
X113640386Y-63610193D01*
X113559343Y-63487235D01*
X113493828Y-63355801D01*
X113445985Y-63220716D01*
X113417961Y-63086804D01*
X113411247Y-62992000D01*
X113399252Y-62871114D01*
X113364529Y-62761497D01*
X113306888Y-62662702D01*
X113237457Y-62584743D01*
X113204625Y-62552982D01*
X113180554Y-62528343D01*
X113169866Y-62515581D01*
X113169700Y-62515031D01*
X113181037Y-62511618D01*
X113209603Y-62509618D01*
X113224753Y-62509400D01*
X113321220Y-62497169D01*
X113416976Y-62462036D01*
X113508477Y-62406341D01*
X113592185Y-62332425D01*
X113664557Y-62242628D01*
X113690055Y-62201895D01*
X113751845Y-62117761D01*
X113835724Y-62038564D01*
X113938561Y-61966239D01*
X114057222Y-61902722D01*
X114188576Y-61849947D01*
X114321741Y-61811648D01*
X114375308Y-61803452D01*
X114446385Y-61798674D01*
X114527324Y-61797242D01*
X114610476Y-61799089D01*
X114688193Y-61804145D01*
X114752824Y-61812340D01*
X114769900Y-61815704D01*
X114934034Y-61864638D01*
X115085419Y-61934845D01*
X115222718Y-62024908D01*
X115344595Y-62133407D01*
X115449713Y-62258924D01*
X115536734Y-62400042D01*
X115604323Y-62555340D01*
X115651143Y-62723402D01*
X115657788Y-62757814D01*
X115671685Y-62904359D01*
X116762186Y-62904359D01*
X116763109Y-62867272D01*
X116762982Y-62779627D01*
X116760100Y-62705654D01*
X116754227Y-62650613D01*
X116752758Y-62642750D01*
X116743914Y-62599276D01*
X116732408Y-62541988D01*
X116720470Y-62481993D01*
X116718356Y-62471300D01*
X116661781Y-62249084D01*
X116582356Y-62035854D01*
X116481488Y-61833065D01*
X116360586Y-61642173D01*
X116221056Y-61464632D01*
X116064308Y-61301898D01*
X115891747Y-61155426D01*
X115704783Y-61026672D01*
X115504824Y-60917091D01*
X115293276Y-60828139D01*
X115071547Y-60761270D01*
X115062000Y-60758959D01*
X114826312Y-60714655D01*
X114593107Y-60695484D01*
X114361358Y-60701425D01*
X114130038Y-60732455D01*
X114101027Y-60738112D01*
X114012851Y-60758466D01*
X113917493Y-60784791D01*
X113822983Y-60814556D01*
X113737351Y-60845231D01*
X113668629Y-60874283D01*
X113667829Y-60874664D01*
X113627793Y-60892866D01*
X113597818Y-60904766D01*
X113584066Y-60907931D01*
X113583895Y-60907794D01*
X113576855Y-60895132D01*
X113560913Y-60864474D01*
X113538507Y-60820555D01*
X113514561Y-60773069D01*
X113395151Y-60562008D01*
X113257993Y-60368988D01*
X113103581Y-60194373D01*
X112932406Y-60038528D01*
X112744963Y-59901817D01*
X112541742Y-59784605D01*
X112323238Y-59687257D01*
X112089944Y-59610138D01*
X111874300Y-59559583D01*
X111838133Y-59555269D01*
X111781619Y-59551722D01*
X111709801Y-59548978D01*
X111627723Y-59547068D01*
X111540429Y-59546025D01*
X111452959Y-59545884D01*
X111370359Y-59546676D01*
G36*
X111837991Y-67992758D02*
G01*
X111827384Y-68001050D01*
X111791750Y-68031700D01*
X111791750Y-70017299D01*
X111827384Y-70047949D01*
X111875092Y-70074196D01*
X111926218Y-70076298D01*
X111976476Y-70054315D01*
X111987626Y-70045721D01*
X112026700Y-70012842D01*
X112026700Y-69006887D01*
X112093375Y-68942355D01*
X112161168Y-68883971D01*
X112226058Y-68845609D01*
X112295562Y-68824127D01*
X112377196Y-68816381D01*
X112395000Y-68816203D01*
X112497804Y-68825327D01*
X112585958Y-68853485D01*
X112663094Y-68902078D01*
X112696754Y-68932553D01*
X112753535Y-69002045D01*
X112792702Y-69081154D01*
X112816008Y-69174350D01*
X112824196Y-69257462D01*
X112821774Y-69388377D01*
X112801125Y-69503194D01*
X112762541Y-69601280D01*
X112706309Y-69682004D01*
X112632720Y-69744733D01*
X112590282Y-69768773D01*
X112508419Y-69795803D01*
X112408664Y-69805457D01*
X112290705Y-69797760D01*
X112264385Y-69794062D01*
X112221631Y-69788638D01*
X112194908Y-69789723D01*
X112175335Y-69798867D01*
X112159610Y-69812313D01*
X112133613Y-69852163D01*
X112130736Y-69897166D01*
X112146813Y-69934279D01*
X112180909Y-69964315D01*
X112234637Y-69989659D01*
X112302501Y-70009297D01*
X112379001Y-70022218D01*
X112458639Y-70027408D01*
X112535916Y-70023857D01*
X112587009Y-70015318D01*
X112704838Y-69975636D01*
X112809484Y-69915167D01*
X112899202Y-69835802D01*
X112972250Y-69739429D01*
X113026886Y-69627940D01*
X113061366Y-69503223D01*
X113061893Y-69500297D01*
X113077504Y-69356232D01*
X113072830Y-69219229D01*
X113049176Y-69091099D01*
X113007850Y-68973651D01*
X112950157Y-68868694D01*
X112877405Y-68778037D01*
X112790900Y-68703489D01*
X112691949Y-68646860D01*
X112581857Y-68609958D01*
X112461931Y-68594594D01*
X112408182Y-68595034D01*
X112347378Y-68599422D01*
X112300468Y-68607680D01*
X112255966Y-68622712D01*
X112203734Y-68646761D01*
X112153120Y-68673347D01*
X112106072Y-68700957D01*
X112071647Y-68724229D01*
X112067975Y-68727143D01*
X112026700Y-68761055D01*
X112026700Y-68036157D01*
X111987626Y-68003278D01*
X111938186Y-67975680D01*
X111886880Y-67972154D01*
X111837991Y-67992758D01*
G37*
X111837991Y-67992758D02*
X111827384Y-68001050D01*
X111791750Y-68031700D01*
X111791750Y-70017299D01*
X111827384Y-70047949D01*
X111875092Y-70074196D01*
X111926218Y-70076298D01*
X111976476Y-70054315D01*
X111987626Y-70045721D01*
X112026700Y-70012842D01*
X112026700Y-69006887D01*
X112093375Y-68942355D01*
X112161168Y-68883971D01*
X112226058Y-68845609D01*
X112295562Y-68824127D01*
X112377196Y-68816381D01*
X112395000Y-68816203D01*
X112497804Y-68825327D01*
X112585958Y-68853485D01*
X112663094Y-68902078D01*
X112696754Y-68932553D01*
X112753535Y-69002045D01*
X112792702Y-69081154D01*
X112816008Y-69174350D01*
X112824196Y-69257462D01*
X112821774Y-69388377D01*
X112801125Y-69503194D01*
X112762541Y-69601280D01*
X112706309Y-69682004D01*
X112632720Y-69744733D01*
X112590282Y-69768773D01*
X112508419Y-69795803D01*
X112408664Y-69805457D01*
X112290705Y-69797760D01*
X112264385Y-69794062D01*
X112221631Y-69788638D01*
X112194908Y-69789723D01*
X112175335Y-69798867D01*
X112159610Y-69812313D01*
X112133613Y-69852163D01*
X112130736Y-69897166D01*
X112146813Y-69934279D01*
X112180909Y-69964315D01*
X112234637Y-69989659D01*
X112302501Y-70009297D01*
X112379001Y-70022218D01*
X112458639Y-70027408D01*
X112535916Y-70023857D01*
X112587009Y-70015318D01*
X112704838Y-69975636D01*
X112809484Y-69915167D01*
X112899202Y-69835802D01*
X112972250Y-69739429D01*
X113026886Y-69627940D01*
X113061366Y-69503223D01*
X113061893Y-69500297D01*
X113077504Y-69356232D01*
X113072830Y-69219229D01*
X113049176Y-69091099D01*
X113007850Y-68973651D01*
X112950157Y-68868694D01*
X112877405Y-68778037D01*
X112790900Y-68703489D01*
X112691949Y-68646860D01*
X112581857Y-68609958D01*
X112461931Y-68594594D01*
X112408182Y-68595034D01*
X112347378Y-68599422D01*
X112300468Y-68607680D01*
X112255966Y-68622712D01*
X112203734Y-68646761D01*
X112153120Y-68673347D01*
X112106072Y-68700957D01*
X112071647Y-68724229D01*
X112067975Y-68727143D01*
X112026700Y-68761055D01*
X112026700Y-68036157D01*
X111987626Y-68003278D01*
X111938186Y-67975680D01*
X111886880Y-67972154D01*
X111837991Y-67992758D01*
G36*
X113882990Y-68600103D02*
G01*
X113845905Y-68625832D01*
X113841824Y-68629823D01*
X113819873Y-68655317D01*
X113808733Y-68681583D01*
X113804938Y-68718825D01*
X113804700Y-68739146D01*
X113804700Y-68811347D01*
X113746723Y-68746861D01*
X113666555Y-68676023D01*
X113573391Y-68626753D01*
X113468707Y-68599746D01*
X113424825Y-68595383D01*
X113345851Y-68595837D01*
X113286685Y-68608409D01*
X113244201Y-68634293D01*
X113215273Y-68674686D01*
X113214767Y-68675743D01*
X113201155Y-68727432D01*
X113212350Y-68773995D01*
X113240242Y-68809249D01*
X113259890Y-68823683D01*
X113286422Y-68833805D01*
X113325840Y-68841158D01*
X113384147Y-68847287D01*
X113390092Y-68847795D01*
X113481884Y-68859838D01*
X113551561Y-68878446D01*
X113568534Y-68885561D01*
X113639981Y-68932821D01*
X113700653Y-69001095D01*
X113748831Y-69087666D01*
X113782796Y-69189819D01*
X113793028Y-69240400D01*
X113796116Y-69271816D01*
X113798898Y-69324447D01*
X113801256Y-69394108D01*
X113803075Y-69476614D01*
X113804237Y-69567782D01*
X113804627Y-69657301D01*
X113804700Y-70004353D01*
X113841824Y-70041476D01*
X113879044Y-70069442D01*
X113920289Y-70078526D01*
X113925350Y-70078600D01*
X113967711Y-70071196D01*
X114004796Y-70045467D01*
X114008877Y-70041476D01*
X114046000Y-70004353D01*
X114046000Y-68666946D01*
X114008877Y-68629823D01*
X113971657Y-68601857D01*
X113930412Y-68592773D01*
X113925350Y-68592700D01*
X113882990Y-68600103D01*
G37*
X113882990Y-68600103D02*
X113845905Y-68625832D01*
X113841824Y-68629823D01*
X113819873Y-68655317D01*
X113808733Y-68681583D01*
X113804938Y-68718825D01*
X113804700Y-68739146D01*
X113804700Y-68811347D01*
X113746723Y-68746861D01*
X113666555Y-68676023D01*
X113573391Y-68626753D01*
X113468707Y-68599746D01*
X113424825Y-68595383D01*
X113345851Y-68595837D01*
X113286685Y-68608409D01*
X113244201Y-68634293D01*
X113215273Y-68674686D01*
X113214767Y-68675743D01*
X113201155Y-68727432D01*
X113212350Y-68773995D01*
X113240242Y-68809249D01*
X113259890Y-68823683D01*
X113286422Y-68833805D01*
X113325840Y-68841158D01*
X113384147Y-68847287D01*
X113390092Y-68847795D01*
X113481884Y-68859838D01*
X113551561Y-68878446D01*
X113568534Y-68885561D01*
X113639981Y-68932821D01*
X113700653Y-69001095D01*
X113748831Y-69087666D01*
X113782796Y-69189819D01*
X113793028Y-69240400D01*
X113796116Y-69271816D01*
X113798898Y-69324447D01*
X113801256Y-69394108D01*
X113803075Y-69476614D01*
X113804237Y-69567782D01*
X113804627Y-69657301D01*
X113804700Y-70004353D01*
X113841824Y-70041476D01*
X113879044Y-70069442D01*
X113920289Y-70078526D01*
X113925350Y-70078600D01*
X113967711Y-70071196D01*
X114004796Y-70045467D01*
X114008877Y-70041476D01*
X114046000Y-70004353D01*
X114046000Y-68666946D01*
X114008877Y-68629823D01*
X113971657Y-68601857D01*
X113930412Y-68592773D01*
X113925350Y-68592700D01*
X113882990Y-68600103D01*
G36*
X109358404Y-68590745D02*
G01*
X109250488Y-68619462D01*
X109179745Y-68649740D01*
X109105647Y-68693615D01*
X109045510Y-68742538D01*
X109001076Y-68793748D01*
X108974086Y-68844484D01*
X108966282Y-68891986D01*
X108979405Y-68933493D01*
X108991400Y-68948300D01*
X109030794Y-68971578D01*
X109078119Y-68971025D01*
X109132761Y-68946729D01*
X109165649Y-68923326D01*
X109239336Y-68869498D01*
X109305282Y-68833448D01*
X109370642Y-68812378D01*
X109442568Y-68803491D01*
X109474000Y-68802722D01*
X109558272Y-68806334D01*
X109623740Y-68818854D01*
X109675921Y-68841860D01*
X109714854Y-68871682D01*
X109739358Y-68898918D01*
X109750653Y-68927497D01*
X109753400Y-68969261D01*
X109753400Y-68969619D01*
X109750454Y-69010083D01*
X109739856Y-69044155D01*
X109718970Y-69073715D01*
X109685157Y-69100645D01*
X109635782Y-69126824D01*
X109568206Y-69154132D01*
X109479792Y-69184449D01*
X109429550Y-69200505D01*
X109304107Y-69242855D01*
X109201120Y-69284445D01*
X109117770Y-69327003D01*
X109051236Y-69372254D01*
X108998697Y-69421927D01*
X108957333Y-69477747D01*
X108946546Y-69496193D01*
X108926754Y-69535294D01*
X108915343Y-69569959D01*
X108910109Y-69610102D01*
X108908851Y-69665639D01*
X108908850Y-69665850D01*
X108918555Y-69766242D01*
X108948104Y-69852397D01*
X108998153Y-69925045D01*
X109069357Y-69984919D01*
X109162368Y-70032750D01*
X109267510Y-70066682D01*
X109371551Y-70084821D01*
X109486036Y-70090582D01*
X109599919Y-70083980D01*
X109698003Y-70066135D01*
X109796137Y-70034187D01*
X109881587Y-69993968D01*
X109950666Y-69947711D01*
X109999692Y-69897649D01*
X110014207Y-69874517D01*
X110031203Y-69821716D01*
X110029158Y-69771333D01*
X110008594Y-69730564D01*
X110003407Y-69725213D01*
X109962445Y-69700792D01*
X109915521Y-69699725D01*
X109861465Y-69722158D01*
X109823932Y-69747873D01*
X109774086Y-69782253D01*
X109716597Y-69816147D01*
X109683059Y-69833167D01*
X109643683Y-69849925D01*
X109608156Y-69860397D01*
X109568171Y-69866037D01*
X109515421Y-69868297D01*
X109480350Y-69868618D01*
X109388776Y-69865096D01*
X109316628Y-69852831D01*
X109258985Y-69830324D01*
X109210929Y-69796074D01*
X109196482Y-69782090D01*
X109160084Y-69728848D01*
X109147301Y-69671479D01*
X109157617Y-69613783D01*
X109190514Y-69559559D01*
X109231891Y-69521846D01*
X109265036Y-69503080D01*
X109319341Y-69478779D01*
X109391512Y-69450281D01*
X109478257Y-69418928D01*
X109519854Y-69404687D01*
X109634299Y-69364554D01*
X109726898Y-69328017D01*
X109800598Y-69293145D01*
X109858344Y-69258008D01*
X109903083Y-69220672D01*
X109937761Y-69179208D01*
X109965322Y-69131683D01*
X109977537Y-69104611D01*
X109993797Y-69041215D01*
X109997191Y-68967191D01*
X109987959Y-68893668D01*
X109971903Y-68843276D01*
X109923740Y-68764537D01*
X109856637Y-68698606D01*
X109774062Y-68646332D01*
X109679484Y-68608562D01*
X109576369Y-68586143D01*
X109468187Y-68579921D01*
X109358404Y-68590745D01*
G37*
X109358404Y-68590745D02*
X109250488Y-68619462D01*
X109179745Y-68649740D01*
X109105647Y-68693615D01*
X109045510Y-68742538D01*
X109001076Y-68793748D01*
X108974086Y-68844484D01*
X108966282Y-68891986D01*
X108979405Y-68933493D01*
X108991400Y-68948300D01*
X109030794Y-68971578D01*
X109078119Y-68971025D01*
X109132761Y-68946729D01*
X109165649Y-68923326D01*
X109239336Y-68869498D01*
X109305282Y-68833448D01*
X109370642Y-68812378D01*
X109442568Y-68803491D01*
X109474000Y-68802722D01*
X109558272Y-68806334D01*
X109623740Y-68818854D01*
X109675921Y-68841860D01*
X109714854Y-68871682D01*
X109739358Y-68898918D01*
X109750653Y-68927497D01*
X109753400Y-68969261D01*
X109753400Y-68969619D01*
X109750454Y-69010083D01*
X109739856Y-69044155D01*
X109718970Y-69073715D01*
X109685157Y-69100645D01*
X109635782Y-69126824D01*
X109568206Y-69154132D01*
X109479792Y-69184449D01*
X109429550Y-69200505D01*
X109304107Y-69242855D01*
X109201120Y-69284445D01*
X109117770Y-69327003D01*
X109051236Y-69372254D01*
X108998697Y-69421927D01*
X108957333Y-69477747D01*
X108946546Y-69496193D01*
X108926754Y-69535294D01*
X108915343Y-69569959D01*
X108910109Y-69610102D01*
X108908851Y-69665639D01*
X108908850Y-69665850D01*
X108918555Y-69766242D01*
X108948104Y-69852397D01*
X108998153Y-69925045D01*
X109069357Y-69984919D01*
X109162368Y-70032750D01*
X109267510Y-70066682D01*
X109371551Y-70084821D01*
X109486036Y-70090582D01*
X109599919Y-70083980D01*
X109698003Y-70066135D01*
X109796137Y-70034187D01*
X109881587Y-69993968D01*
X109950666Y-69947711D01*
X109999692Y-69897649D01*
X110014207Y-69874517D01*
X110031203Y-69821716D01*
X110029158Y-69771333D01*
X110008594Y-69730564D01*
X110003407Y-69725213D01*
X109962445Y-69700792D01*
X109915521Y-69699725D01*
X109861465Y-69722158D01*
X109823932Y-69747873D01*
X109774086Y-69782253D01*
X109716597Y-69816147D01*
X109683059Y-69833167D01*
X109643683Y-69849925D01*
X109608156Y-69860397D01*
X109568171Y-69866037D01*
X109515421Y-69868297D01*
X109480350Y-69868618D01*
X109388776Y-69865096D01*
X109316628Y-69852831D01*
X109258985Y-69830324D01*
X109210929Y-69796074D01*
X109196482Y-69782090D01*
X109160084Y-69728848D01*
X109147301Y-69671479D01*
X109157617Y-69613783D01*
X109190514Y-69559559D01*
X109231891Y-69521846D01*
X109265036Y-69503080D01*
X109319341Y-69478779D01*
X109391512Y-69450281D01*
X109478257Y-69418928D01*
X109519854Y-69404687D01*
X109634299Y-69364554D01*
X109726898Y-69328017D01*
X109800598Y-69293145D01*
X109858344Y-69258008D01*
X109903083Y-69220672D01*
X109937761Y-69179208D01*
X109965322Y-69131683D01*
X109977537Y-69104611D01*
X109993797Y-69041215D01*
X109997191Y-68967191D01*
X109987959Y-68893668D01*
X109971903Y-68843276D01*
X109923740Y-68764537D01*
X109856637Y-68698606D01*
X109774062Y-68646332D01*
X109679484Y-68608562D01*
X109576369Y-68586143D01*
X109468187Y-68579921D01*
X109358404Y-68590745D01*
G36*
X110710844Y-68591539D02*
G01*
X110597717Y-68625567D01*
X110496997Y-68681200D01*
X110410114Y-68757554D01*
X110338502Y-68853744D01*
X110311849Y-68902841D01*
X110276645Y-68987232D01*
X110252679Y-69071271D01*
X110240232Y-69150841D01*
X110239584Y-69221824D01*
X110251013Y-69280101D01*
X110274801Y-69321556D01*
X110282889Y-69328948D01*
X110292272Y-69335620D01*
X110303463Y-69341028D01*
X110319046Y-69345305D01*
X110341603Y-69348584D01*
X110373718Y-69350997D01*
X110417975Y-69352676D01*
X110476956Y-69353753D01*
X110553244Y-69354361D01*
X110649423Y-69354632D01*
X110768076Y-69354699D01*
X110785646Y-69354700D01*
X111255667Y-69354700D01*
X111248421Y-69450504D01*
X111229790Y-69556042D01*
X111191892Y-69650870D01*
X111136787Y-69731919D01*
X111066540Y-69796122D01*
X110987513Y-69838769D01*
X110939983Y-69854081D01*
X110888713Y-69863148D01*
X110824799Y-69867303D01*
X110792682Y-69867897D01*
X110736858Y-69868057D01*
X110696571Y-69865903D01*
X110663447Y-69859357D01*
X110629111Y-69846341D01*
X110585188Y-69824775D01*
X110554310Y-69808725D01*
X110483430Y-69774490D01*
X110429113Y-69755247D01*
X110387848Y-69750421D01*
X110356124Y-69759441D01*
X110337924Y-69773476D01*
X110310537Y-69815329D01*
X110306459Y-69860428D01*
X110324151Y-69906750D01*
X110362074Y-69952268D01*
X110418691Y-69994960D01*
X110492462Y-70032798D01*
X110551574Y-70054702D01*
X110620775Y-70071034D01*
X110705114Y-70082035D01*
X110795979Y-70087367D01*
X110884758Y-70086691D01*
X110962838Y-70079670D01*
X111000774Y-70072320D01*
X111121844Y-70029385D01*
X111228457Y-69965953D01*
X111319571Y-69883094D01*
X111394144Y-69781877D01*
X111451133Y-69663375D01*
X111476752Y-69583300D01*
X111488692Y-69523631D01*
X111495840Y-69450051D01*
X111498649Y-69357479D01*
X111498730Y-69335650D01*
X111496757Y-69238548D01*
X111490536Y-69161481D01*
X111484293Y-69125960D01*
X111240491Y-69125960D01*
X111236636Y-69140901D01*
X111222552Y-69151401D01*
X111195905Y-69158231D01*
X111154361Y-69162160D01*
X111095586Y-69163960D01*
X111017246Y-69164401D01*
X110917006Y-69164253D01*
X110858300Y-69164200D01*
X110477300Y-69164200D01*
X110477300Y-69132926D01*
X110485133Y-69085075D01*
X110505761Y-69027962D01*
X110534881Y-68971107D01*
X110568191Y-68924032D01*
X110575137Y-68916464D01*
X110646093Y-68861015D01*
X110731876Y-68825818D01*
X110789463Y-68814437D01*
X110854088Y-68812870D01*
X110927898Y-68821615D01*
X110998521Y-68838645D01*
X111042450Y-68855880D01*
X111100815Y-68895497D01*
X111155573Y-68951071D01*
X111198602Y-69013560D01*
X111214022Y-69046789D01*
X111226850Y-69079675D01*
X111236451Y-69105808D01*
X111240491Y-69125960D01*
X111484293Y-69125960D01*
X111479618Y-69099369D01*
X111476752Y-69088000D01*
X111430785Y-68958341D01*
X111367210Y-68846058D01*
X111287280Y-68752143D01*
X111192251Y-68677589D01*
X111083377Y-68623389D01*
X110961913Y-68590535D01*
X110834944Y-68580000D01*
X110710844Y-68591539D01*
G37*
X110710844Y-68591539D02*
X110597717Y-68625567D01*
X110496997Y-68681200D01*
X110410114Y-68757554D01*
X110338502Y-68853744D01*
X110311849Y-68902841D01*
X110276645Y-68987232D01*
X110252679Y-69071271D01*
X110240232Y-69150841D01*
X110239584Y-69221824D01*
X110251013Y-69280101D01*
X110274801Y-69321556D01*
X110282889Y-69328948D01*
X110292272Y-69335620D01*
X110303463Y-69341028D01*
X110319046Y-69345305D01*
X110341603Y-69348584D01*
X110373718Y-69350997D01*
X110417975Y-69352676D01*
X110476956Y-69353753D01*
X110553244Y-69354361D01*
X110649423Y-69354632D01*
X110768076Y-69354699D01*
X110785646Y-69354700D01*
X111255667Y-69354700D01*
X111248421Y-69450504D01*
X111229790Y-69556042D01*
X111191892Y-69650870D01*
X111136787Y-69731919D01*
X111066540Y-69796122D01*
X110987513Y-69838769D01*
X110939983Y-69854081D01*
X110888713Y-69863148D01*
X110824799Y-69867303D01*
X110792682Y-69867897D01*
X110736858Y-69868057D01*
X110696571Y-69865903D01*
X110663447Y-69859357D01*
X110629111Y-69846341D01*
X110585188Y-69824775D01*
X110554310Y-69808725D01*
X110483430Y-69774490D01*
X110429113Y-69755247D01*
X110387848Y-69750421D01*
X110356124Y-69759441D01*
X110337924Y-69773476D01*
X110310537Y-69815329D01*
X110306459Y-69860428D01*
X110324151Y-69906750D01*
X110362074Y-69952268D01*
X110418691Y-69994960D01*
X110492462Y-70032798D01*
X110551574Y-70054702D01*
X110620775Y-70071034D01*
X110705114Y-70082035D01*
X110795979Y-70087367D01*
X110884758Y-70086691D01*
X110962838Y-70079670D01*
X111000774Y-70072320D01*
X111121844Y-70029385D01*
X111228457Y-69965953D01*
X111319571Y-69883094D01*
X111394144Y-69781877D01*
X111451133Y-69663375D01*
X111476752Y-69583300D01*
X111488692Y-69523631D01*
X111495840Y-69450051D01*
X111498649Y-69357479D01*
X111498730Y-69335650D01*
X111496757Y-69238548D01*
X111490536Y-69161481D01*
X111484293Y-69125960D01*
X111240491Y-69125960D01*
X111236636Y-69140901D01*
X111222552Y-69151401D01*
X111195905Y-69158231D01*
X111154361Y-69162160D01*
X111095586Y-69163960D01*
X111017246Y-69164401D01*
X110917006Y-69164253D01*
X110858300Y-69164200D01*
X110477300Y-69164200D01*
X110477300Y-69132926D01*
X110485133Y-69085075D01*
X110505761Y-69027962D01*
X110534881Y-68971107D01*
X110568191Y-68924032D01*
X110575137Y-68916464D01*
X110646093Y-68861015D01*
X110731876Y-68825818D01*
X110789463Y-68814437D01*
X110854088Y-68812870D01*
X110927898Y-68821615D01*
X110998521Y-68838645D01*
X111042450Y-68855880D01*
X111100815Y-68895497D01*
X111155573Y-68951071D01*
X111198602Y-69013560D01*
X111214022Y-69046789D01*
X111226850Y-69079675D01*
X111236451Y-69105808D01*
X111240491Y-69125960D01*
X111484293Y-69125960D01*
X111479618Y-69099369D01*
X111476752Y-69088000D01*
X111430785Y-68958341D01*
X111367210Y-68846058D01*
X111287280Y-68752143D01*
X111192251Y-68677589D01*
X111083377Y-68623389D01*
X110961913Y-68590535D01*
X110834944Y-68580000D01*
X110710844Y-68591539D01*
G36*
X114868351Y-68590635D02*
G01*
X114754564Y-68623176D01*
X114650528Y-68678578D01*
X114553940Y-68757795D01*
X114545967Y-68765690D01*
X114465384Y-68863938D01*
X114404598Y-68977207D01*
X114363457Y-69105927D01*
X114341805Y-69250531D01*
X114338100Y-69348350D01*
X114347943Y-69498346D01*
X114377082Y-69633740D01*
X114424928Y-69753667D01*
X114490897Y-69857263D01*
X114574402Y-69943665D01*
X114674856Y-70012009D01*
X114791672Y-70061430D01*
X114829631Y-70072388D01*
X114897855Y-70084198D01*
X114979743Y-70089472D01*
X115064871Y-70088227D01*
X115142812Y-70080485D01*
X115185641Y-70071721D01*
X115297268Y-70029096D01*
X115399349Y-69965445D01*
X115487873Y-69884145D01*
X115558828Y-69788572D01*
X115587989Y-69733174D01*
X115620141Y-69656846D01*
X115642310Y-69587502D01*
X115656075Y-69517092D01*
X115663016Y-69437567D01*
X115663917Y-69386822D01*
X115429089Y-69386822D01*
X115415068Y-69498283D01*
X115385345Y-69601280D01*
X115340313Y-69690510D01*
X115324060Y-69713562D01*
X115254496Y-69785220D01*
X115172969Y-69835813D01*
X115082688Y-69864647D01*
X114986861Y-69871028D01*
X114888697Y-69854262D01*
X114811894Y-69824338D01*
X114755223Y-69790685D01*
X114708454Y-69752167D01*
X114694183Y-69736309D01*
X114638257Y-69647801D01*
X114599505Y-69548191D01*
X114577497Y-69441445D01*
X114571807Y-69331528D01*
X114582004Y-69222404D01*
X114607660Y-69118039D01*
X114648347Y-69022398D01*
X114703634Y-68939447D01*
X114773095Y-68873150D01*
X114788707Y-68862200D01*
X114873538Y-68820103D01*
X114962681Y-68801021D01*
X115052633Y-68803800D01*
X115139892Y-68827285D01*
X115220956Y-68870324D01*
X115292323Y-68931763D01*
X115350491Y-69010447D01*
X115372997Y-69054684D01*
X115408447Y-69159719D01*
X115427013Y-69272199D01*
X115429089Y-69386822D01*
X115663917Y-69386822D01*
X115664714Y-69342000D01*
X115658713Y-69210499D01*
X115640588Y-69096724D01*
X115608720Y-68995273D01*
X115561486Y-68900742D01*
X115508938Y-68822986D01*
X115425436Y-68731894D01*
X115327888Y-68661833D01*
X115216916Y-68613096D01*
X115093143Y-68585977D01*
X114994194Y-68580000D01*
X114868351Y-68590635D01*
G37*
X114868351Y-68590635D02*
X114754564Y-68623176D01*
X114650528Y-68678578D01*
X114553940Y-68757795D01*
X114545967Y-68765690D01*
X114465384Y-68863938D01*
X114404598Y-68977207D01*
X114363457Y-69105927D01*
X114341805Y-69250531D01*
X114338100Y-69348350D01*
X114347943Y-69498346D01*
X114377082Y-69633740D01*
X114424928Y-69753667D01*
X114490897Y-69857263D01*
X114574402Y-69943665D01*
X114674856Y-70012009D01*
X114791672Y-70061430D01*
X114829631Y-70072388D01*
X114897855Y-70084198D01*
X114979743Y-70089472D01*
X115064871Y-70088227D01*
X115142812Y-70080485D01*
X115185641Y-70071721D01*
X115297268Y-70029096D01*
X115399349Y-69965445D01*
X115487873Y-69884145D01*
X115558828Y-69788572D01*
X115587989Y-69733174D01*
X115620141Y-69656846D01*
X115642310Y-69587502D01*
X115656075Y-69517092D01*
X115663016Y-69437567D01*
X115663917Y-69386822D01*
X115429089Y-69386822D01*
X115415068Y-69498283D01*
X115385345Y-69601280D01*
X115340313Y-69690510D01*
X115324060Y-69713562D01*
X115254496Y-69785220D01*
X115172969Y-69835813D01*
X115082688Y-69864647D01*
X114986861Y-69871028D01*
X114888697Y-69854262D01*
X114811894Y-69824338D01*
X114755223Y-69790685D01*
X114708454Y-69752167D01*
X114694183Y-69736309D01*
X114638257Y-69647801D01*
X114599505Y-69548191D01*
X114577497Y-69441445D01*
X114571807Y-69331528D01*
X114582004Y-69222404D01*
X114607660Y-69118039D01*
X114648347Y-69022398D01*
X114703634Y-68939447D01*
X114773095Y-68873150D01*
X114788707Y-68862200D01*
X114873538Y-68820103D01*
X114962681Y-68801021D01*
X115052633Y-68803800D01*
X115139892Y-68827285D01*
X115220956Y-68870324D01*
X115292323Y-68931763D01*
X115350491Y-69010447D01*
X115372997Y-69054684D01*
X115408447Y-69159719D01*
X115427013Y-69272199D01*
X115429089Y-69386822D01*
X115663917Y-69386822D01*
X115664714Y-69342000D01*
X115658713Y-69210499D01*
X115640588Y-69096724D01*
X115608720Y-68995273D01*
X115561486Y-68900742D01*
X115508938Y-68822986D01*
X115425436Y-68731894D01*
X115327888Y-68661833D01*
X115216916Y-68613096D01*
X115093143Y-68585977D01*
X114994194Y-68580000D01*
X114868351Y-68590635D01*
G36*
X116389002Y-68081299D02*
G01*
X116281455Y-68105501D01*
X116184314Y-68144517D01*
X116101939Y-68197841D01*
X116064786Y-68232778D01*
X116026910Y-68284768D01*
X116012943Y-68331990D01*
X116022991Y-68373391D01*
X116047963Y-68401278D01*
X116093258Y-68423838D01*
X116145508Y-68424537D01*
X116206756Y-68403187D01*
X116242745Y-68383366D01*
X116330101Y-68340008D01*
X116418182Y-68313797D01*
X116504710Y-68303366D01*
X116587411Y-68307352D01*
X116664006Y-68324390D01*
X116732219Y-68353115D01*
X116789775Y-68392163D01*
X116834396Y-68440169D01*
X116863806Y-68495767D01*
X116875728Y-68557595D01*
X116867887Y-68624287D01*
X116838004Y-68694478D01*
X116816449Y-68727267D01*
X116786708Y-68761141D01*
X116747245Y-68793217D01*
X116695076Y-68825118D01*
X116627221Y-68858466D01*
X116540696Y-68894885D01*
X116433601Y-68935600D01*
X116359457Y-68963736D01*
X116288444Y-68992375D01*
X116226232Y-69019107D01*
X116178493Y-69041522D01*
X116157253Y-69053031D01*
X116058123Y-69127363D01*
X115974665Y-69219343D01*
X115915256Y-69315828D01*
X115895097Y-69357649D01*
X115881757Y-69390677D01*
X115873829Y-69422166D01*
X115869907Y-69459372D01*
X115868584Y-69509550D01*
X115868450Y-69557241D01*
X115868999Y-69623153D01*
X115871363Y-69670609D01*
X115876623Y-69706541D01*
X115885860Y-69737882D01*
X115900154Y-69771564D01*
X115902688Y-69777008D01*
X115961308Y-69872824D01*
X116039567Y-69954307D01*
X116134974Y-70019587D01*
X116245036Y-70066795D01*
X116312950Y-70084811D01*
X116403081Y-70097831D01*
X116505166Y-70102877D01*
X116609407Y-70100099D01*
X116706007Y-70089649D01*
X116763800Y-70077858D01*
X116865167Y-70045318D01*
X116955646Y-70004122D01*
X117032816Y-69956302D01*
X117094257Y-69903891D01*
X117137546Y-69848919D01*
X117160262Y-69793417D01*
X117161090Y-69744568D01*
X117141647Y-69703877D01*
X117105531Y-69674871D01*
X117059969Y-69660627D01*
X117012184Y-69664221D01*
X116991846Y-69672496D01*
X116970266Y-69686238D01*
X116935516Y-69710629D01*
X116894522Y-69740785D01*
X116887906Y-69745774D01*
X116813353Y-69798048D01*
X116747117Y-69833599D01*
X116681264Y-69855228D01*
X116607863Y-69865735D01*
X116541550Y-69868006D01*
X116438367Y-69863650D01*
X116354292Y-69848943D01*
X116284707Y-69822600D01*
X116224995Y-69783334D01*
X116218809Y-69778152D01*
X116162649Y-69714681D01*
X116127932Y-69641420D01*
X116114893Y-69562554D01*
X116123762Y-69482267D01*
X116154773Y-69404744D01*
X116194903Y-69348407D01*
X116223116Y-69318155D01*
X116251573Y-69292818D01*
X116284236Y-69270290D01*
X116325061Y-69248464D01*
X116378007Y-69225235D01*
X116447033Y-69198498D01*
X116536097Y-69166146D01*
X116540490Y-69164578D01*
X116650234Y-69124204D01*
X116739377Y-69088353D01*
X116811866Y-69055020D01*
X116871646Y-69022202D01*
X116922664Y-68987898D01*
X116968868Y-68950102D01*
X116976344Y-68943354D01*
X117043338Y-68869474D01*
X117089293Y-68787425D01*
X117117647Y-68690917D01*
X117119350Y-68681879D01*
X117126155Y-68575980D01*
X117109513Y-68472030D01*
X117071322Y-68373641D01*
X117013481Y-68284426D01*
X116937887Y-68207998D01*
X116846439Y-68147969D01*
X116836091Y-68142811D01*
X116730502Y-68102669D01*
X116617885Y-68079375D01*
X116502599Y-68072421D01*
X116389002Y-68081299D01*
G37*
X116389002Y-68081299D02*
X116281455Y-68105501D01*
X116184314Y-68144517D01*
X116101939Y-68197841D01*
X116064786Y-68232778D01*
X116026910Y-68284768D01*
X116012943Y-68331990D01*
X116022991Y-68373391D01*
X116047963Y-68401278D01*
X116093258Y-68423838D01*
X116145508Y-68424537D01*
X116206756Y-68403187D01*
X116242745Y-68383366D01*
X116330101Y-68340008D01*
X116418182Y-68313797D01*
X116504710Y-68303366D01*
X116587411Y-68307352D01*
X116664006Y-68324390D01*
X116732219Y-68353115D01*
X116789775Y-68392163D01*
X116834396Y-68440169D01*
X116863806Y-68495767D01*
X116875728Y-68557595D01*
X116867887Y-68624287D01*
X116838004Y-68694478D01*
X116816449Y-68727267D01*
X116786708Y-68761141D01*
X116747245Y-68793217D01*
X116695076Y-68825118D01*
X116627221Y-68858466D01*
X116540696Y-68894885D01*
X116433601Y-68935600D01*
X116359457Y-68963736D01*
X116288444Y-68992375D01*
X116226232Y-69019107D01*
X116178493Y-69041522D01*
X116157253Y-69053031D01*
X116058123Y-69127363D01*
X115974665Y-69219343D01*
X115915256Y-69315828D01*
X115895097Y-69357649D01*
X115881757Y-69390677D01*
X115873829Y-69422166D01*
X115869907Y-69459372D01*
X115868584Y-69509550D01*
X115868450Y-69557241D01*
X115868999Y-69623153D01*
X115871363Y-69670609D01*
X115876623Y-69706541D01*
X115885860Y-69737882D01*
X115900154Y-69771564D01*
X115902688Y-69777008D01*
X115961308Y-69872824D01*
X116039567Y-69954307D01*
X116134974Y-70019587D01*
X116245036Y-70066795D01*
X116312950Y-70084811D01*
X116403081Y-70097831D01*
X116505166Y-70102877D01*
X116609407Y-70100099D01*
X116706007Y-70089649D01*
X116763800Y-70077858D01*
X116865167Y-70045318D01*
X116955646Y-70004122D01*
X117032816Y-69956302D01*
X117094257Y-69903891D01*
X117137546Y-69848919D01*
X117160262Y-69793417D01*
X117161090Y-69744568D01*
X117141647Y-69703877D01*
X117105531Y-69674871D01*
X117059969Y-69660627D01*
X117012184Y-69664221D01*
X116991846Y-69672496D01*
X116970266Y-69686238D01*
X116935516Y-69710629D01*
X116894522Y-69740785D01*
X116887906Y-69745774D01*
X116813353Y-69798048D01*
X116747117Y-69833599D01*
X116681264Y-69855228D01*
X116607863Y-69865735D01*
X116541550Y-69868006D01*
X116438367Y-69863650D01*
X116354292Y-69848943D01*
X116284707Y-69822600D01*
X116224995Y-69783334D01*
X116218809Y-69778152D01*
X116162649Y-69714681D01*
X116127932Y-69641420D01*
X116114893Y-69562554D01*
X116123762Y-69482267D01*
X116154773Y-69404744D01*
X116194903Y-69348407D01*
X116223116Y-69318155D01*
X116251573Y-69292818D01*
X116284236Y-69270290D01*
X116325061Y-69248464D01*
X116378007Y-69225235D01*
X116447033Y-69198498D01*
X116536097Y-69166146D01*
X116540490Y-69164578D01*
X116650234Y-69124204D01*
X116739377Y-69088353D01*
X116811866Y-69055020D01*
X116871646Y-69022202D01*
X116922664Y-68987898D01*
X116968868Y-68950102D01*
X116976344Y-68943354D01*
X117043338Y-68869474D01*
X117089293Y-68787425D01*
X117117647Y-68690917D01*
X117119350Y-68681879D01*
X117126155Y-68575980D01*
X117109513Y-68472030D01*
X117071322Y-68373641D01*
X117013481Y-68284426D01*
X116937887Y-68207998D01*
X116846439Y-68147969D01*
X116836091Y-68142811D01*
X116730502Y-68102669D01*
X116617885Y-68079375D01*
X116502599Y-68072421D01*
X116389002Y-68081299D01*
D11*
%TO.C,C1*%
X137920000Y-107809420D02*
X137920000Y-108090580D01*
X138940000Y-107809420D02*
X138940000Y-108090580D01*
%TO.C,C2*%
X162079999Y-70695579D02*
X162079999Y-70414419D01*
X163099999Y-70695579D02*
X163099999Y-70414419D01*
%TO.C,C3*%
X163070000Y-67450580D02*
X163070000Y-67169420D01*
X162050000Y-67450580D02*
X162050000Y-67169420D01*
%TO.C,C4*%
X150354420Y-106805000D02*
X150635580Y-106805000D01*
X150354420Y-107825000D02*
X150635580Y-107825000D01*
%TO.C,C5*%
X129680580Y-66550000D02*
X129399420Y-66550000D01*
X129680580Y-65530000D02*
X129399420Y-65530000D01*
%TO.C,C6*%
X173849420Y-66550000D02*
X174130580Y-66550000D01*
X173849420Y-65530000D02*
X174130580Y-65530000D01*
%TO.C,J1*%
X114625000Y-113200000D02*
X114625000Y-112750000D01*
X121595000Y-113200000D02*
X114625000Y-113200000D01*
X121595000Y-112750000D02*
X121595000Y-113200000D01*
X114625000Y-108780000D02*
X115575000Y-108780000D01*
X114625000Y-109230000D02*
X114625000Y-108780000D01*
X120645000Y-108780000D02*
X120645000Y-107290000D01*
X121595000Y-108780000D02*
X120645000Y-108780000D01*
X121595000Y-109230000D02*
X121595000Y-108780000D01*
%TO.C,J2*%
X133660000Y-109230000D02*
X133660000Y-108780000D01*
X133660000Y-108780000D02*
X132710000Y-108780000D01*
X132710000Y-108780000D02*
X132710000Y-107290000D01*
X126690000Y-109230000D02*
X126690000Y-108780000D01*
X126690000Y-108780000D02*
X127640000Y-108780000D01*
X133660000Y-112750000D02*
X133660000Y-113200000D01*
X133660000Y-113200000D02*
X126690000Y-113200000D01*
X126690000Y-113200000D02*
X126690000Y-112750000D01*
%TO.C,R1*%
X163082500Y-73897258D02*
X163082500Y-73422742D01*
X162037500Y-73897258D02*
X162037500Y-73422742D01*
D12*
%TO.C,S1*%
X131100000Y-64780000D02*
X135600000Y-64780000D01*
X131100000Y-59680000D02*
X135600000Y-59680000D01*
D13*
X137700000Y-60355000D02*
G75*
G03*
X137700000Y-60355000I-100000J0D01*
G01*
D12*
X135900000Y-61050000D02*
X135900000Y-63410000D01*
X130800000Y-63410000D02*
X130800000Y-61050000D01*
%TO.C,S2*%
X167630000Y-63410000D02*
X167630000Y-61050000D01*
X172730000Y-61050000D02*
X172730000Y-63410000D01*
D13*
X174530000Y-60355000D02*
G75*
G03*
X174530000Y-60355000I-100000J0D01*
G01*
D12*
X167930000Y-59680000D02*
X172430000Y-59680000D01*
X167930000Y-64780000D02*
X172430000Y-64780000D01*
D11*
%TO.C,U1*%
X160885000Y-84030000D02*
X160885000Y-84810000D01*
X160885000Y-84810000D02*
X159885000Y-84810000D01*
X142645000Y-84030000D02*
X142645000Y-84810000D01*
X142645000Y-84810000D02*
X143645000Y-84810000D01*
X160885000Y-59065000D02*
X142645000Y-59065000D01*
X142645000Y-59065000D02*
X142645000Y-65485000D01*
X160885000Y-59065000D02*
X160885000Y-65485000D01*
X160885000Y-65485000D02*
X161265000Y-65485000D01*
%TO.C,U2*%
X146030000Y-106445000D02*
X146030000Y-107705000D01*
X146030000Y-113265000D02*
X146030000Y-112005000D01*
X142270000Y-106445000D02*
X146030000Y-106445000D01*
X140020000Y-113265000D02*
X146030000Y-113265000D01*
%TO.C,C1*%
D14*
X138787142Y-110323333D02*
X138834761Y-110275714D01*
X138882380Y-110132857D01*
X138882380Y-110037619D01*
X138834761Y-109894761D01*
X138739523Y-109799523D01*
X138644285Y-109751904D01*
X138453809Y-109704285D01*
X138310952Y-109704285D01*
X138120476Y-109751904D01*
X138025238Y-109799523D01*
X137930000Y-109894761D01*
X137882380Y-110037619D01*
X137882380Y-110132857D01*
X137930000Y-110275714D01*
X137977619Y-110323333D01*
X138882380Y-111275714D02*
X138882380Y-110704285D01*
X138882380Y-110990000D02*
X137882380Y-110990000D01*
X138025238Y-110894761D01*
X138120476Y-110799523D01*
X138168095Y-110704285D01*
%TO.C,C2*%
X164377141Y-70388332D02*
X164424760Y-70340713D01*
X164472379Y-70197856D01*
X164472379Y-70102618D01*
X164424760Y-69959760D01*
X164329522Y-69864522D01*
X164234284Y-69816903D01*
X164043808Y-69769284D01*
X163900951Y-69769284D01*
X163710475Y-69816903D01*
X163615237Y-69864522D01*
X163519999Y-69959760D01*
X163472379Y-70102618D01*
X163472379Y-70197856D01*
X163519999Y-70340713D01*
X163567618Y-70388332D01*
X163567618Y-70769284D02*
X163519999Y-70816903D01*
X163472379Y-70912141D01*
X163472379Y-71150237D01*
X163519999Y-71245475D01*
X163567618Y-71293094D01*
X163662856Y-71340713D01*
X163758094Y-71340713D01*
X163900951Y-71293094D01*
X164472379Y-70721665D01*
X164472379Y-71340713D01*
%TO.C,C3*%
X164347142Y-67143333D02*
X164394761Y-67095714D01*
X164442380Y-66952857D01*
X164442380Y-66857619D01*
X164394761Y-66714761D01*
X164299523Y-66619523D01*
X164204285Y-66571904D01*
X164013809Y-66524285D01*
X163870952Y-66524285D01*
X163680476Y-66571904D01*
X163585238Y-66619523D01*
X163490000Y-66714761D01*
X163442380Y-66857619D01*
X163442380Y-66952857D01*
X163490000Y-67095714D01*
X163537619Y-67143333D01*
X163442380Y-67476666D02*
X163442380Y-68095714D01*
X163823333Y-67762380D01*
X163823333Y-67905238D01*
X163870952Y-68000476D01*
X163918571Y-68048095D01*
X164013809Y-68095714D01*
X164251904Y-68095714D01*
X164347142Y-68048095D01*
X164394761Y-68000476D01*
X164442380Y-67905238D01*
X164442380Y-67619523D01*
X164394761Y-67524285D01*
X164347142Y-67476666D01*
%TO.C,C4*%
X150661666Y-106402142D02*
X150709285Y-106449761D01*
X150852142Y-106497380D01*
X150947380Y-106497380D01*
X151090238Y-106449761D01*
X151185476Y-106354523D01*
X151233095Y-106259285D01*
X151280714Y-106068809D01*
X151280714Y-105925952D01*
X151233095Y-105735476D01*
X151185476Y-105640238D01*
X151090238Y-105545000D01*
X150947380Y-105497380D01*
X150852142Y-105497380D01*
X150709285Y-105545000D01*
X150661666Y-105592619D01*
X149804523Y-105830714D02*
X149804523Y-106497380D01*
X150042619Y-105449761D02*
X150280714Y-106164047D01*
X149661666Y-106164047D01*
%TO.C,C5*%
X129706666Y-67794142D02*
X129754285Y-67841761D01*
X129897142Y-67889380D01*
X129992380Y-67889380D01*
X130135238Y-67841761D01*
X130230476Y-67746523D01*
X130278095Y-67651285D01*
X130325714Y-67460809D01*
X130325714Y-67317952D01*
X130278095Y-67127476D01*
X130230476Y-67032238D01*
X130135238Y-66937000D01*
X129992380Y-66889380D01*
X129897142Y-66889380D01*
X129754285Y-66937000D01*
X129706666Y-66984619D01*
X128801904Y-66889380D02*
X129278095Y-66889380D01*
X129325714Y-67365571D01*
X129278095Y-67317952D01*
X129182857Y-67270333D01*
X128944761Y-67270333D01*
X128849523Y-67317952D01*
X128801904Y-67365571D01*
X128754285Y-67460809D01*
X128754285Y-67698904D01*
X128801904Y-67794142D01*
X128849523Y-67841761D01*
X128944761Y-67889380D01*
X129182857Y-67889380D01*
X129278095Y-67841761D01*
X129325714Y-67794142D01*
%TO.C,C6*%
X174156666Y-67827142D02*
X174204285Y-67874761D01*
X174347142Y-67922380D01*
X174442380Y-67922380D01*
X174585238Y-67874761D01*
X174680476Y-67779523D01*
X174728095Y-67684285D01*
X174775714Y-67493809D01*
X174775714Y-67350952D01*
X174728095Y-67160476D01*
X174680476Y-67065238D01*
X174585238Y-66970000D01*
X174442380Y-66922380D01*
X174347142Y-66922380D01*
X174204285Y-66970000D01*
X174156666Y-67017619D01*
X173299523Y-66922380D02*
X173490000Y-66922380D01*
X173585238Y-66970000D01*
X173632857Y-67017619D01*
X173728095Y-67160476D01*
X173775714Y-67350952D01*
X173775714Y-67731904D01*
X173728095Y-67827142D01*
X173680476Y-67874761D01*
X173585238Y-67922380D01*
X173394761Y-67922380D01*
X173299523Y-67874761D01*
X173251904Y-67827142D01*
X173204285Y-67731904D01*
X173204285Y-67493809D01*
X173251904Y-67398571D01*
X173299523Y-67350952D01*
X173394761Y-67303333D01*
X173585238Y-67303333D01*
X173680476Y-67350952D01*
X173728095Y-67398571D01*
X173775714Y-67493809D01*
%TO.C,J1*%
X118443333Y-105542380D02*
X118443333Y-106256666D01*
X118490952Y-106399523D01*
X118586190Y-106494761D01*
X118729047Y-106542380D01*
X118824285Y-106542380D01*
X117443333Y-106542380D02*
X118014761Y-106542380D01*
X117729047Y-106542380D02*
X117729047Y-105542380D01*
X117824285Y-105685238D01*
X117919523Y-105780476D01*
X118014761Y-105828095D01*
X120752857Y-113742380D02*
X120752857Y-114551904D01*
X120705238Y-114647142D01*
X120657619Y-114694761D01*
X120562380Y-114742380D01*
X120371904Y-114742380D01*
X120276666Y-114694761D01*
X120229047Y-114647142D01*
X120181428Y-114551904D01*
X120181428Y-113742380D01*
X119705238Y-114742380D02*
X119705238Y-113742380D01*
X119324285Y-113742380D01*
X119229047Y-113790000D01*
X119181428Y-113837619D01*
X119133809Y-113932857D01*
X119133809Y-114075714D01*
X119181428Y-114170952D01*
X119229047Y-114218571D01*
X119324285Y-114266190D01*
X119705238Y-114266190D01*
X118229047Y-114742380D02*
X118705238Y-114742380D01*
X118705238Y-113742380D01*
X117705238Y-113742380D02*
X117514761Y-113742380D01*
X117419523Y-113790000D01*
X117324285Y-113885238D01*
X117276666Y-114075714D01*
X117276666Y-114409047D01*
X117324285Y-114599523D01*
X117419523Y-114694761D01*
X117514761Y-114742380D01*
X117705238Y-114742380D01*
X117800476Y-114694761D01*
X117895714Y-114599523D01*
X117943333Y-114409047D01*
X117943333Y-114075714D01*
X117895714Y-113885238D01*
X117800476Y-113790000D01*
X117705238Y-113742380D01*
X116895714Y-114456666D02*
X116419523Y-114456666D01*
X116990952Y-114742380D02*
X116657619Y-113742380D01*
X116324285Y-114742380D01*
X115990952Y-114742380D02*
X115990952Y-113742380D01*
X115752857Y-113742380D01*
X115609999Y-113790000D01*
X115514761Y-113885238D01*
X115467142Y-113980476D01*
X115419523Y-114170952D01*
X115419523Y-114313809D01*
X115467142Y-114504285D01*
X115514761Y-114599523D01*
X115609999Y-114694761D01*
X115752857Y-114742380D01*
X115990952Y-114742380D01*
%TO.C,J2*%
X130508333Y-105542380D02*
X130508333Y-106256666D01*
X130555952Y-106399523D01*
X130651190Y-106494761D01*
X130794047Y-106542380D01*
X130889285Y-106542380D01*
X130079761Y-105637619D02*
X130032142Y-105590000D01*
X129936904Y-105542380D01*
X129698809Y-105542380D01*
X129603571Y-105590000D01*
X129555952Y-105637619D01*
X129508333Y-105732857D01*
X129508333Y-105828095D01*
X129555952Y-105970952D01*
X130127380Y-106542380D01*
X129508333Y-106542380D01*
X131532142Y-114647142D02*
X131579761Y-114694761D01*
X131722619Y-114742380D01*
X131817857Y-114742380D01*
X131960714Y-114694761D01*
X132055952Y-114599523D01*
X132103571Y-114504285D01*
X132151190Y-114313809D01*
X132151190Y-114170952D01*
X132103571Y-113980476D01*
X132055952Y-113885238D01*
X131960714Y-113790000D01*
X131817857Y-113742380D01*
X131722619Y-113742380D01*
X131579761Y-113790000D01*
X131532142Y-113837619D01*
X130913095Y-113742380D02*
X130722619Y-113742380D01*
X130627380Y-113790000D01*
X130532142Y-113885238D01*
X130484523Y-114075714D01*
X130484523Y-114409047D01*
X130532142Y-114599523D01*
X130627380Y-114694761D01*
X130722619Y-114742380D01*
X130913095Y-114742380D01*
X131008333Y-114694761D01*
X131103571Y-114599523D01*
X131151190Y-114409047D01*
X131151190Y-114075714D01*
X131103571Y-113885238D01*
X131008333Y-113790000D01*
X130913095Y-113742380D01*
X130055952Y-114742380D02*
X130055952Y-113742380D01*
X129722619Y-114456666D01*
X129389285Y-113742380D01*
X129389285Y-114742380D01*
X128913095Y-114742380D02*
X128913095Y-113742380D01*
X128579761Y-114456666D01*
X128246428Y-113742380D01*
X128246428Y-114742380D01*
%TO.C,R1*%
X164442380Y-73493333D02*
X163966190Y-73160000D01*
X164442380Y-72921904D02*
X163442380Y-72921904D01*
X163442380Y-73302857D01*
X163490000Y-73398095D01*
X163537619Y-73445714D01*
X163632857Y-73493333D01*
X163775714Y-73493333D01*
X163870952Y-73445714D01*
X163918571Y-73398095D01*
X163966190Y-73302857D01*
X163966190Y-72921904D01*
X164442380Y-74445714D02*
X164442380Y-73874285D01*
X164442380Y-74160000D02*
X163442380Y-74160000D01*
X163585238Y-74064761D01*
X163680476Y-73969523D01*
X163728095Y-73874285D01*
%TO.C,S1*%
X134111904Y-66444761D02*
X133969047Y-66492380D01*
X133730952Y-66492380D01*
X133635714Y-66444761D01*
X133588095Y-66397142D01*
X133540476Y-66301904D01*
X133540476Y-66206666D01*
X133588095Y-66111428D01*
X133635714Y-66063809D01*
X133730952Y-66016190D01*
X133921428Y-65968571D01*
X134016666Y-65920952D01*
X134064285Y-65873333D01*
X134111904Y-65778095D01*
X134111904Y-65682857D01*
X134064285Y-65587619D01*
X134016666Y-65540000D01*
X133921428Y-65492380D01*
X133683333Y-65492380D01*
X133540476Y-65540000D01*
X132588095Y-66492380D02*
X133159523Y-66492380D01*
X132873809Y-66492380D02*
X132873809Y-65492380D01*
X132969047Y-65635238D01*
X133064285Y-65730476D01*
X133159523Y-65778095D01*
%TO.C,S2*%
X170941904Y-66444761D02*
X170799047Y-66492380D01*
X170560952Y-66492380D01*
X170465714Y-66444761D01*
X170418095Y-66397142D01*
X170370476Y-66301904D01*
X170370476Y-66206666D01*
X170418095Y-66111428D01*
X170465714Y-66063809D01*
X170560952Y-66016190D01*
X170751428Y-65968571D01*
X170846666Y-65920952D01*
X170894285Y-65873333D01*
X170941904Y-65778095D01*
X170941904Y-65682857D01*
X170894285Y-65587619D01*
X170846666Y-65540000D01*
X170751428Y-65492380D01*
X170513333Y-65492380D01*
X170370476Y-65540000D01*
X169989523Y-65587619D02*
X169941904Y-65540000D01*
X169846666Y-65492380D01*
X169608571Y-65492380D01*
X169513333Y-65540000D01*
X169465714Y-65587619D01*
X169418095Y-65682857D01*
X169418095Y-65778095D01*
X169465714Y-65920952D01*
X170037142Y-66492380D01*
X169418095Y-66492380D01*
%TO.C,U1*%
X161827380Y-82598095D02*
X162636904Y-82598095D01*
X162732142Y-82645714D01*
X162779761Y-82693333D01*
X162827380Y-82788571D01*
X162827380Y-82979047D01*
X162779761Y-83074285D01*
X162732142Y-83121904D01*
X162636904Y-83169523D01*
X161827380Y-83169523D01*
X162827380Y-84169523D02*
X162827380Y-83598095D01*
X162827380Y-83883809D02*
X161827380Y-83883809D01*
X161970238Y-83788571D01*
X162065476Y-83693333D01*
X162113095Y-83598095D01*
%TO.C,U2*%
X144881904Y-113807380D02*
X144881904Y-114616904D01*
X144834285Y-114712142D01*
X144786666Y-114759761D01*
X144691428Y-114807380D01*
X144500952Y-114807380D01*
X144405714Y-114759761D01*
X144358095Y-114712142D01*
X144310476Y-114616904D01*
X144310476Y-113807380D01*
X143881904Y-113902619D02*
X143834285Y-113855000D01*
X143739047Y-113807380D01*
X143500952Y-113807380D01*
X143405714Y-113855000D01*
X143358095Y-113902619D01*
X143310476Y-113997857D01*
X143310476Y-114093095D01*
X143358095Y-114235952D01*
X143929523Y-114807380D01*
X143310476Y-114807380D01*
%TD*%
M02*
